<?xml version="1.0" encoding="utf-8"?>
<!-- Generator: Adobe Illustrator 16.0.3, SVG Export Plug-In . SVG Version: 6.00 Build 0)  -->
<!DOCTYPE svg PUBLIC "-//W3C//DTD SVG 1.1//EN" "http://www.w3.org/Graphics/SVG/1.1/DTD/svg11.dtd">
<svg version="1.1" id="Layer_1" xmlns="http://www.w3.org/2000/svg" xmlns:xlink="http://www.w3.org/1999/xlink" x="0px" y="0px"
	 width="537.753px" height="242.467px" viewBox="28.762 368.199 537.753 242.467"
	 enable-background="new 28.762 368.199 537.753 242.467" xml:space="preserve">
<g>
	<path fill-opacity="0" d="M29.762,382.22h535.753v227.446H29.762V382.22z"/>
	<path fill="none" stroke="#535353" stroke-width="2" stroke-linejoin="round" stroke-miterlimit="10" stroke-dasharray="8,6" d="
		M29.762,382.22h535.753v227.446H29.762V382.22z"/>
	<path fill="#FFFFFF" d="M244.832,369.199h87.515v22.573h-87.515V369.199z"/>
	<path fill="none" stroke="#535353" stroke-width="2" stroke-linejoin="round" stroke-miterlimit="10" d="M244.832,369.199h87.515
		v22.573h-87.515V369.199z"/>
	<path d="M278.742,379.49c0,0.129-0.003,0.239-0.01,0.33c0,0.084-0.01,0.152-0.029,0.203c-0.019,0.052-0.042,0.091-0.068,0.117
		c-0.025,0.025-0.061,0.039-0.106,0.039c-0.052,0-0.11-0.013-0.174-0.039c-0.064-0.026-0.142-0.052-0.232-0.078
		c-0.084-0.026-0.178-0.052-0.281-0.078c-0.103-0.026-0.216-0.039-0.339-0.039c-0.148,0-0.294,0.029-0.436,0.087
		c-0.136,0.058-0.284,0.155-0.446,0.291c-0.155,0.136-0.316,0.317-0.484,0.543c-0.168,0.22-0.355,0.491-0.562,0.813v5.193
		c0,0.052-0.013,0.094-0.039,0.126c-0.02,0.032-0.055,0.062-0.106,0.087c-0.052,0.019-0.126,0.032-0.223,0.039
		c-0.09,0.013-0.21,0.02-0.358,0.02c-0.142,0-0.262-0.007-0.358-0.02c-0.09-0.006-0.165-0.02-0.223-0.039
		c-0.051-0.026-0.087-0.055-0.106-0.087s-0.029-0.074-0.029-0.126v-7.896c0-0.051,0.006-0.093,0.019-0.126
		c0.02-0.032,0.055-0.061,0.107-0.087c0.051-0.026,0.119-0.042,0.203-0.048c0.084-0.007,0.194-0.01,0.33-0.01
		c0.129,0,0.236,0.003,0.32,0.01c0.084,0.006,0.148,0.022,0.194,0.048c0.045,0.026,0.077,0.055,0.097,0.087
		c0.026,0.033,0.039,0.075,0.039,0.126v1.144c0.213-0.316,0.414-0.572,0.601-0.766c0.193-0.2,0.375-0.355,0.542-0.465
		c0.174-0.116,0.342-0.197,0.504-0.242c0.168-0.045,0.339-0.068,0.513-0.068c0.071,0,0.155,0.006,0.252,0.019
		c0.097,0.007,0.197,0.023,0.3,0.049c0.11,0.019,0.207,0.045,0.291,0.077c0.084,0.026,0.142,0.055,0.174,0.087
		c0.039,0.026,0.064,0.052,0.077,0.078c0.013,0.026,0.023,0.062,0.029,0.106c0.006,0.039,0.01,0.097,0.01,0.174
		C278.739,379.248,278.742,379.354,278.742,379.49z M287.814,382.833c0,0.646-0.084,1.24-0.252,1.783s-0.423,1.011-0.765,1.405
		c-0.336,0.388-0.756,0.691-1.26,0.911s-1.092,0.33-1.763,0.33c-0.646,0-1.211-0.097-1.696-0.291
		c-0.484-0.194-0.888-0.475-1.211-0.843c-0.316-0.368-0.556-0.813-0.717-1.337c-0.155-0.53-0.232-1.127-0.232-1.792
		c0-0.646,0.081-1.24,0.242-1.783c0.168-0.542,0.42-1.008,0.756-1.395c0.336-0.394,0.756-0.698,1.26-0.911
		c0.503-0.22,1.095-0.33,1.773-0.33c0.646,0,1.211,0.097,1.695,0.291s0.885,0.475,1.202,0.843c0.323,0.368,0.565,0.817,0.727,1.347
		C287.734,381.583,287.814,382.174,287.814,382.833z M286.293,382.93c0-0.426-0.042-0.83-0.126-1.211
		c-0.078-0.381-0.207-0.714-0.388-0.998c-0.181-0.284-0.426-0.51-0.736-0.678s-0.698-0.252-1.163-0.252
		c-0.426,0-0.794,0.078-1.104,0.232c-0.304,0.149-0.556,0.362-0.756,0.64s-0.349,0.607-0.446,0.988
		c-0.097,0.381-0.145,0.798-0.145,1.25c0,0.433,0.039,0.839,0.116,1.221c0.084,0.381,0.216,0.714,0.397,0.998
		c0.188,0.284,0.436,0.51,0.746,0.678c0.31,0.161,0.698,0.242,1.163,0.242c0.42,0,0.785-0.074,1.095-0.223
		c0.31-0.155,0.565-0.368,0.765-0.639c0.2-0.278,0.346-0.607,0.436-0.988C286.245,383.808,286.293,383.388,286.293,382.93z
		 M297.405,382.833c0,0.646-0.084,1.24-0.252,1.783s-0.423,1.011-0.766,1.405c-0.336,0.388-0.755,0.691-1.259,0.911
		s-1.092,0.33-1.764,0.33c-0.646,0-1.211-0.097-1.695-0.291c-0.484-0.194-0.888-0.475-1.211-0.843
		c-0.317-0.368-0.556-0.813-0.717-1.337c-0.155-0.53-0.232-1.127-0.232-1.792c0-0.646,0.081-1.24,0.242-1.783
		c0.168-0.542,0.42-1.008,0.756-1.395c0.336-0.394,0.755-0.698,1.259-0.911c0.504-0.22,1.095-0.33,1.773-0.33
		c0.646,0,1.211,0.097,1.695,0.291s0.885,0.475,1.202,0.843c0.323,0.368,0.565,0.817,0.727,1.347
		C297.324,381.583,297.405,382.174,297.405,382.833z M295.884,382.93c0-0.426-0.042-0.83-0.126-1.211
		c-0.078-0.381-0.207-0.714-0.388-0.998c-0.181-0.284-0.426-0.51-0.736-0.678s-0.698-0.252-1.163-0.252
		c-0.426,0-0.794,0.078-1.104,0.232c-0.304,0.149-0.556,0.362-0.756,0.64s-0.349,0.607-0.446,0.988
		c-0.097,0.381-0.146,0.798-0.146,1.25c0,0.433,0.039,0.839,0.117,1.221c0.084,0.381,0.216,0.714,0.397,0.998
		c0.188,0.284,0.436,0.51,0.746,0.678c0.31,0.161,0.698,0.242,1.163,0.242c0.42,0,0.785-0.074,1.095-0.223
		c0.31-0.155,0.565-0.368,0.766-0.639c0.2-0.278,0.346-0.607,0.436-0.988C295.835,383.808,295.884,383.388,295.884,382.93z
		 M303.759,386.301c0,0.168-0.014,0.304-0.039,0.407c-0.02,0.097-0.055,0.168-0.107,0.213c-0.045,0.045-0.115,0.091-0.213,0.136
		c-0.09,0.039-0.197,0.071-0.318,0.097c-0.117,0.025-0.242,0.045-0.379,0.058c-0.135,0.019-0.271,0.029-0.406,0.029
		c-0.408,0-0.76-0.052-1.057-0.155c-0.291-0.11-0.529-0.275-0.717-0.494c-0.188-0.22-0.322-0.498-0.406-0.833
		s-0.127-0.733-0.127-1.191v-4.622h-1.104c-0.092,0-0.162-0.045-0.215-0.136c-0.051-0.097-0.076-0.249-0.076-0.456
		c0-0.116,0.006-0.21,0.02-0.281c0.012-0.078,0.031-0.142,0.057-0.194c0.027-0.052,0.057-0.087,0.088-0.106
		c0.039-0.02,0.084-0.029,0.137-0.029h1.094v-1.879c0-0.039,0.01-0.075,0.029-0.107c0.02-0.039,0.059-0.071,0.115-0.097
		c0.059-0.026,0.133-0.045,0.225-0.058c0.096-0.013,0.213-0.02,0.348-0.02c0.148,0,0.268,0.006,0.359,0.02
		c0.096,0.013,0.17,0.032,0.223,0.058c0.051,0.026,0.09,0.058,0.115,0.097c0.027,0.032,0.039,0.068,0.039,0.107v1.879h2.025
		c0.045,0,0.084,0.01,0.115,0.029c0.039,0.019,0.072,0.055,0.098,0.106s0.045,0.116,0.059,0.194c0.012,0.071,0.02,0.165,0.02,0.281
		c0,0.207-0.029,0.358-0.088,0.456c-0.051,0.09-0.119,0.136-0.203,0.136h-2.025v4.408c0,0.549,0.078,0.962,0.232,1.24
		c0.162,0.278,0.453,0.417,0.873,0.417c0.135,0,0.254-0.013,0.357-0.039c0.104-0.032,0.197-0.062,0.281-0.087
		c0.084-0.032,0.154-0.062,0.213-0.087c0.059-0.026,0.109-0.039,0.156-0.039c0.025,0,0.051,0.01,0.076,0.029
		c0.033,0.013,0.055,0.039,0.068,0.077c0.014,0.039,0.025,0.094,0.039,0.165C303.751,386.101,303.759,386.192,303.759,386.301z"/>
	<path fill="#FFFFFF" d="M94.168,514.643h110.775v28.808H94.168V514.643z"/>
	<path fill="none" stroke="#535353" stroke-width="2" stroke-linejoin="round" stroke-miterlimit="10" d="M94.168,514.643h110.775
		v28.808H94.168V514.643z"/>
	<path d="M132.499,535.036c0,0.104-0.006,0.194-0.02,0.271c-0.006,0.077-0.026,0.146-0.058,0.203
		c-0.026,0.052-0.058,0.091-0.097,0.116c-0.039,0.02-0.081,0.029-0.126,0.029h-5.455c-0.135,0-0.265-0.045-0.387-0.136
		c-0.116-0.09-0.174-0.248-0.174-0.475v-10.135c0-0.232,0.058-0.394,0.174-0.484c0.123-0.09,0.252-0.136,0.387-0.136h5.387
		c0.052,0,0.094,0.014,0.126,0.039c0.039,0.026,0.071,0.064,0.097,0.116s0.045,0.116,0.058,0.194c0.013,0.077,0.02,0.174,0.02,0.29
		c0,0.11-0.006,0.204-0.02,0.281c-0.013,0.077-0.032,0.142-0.058,0.193s-0.058,0.091-0.097,0.116
		c-0.032,0.02-0.074,0.029-0.126,0.029h-4.438v3.565h3.808c0.045,0,0.087,0.013,0.126,0.039c0.039,0.025,0.071,0.062,0.097,0.106
		c0.025,0.045,0.045,0.11,0.058,0.194c0.013,0.083,0.019,0.181,0.019,0.29c0,0.104-0.006,0.194-0.019,0.271
		c-0.013,0.077-0.033,0.139-0.058,0.184c-0.026,0.046-0.058,0.081-0.097,0.107c-0.039,0.019-0.081,0.028-0.126,0.028h-3.808v4.06
		h4.505c0.045,0,0.087,0.014,0.126,0.039c0.039,0.025,0.071,0.064,0.097,0.116c0.032,0.045,0.052,0.11,0.058,0.194
		C132.492,534.823,132.499,534.92,132.499,535.036z M141.698,535.434c0,0.052-0.013,0.094-0.039,0.126
		c-0.019,0.032-0.058,0.062-0.116,0.087c-0.052,0.02-0.126,0.032-0.223,0.039c-0.09,0.013-0.204,0.02-0.339,0.02
		c-0.148,0-0.271-0.007-0.368-0.02c-0.09-0.007-0.161-0.02-0.213-0.039c-0.052-0.025-0.09-0.055-0.116-0.087
		s-0.039-0.074-0.039-0.126v-4.621c0-0.453-0.035-0.814-0.106-1.086c-0.064-0.277-0.165-0.517-0.3-0.717s-0.31-0.352-0.523-0.455
		c-0.213-0.104-0.461-0.155-0.746-0.155c-0.362,0-0.724,0.129-1.085,0.388c-0.362,0.252-0.743,0.627-1.143,1.124v5.522
		c0,0.052-0.013,0.094-0.039,0.126c-0.019,0.032-0.055,0.062-0.106,0.087c-0.052,0.02-0.126,0.032-0.223,0.039
		c-0.091,0.013-0.21,0.02-0.359,0.02c-0.142,0-0.261-0.007-0.358-0.02c-0.09-0.007-0.165-0.02-0.223-0.039
		c-0.052-0.025-0.087-0.055-0.106-0.087c-0.02-0.032-0.029-0.074-0.029-0.126v-7.896c0-0.052,0.006-0.094,0.02-0.126
		c0.02-0.032,0.055-0.062,0.106-0.087c0.052-0.026,0.12-0.042,0.204-0.049c0.084-0.006,0.194-0.01,0.329-0.01
		c0.129,0,0.236,0.004,0.32,0.01c0.084,0.007,0.148,0.022,0.194,0.049c0.045,0.025,0.078,0.055,0.097,0.087
		c0.025,0.032,0.039,0.074,0.039,0.126v1.047c0.446-0.498,0.888-0.862,1.327-1.096c0.439-0.232,0.885-0.349,1.337-0.349
		c0.529,0,0.972,0.091,1.327,0.271c0.362,0.175,0.652,0.413,0.872,0.717c0.226,0.298,0.388,0.646,0.484,1.047
		s0.146,0.882,0.146,1.443V535.434z M151.049,527.896c0,0.207-0.029,0.355-0.087,0.446c-0.051,0.09-0.123,0.135-0.213,0.135h-1.134
		c0.207,0.207,0.352,0.439,0.436,0.698c0.084,0.252,0.126,0.517,0.126,0.794c0,0.452-0.074,0.856-0.223,1.211
		c-0.148,0.35-0.358,0.646-0.63,0.892c-0.271,0.239-0.594,0.423-0.969,0.553c-0.375,0.129-0.792,0.193-1.25,0.193
		c-0.323,0-0.63-0.042-0.92-0.126c-0.284-0.084-0.507-0.19-0.668-0.319c-0.104,0.104-0.19,0.223-0.262,0.358
		c-0.064,0.136-0.097,0.291-0.097,0.465c0,0.207,0.093,0.378,0.281,0.514c0.194,0.136,0.449,0.207,0.766,0.213l2.063,0.097
		c0.394,0.007,0.752,0.059,1.076,0.155c0.329,0.097,0.613,0.236,0.853,0.417c0.239,0.181,0.426,0.4,0.562,0.658
		c0.136,0.259,0.203,0.563,0.203,0.911c0,0.361-0.077,0.704-0.232,1.027c-0.148,0.329-0.381,0.616-0.697,0.862
		c-0.31,0.252-0.708,0.448-1.192,0.591c-0.484,0.148-1.06,0.223-1.725,0.223c-0.64,0-1.182-0.055-1.628-0.165
		c-0.445-0.109-0.813-0.258-1.104-0.445c-0.284-0.188-0.491-0.41-0.62-0.668c-0.129-0.259-0.194-0.543-0.194-0.854
		c0-0.187,0.023-0.374,0.068-0.562c0.052-0.181,0.123-0.352,0.213-0.514c0.097-0.161,0.216-0.316,0.358-0.465
		c0.148-0.155,0.316-0.304,0.504-0.445c-0.291-0.149-0.504-0.333-0.64-0.553c-0.136-0.226-0.203-0.469-0.203-0.727
		c0-0.355,0.071-0.672,0.213-0.949c0.148-0.284,0.333-0.536,0.552-0.756c-0.181-0.22-0.326-0.465-0.436-0.736
		c-0.103-0.271-0.155-0.601-0.155-0.988c0-0.452,0.074-0.856,0.223-1.211c0.155-0.355,0.365-0.656,0.63-0.901
		c0.271-0.245,0.594-0.433,0.969-0.562c0.381-0.136,0.794-0.204,1.24-0.204c0.239,0,0.462,0.013,0.668,0.039
		c0.213,0.025,0.41,0.062,0.591,0.106h2.383c0.104,0,0.178,0.049,0.223,0.146C151.023,527.547,151.049,527.695,151.049,527.896z
		 M148.782,529.979c0-0.542-0.148-0.962-0.446-1.26c-0.291-0.303-0.707-0.455-1.25-0.455c-0.284,0-0.529,0.049-0.736,0.146
		c-0.207,0.091-0.381,0.22-0.523,0.388c-0.136,0.161-0.239,0.349-0.31,0.562c-0.064,0.214-0.097,0.437-0.097,0.669
		c0,0.523,0.149,0.934,0.446,1.23c0.297,0.297,0.71,0.445,1.24,0.445c0.291,0,0.54-0.045,0.746-0.136
		c0.213-0.09,0.388-0.216,0.523-0.378c0.142-0.161,0.246-0.345,0.31-0.552C148.75,530.425,148.782,530.205,148.782,529.979z
		 M149.519,536.237c0-0.342-0.142-0.604-0.426-0.784c-0.278-0.188-0.652-0.288-1.124-0.301l-2.044-0.067
		c-0.187,0.148-0.342,0.29-0.465,0.426c-0.116,0.13-0.21,0.252-0.281,0.368c-0.071,0.123-0.119,0.242-0.145,0.358
		s-0.039,0.236-0.039,0.359c0,0.381,0.191,0.668,0.572,0.862c0.388,0.2,0.927,0.3,1.618,0.3c0.439,0,0.807-0.045,1.104-0.136
		c0.297-0.084,0.536-0.197,0.717-0.339c0.181-0.136,0.31-0.294,0.388-0.475C149.477,536.629,149.519,536.438,149.519,536.237z
		 M154.455,535.434c0,0.052-0.013,0.094-0.039,0.126c-0.02,0.032-0.055,0.062-0.107,0.087c-0.052,0.02-0.126,0.032-0.223,0.039
		c-0.09,0.013-0.21,0.02-0.358,0.02c-0.142,0-0.262-0.007-0.358-0.02c-0.091-0.007-0.165-0.02-0.223-0.039
		c-0.052-0.025-0.087-0.055-0.106-0.087s-0.029-0.074-0.029-0.126v-7.896c0-0.045,0.01-0.084,0.029-0.116
		c0.02-0.039,0.055-0.067,0.106-0.087c0.058-0.026,0.132-0.042,0.223-0.049c0.097-0.013,0.216-0.02,0.358-0.02
		c0.148,0,0.268,0.007,0.358,0.02c0.097,0.007,0.171,0.022,0.223,0.049c0.052,0.02,0.087,0.048,0.107,0.087
		c0.025,0.032,0.039,0.071,0.039,0.116V535.434z M154.62,524.863c0,0.342-0.064,0.574-0.194,0.697
		c-0.123,0.123-0.358,0.185-0.707,0.185c-0.336,0-0.568-0.059-0.698-0.175c-0.123-0.123-0.184-0.352-0.184-0.688
		c0-0.343,0.062-0.575,0.184-0.698c0.129-0.122,0.368-0.184,0.717-0.184c0.335,0,0.565,0.062,0.688,0.184
		C154.555,524.308,154.62,524.533,154.62,524.863z M163.986,535.434c0,0.052-0.013,0.094-0.039,0.126
		c-0.02,0.032-0.058,0.062-0.116,0.087c-0.052,0.02-0.126,0.032-0.223,0.039c-0.09,0.013-0.203,0.02-0.339,0.02
		c-0.148,0-0.271-0.007-0.368-0.02c-0.09-0.007-0.162-0.02-0.213-0.039c-0.051-0.025-0.09-0.055-0.116-0.087
		s-0.039-0.074-0.039-0.126v-4.621c0-0.453-0.036-0.814-0.106-1.086c-0.065-0.277-0.165-0.517-0.301-0.717
		c-0.135-0.2-0.31-0.352-0.523-0.455s-0.462-0.155-0.746-0.155c-0.362,0-0.723,0.129-1.085,0.388
		c-0.362,0.252-0.743,0.627-1.144,1.124v5.522c0,0.052-0.013,0.094-0.039,0.126c-0.02,0.032-0.055,0.062-0.106,0.087
		c-0.052,0.02-0.126,0.032-0.223,0.039c-0.09,0.013-0.21,0.02-0.358,0.02c-0.142,0-0.262-0.007-0.358-0.02
		c-0.09-0.007-0.165-0.02-0.223-0.039c-0.052-0.025-0.087-0.055-0.107-0.087c-0.019-0.032-0.029-0.074-0.029-0.126v-7.896
		c0-0.052,0.006-0.094,0.019-0.126c0.02-0.032,0.055-0.062,0.107-0.087c0.052-0.026,0.119-0.042,0.203-0.049
		c0.084-0.006,0.194-0.01,0.33-0.01c0.129,0,0.236,0.004,0.32,0.01c0.084,0.007,0.148,0.022,0.194,0.049
		c0.045,0.025,0.077,0.055,0.097,0.087c0.026,0.032,0.039,0.074,0.039,0.126v1.047c0.445-0.498,0.888-0.862,1.327-1.096
		c0.439-0.232,0.885-0.349,1.337-0.349c0.53,0,0.972,0.091,1.328,0.271c0.362,0.175,0.652,0.413,0.872,0.717
		c0.226,0.298,0.387,0.646,0.484,1.047c0.097,0.4,0.145,0.882,0.145,1.443V535.434z M173.483,531.142
		c0,0.232-0.058,0.397-0.174,0.494c-0.116,0.09-0.246,0.136-0.388,0.136h-5.183c0,0.438,0.042,0.836,0.126,1.191
		c0.09,0.349,0.239,0.649,0.445,0.901c0.207,0.252,0.472,0.445,0.794,0.581c0.33,0.136,0.733,0.203,1.211,0.203
		c0.375,0,0.707-0.028,0.998-0.087c0.291-0.064,0.543-0.136,0.756-0.213c0.213-0.078,0.388-0.146,0.523-0.204
		c0.142-0.064,0.249-0.097,0.32-0.097c0.039,0,0.074,0.01,0.106,0.029s0.058,0.052,0.078,0.097c0.019,0.039,0.032,0.097,0.039,0.175
		c0.006,0.071,0.01,0.158,0.01,0.262c0,0.077-0.003,0.146-0.01,0.203c-0.006,0.052-0.013,0.101-0.02,0.146s-0.022,0.087-0.048,0.126
		c-0.02,0.032-0.045,0.064-0.078,0.097s-0.129,0.084-0.291,0.155c-0.155,0.071-0.358,0.142-0.61,0.213
		c-0.246,0.071-0.536,0.133-0.872,0.185c-0.33,0.058-0.682,0.087-1.056,0.087c-0.646,0-1.214-0.091-1.705-0.271
		s-0.904-0.449-1.24-0.804c-0.33-0.362-0.582-0.812-0.756-1.348c-0.168-0.535-0.252-1.162-0.252-1.879
		c0-0.679,0.087-1.289,0.262-1.831c0.181-0.543,0.436-1.002,0.766-1.376c0.329-0.381,0.727-0.672,1.191-0.872
		c0.472-0.2,0.998-0.301,1.58-0.301c0.62,0,1.146,0.101,1.579,0.301c0.439,0.2,0.798,0.468,1.076,0.804
		c0.284,0.336,0.491,0.73,0.62,1.183c0.135,0.452,0.203,0.937,0.203,1.453V531.142z M172.02,530.715
		c0.02-0.762-0.148-1.359-0.504-1.792c-0.355-0.433-0.881-0.649-1.579-0.649c-0.355,0-0.668,0.068-0.94,0.203
		c-0.265,0.136-0.488,0.313-0.668,0.533s-0.323,0.479-0.426,0.775c-0.097,0.297-0.152,0.607-0.165,0.93H172.02z"/>
	<path fill="none" stroke="#000000" stroke-width="1.9193" stroke-miterlimit="10" d="M124.67,537.717h49.771"/>
	<path fill="#D9D9D9" d="M79.081,514.042h185.107v74.41H79.081V514.042z"/>
	<path fill="none" stroke="#535353" stroke-width="2" stroke-linejoin="round" stroke-miterlimit="10" stroke-dasharray="8,6" d="
		M79.081,514.042h185.107v74.41H79.081V514.042z"/>
	<path fill="#FFFFFF" d="M114.528,497.411h110.775v28.808H114.528V497.411z"/>
	<path fill="none" stroke="#535353" stroke-width="2" stroke-linejoin="round" stroke-miterlimit="10" d="M114.528,497.411h110.775
		v28.808H114.528V497.411z"/>
	<path d="M164.807,517.767c0,0.116-0.007,0.216-0.02,0.3c-0.013,0.078-0.032,0.146-0.058,0.204c-0.026,0.052-0.058,0.09-0.097,0.116
		c-0.039,0.025-0.084,0.038-0.136,0.038h-5.019c-0.136,0-0.265-0.045-0.387-0.136c-0.117-0.09-0.175-0.248-0.175-0.475v-10.521
		c0-0.046,0.01-0.084,0.029-0.116c0.026-0.039,0.068-0.068,0.126-0.088c0.058-0.025,0.136-0.045,0.232-0.058
		c0.104-0.013,0.226-0.02,0.368-0.02s0.262,0.007,0.358,0.02c0.097,0.013,0.174,0.032,0.233,0.058
		c0.064,0.02,0.106,0.049,0.125,0.088c0.026,0.032,0.039,0.07,0.039,0.116v9.824h4.069c0.052,0,0.097,0.013,0.136,0.039
		c0.039,0.025,0.071,0.064,0.097,0.116s0.045,0.119,0.058,0.203C164.8,517.553,164.807,517.65,164.807,517.767z M167.84,518.202
		c0,0.052-0.013,0.094-0.039,0.126c-0.019,0.032-0.055,0.062-0.106,0.087c-0.052,0.02-0.126,0.032-0.223,0.039
		c-0.091,0.013-0.21,0.02-0.359,0.02c-0.142,0-0.261-0.007-0.358-0.02c-0.09-0.007-0.165-0.02-0.223-0.039
		c-0.052-0.025-0.087-0.055-0.106-0.087c-0.02-0.032-0.029-0.074-0.029-0.126v-7.896c0-0.045,0.01-0.084,0.029-0.116
		c0.019-0.039,0.055-0.067,0.106-0.087c0.058-0.026,0.132-0.042,0.223-0.049c0.097-0.013,0.216-0.02,0.358-0.02
		c0.149,0,0.268,0.007,0.359,0.02c0.097,0.007,0.171,0.022,0.223,0.049c0.052,0.02,0.087,0.048,0.106,0.087
		c0.026,0.032,0.039,0.071,0.039,0.116V518.202z M168.005,507.632c0,0.342-0.064,0.575-0.194,0.697
		c-0.123,0.123-0.358,0.185-0.707,0.185c-0.336,0-0.569-0.059-0.698-0.175c-0.123-0.122-0.184-0.352-0.184-0.688
		c0-0.343,0.062-0.575,0.184-0.698c0.129-0.122,0.368-0.184,0.717-0.184c0.336,0,0.565,0.062,0.688,0.184
		C167.94,507.076,168.005,507.303,168.005,507.632z M175.531,516.052c0,0.406-0.078,0.769-0.232,1.085
		c-0.149,0.316-0.362,0.584-0.64,0.804c-0.271,0.214-0.598,0.375-0.979,0.484c-0.381,0.11-0.798,0.165-1.25,0.165
		c-0.284,0-0.555-0.022-0.814-0.067c-0.251-0.039-0.478-0.091-0.678-0.155c-0.201-0.071-0.372-0.143-0.514-0.213
		c-0.142-0.078-0.246-0.146-0.31-0.204c-0.064-0.058-0.113-0.139-0.146-0.242c-0.026-0.109-0.039-0.255-0.039-0.436
		c0-0.11,0.006-0.204,0.02-0.281c0.013-0.077,0.025-0.139,0.039-0.185c0.02-0.045,0.045-0.077,0.078-0.097s0.071-0.029,0.116-0.029
		c0.064,0,0.158,0.039,0.281,0.117c0.129,0.077,0.284,0.164,0.465,0.261c0.187,0.091,0.407,0.178,0.659,0.262
		c0.252,0.078,0.542,0.116,0.872,0.116c0.245,0,0.465-0.025,0.659-0.077c0.2-0.059,0.375-0.136,0.523-0.232
		c0.148-0.104,0.261-0.232,0.339-0.388c0.078-0.161,0.116-0.352,0.116-0.571s-0.058-0.404-0.174-0.553
		c-0.11-0.155-0.258-0.291-0.446-0.407c-0.187-0.122-0.4-0.229-0.639-0.319c-0.233-0.091-0.475-0.184-0.727-0.281
		c-0.245-0.104-0.487-0.216-0.727-0.339c-0.232-0.129-0.442-0.284-0.63-0.465c-0.187-0.181-0.339-0.397-0.455-0.649
		s-0.174-0.552-0.174-0.901c0-0.31,0.061-0.606,0.184-0.891c0.123-0.284,0.303-0.533,0.542-0.746
		c0.239-0.214,0.536-0.385,0.891-0.514c0.362-0.129,0.785-0.194,1.27-0.194c0.207,0,0.413,0.02,0.62,0.059
		c0.213,0.032,0.404,0.074,0.571,0.126c0.175,0.052,0.32,0.109,0.436,0.175c0.123,0.058,0.213,0.112,0.271,0.164
		c0.064,0.045,0.106,0.087,0.126,0.126c0.026,0.032,0.042,0.071,0.048,0.116c0.006,0.039,0.013,0.091,0.02,0.155
		c0.013,0.064,0.02,0.146,0.02,0.242s-0.007,0.185-0.02,0.262c-0.006,0.071-0.02,0.129-0.039,0.174
		c-0.019,0.046-0.045,0.078-0.077,0.098c-0.026,0.019-0.058,0.028-0.097,0.028c-0.052,0-0.129-0.028-0.232-0.087
		c-0.097-0.064-0.223-0.132-0.378-0.203c-0.155-0.078-0.342-0.148-0.562-0.213c-0.213-0.065-0.455-0.098-0.727-0.098
		c-0.246,0-0.462,0.029-0.649,0.088c-0.188,0.052-0.342,0.129-0.465,0.232c-0.116,0.104-0.207,0.226-0.271,0.368
		c-0.058,0.136-0.087,0.287-0.087,0.455c0,0.227,0.058,0.417,0.174,0.571c0.116,0.155,0.268,0.291,0.456,0.407
		c0.187,0.116,0.4,0.223,0.639,0.319c0.239,0.091,0.481,0.188,0.727,0.291c0.252,0.097,0.497,0.207,0.736,0.329
		c0.245,0.123,0.462,0.275,0.649,0.456c0.188,0.174,0.339,0.384,0.456,0.63C175.473,515.425,175.531,515.716,175.531,516.052z
		 M181.791,517.631c0,0.168-0.013,0.304-0.039,0.406c-0.019,0.098-0.055,0.168-0.106,0.214c-0.045,0.045-0.116,0.09-0.213,0.136
		c-0.091,0.038-0.197,0.07-0.32,0.097c-0.116,0.025-0.242,0.045-0.378,0.058c-0.136,0.02-0.271,0.029-0.407,0.029
		c-0.407,0-0.759-0.052-1.056-0.155c-0.291-0.109-0.53-0.274-0.717-0.494c-0.187-0.219-0.323-0.497-0.407-0.833
		s-0.126-0.733-0.126-1.191v-4.622h-1.104c-0.09,0-0.162-0.045-0.213-0.136c-0.052-0.097-0.077-0.248-0.077-0.455
		c0-0.116,0.006-0.21,0.019-0.281c0.013-0.077,0.032-0.142,0.058-0.193s0.055-0.087,0.087-0.106c0.039-0.02,0.084-0.029,0.136-0.029
		h1.095v-1.88c0-0.038,0.01-0.074,0.029-0.106c0.02-0.038,0.058-0.071,0.116-0.097c0.059-0.025,0.133-0.045,0.223-0.059
		c0.097-0.013,0.213-0.019,0.349-0.019c0.149,0,0.268,0.006,0.358,0.019c0.097,0.014,0.171,0.033,0.223,0.059
		s0.09,0.059,0.116,0.097c0.026,0.032,0.039,0.068,0.039,0.106v1.88h2.025c0.045,0,0.084,0.01,0.116,0.029
		c0.039,0.02,0.071,0.055,0.097,0.106s0.045,0.116,0.058,0.193c0.013,0.071,0.02,0.165,0.02,0.281c0,0.207-0.029,0.358-0.087,0.455
		c-0.052,0.091-0.12,0.136-0.204,0.136h-2.025v4.409c0,0.549,0.078,0.962,0.233,1.24c0.161,0.277,0.452,0.416,0.872,0.416
		c0.136,0,0.255-0.013,0.359-0.039c0.103-0.032,0.197-0.061,0.281-0.087c0.084-0.032,0.155-0.062,0.213-0.087
		c0.058-0.026,0.109-0.039,0.155-0.039c0.026,0,0.052,0.01,0.078,0.029c0.032,0.013,0.055,0.039,0.068,0.077
		c0.013,0.039,0.026,0.094,0.039,0.165S181.791,517.521,181.791,517.631z"/>
	<path fill="none" stroke="#000000" stroke-width="1.9193" stroke-miterlimit="10" d="M157.404,520.485h25.023"/>
	<path fill="#FFFFFF" d="M231.993,415.304h110.774v27.186H231.993V415.304z"/>
	<path fill="none" stroke="#535353" stroke-width="2" stroke-linejoin="round" stroke-miterlimit="10" d="M231.993,415.304h110.774
		v27.186H231.993V415.304z"/>
	<path d="M275.109,433.898c0,0.098-0.003,0.182-0.01,0.252c-0.006,0.065-0.016,0.126-0.029,0.185
		c-0.013,0.052-0.032,0.097-0.058,0.136s-0.068,0.09-0.126,0.155c-0.058,0.058-0.181,0.148-0.368,0.271
		c-0.187,0.116-0.42,0.232-0.697,0.35c-0.278,0.109-0.598,0.203-0.959,0.28c-0.355,0.084-0.749,0.126-1.182,0.126
		c-0.736,0-1.401-0.122-1.996-0.368c-0.594-0.252-1.102-0.616-1.521-1.095c-0.414-0.478-0.733-1.069-0.959-1.773
		c-0.226-0.71-0.339-1.523-0.339-2.441c0-0.942,0.119-1.782,0.358-2.519c0.246-0.736,0.588-1.36,1.027-1.87
		c0.439-0.517,0.962-0.907,1.57-1.173c0.613-0.271,1.295-0.406,2.044-0.406c0.323,0,0.64,0.032,0.95,0.097
		c0.31,0.059,0.598,0.136,0.862,0.232c0.265,0.091,0.498,0.197,0.698,0.32c0.207,0.122,0.349,0.223,0.426,0.3
		c0.084,0.077,0.136,0.139,0.155,0.185c0.026,0.038,0.045,0.087,0.058,0.145c0.02,0.052,0.032,0.116,0.039,0.194
		c0.006,0.077,0.01,0.168,0.01,0.271c0,0.116-0.007,0.216-0.02,0.3c-0.006,0.084-0.022,0.155-0.048,0.213
		c-0.026,0.052-0.055,0.091-0.087,0.117c-0.026,0.025-0.064,0.038-0.116,0.038c-0.078,0-0.19-0.055-0.339-0.165
		c-0.148-0.116-0.339-0.242-0.571-0.377c-0.226-0.143-0.507-0.269-0.843-0.378c-0.329-0.116-0.723-0.175-1.182-0.175
		c-0.504,0-0.962,0.101-1.376,0.301s-0.769,0.497-1.066,0.891c-0.291,0.395-0.517,0.876-0.678,1.444
		c-0.161,0.562-0.242,1.204-0.242,1.928c0,0.717,0.078,1.354,0.232,1.909c0.162,0.555,0.385,1.021,0.669,1.395
		c0.291,0.368,0.646,0.649,1.065,0.843c0.426,0.188,0.904,0.281,1.434,0.281c0.452,0,0.846-0.055,1.182-0.165
		c0.336-0.116,0.623-0.242,0.862-0.378c0.239-0.135,0.433-0.258,0.581-0.368c0.155-0.116,0.275-0.174,0.358-0.174
		c0.045,0,0.081,0.01,0.107,0.029c0.032,0.02,0.055,0.055,0.068,0.106c0.019,0.045,0.032,0.113,0.039,0.203
		C275.103,433.653,275.109,433.764,275.109,433.898z M278.498,435.284c0,0.052-0.013,0.094-0.039,0.126
		c-0.02,0.032-0.055,0.062-0.107,0.087c-0.051,0.02-0.125,0.033-0.223,0.039c-0.09,0.013-0.21,0.02-0.358,0.02
		c-0.142,0-0.262-0.007-0.358-0.02c-0.09-0.006-0.165-0.02-0.223-0.039c-0.051-0.025-0.087-0.055-0.106-0.087
		c-0.019-0.032-0.029-0.074-0.029-0.126v-11.724c0-0.051,0.01-0.094,0.029-0.126c0.02-0.038,0.055-0.067,0.106-0.087
		c0.058-0.025,0.133-0.042,0.223-0.049c0.097-0.013,0.216-0.019,0.358-0.019c0.148,0,0.268,0.006,0.358,0.019
		c0.097,0.007,0.171,0.023,0.223,0.049c0.052,0.02,0.087,0.049,0.107,0.087c0.026,0.032,0.039,0.075,0.039,0.126V435.284z
		 M282.672,435.284c0,0.052-0.013,0.094-0.039,0.126c-0.02,0.032-0.055,0.062-0.106,0.087c-0.052,0.02-0.126,0.033-0.223,0.039
		c-0.091,0.013-0.21,0.02-0.359,0.02c-0.142,0-0.261-0.007-0.358-0.02c-0.09-0.006-0.165-0.02-0.223-0.039
		c-0.052-0.025-0.087-0.055-0.107-0.087c-0.019-0.032-0.029-0.074-0.029-0.126v-7.896c0-0.045,0.01-0.084,0.029-0.116
		c0.02-0.038,0.055-0.067,0.107-0.087c0.058-0.026,0.132-0.042,0.223-0.049c0.097-0.013,0.216-0.019,0.358-0.019
		c0.149,0,0.268,0.006,0.359,0.019c0.097,0.007,0.171,0.022,0.223,0.049c0.052,0.02,0.087,0.049,0.106,0.087
		c0.026,0.032,0.039,0.071,0.039,0.116V435.284z M282.836,424.714c0,0.343-0.064,0.575-0.194,0.697
		c-0.123,0.123-0.358,0.185-0.708,0.185c-0.335,0-0.568-0.059-0.697-0.175c-0.123-0.122-0.184-0.352-0.184-0.688
		c0-0.343,0.061-0.575,0.184-0.697c0.129-0.123,0.368-0.185,0.717-0.185c0.336,0,0.565,0.062,0.688,0.185
		C282.772,424.158,282.836,424.385,282.836,424.714z M292.145,430.992c0,0.232-0.058,0.397-0.174,0.494
		c-0.116,0.091-0.246,0.136-0.388,0.136h-5.184c0,0.439,0.042,0.837,0.126,1.191c0.09,0.349,0.239,0.649,0.446,0.901
		s0.472,0.445,0.794,0.581c0.33,0.136,0.733,0.204,1.211,0.204c0.375,0,0.708-0.029,0.998-0.088
		c0.291-0.064,0.542-0.136,0.756-0.213c0.213-0.077,0.388-0.146,0.523-0.203c0.142-0.064,0.249-0.098,0.32-0.098
		c0.039,0,0.074,0.01,0.106,0.029c0.033,0.02,0.058,0.052,0.078,0.097c0.02,0.039,0.032,0.098,0.039,0.175
		c0.007,0.071,0.01,0.158,0.01,0.262c0,0.077-0.003,0.146-0.01,0.203c-0.006,0.052-0.013,0.101-0.019,0.146
		s-0.022,0.087-0.048,0.126c-0.02,0.032-0.045,0.064-0.078,0.097s-0.129,0.084-0.291,0.155c-0.155,0.071-0.359,0.143-0.61,0.213
		c-0.246,0.071-0.536,0.133-0.872,0.185c-0.33,0.058-0.682,0.087-1.056,0.087c-0.646,0-1.214-0.091-1.706-0.271
		c-0.491-0.181-0.904-0.448-1.24-0.804c-0.33-0.362-0.582-0.811-0.756-1.347c-0.168-0.536-0.252-1.163-0.252-1.88
		c0-0.679,0.087-1.289,0.262-1.831c0.181-0.543,0.436-1.001,0.765-1.376c0.33-0.381,0.727-0.672,1.192-0.872
		c0.472-0.2,0.998-0.3,1.579-0.3c0.62,0,1.146,0.1,1.58,0.3c0.439,0.2,0.797,0.469,1.075,0.805c0.284,0.336,0.491,0.729,0.62,1.182
		c0.136,0.452,0.204,0.937,0.204,1.453V430.992z M290.682,430.566c0.019-0.763-0.149-1.36-0.504-1.793
		c-0.355-0.433-0.882-0.649-1.58-0.649c-0.355,0-0.668,0.068-0.939,0.204c-0.265,0.136-0.488,0.313-0.668,0.532
		c-0.181,0.22-0.323,0.479-0.427,0.775c-0.097,0.297-0.151,0.607-0.165,0.931H290.682z M301.251,435.284
		c0,0.052-0.014,0.094-0.039,0.126c-0.02,0.032-0.059,0.062-0.115,0.087c-0.053,0.02-0.127,0.033-0.223,0.039
		c-0.092,0.013-0.205,0.02-0.34,0.02c-0.148,0-0.271-0.007-0.369-0.02c-0.09-0.006-0.16-0.02-0.213-0.039
		c-0.051-0.025-0.09-0.055-0.115-0.087s-0.039-0.074-0.039-0.126v-4.621c0-0.452-0.035-0.814-0.107-1.085
		c-0.064-0.278-0.164-0.518-0.299-0.718c-0.137-0.2-0.311-0.352-0.523-0.455s-0.463-0.155-0.747-0.155
		c-0.362,0-0.723,0.13-1.085,0.388c-0.362,0.252-0.743,0.627-1.144,1.124v5.522c0,0.052-0.013,0.094-0.039,0.126
		c-0.02,0.032-0.055,0.062-0.106,0.087c-0.052,0.02-0.126,0.033-0.223,0.039c-0.09,0.013-0.21,0.02-0.358,0.02
		c-0.142,0-0.262-0.007-0.358-0.02c-0.09-0.006-0.165-0.02-0.223-0.039c-0.052-0.025-0.087-0.055-0.107-0.087
		c-0.019-0.032-0.029-0.074-0.029-0.126v-7.896c0-0.052,0.006-0.094,0.019-0.126c0.02-0.032,0.055-0.061,0.107-0.087
		c0.052-0.025,0.119-0.042,0.203-0.049c0.084-0.006,0.194-0.009,0.33-0.009c0.129,0,0.236,0.003,0.32,0.009
		c0.084,0.007,0.148,0.023,0.194,0.049c0.045,0.026,0.078,0.055,0.097,0.087c0.026,0.032,0.039,0.074,0.039,0.126v1.047
		c0.445-0.497,0.888-0.862,1.327-1.095c0.439-0.232,0.885-0.349,1.338-0.349c0.529,0,0.971,0.09,1.326,0.271
		c0.361,0.175,0.652,0.414,0.873,0.717c0.225,0.298,0.387,0.646,0.484,1.047c0.096,0.4,0.145,0.882,0.145,1.443V435.284z
		 M308.113,434.713c0,0.168-0.014,0.304-0.039,0.407c-0.02,0.097-0.055,0.167-0.105,0.213c-0.047,0.045-0.117,0.09-0.215,0.136
		c-0.09,0.038-0.195,0.07-0.318,0.097c-0.117,0.025-0.242,0.045-0.379,0.058c-0.135,0.02-0.271,0.029-0.406,0.029
		c-0.406,0-0.76-0.052-1.057-0.155c-0.291-0.109-0.529-0.274-0.717-0.493c-0.188-0.22-0.322-0.498-0.406-0.834
		s-0.127-0.732-0.127-1.191v-4.622h-1.104c-0.09,0-0.162-0.045-0.213-0.135c-0.053-0.098-0.078-0.249-0.078-0.456
		c0-0.116,0.006-0.21,0.02-0.281c0.014-0.077,0.031-0.142,0.059-0.193c0.025-0.052,0.055-0.087,0.086-0.106
		c0.039-0.02,0.084-0.029,0.137-0.029h1.094v-1.88c0-0.038,0.01-0.074,0.029-0.106c0.02-0.038,0.059-0.07,0.117-0.097
		c0.059-0.025,0.133-0.045,0.223-0.058c0.096-0.014,0.213-0.02,0.348-0.02c0.148,0,0.27,0.006,0.359,0.02
		c0.098,0.013,0.172,0.032,0.223,0.058c0.053,0.026,0.09,0.059,0.117,0.097c0.025,0.032,0.037,0.068,0.037,0.106v1.88h2.025
		c0.045,0,0.084,0.01,0.117,0.029c0.039,0.02,0.07,0.055,0.096,0.106c0.027,0.052,0.045,0.116,0.059,0.193
		c0.014,0.071,0.02,0.165,0.02,0.281c0,0.207-0.029,0.358-0.088,0.456c-0.051,0.09-0.119,0.135-0.203,0.135h-2.025v4.409
		c0,0.549,0.078,0.962,0.232,1.24c0.162,0.277,0.453,0.416,0.873,0.416c0.135,0,0.256-0.013,0.357-0.039
		c0.104-0.032,0.197-0.061,0.281-0.087c0.084-0.032,0.156-0.062,0.213-0.087c0.059-0.025,0.111-0.039,0.156-0.039
		c0.025,0,0.051,0.01,0.078,0.029c0.031,0.013,0.055,0.039,0.066,0.077c0.014,0.039,0.025,0.094,0.039,0.165
		S308.113,434.603,308.113,434.713z"/>
	<path fill="none" stroke="#000000" stroke-width="1.9193" stroke-miterlimit="10" d="M266.011,437.567h42.739"/>
	<path fill-opacity="0" d="M231.993,428.897c-31.034,0-62.067,34.256-62.067,68.512"/>
	<path fill="none" stroke="#535353" stroke-width="2" stroke-linejoin="round" stroke-miterlimit="10" d="M231.993,428.897
		c-15.517,0-31.034,8.563-42.671,21.409c-5.819,6.424-10.668,13.917-14.062,21.945c-1.697,4.015-3.031,8.163-3.94,12.378
		c-0.228,1.054-0.428,2.111-0.602,3.173c-0.086,0.53-0.167,1.062-0.239,1.594c-0.018,0.133-0.036,0.267-0.053,0.399l-0.024,0.188"/>
	<path fill="#535353" stroke="#535353" stroke-width="2" stroke-miterlimit="10" d="M168.358,489.853l1.684,5.747l2.404-5.485
		L168.358,489.853z"/>
	<path fill-opacity="0" d="M342.767,428.897c29.326,0,58.65,34.256,58.65,68.512"/>
	<path fill="none" stroke="#535353" stroke-width="2" stroke-linejoin="round" stroke-miterlimit="10" d="M342.767,428.897
		c14.664,0,29.326,8.563,40.322,21.409c5.498,6.424,10.08,13.917,13.287,21.945c1.604,4.015,2.863,8.163,3.723,12.378
		c0.215,1.054,0.404,2.111,0.568,3.173c0.082,0.53,0.158,1.062,0.227,1.594c0.018,0.133,0.033,0.267,0.051,0.399l0.021,0.186"/>
	<path fill="#535353" stroke="#535353" stroke-width="2" stroke-miterlimit="10" d="M398.921,490.105l2.387,5.494l1.703-5.742
		L398.921,490.105z"/>
	<path fill="#D9D9D9" d="M310.574,514.042h185.107v74.41H310.574V514.042z"/>
	<path fill="none" stroke="#535353" stroke-width="2" stroke-linejoin="round" stroke-miterlimit="10" stroke-dasharray="8,6" d="
		M310.574,514.042h185.107v74.41H310.574V514.042z"/>
	<path fill="#FFFFFF" d="M346.021,497.411h110.775v28.808H346.021V497.411z"/>
	<path fill="none" stroke="#535353" stroke-width="2" stroke-linejoin="round" stroke-miterlimit="10" d="M346.021,497.411h110.775
		v28.808H346.021V497.411z"/>
	<path d="M396.3,517.767c0,0.116-0.008,0.216-0.02,0.3c-0.014,0.078-0.033,0.146-0.059,0.204c-0.025,0.052-0.059,0.09-0.098,0.116
		c-0.039,0.025-0.084,0.038-0.135,0.038h-5.02c-0.135,0-0.264-0.045-0.387-0.136c-0.117-0.09-0.174-0.248-0.174-0.475v-10.521
		c0-0.046,0.008-0.084,0.027-0.116c0.027-0.039,0.068-0.068,0.127-0.088c0.059-0.025,0.135-0.045,0.232-0.058
		c0.104-0.013,0.227-0.02,0.367-0.02c0.143,0,0.262,0.007,0.359,0.02s0.174,0.032,0.232,0.058c0.064,0.02,0.107,0.049,0.127,0.088
		c0.025,0.032,0.037,0.07,0.037,0.116v9.824h4.07c0.051,0,0.096,0.013,0.135,0.039c0.039,0.025,0.072,0.064,0.098,0.116
		s0.045,0.119,0.059,0.203C396.292,517.553,396.3,517.65,396.3,517.767z M399.333,518.202c0,0.052-0.014,0.094-0.039,0.126
		c-0.02,0.032-0.055,0.062-0.107,0.087c-0.051,0.02-0.125,0.032-0.223,0.039c-0.09,0.013-0.209,0.02-0.357,0.02
		c-0.143,0-0.262-0.007-0.359-0.02c-0.09-0.007-0.164-0.02-0.223-0.039c-0.051-0.025-0.086-0.055-0.105-0.087
		s-0.029-0.074-0.029-0.126v-7.896c0-0.045,0.01-0.084,0.029-0.116c0.02-0.039,0.055-0.067,0.105-0.087
		c0.059-0.026,0.133-0.042,0.223-0.049c0.098-0.013,0.217-0.02,0.359-0.02c0.148,0,0.268,0.007,0.357,0.02
		c0.098,0.007,0.172,0.022,0.223,0.049c0.053,0.02,0.088,0.048,0.107,0.087c0.025,0.032,0.039,0.071,0.039,0.116V518.202z
		 M399.498,507.632c0,0.342-0.064,0.575-0.193,0.697c-0.123,0.123-0.359,0.185-0.707,0.185c-0.336,0-0.568-0.059-0.697-0.175
		c-0.123-0.122-0.186-0.352-0.186-0.688c0-0.343,0.063-0.575,0.186-0.698c0.129-0.122,0.367-0.184,0.717-0.184
		c0.336,0,0.564,0.062,0.688,0.184C399.433,507.076,399.498,507.303,399.498,507.632z M407.023,516.052
		c0,0.406-0.076,0.769-0.232,1.085c-0.148,0.316-0.361,0.584-0.639,0.804c-0.271,0.214-0.598,0.375-0.979,0.484
		c-0.381,0.11-0.797,0.165-1.25,0.165c-0.285,0-0.555-0.022-0.814-0.067c-0.252-0.039-0.477-0.091-0.678-0.155
		c-0.199-0.071-0.371-0.143-0.514-0.213c-0.143-0.078-0.246-0.146-0.311-0.204c-0.064-0.058-0.111-0.139-0.145-0.242
		c-0.025-0.109-0.039-0.255-0.039-0.436c0-0.11,0.006-0.204,0.02-0.281s0.025-0.139,0.039-0.185c0.02-0.045,0.045-0.077,0.078-0.097
		c0.031-0.02,0.07-0.029,0.115-0.029c0.064,0,0.158,0.039,0.281,0.117c0.129,0.077,0.283,0.164,0.465,0.261
		c0.188,0.091,0.406,0.178,0.658,0.262c0.252,0.078,0.543,0.116,0.873,0.116c0.246,0,0.465-0.025,0.658-0.077
		c0.201-0.059,0.375-0.136,0.523-0.232c0.148-0.104,0.262-0.232,0.34-0.388c0.076-0.161,0.115-0.352,0.115-0.571
		s-0.059-0.404-0.174-0.553c-0.109-0.155-0.258-0.291-0.445-0.407c-0.188-0.122-0.4-0.229-0.641-0.319
		c-0.232-0.091-0.475-0.184-0.727-0.281c-0.244-0.104-0.486-0.216-0.727-0.339c-0.232-0.129-0.441-0.284-0.629-0.465
		s-0.34-0.397-0.455-0.649c-0.117-0.252-0.176-0.552-0.176-0.901c0-0.31,0.063-0.606,0.186-0.891
		c0.121-0.284,0.303-0.533,0.541-0.746c0.24-0.214,0.537-0.385,0.893-0.514c0.361-0.129,0.785-0.194,1.27-0.194
		c0.205,0,0.412,0.02,0.619,0.059c0.213,0.032,0.404,0.074,0.572,0.126c0.174,0.052,0.32,0.109,0.436,0.175
		c0.123,0.058,0.213,0.112,0.271,0.164c0.064,0.045,0.105,0.087,0.125,0.126c0.027,0.032,0.043,0.071,0.049,0.116
		c0.008,0.039,0.014,0.091,0.02,0.155c0.014,0.064,0.02,0.146,0.02,0.242s-0.006,0.185-0.02,0.262
		c-0.006,0.071-0.02,0.129-0.039,0.174c-0.02,0.046-0.045,0.078-0.076,0.098c-0.027,0.019-0.059,0.028-0.098,0.028
		c-0.051,0-0.129-0.028-0.232-0.087c-0.098-0.064-0.223-0.132-0.379-0.203c-0.154-0.078-0.342-0.148-0.561-0.213
		c-0.213-0.065-0.455-0.098-0.727-0.098c-0.246,0-0.463,0.029-0.65,0.088c-0.188,0.052-0.342,0.129-0.465,0.232
		c-0.115,0.104-0.207,0.226-0.271,0.368c-0.057,0.136-0.086,0.287-0.086,0.455c0,0.227,0.057,0.417,0.174,0.571
		c0.117,0.155,0.268,0.291,0.455,0.407s0.4,0.223,0.641,0.319c0.238,0.091,0.48,0.188,0.727,0.291
		c0.252,0.097,0.496,0.207,0.736,0.329c0.244,0.123,0.461,0.275,0.648,0.456c0.188,0.174,0.34,0.384,0.455,0.63
		C406.966,515.425,407.023,515.716,407.023,516.052z M413.285,517.631c0,0.168-0.014,0.304-0.039,0.406
		c-0.02,0.098-0.055,0.168-0.107,0.214c-0.045,0.045-0.115,0.09-0.213,0.136c-0.09,0.038-0.197,0.07-0.32,0.097
		c-0.115,0.025-0.242,0.045-0.377,0.058c-0.137,0.02-0.271,0.029-0.406,0.029c-0.408,0-0.76-0.052-1.057-0.155
		c-0.291-0.109-0.529-0.274-0.717-0.494c-0.188-0.219-0.324-0.497-0.408-0.833s-0.125-0.733-0.125-1.191v-4.622h-1.105
		c-0.09,0-0.16-0.045-0.213-0.136c-0.051-0.097-0.076-0.248-0.076-0.455c0-0.116,0.006-0.21,0.018-0.281
		c0.014-0.077,0.033-0.142,0.059-0.193s0.055-0.087,0.088-0.106c0.039-0.02,0.084-0.029,0.135-0.029h1.096v-1.88
		c0-0.038,0.01-0.074,0.029-0.106c0.02-0.038,0.059-0.071,0.115-0.097c0.059-0.025,0.133-0.045,0.223-0.059
		c0.098-0.013,0.215-0.019,0.35-0.019c0.148,0,0.268,0.006,0.359,0.019c0.096,0.014,0.17,0.033,0.223,0.059
		c0.051,0.025,0.09,0.059,0.115,0.097c0.025,0.032,0.039,0.068,0.039,0.106v1.88h2.025c0.045,0,0.084,0.01,0.115,0.029
		c0.039,0.02,0.072,0.055,0.098,0.106s0.045,0.116,0.059,0.193c0.012,0.071,0.02,0.165,0.02,0.281c0,0.207-0.029,0.358-0.088,0.455
		c-0.053,0.091-0.119,0.136-0.203,0.136h-2.025v4.409c0,0.549,0.078,0.962,0.232,1.24c0.162,0.277,0.453,0.416,0.873,0.416
		c0.135,0,0.254-0.013,0.357-0.039c0.104-0.032,0.197-0.061,0.281-0.087c0.084-0.032,0.154-0.062,0.213-0.087
		c0.059-0.026,0.109-0.039,0.154-0.039c0.027,0,0.053,0.01,0.078,0.029c0.033,0.013,0.055,0.039,0.068,0.077
		c0.012,0.039,0.025,0.094,0.039,0.165C413.277,517.431,413.285,517.521,413.285,517.631z"/>
	<path fill="none" stroke="#000000" stroke-width="1.9193" stroke-miterlimit="10" d="M388.898,520.485h25.023"/>
	<path fill-opacity="0" d="M276.531,529.045h21.699v32.576h-21.699V529.045z"/>
	<path fill="#980000" d="M301.49,542.45c0.129,0.064,0.193,0.193,0.193,0.388c0,0.193-0.031,0.322-0.096,0.388
		c-1.357,1.679-2.939,3.746-4.749,6.2c1.228,2.455,2.165,4.328,2.809,5.62c-0.064,0.129-0.193,0.226-0.387,0.29v0.194
		c-0.064,0.129-0.227,0.258-0.484,0.388c0.193,0.322,0.193,0.517,0,0.581c-0.193,0.129-0.322,0.226-0.387,0.29
		c-0.259,0.13-0.518,0.033-0.776-0.29c-0.969-1.292-1.906-2.745-2.81-4.36c-1.679,2.52-3.165,4.845-4.457,6.977
		c-0.323,0.517-0.549,0.807-0.678,0.872c-0.194,0.129-0.484,0.161-0.872,0.097c-0.323,0.064-0.517,0-0.582-0.194
		c-0.064-0.129-0.161-0.322-0.291-0.581c-0.129-0.129-0.194-0.291-0.194-0.484c0.064-0.193,0.129-0.42,0.194-0.678l-0.291-0.485
		c0.775-1.485,2.713-4.23,5.813-8.235c-0.904-1.873-1.679-3.778-2.325-5.716c0-0.194,0.162-0.42,0.484-0.679
		c0.194-0.193,0.355-0.226,0.484-0.097c0.065,0.129,0.194,0.161,0.388,0.097s0.323-0.161,0.388-0.29
		c0.064-0.065,0.162-0.098,0.291-0.098c0.194,0.065,0.323,0.162,0.388,0.291c0.323,0.775,0.969,2.067,1.938,3.876
		c1.292-1.486,2.584-3.036,3.876-4.651c0.064-0.129,0.16-0.193,0.289-0.193c0.195,0,0.389,0.097,0.582,0.29
		c0.193,0.194,0.322,0.227,0.387,0.098c0.131-0.064,0.227-0.13,0.291-0.194c0.129-0.129,0.195-0.161,0.195-0.097
		C301.167,542.191,301.296,542.321,301.49,542.45z"/>
	<path fill-opacity="0" d="M238.5,539.63c26.664,0,39.995,5.332,53.327,10.664c13.331,5.331,26.663,10.663,53.327,10.663"/>
	<path fill="none" stroke="#980000" stroke-width="2" stroke-linejoin="round" stroke-miterlimit="10" d="M238.5,539.63
		c26.664,0,39.995,5.332,53.327,10.664c6.665,2.665,13.331,5.331,21.665,7.331c4.166,0.999,8.748,1.832,13.955,2.416
		c2.605,0.291,5.365,0.521,8.307,0.677c0.369,0.02,0.738,0.038,1.113,0.055l0.848,0.036"/>
	<path fill="#980000" stroke="#980000" stroke-width="2" stroke-miterlimit="10" d="M337.673,562.856l5.668-1.936l-5.586-2.16
		L337.673,562.856z"/>
	<path fill-opacity="0" d="M188.037,442.49h73.121v28.807h-73.121V442.49z"/>
	<path d="M196.214,463.741c0,0.046-0.009,0.084-0.029,0.116c-0.02,0.026-0.055,0.052-0.106,0.078
		c-0.052,0.02-0.123,0.032-0.213,0.038c-0.084,0.014-0.194,0.02-0.33,0.02c-0.129,0-0.239-0.006-0.329-0.02
		c-0.084-0.006-0.152-0.019-0.204-0.038c-0.052-0.026-0.087-0.052-0.106-0.078c-0.02-0.032-0.029-0.07-0.029-0.116v-10.919
		c0-0.045,0.01-0.084,0.029-0.116c0.019-0.032,0.055-0.059,0.106-0.077c0.052-0.026,0.12-0.042,0.204-0.049
		c0.09-0.013,0.2-0.02,0.329-0.02c0.136,0,0.246,0.007,0.33,0.02c0.09,0.007,0.162,0.022,0.213,0.049
		c0.051,0.019,0.087,0.045,0.106,0.077s0.029,0.071,0.029,0.116V463.741z M200.007,463.741c0,0.046-0.01,0.084-0.029,0.116
		c-0.02,0.026-0.055,0.052-0.107,0.078c-0.052,0.02-0.123,0.032-0.213,0.038c-0.084,0.014-0.194,0.02-0.33,0.02
		c-0.129,0-0.239-0.006-0.33-0.02c-0.084-0.006-0.151-0.019-0.203-0.038c-0.052-0.026-0.087-0.052-0.107-0.078
		c-0.019-0.032-0.029-0.07-0.029-0.116v-7.354c0-0.039,0.01-0.074,0.029-0.106c0.02-0.039,0.055-0.068,0.107-0.087
		c0.052-0.02,0.119-0.036,0.203-0.049c0.091-0.013,0.201-0.02,0.33-0.02c0.136,0,0.246,0.007,0.33,0.02
		c0.09,0.013,0.161,0.029,0.213,0.049c0.052,0.019,0.087,0.048,0.107,0.087c0.019,0.032,0.029,0.067,0.029,0.106V463.741z
		 M200.163,453.897c0,0.316-0.062,0.533-0.184,0.649c-0.117,0.109-0.336,0.165-0.659,0.165c-0.31,0-0.526-0.056-0.649-0.165
		c-0.116-0.109-0.174-0.319-0.174-0.63c0-0.316,0.058-0.533,0.174-0.649c0.123-0.116,0.345-0.174,0.668-0.174
		c0.316,0,0.533,0.058,0.649,0.174C200.104,453.378,200.163,453.588,200.163,453.897z M207.076,461.736
		c0,0.374-0.071,0.71-0.213,1.007c-0.136,0.298-0.333,0.546-0.591,0.746c-0.259,0.2-0.565,0.353-0.92,0.456
		c-0.349,0.104-0.737,0.154-1.163,0.154c-0.265,0-0.517-0.022-0.755-0.067c-0.233-0.039-0.442-0.087-0.63-0.146
		c-0.188-0.064-0.349-0.129-0.484-0.193c-0.129-0.071-0.223-0.133-0.281-0.185c-0.058-0.058-0.103-0.136-0.135-0.232
		c-0.026-0.097-0.039-0.232-0.039-0.407c0-0.103,0.006-0.19,0.02-0.261c0.013-0.071,0.026-0.126,0.039-0.165
		c0.02-0.045,0.042-0.078,0.068-0.097c0.032-0.02,0.068-0.029,0.106-0.029c0.058,0,0.146,0.039,0.262,0.116
		c0.123,0.071,0.268,0.151,0.436,0.242c0.174,0.084,0.378,0.165,0.61,0.242c0.232,0.071,0.504,0.106,0.814,0.106
		c0.226,0,0.43-0.025,0.61-0.077c0.188-0.052,0.349-0.123,0.484-0.213c0.142-0.098,0.249-0.22,0.32-0.368
		c0.071-0.149,0.106-0.323,0.106-0.523c0-0.207-0.055-0.381-0.165-0.523c-0.104-0.142-0.242-0.269-0.417-0.378
		s-0.372-0.207-0.591-0.291c-0.213-0.084-0.436-0.171-0.668-0.261c-0.232-0.091-0.458-0.194-0.678-0.311
		c-0.22-0.123-0.417-0.268-0.591-0.436s-0.316-0.368-0.426-0.601c-0.104-0.239-0.155-0.521-0.155-0.844
		c0-0.29,0.055-0.568,0.165-0.833c0.116-0.265,0.284-0.494,0.503-0.688c0.226-0.2,0.504-0.358,0.833-0.475
		c0.336-0.123,0.73-0.185,1.182-0.185c0.193,0,0.387,0.017,0.581,0.049c0.2,0.032,0.378,0.074,0.533,0.126
		c0.161,0.045,0.297,0.097,0.407,0.154c0.11,0.059,0.194,0.11,0.252,0.155c0.058,0.039,0.097,0.074,0.116,0.106
		s0.032,0.071,0.039,0.116c0.007,0.039,0.013,0.088,0.02,0.146c0.013,0.059,0.02,0.133,0.02,0.223c0,0.091-0.007,0.172-0.02,0.242
		c-0.006,0.064-0.02,0.12-0.039,0.165c-0.013,0.045-0.036,0.077-0.068,0.097c-0.026,0.02-0.055,0.029-0.087,0.029
		c-0.052,0-0.123-0.029-0.213-0.087c-0.091-0.064-0.21-0.13-0.359-0.194c-0.148-0.071-0.323-0.136-0.523-0.193
		c-0.194-0.059-0.42-0.087-0.678-0.087c-0.226,0-0.426,0.025-0.601,0.077s-0.32,0.126-0.436,0.223
		c-0.11,0.091-0.194,0.203-0.252,0.339c-0.058,0.13-0.087,0.269-0.087,0.417c0,0.213,0.055,0.394,0.165,0.543
		c0.11,0.142,0.251,0.268,0.426,0.378c0.174,0.109,0.371,0.209,0.591,0.3c0.226,0.084,0.456,0.171,0.688,0.262
		s0.462,0.193,0.688,0.31s0.426,0.256,0.601,0.417s0.313,0.358,0.417,0.591C207.021,461.148,207.076,461.42,207.076,461.736z
		 M212.746,463.199c0,0.161-0.013,0.287-0.039,0.378c-0.02,0.09-0.052,0.158-0.097,0.203c-0.039,0.045-0.103,0.087-0.193,0.126
		c-0.084,0.039-0.184,0.067-0.3,0.087c-0.11,0.026-0.229,0.046-0.359,0.059c-0.123,0.02-0.245,0.029-0.368,0.029
		c-0.381,0-0.71-0.049-0.988-0.146c-0.271-0.104-0.494-0.256-0.668-0.456c-0.174-0.206-0.3-0.465-0.378-0.774
		c-0.077-0.316-0.116-0.688-0.116-1.114v-4.302h-1.027c-0.084,0-0.152-0.042-0.204-0.126c-0.045-0.091-0.068-0.232-0.068-0.427
		c0-0.104,0.007-0.19,0.02-0.262c0.013-0.07,0.029-0.129,0.048-0.174c0.026-0.052,0.055-0.084,0.087-0.097
		c0.039-0.02,0.081-0.029,0.126-0.029h1.017v-1.754c0-0.039,0.01-0.074,0.029-0.106c0.019-0.032,0.055-0.062,0.106-0.087
		c0.052-0.026,0.12-0.042,0.204-0.049c0.09-0.013,0.2-0.02,0.329-0.02c0.136,0,0.246,0.007,0.33,0.02
		c0.09,0.007,0.158,0.022,0.204,0.049c0.052,0.025,0.087,0.055,0.106,0.087c0.026,0.032,0.039,0.067,0.039,0.106v1.754h1.89
		c0.045,0,0.084,0.01,0.116,0.029c0.032,0.013,0.061,0.045,0.087,0.097c0.026,0.045,0.042,0.104,0.049,0.174
		c0.013,0.071,0.019,0.158,0.019,0.262c0,0.194-0.026,0.336-0.077,0.427c-0.045,0.084-0.11,0.126-0.194,0.126h-1.89v4.107
		c0,0.504,0.074,0.886,0.223,1.144c0.155,0.259,0.426,0.388,0.814,0.388c0.123,0,0.232-0.01,0.329-0.029
		c0.097-0.025,0.184-0.052,0.262-0.077c0.078-0.032,0.142-0.059,0.194-0.078c0.058-0.025,0.11-0.038,0.155-0.038
		c0.026,0,0.048,0.006,0.068,0.02c0.026,0.013,0.045,0.038,0.058,0.077c0.02,0.039,0.032,0.091,0.039,0.155
		C212.739,463.021,212.746,463.103,212.746,463.199z M220.782,463.393c0,0.104-0.01,0.19-0.029,0.262
		c-0.013,0.071-0.032,0.129-0.058,0.175c-0.026,0.038-0.058,0.067-0.097,0.087c-0.032,0.02-0.068,0.029-0.107,0.029h-5.532
		c-0.032,0-0.068-0.01-0.106-0.029c-0.032-0.02-0.064-0.049-0.097-0.087c-0.026-0.046-0.049-0.104-0.068-0.175
		c-0.013-0.071-0.02-0.158-0.02-0.262s0.006-0.19,0.02-0.262c0.019-0.07,0.042-0.129,0.068-0.174
		c0.025-0.046,0.055-0.078,0.087-0.098c0.039-0.025,0.078-0.038,0.116-0.038h2.209v-8.052l-2.044,1.221
		c-0.104,0.052-0.188,0.084-0.252,0.098c-0.058,0.013-0.107,0.003-0.146-0.029c-0.039-0.039-0.064-0.098-0.078-0.175
		c-0.013-0.084-0.019-0.19-0.019-0.319c0-0.091,0.003-0.168,0.009-0.232c0.007-0.065,0.016-0.12,0.029-0.165
		c0.02-0.045,0.045-0.084,0.078-0.116s0.071-0.064,0.116-0.097l2.441-1.561c0.02-0.019,0.045-0.032,0.078-0.038
		c0.032-0.014,0.071-0.026,0.116-0.039c0.052-0.013,0.11-0.02,0.174-0.02c0.071,0,0.155,0,0.252,0c0.129,0,0.236,0.007,0.32,0.02
		c0.09,0.007,0.158,0.02,0.204,0.039c0.051,0.02,0.084,0.045,0.097,0.077c0.02,0.026,0.029,0.055,0.029,0.087v9.302h1.918
		c0.045,0,0.084,0.013,0.116,0.038c0.039,0.02,0.071,0.052,0.097,0.098c0.026,0.045,0.045,0.104,0.058,0.174
		C220.775,463.202,220.782,463.289,220.782,463.393z"/>
	<path fill-opacity="0" d="M345.658,442.49h73.121v28.807h-73.121V442.49z"/>
	<path d="M353.835,463.741c0,0.046-0.01,0.084-0.029,0.116c-0.02,0.026-0.055,0.052-0.105,0.078
		c-0.053,0.02-0.123,0.032-0.213,0.038c-0.084,0.014-0.195,0.02-0.33,0.02c-0.129,0-0.238-0.006-0.33-0.02
		c-0.084-0.006-0.15-0.019-0.203-0.038c-0.051-0.026-0.088-0.052-0.107-0.078c-0.018-0.032-0.027-0.07-0.027-0.116v-10.919
		c0-0.045,0.01-0.084,0.027-0.116c0.02-0.032,0.057-0.059,0.107-0.077c0.053-0.026,0.119-0.042,0.203-0.049
		c0.092-0.013,0.201-0.02,0.33-0.02c0.135,0,0.246,0.007,0.33,0.02c0.09,0.007,0.16,0.022,0.213,0.049
		c0.051,0.019,0.086,0.045,0.105,0.077s0.029,0.071,0.029,0.116V463.741z M357.628,463.741c0,0.046-0.01,0.084-0.029,0.116
		c-0.018,0.026-0.055,0.052-0.105,0.078c-0.053,0.02-0.123,0.032-0.213,0.038c-0.084,0.014-0.193,0.02-0.33,0.02
		c-0.129,0-0.238-0.006-0.33-0.02c-0.084-0.006-0.15-0.019-0.203-0.038c-0.051-0.026-0.086-0.052-0.105-0.078
		c-0.02-0.032-0.029-0.07-0.029-0.116v-7.354c0-0.039,0.01-0.074,0.029-0.106c0.02-0.039,0.055-0.068,0.105-0.087
		c0.053-0.02,0.119-0.036,0.203-0.049c0.092-0.013,0.201-0.02,0.33-0.02c0.137,0,0.246,0.007,0.33,0.02
		c0.09,0.013,0.16,0.029,0.213,0.049c0.051,0.019,0.088,0.048,0.105,0.087c0.02,0.032,0.029,0.067,0.029,0.106V463.741z
		 M357.785,453.897c0,0.316-0.063,0.533-0.186,0.649c-0.115,0.109-0.336,0.165-0.658,0.165c-0.311,0-0.525-0.056-0.648-0.165
		c-0.117-0.109-0.176-0.319-0.176-0.63c0-0.316,0.059-0.533,0.176-0.649c0.123-0.116,0.346-0.174,0.668-0.174
		c0.316,0,0.533,0.058,0.648,0.174C357.726,453.378,357.785,453.588,357.785,453.897z M364.697,461.736
		c0,0.374-0.07,0.71-0.213,1.007c-0.135,0.298-0.332,0.546-0.592,0.746c-0.258,0.2-0.564,0.353-0.92,0.456
		c-0.348,0.104-0.736,0.154-1.162,0.154c-0.266,0-0.518-0.022-0.756-0.067c-0.232-0.039-0.443-0.087-0.629-0.146
		c-0.188-0.064-0.35-0.129-0.484-0.193c-0.131-0.071-0.225-0.133-0.281-0.185c-0.059-0.058-0.104-0.136-0.137-0.232
		c-0.025-0.097-0.039-0.232-0.039-0.407c0-0.103,0.008-0.19,0.02-0.261c0.014-0.071,0.027-0.126,0.039-0.165
		c0.02-0.045,0.043-0.078,0.068-0.097c0.031-0.02,0.068-0.029,0.105-0.029c0.059,0,0.146,0.039,0.262,0.116
		c0.123,0.071,0.27,0.151,0.438,0.242c0.174,0.084,0.377,0.165,0.609,0.242c0.232,0.071,0.504,0.106,0.814,0.106
		c0.227,0,0.43-0.025,0.609-0.077c0.188-0.052,0.35-0.123,0.484-0.213c0.143-0.098,0.25-0.22,0.32-0.368
		c0.07-0.149,0.107-0.323,0.107-0.523c0-0.207-0.057-0.381-0.166-0.523c-0.104-0.142-0.242-0.269-0.416-0.378
		s-0.371-0.207-0.592-0.291c-0.213-0.084-0.436-0.171-0.668-0.261c-0.232-0.091-0.459-0.194-0.678-0.311
		c-0.221-0.123-0.416-0.268-0.592-0.436c-0.174-0.168-0.316-0.368-0.426-0.601c-0.104-0.239-0.154-0.521-0.154-0.844
		c0-0.29,0.055-0.568,0.164-0.833c0.115-0.265,0.283-0.494,0.504-0.688c0.227-0.2,0.504-0.358,0.834-0.475
		c0.334-0.123,0.729-0.185,1.182-0.185c0.193,0,0.387,0.017,0.58,0.049c0.201,0.032,0.379,0.074,0.533,0.126
		c0.162,0.045,0.297,0.097,0.408,0.154c0.109,0.059,0.193,0.11,0.252,0.155c0.057,0.039,0.096,0.074,0.115,0.106
		s0.033,0.071,0.039,0.116c0.006,0.039,0.012,0.088,0.02,0.146c0.012,0.059,0.02,0.133,0.02,0.223c0,0.091-0.008,0.172-0.02,0.242
		c-0.008,0.064-0.02,0.12-0.039,0.165c-0.014,0.045-0.035,0.077-0.068,0.097c-0.025,0.02-0.055,0.029-0.086,0.029
		c-0.053,0-0.123-0.029-0.215-0.087c-0.09-0.064-0.209-0.13-0.357-0.194c-0.148-0.071-0.322-0.136-0.523-0.193
		c-0.193-0.059-0.42-0.087-0.678-0.087c-0.227,0-0.426,0.025-0.602,0.077c-0.174,0.052-0.318,0.126-0.436,0.223
		c-0.109,0.091-0.193,0.203-0.252,0.339c-0.059,0.13-0.088,0.269-0.088,0.417c0,0.213,0.055,0.394,0.166,0.543
		c0.109,0.142,0.252,0.268,0.426,0.378c0.174,0.109,0.371,0.209,0.592,0.3c0.225,0.084,0.455,0.171,0.688,0.262
		s0.461,0.193,0.688,0.31s0.426,0.256,0.602,0.417c0.174,0.161,0.313,0.358,0.416,0.591
		C364.642,461.148,364.697,461.42,364.697,461.736z M370.367,463.199c0,0.161-0.012,0.287-0.037,0.378
		c-0.02,0.09-0.053,0.158-0.098,0.203c-0.039,0.045-0.104,0.087-0.193,0.126c-0.084,0.039-0.186,0.067-0.301,0.087
		c-0.109,0.026-0.229,0.046-0.359,0.059c-0.121,0.02-0.244,0.029-0.367,0.029c-0.381,0-0.711-0.049-0.988-0.146
		c-0.271-0.104-0.494-0.256-0.668-0.456c-0.176-0.206-0.301-0.465-0.379-0.774c-0.078-0.316-0.115-0.688-0.115-1.114v-4.302h-1.027
		c-0.084,0-0.152-0.042-0.203-0.126c-0.047-0.091-0.068-0.232-0.068-0.427c0-0.104,0.006-0.19,0.02-0.262
		c0.012-0.07,0.029-0.129,0.049-0.174c0.025-0.052,0.055-0.084,0.086-0.097c0.039-0.02,0.082-0.029,0.127-0.029h1.018v-1.754
		c0-0.039,0.01-0.074,0.029-0.106c0.018-0.032,0.055-0.062,0.105-0.087c0.053-0.026,0.119-0.042,0.203-0.049
		c0.092-0.013,0.201-0.02,0.33-0.02c0.135,0,0.246,0.007,0.33,0.02c0.09,0.007,0.158,0.022,0.203,0.049
		c0.051,0.025,0.086,0.055,0.105,0.087c0.027,0.032,0.039,0.067,0.039,0.106v1.754h1.889c0.047,0,0.084,0.01,0.117,0.029
		c0.033,0.013,0.061,0.045,0.088,0.097c0.025,0.045,0.041,0.104,0.047,0.174c0.014,0.071,0.02,0.158,0.02,0.262
		c0,0.194-0.025,0.336-0.076,0.427c-0.045,0.084-0.111,0.126-0.195,0.126h-1.889v4.107c0,0.504,0.074,0.886,0.223,1.144
		c0.156,0.259,0.428,0.388,0.814,0.388c0.123,0,0.232-0.01,0.33-0.029c0.096-0.025,0.184-0.052,0.262-0.077
		c0.076-0.032,0.141-0.059,0.193-0.078c0.059-0.025,0.109-0.038,0.154-0.038c0.025,0,0.049,0.006,0.068,0.02
		c0.025,0.013,0.045,0.038,0.059,0.077c0.02,0.039,0.031,0.091,0.037,0.155C370.361,463.021,370.367,463.103,370.367,463.199z
		 M378.384,463.345c0,0.097-0.01,0.184-0.029,0.261c-0.012,0.071-0.031,0.133-0.059,0.185c-0.02,0.052-0.051,0.091-0.096,0.116
		c-0.039,0.025-0.082,0.039-0.127,0.039h-5.852c-0.078,0-0.145-0.01-0.203-0.029c-0.053-0.02-0.1-0.049-0.146-0.087
		c-0.037-0.046-0.066-0.11-0.086-0.194s-0.029-0.184-0.029-0.3c0-0.11,0.004-0.204,0.01-0.281c0.014-0.084,0.031-0.158,0.059-0.223
		c0.025-0.064,0.057-0.126,0.096-0.185c0.045-0.064,0.102-0.132,0.166-0.203l2.053-2.18c0.473-0.498,0.85-0.946,1.135-1.347
		c0.289-0.401,0.514-0.763,0.668-1.086c0.154-0.329,0.256-0.626,0.301-0.891c0.051-0.266,0.076-0.518,0.076-0.756
		c0-0.232-0.037-0.452-0.115-0.659c-0.078-0.213-0.188-0.397-0.33-0.552c-0.143-0.162-0.322-0.288-0.543-0.378
		c-0.219-0.098-0.471-0.146-0.754-0.146c-0.33,0-0.627,0.048-0.893,0.146c-0.264,0.09-0.498,0.19-0.697,0.3
		c-0.201,0.11-0.369,0.213-0.504,0.311c-0.129,0.09-0.227,0.136-0.291,0.136c-0.039,0-0.074-0.01-0.105-0.029
		c-0.027-0.026-0.049-0.062-0.068-0.106c-0.02-0.052-0.035-0.12-0.049-0.204s-0.02-0.181-0.02-0.29c0-0.084,0.004-0.155,0.01-0.214
		c0.006-0.064,0.016-0.116,0.029-0.154c0.014-0.046,0.029-0.088,0.049-0.126c0.025-0.039,0.07-0.088,0.135-0.146
		c0.064-0.059,0.178-0.136,0.34-0.232c0.162-0.098,0.361-0.194,0.6-0.291c0.246-0.097,0.514-0.178,0.805-0.242
		c0.297-0.064,0.604-0.097,0.92-0.097c0.518,0,0.967,0.074,1.348,0.223c0.387,0.143,0.707,0.339,0.959,0.591
		c0.252,0.246,0.439,0.536,0.563,0.872c0.129,0.329,0.193,0.685,0.193,1.066c0,0.335-0.033,0.671-0.098,1.007
		c-0.057,0.336-0.184,0.698-0.377,1.086c-0.193,0.387-0.475,0.82-0.844,1.298c-0.361,0.478-0.842,1.027-1.443,1.647l-1.676,1.753
		h4.602c0.039,0,0.078,0.014,0.117,0.039c0.045,0.02,0.08,0.055,0.105,0.106c0.033,0.052,0.057,0.113,0.068,0.185
		C378.375,463.153,378.384,463.241,378.384,463.345z"/>
</g>
</svg>
