<?xml version="1.0" encoding="UTF-8" standalone="no"?>
<!-- Generator: Adobe Illustrator 16.0.3, SVG Export Plug-In . SVG Version: 6.00 Build 0)  -->

<svg
   xmlns:dc="http://purl.org/dc/elements/1.1/"
   xmlns:cc="http://creativecommons.org/ns#"
   xmlns:rdf="http://www.w3.org/1999/02/22-rdf-syntax-ns#"
   xmlns:svg="http://www.w3.org/2000/svg"
   xmlns="http://www.w3.org/2000/svg"
   xmlns:sodipodi="http://sodipodi.sourceforge.net/DTD/sodipodi-0.dtd"
   xmlns:inkscape="http://www.inkscape.org/namespaces/inkscape"
   version="1.1"
   id="Layer_1"
   x="0px"
   y="0px"
   width="537.753px"
   height="242.467px"
   viewBox="28.762 368.199 537.753 242.467"
   enable-background="new 28.762 368.199 537.753 242.467"
   xml:space="preserve"
   inkscape:version="0.91 r13725"
   sodipodi:docname="binary-fail.svg"><metadata
     id="metadata89"><rdf:RDF><cc:Work
         rdf:about=""><dc:format>image/svg+xml</dc:format><dc:type
           rdf:resource="http://purl.org/dc/dcmitype/StillImage" /><dc:title></dc:title></cc:Work></rdf:RDF></metadata><defs
     id="defs87" /><sodipodi:namedview
     pagecolor="#ffffff"
     bordercolor="#666666"
     borderopacity="1"
     objecttolerance="10"
     gridtolerance="10"
     guidetolerance="10"
     inkscape:pageopacity="0"
     inkscape:pageshadow="2"
     inkscape:window-width="1853"
     inkscape:window-height="1140"
     id="namedview85"
     showgrid="false"
     inkscape:zoom="3.2610229"
     inkscape:cx="268.92612"
     inkscape:cy="107.03985"
     inkscape:window-x="0"
     inkscape:window-y="0"
     inkscape:window-maximized="0"
     inkscape:current-layer="Layer_1" /><path
     style="fill-opacity:0"
     inkscape:connector-curvature="0"
     id="path5"
     d="m 29.762,382.22 535.753,0 0,227.446 -535.753,0 0,-227.446 z" /><path
     style="fill:none;stroke:#535353;stroke-width:1.66415203;stroke-linejoin:round;stroke-miterlimit:10;stroke-dasharray:6.6566076, 4.9924557"
     inkscape:connector-curvature="0"
     id="path7"
     d="m 56.815459,398.6113 459.492711,0 0,183.6074 -459.492711,0 0,-183.6074 z"
     stroke-miterlimit="10" /><path
     style="fill:#ffffff"
     inkscape:connector-curvature="0"
     id="path9"
     d="m 244.832,387.199 87.515,0 0,22.573 -87.515,0 0,-22.573 z" /><g
     id="g3494"
     transform="translate(0,18)"><path
       stroke-miterlimit="10"
       d="m 244.832,369.199 87.515,0 0,22.573 -87.515,0 0,-22.573 z"
       id="path11"
       inkscape:connector-curvature="0"
       style="fill:none;stroke:#535353;stroke-width:2;stroke-linejoin:round;stroke-miterlimit:10" /><path
       d="m 278.742,379.49 c 0,0.129 -0.003,0.239 -0.01,0.33 0,0.084 -0.01,0.152 -0.029,0.203 -0.019,0.052 -0.042,0.091 -0.068,0.117 -0.025,0.025 -0.061,0.039 -0.106,0.039 -0.052,0 -0.11,-0.013 -0.174,-0.039 -0.064,-0.026 -0.142,-0.052 -0.232,-0.078 -0.084,-0.026 -0.178,-0.052 -0.281,-0.078 -0.103,-0.026 -0.216,-0.039 -0.339,-0.039 -0.148,0 -0.294,0.029 -0.436,0.087 -0.136,0.058 -0.284,0.155 -0.446,0.291 -0.155,0.136 -0.316,0.317 -0.484,0.543 -0.168,0.22 -0.355,0.491 -0.562,0.813 l 0,5.193 c 0,0.052 -0.013,0.094 -0.039,0.126 -0.02,0.032 -0.055,0.062 -0.106,0.087 -0.052,0.019 -0.126,0.032 -0.223,0.039 -0.09,0.013 -0.21,0.02 -0.358,0.02 -0.142,0 -0.262,-0.007 -0.358,-0.02 -0.09,-0.006 -0.165,-0.02 -0.223,-0.039 -0.051,-0.026 -0.087,-0.055 -0.106,-0.087 -0.019,-0.032 -0.029,-0.074 -0.029,-0.126 l 0,-7.896 c 0,-0.051 0.006,-0.093 0.019,-0.126 0.02,-0.032 0.055,-0.061 0.107,-0.087 0.051,-0.026 0.119,-0.042 0.203,-0.048 0.084,-0.007 0.194,-0.01 0.33,-0.01 0.129,0 0.236,0.003 0.32,0.01 0.084,0.006 0.148,0.022 0.194,0.048 0.045,0.026 0.077,0.055 0.097,0.087 0.026,0.033 0.039,0.075 0.039,0.126 l 0,1.144 c 0.213,-0.316 0.414,-0.572 0.601,-0.766 0.193,-0.2 0.375,-0.355 0.542,-0.465 0.174,-0.116 0.342,-0.197 0.504,-0.242 0.168,-0.045 0.339,-0.068 0.513,-0.068 0.071,0 0.155,0.006 0.252,0.019 0.097,0.007 0.197,0.023 0.3,0.049 0.11,0.019 0.207,0.045 0.291,0.077 0.084,0.026 0.142,0.055 0.174,0.087 0.039,0.026 0.064,0.052 0.077,0.078 0.013,0.026 0.023,0.062 0.029,0.106 0.006,0.039 0.01,0.097 0.01,0.174 0.004,0.079 0.007,0.185 0.007,0.321 z m 9.072,3.343 c 0,0.646 -0.084,1.24 -0.252,1.783 -0.168,0.543 -0.423,1.011 -0.765,1.405 -0.336,0.388 -0.756,0.691 -1.26,0.911 -0.504,0.22 -1.092,0.33 -1.763,0.33 -0.646,0 -1.211,-0.097 -1.696,-0.291 -0.484,-0.194 -0.888,-0.475 -1.211,-0.843 -0.316,-0.368 -0.556,-0.813 -0.717,-1.337 -0.155,-0.53 -0.232,-1.127 -0.232,-1.792 0,-0.646 0.081,-1.24 0.242,-1.783 0.168,-0.542 0.42,-1.008 0.756,-1.395 0.336,-0.394 0.756,-0.698 1.26,-0.911 0.503,-0.22 1.095,-0.33 1.773,-0.33 0.646,0 1.211,0.097 1.695,0.291 0.484,0.194 0.885,0.475 1.202,0.843 0.323,0.368 0.565,0.817 0.727,1.347 0.161,0.522 0.241,1.113 0.241,1.772 z m -1.521,0.097 c 0,-0.426 -0.042,-0.83 -0.126,-1.211 -0.078,-0.381 -0.207,-0.714 -0.388,-0.998 -0.181,-0.284 -0.426,-0.51 -0.736,-0.678 -0.31,-0.168 -0.698,-0.252 -1.163,-0.252 -0.426,0 -0.794,0.078 -1.104,0.232 -0.304,0.149 -0.556,0.362 -0.756,0.64 -0.2,0.278 -0.349,0.607 -0.446,0.988 -0.097,0.381 -0.145,0.798 -0.145,1.25 0,0.433 0.039,0.839 0.116,1.221 0.084,0.381 0.216,0.714 0.397,0.998 0.188,0.284 0.436,0.51 0.746,0.678 0.31,0.161 0.698,0.242 1.163,0.242 0.42,0 0.785,-0.074 1.095,-0.223 0.31,-0.155 0.565,-0.368 0.765,-0.639 0.2,-0.278 0.346,-0.607 0.436,-0.988 0.098,-0.382 0.146,-0.802 0.146,-1.26 z m 11.112,-0.097 c 0,0.646 -0.084,1.24 -0.252,1.783 -0.168,0.543 -0.423,1.011 -0.766,1.405 -0.336,0.388 -0.755,0.691 -1.259,0.911 -0.504,0.22 -1.092,0.33 -1.764,0.33 -0.646,0 -1.211,-0.097 -1.695,-0.291 -0.484,-0.194 -0.888,-0.475 -1.211,-0.843 -0.317,-0.368 -0.556,-0.813 -0.717,-1.337 -0.155,-0.53 -0.232,-1.127 -0.232,-1.792 0,-0.646 0.081,-1.24 0.242,-1.783 0.168,-0.542 0.42,-1.008 0.756,-1.395 0.336,-0.394 0.755,-0.698 1.259,-0.911 0.504,-0.22 1.095,-0.33 1.773,-0.33 0.646,0 1.211,0.097 1.695,0.291 0.484,0.194 0.885,0.475 1.202,0.843 0.323,0.368 0.565,0.817 0.727,1.347 0.161,0.522 0.242,1.113 0.242,1.772 z m -1.521,0.097 c 0,-0.426 -0.042,-0.83 -0.126,-1.211 -0.078,-0.381 -0.207,-0.714 -0.388,-0.998 -0.181,-0.284 -0.426,-0.51 -0.736,-0.678 -0.31,-0.168 -0.698,-0.252 -1.163,-0.252 -0.426,0 -0.794,0.078 -1.104,0.232 -0.304,0.149 -0.556,0.362 -0.756,0.64 -0.2,0.278 -0.349,0.607 -0.446,0.988 -0.097,0.381 -0.146,0.798 -0.146,1.25 0,0.433 0.039,0.839 0.117,1.221 0.084,0.381 0.216,0.714 0.397,0.998 0.188,0.284 0.436,0.51 0.746,0.678 0.31,0.161 0.698,0.242 1.163,0.242 0.42,0 0.785,-0.074 1.095,-0.223 0.31,-0.155 0.565,-0.368 0.766,-0.639 0.2,-0.278 0.346,-0.607 0.436,-0.988 0.096,-0.382 0.145,-0.802 0.145,-1.26 z m 7.875,3.371 c 0,0.168 -0.014,0.304 -0.039,0.407 -0.02,0.097 -0.055,0.168 -0.107,0.213 -0.045,0.045 -0.115,0.091 -0.213,0.136 -0.09,0.039 -0.197,0.071 -0.318,0.097 -0.117,0.025 -0.242,0.045 -0.379,0.058 -0.135,0.019 -0.271,0.029 -0.406,0.029 -0.408,0 -0.76,-0.052 -1.057,-0.155 -0.291,-0.11 -0.529,-0.275 -0.717,-0.494 -0.188,-0.22 -0.322,-0.498 -0.406,-0.833 -0.084,-0.335 -0.127,-0.733 -0.127,-1.191 l 0,-4.622 -1.104,0 c -0.092,0 -0.162,-0.045 -0.215,-0.136 -0.051,-0.097 -0.076,-0.249 -0.076,-0.456 0,-0.116 0.006,-0.21 0.02,-0.281 0.012,-0.078 0.031,-0.142 0.057,-0.194 0.027,-0.052 0.057,-0.087 0.088,-0.106 0.039,-0.02 0.084,-0.029 0.137,-0.029 l 1.094,0 0,-1.879 c 0,-0.039 0.01,-0.075 0.029,-0.107 0.02,-0.039 0.059,-0.071 0.115,-0.097 0.059,-0.026 0.133,-0.045 0.225,-0.058 0.096,-0.013 0.213,-0.02 0.348,-0.02 0.148,0 0.268,0.006 0.359,0.02 0.096,0.013 0.17,0.032 0.223,0.058 0.051,0.026 0.09,0.058 0.115,0.097 0.027,0.032 0.039,0.068 0.039,0.107 l 0,1.879 2.025,0 c 0.045,0 0.084,0.01 0.115,0.029 0.039,0.019 0.072,0.055 0.098,0.106 0.026,0.051 0.045,0.116 0.059,0.194 0.012,0.071 0.02,0.165 0.02,0.281 0,0.207 -0.029,0.358 -0.088,0.456 -0.051,0.09 -0.119,0.136 -0.203,0.136 l -2.025,0 0,4.408 c 0,0.549 0.078,0.962 0.232,1.24 0.162,0.278 0.453,0.417 0.873,0.417 0.135,0 0.254,-0.013 0.357,-0.039 0.104,-0.032 0.197,-0.062 0.281,-0.087 0.084,-0.032 0.154,-0.062 0.213,-0.087 0.059,-0.026 0.109,-0.039 0.156,-0.039 0.025,0 0.051,0.01 0.076,0.029 0.033,0.013 0.055,0.039 0.068,0.077 0.014,0.039 0.025,0.094 0.039,0.165 0.011,0.071 0.019,0.162 0.019,0.271 z"
       id="path13"
       inkscape:connector-curvature="0" /></g><path
     style="fill:#ffffff"
     inkscape:connector-curvature="0"
     id="path15"
     d="m 94.168,514.643 110.775,0 0,28.808 -110.775,0 0,-28.808 z" /><path
     style="fill:none;stroke:#535353;stroke-width:2;stroke-linejoin:round;stroke-miterlimit:10"
     inkscape:connector-curvature="0"
     id="path17"
     d="m 94.168,514.643 110.775,0 0,28.808 -110.775,0 0,-28.808 z"
     stroke-miterlimit="10" /><path
     inkscape:connector-curvature="0"
     id="path19"
     d="m 132.499,535.036 c 0,0.104 -0.006,0.194 -0.02,0.271 -0.006,0.077 -0.026,0.146 -0.058,0.203 -0.026,0.052 -0.058,0.091 -0.097,0.116 -0.039,0.02 -0.081,0.029 -0.126,0.029 l -5.455,0 c -0.135,0 -0.265,-0.045 -0.387,-0.136 -0.116,-0.09 -0.174,-0.248 -0.174,-0.475 l 0,-10.135 c 0,-0.232 0.058,-0.394 0.174,-0.484 0.123,-0.09 0.252,-0.136 0.387,-0.136 l 5.387,0 c 0.052,0 0.094,0.014 0.126,0.039 0.039,0.026 0.071,0.064 0.097,0.116 0.026,0.052 0.045,0.116 0.058,0.194 0.013,0.077 0.02,0.174 0.02,0.29 0,0.11 -0.006,0.204 -0.02,0.281 -0.013,0.077 -0.032,0.142 -0.058,0.193 -0.026,0.051 -0.058,0.091 -0.097,0.116 -0.032,0.02 -0.074,0.029 -0.126,0.029 l -4.438,0 0,3.565 3.808,0 c 0.045,0 0.087,0.013 0.126,0.039 0.039,0.025 0.071,0.062 0.097,0.106 0.025,0.045 0.045,0.11 0.058,0.194 0.013,0.083 0.019,0.181 0.019,0.29 0,0.104 -0.006,0.194 -0.019,0.271 -0.013,0.077 -0.033,0.139 -0.058,0.184 -0.026,0.046 -0.058,0.081 -0.097,0.107 -0.039,0.019 -0.081,0.028 -0.126,0.028 l -3.808,0 0,4.06 4.505,0 c 0.045,0 0.087,0.014 0.126,0.039 0.039,0.025 0.071,0.064 0.097,0.116 0.032,0.045 0.052,0.11 0.058,0.194 0.014,0.083 0.021,0.18 0.021,0.296 z m 9.199,0.398 c 0,0.052 -0.013,0.094 -0.039,0.126 -0.019,0.032 -0.058,0.062 -0.116,0.087 -0.052,0.02 -0.126,0.032 -0.223,0.039 -0.09,0.013 -0.204,0.02 -0.339,0.02 -0.148,0 -0.271,-0.007 -0.368,-0.02 -0.09,-0.007 -0.161,-0.02 -0.213,-0.039 -0.052,-0.025 -0.09,-0.055 -0.116,-0.087 -0.026,-0.032 -0.039,-0.074 -0.039,-0.126 l 0,-4.621 c 0,-0.453 -0.035,-0.814 -0.106,-1.086 -0.064,-0.277 -0.165,-0.517 -0.3,-0.717 -0.135,-0.2 -0.31,-0.352 -0.523,-0.455 -0.213,-0.104 -0.461,-0.155 -0.746,-0.155 -0.362,0 -0.724,0.129 -1.085,0.388 -0.362,0.252 -0.743,0.627 -1.143,1.124 l 0,5.522 c 0,0.052 -0.013,0.094 -0.039,0.126 -0.019,0.032 -0.055,0.062 -0.106,0.087 -0.052,0.02 -0.126,0.032 -0.223,0.039 -0.091,0.013 -0.21,0.02 -0.359,0.02 -0.142,0 -0.261,-0.007 -0.358,-0.02 -0.09,-0.007 -0.165,-0.02 -0.223,-0.039 -0.052,-0.025 -0.087,-0.055 -0.106,-0.087 -0.02,-0.032 -0.029,-0.074 -0.029,-0.126 l 0,-7.896 c 0,-0.052 0.006,-0.094 0.02,-0.126 0.02,-0.032 0.055,-0.062 0.106,-0.087 0.052,-0.026 0.12,-0.042 0.204,-0.049 0.084,-0.006 0.194,-0.01 0.329,-0.01 0.129,0 0.236,0.004 0.32,0.01 0.084,0.007 0.148,0.022 0.194,0.049 0.045,0.025 0.078,0.055 0.097,0.087 0.025,0.032 0.039,0.074 0.039,0.126 l 0,1.047 c 0.446,-0.498 0.888,-0.862 1.327,-1.096 0.439,-0.232 0.885,-0.349 1.337,-0.349 0.529,0 0.972,0.091 1.327,0.271 0.362,0.175 0.652,0.413 0.872,0.717 0.226,0.298 0.388,0.646 0.484,1.047 0.096,0.401 0.146,0.882 0.146,1.443 l 0,4.816 z m 9.351,-7.538 c 0,0.207 -0.029,0.355 -0.087,0.446 -0.051,0.09 -0.123,0.135 -0.213,0.135 l -1.134,0 c 0.207,0.207 0.352,0.439 0.436,0.698 0.084,0.252 0.126,0.517 0.126,0.794 0,0.452 -0.074,0.856 -0.223,1.211 -0.148,0.35 -0.358,0.646 -0.63,0.892 -0.271,0.239 -0.594,0.423 -0.969,0.553 -0.375,0.129 -0.792,0.193 -1.25,0.193 -0.323,0 -0.63,-0.042 -0.92,-0.126 -0.284,-0.084 -0.507,-0.19 -0.668,-0.319 -0.104,0.104 -0.19,0.223 -0.262,0.358 -0.064,0.136 -0.097,0.291 -0.097,0.465 0,0.207 0.093,0.378 0.281,0.514 0.194,0.136 0.449,0.207 0.766,0.213 l 2.063,0.097 c 0.394,0.007 0.752,0.059 1.076,0.155 0.329,0.097 0.613,0.236 0.853,0.417 0.239,0.181 0.426,0.4 0.562,0.658 0.136,0.259 0.203,0.563 0.203,0.911 0,0.361 -0.077,0.704 -0.232,1.027 -0.148,0.329 -0.381,0.616 -0.697,0.862 -0.31,0.252 -0.708,0.448 -1.192,0.591 -0.484,0.148 -1.06,0.223 -1.725,0.223 -0.64,0 -1.182,-0.055 -1.628,-0.165 -0.445,-0.109 -0.813,-0.258 -1.104,-0.445 -0.284,-0.188 -0.491,-0.41 -0.62,-0.668 -0.129,-0.259 -0.194,-0.543 -0.194,-0.854 0,-0.187 0.023,-0.374 0.068,-0.562 0.052,-0.181 0.123,-0.352 0.213,-0.514 0.097,-0.161 0.216,-0.316 0.358,-0.465 0.148,-0.155 0.316,-0.304 0.504,-0.445 -0.291,-0.149 -0.504,-0.333 -0.64,-0.553 -0.136,-0.226 -0.203,-0.469 -0.203,-0.727 0,-0.355 0.071,-0.672 0.213,-0.949 0.148,-0.284 0.333,-0.536 0.552,-0.756 -0.181,-0.22 -0.326,-0.465 -0.436,-0.736 -0.103,-0.271 -0.155,-0.601 -0.155,-0.988 0,-0.452 0.074,-0.856 0.223,-1.211 0.155,-0.355 0.365,-0.656 0.63,-0.901 0.271,-0.245 0.594,-0.433 0.969,-0.562 0.381,-0.136 0.794,-0.204 1.24,-0.204 0.239,0 0.462,0.013 0.668,0.039 0.213,0.025 0.41,0.062 0.591,0.106 l 2.383,0 c 0.104,0 0.178,0.049 0.223,0.146 0.052,0.097 0.078,0.245 0.078,0.446 z m -2.267,2.083 c 0,-0.542 -0.148,-0.962 -0.446,-1.26 -0.291,-0.303 -0.707,-0.455 -1.25,-0.455 -0.284,0 -0.529,0.049 -0.736,0.146 -0.207,0.091 -0.381,0.22 -0.523,0.388 -0.136,0.161 -0.239,0.349 -0.31,0.562 -0.064,0.214 -0.097,0.437 -0.097,0.669 0,0.523 0.149,0.934 0.446,1.23 0.297,0.297 0.71,0.445 1.24,0.445 0.291,0 0.54,-0.045 0.746,-0.136 0.213,-0.09 0.388,-0.216 0.523,-0.378 0.142,-0.161 0.246,-0.345 0.31,-0.552 0.065,-0.213 0.097,-0.433 0.097,-0.659 z m 0.737,6.258 c 0,-0.342 -0.142,-0.604 -0.426,-0.784 -0.278,-0.188 -0.652,-0.288 -1.124,-0.301 l -2.044,-0.067 c -0.187,0.148 -0.342,0.29 -0.465,0.426 -0.116,0.13 -0.21,0.252 -0.281,0.368 -0.071,0.123 -0.119,0.242 -0.145,0.358 -0.026,0.116 -0.039,0.236 -0.039,0.359 0,0.381 0.191,0.668 0.572,0.862 0.388,0.2 0.927,0.3 1.618,0.3 0.439,0 0.807,-0.045 1.104,-0.136 0.297,-0.084 0.536,-0.197 0.717,-0.339 0.181,-0.136 0.31,-0.294 0.388,-0.475 0.083,-0.179 0.125,-0.37 0.125,-0.571 z m 4.936,-0.803 c 0,0.052 -0.013,0.094 -0.039,0.126 -0.02,0.032 -0.055,0.062 -0.107,0.087 -0.052,0.02 -0.126,0.032 -0.223,0.039 -0.09,0.013 -0.21,0.02 -0.358,0.02 -0.142,0 -0.262,-0.007 -0.358,-0.02 -0.091,-0.007 -0.165,-0.02 -0.223,-0.039 -0.052,-0.025 -0.087,-0.055 -0.106,-0.087 -0.019,-0.032 -0.029,-0.074 -0.029,-0.126 l 0,-7.896 c 0,-0.045 0.01,-0.084 0.029,-0.116 0.02,-0.039 0.055,-0.067 0.106,-0.087 0.058,-0.026 0.132,-0.042 0.223,-0.049 0.097,-0.013 0.216,-0.02 0.358,-0.02 0.148,0 0.268,0.007 0.358,0.02 0.097,0.007 0.171,0.022 0.223,0.049 0.052,0.02 0.087,0.048 0.107,0.087 0.025,0.032 0.039,0.071 0.039,0.116 l 0,7.896 z m 0.165,-10.571 c 0,0.342 -0.064,0.574 -0.194,0.697 -0.123,0.123 -0.358,0.185 -0.707,0.185 -0.336,0 -0.568,-0.059 -0.698,-0.175 -0.123,-0.123 -0.184,-0.352 -0.184,-0.688 0,-0.343 0.062,-0.575 0.184,-0.698 0.129,-0.122 0.368,-0.184 0.717,-0.184 0.335,0 0.565,0.062 0.688,0.184 0.129,0.124 0.194,0.349 0.194,0.679 z m 9.366,10.571 c 0,0.052 -0.013,0.094 -0.039,0.126 -0.02,0.032 -0.058,0.062 -0.116,0.087 -0.052,0.02 -0.126,0.032 -0.223,0.039 -0.09,0.013 -0.203,0.02 -0.339,0.02 -0.148,0 -0.271,-0.007 -0.368,-0.02 -0.09,-0.007 -0.162,-0.02 -0.213,-0.039 -0.051,-0.025 -0.09,-0.055 -0.116,-0.087 -0.026,-0.032 -0.039,-0.074 -0.039,-0.126 l 0,-4.621 c 0,-0.453 -0.036,-0.814 -0.106,-1.086 -0.065,-0.277 -0.165,-0.517 -0.301,-0.717 -0.135,-0.2 -0.31,-0.352 -0.523,-0.455 -0.213,-0.103 -0.462,-0.155 -0.746,-0.155 -0.362,0 -0.723,0.129 -1.085,0.388 -0.362,0.252 -0.743,0.627 -1.144,1.124 l 0,5.522 c 0,0.052 -0.013,0.094 -0.039,0.126 -0.02,0.032 -0.055,0.062 -0.106,0.087 -0.052,0.02 -0.126,0.032 -0.223,0.039 -0.09,0.013 -0.21,0.02 -0.358,0.02 -0.142,0 -0.262,-0.007 -0.358,-0.02 -0.09,-0.007 -0.165,-0.02 -0.223,-0.039 -0.052,-0.025 -0.087,-0.055 -0.107,-0.087 -0.019,-0.032 -0.029,-0.074 -0.029,-0.126 l 0,-7.896 c 0,-0.052 0.006,-0.094 0.019,-0.126 0.02,-0.032 0.055,-0.062 0.107,-0.087 0.052,-0.026 0.119,-0.042 0.203,-0.049 0.084,-0.006 0.194,-0.01 0.33,-0.01 0.129,0 0.236,0.004 0.32,0.01 0.084,0.007 0.148,0.022 0.194,0.049 0.045,0.025 0.077,0.055 0.097,0.087 0.026,0.032 0.039,0.074 0.039,0.126 l 0,1.047 c 0.445,-0.498 0.888,-0.862 1.327,-1.096 0.439,-0.232 0.885,-0.349 1.337,-0.349 0.53,0 0.972,0.091 1.328,0.271 0.362,0.175 0.652,0.413 0.872,0.717 0.226,0.298 0.387,0.646 0.484,1.047 0.097,0.4 0.145,0.882 0.145,1.443 l 0,4.816 z m 9.497,-4.292 c 0,0.232 -0.058,0.397 -0.174,0.494 -0.116,0.09 -0.246,0.136 -0.388,0.136 l -5.183,0 c 0,0.438 0.042,0.836 0.126,1.191 0.09,0.349 0.239,0.649 0.445,0.901 0.207,0.252 0.472,0.445 0.794,0.581 0.33,0.136 0.733,0.203 1.211,0.203 0.375,0 0.707,-0.028 0.998,-0.087 0.291,-0.064 0.543,-0.136 0.756,-0.213 0.213,-0.078 0.388,-0.146 0.523,-0.204 0.142,-0.064 0.249,-0.097 0.32,-0.097 0.039,0 0.074,0.01 0.106,0.029 0.032,0.019 0.058,0.052 0.078,0.097 0.019,0.039 0.032,0.097 0.039,0.175 0.006,0.071 0.01,0.158 0.01,0.262 0,0.077 -0.003,0.146 -0.01,0.203 -0.006,0.052 -0.013,0.101 -0.02,0.146 -0.007,0.045 -0.022,0.087 -0.048,0.126 -0.02,0.032 -0.045,0.064 -0.078,0.097 -0.033,0.033 -0.129,0.084 -0.291,0.155 -0.155,0.071 -0.358,0.142 -0.61,0.213 -0.246,0.071 -0.536,0.133 -0.872,0.185 -0.33,0.058 -0.682,0.087 -1.056,0.087 -0.646,0 -1.214,-0.091 -1.705,-0.271 -0.491,-0.18 -0.904,-0.449 -1.24,-0.804 -0.33,-0.362 -0.582,-0.812 -0.756,-1.348 -0.168,-0.535 -0.252,-1.162 -0.252,-1.879 0,-0.679 0.087,-1.289 0.262,-1.831 0.181,-0.543 0.436,-1.002 0.766,-1.376 0.329,-0.381 0.727,-0.672 1.191,-0.872 0.472,-0.2 0.998,-0.301 1.58,-0.301 0.62,0 1.146,0.101 1.579,0.301 0.439,0.2 0.798,0.468 1.076,0.804 0.284,0.336 0.491,0.73 0.62,1.183 0.135,0.452 0.203,0.937 0.203,1.453 l 0,0.261 z m -1.463,-0.427 c 0.02,-0.762 -0.148,-1.359 -0.504,-1.792 -0.355,-0.433 -0.881,-0.649 -1.579,-0.649 -0.355,0 -0.668,0.068 -0.94,0.203 -0.265,0.136 -0.488,0.313 -0.668,0.533 -0.18,0.22 -0.323,0.479 -0.426,0.775 -0.097,0.297 -0.152,0.607 -0.165,0.93 l 4.282,0 z" /><path
     style="fill:none;stroke:#000000;stroke-width:1.91929996;stroke-miterlimit:10"
     inkscape:connector-curvature="0"
     id="path21"
     d="m 124.67,537.717 49.771,0"
     stroke-miterlimit="10" /><g
     id="g3457"
     transform="matrix(1.0013871,0,0,0.75866881,-0.23807272,123.92599)"><path
       d="m 79.081,514.042 185.107,0 0,74.41 -185.107,0 0,-74.41 z"
       id="path23"
       inkscape:connector-curvature="0"
       style="fill:#d9d9d9" /><path
       stroke-miterlimit="10"
       d="m 79.081,514.042 185.107,0 0,74.41 -185.107,0 0,-74.41 z"
       id="path25"
       inkscape:connector-curvature="0"
       style="fill:none;stroke:#535353;stroke-width:2;stroke-linejoin:round;stroke-miterlimit:10;stroke-dasharray:8, 6" /></g><path
     style="fill:#ffffff"
     inkscape:connector-curvature="0"
     id="path27"
     d="m 114.528,497.411 110.775,0 0,28.808 -110.775,0 0,-28.808 z" /><path
     style="fill:none;stroke:#535353;stroke-width:2;stroke-linejoin:round;stroke-miterlimit:10"
     inkscape:connector-curvature="0"
     id="path29"
     d="m 114.528,497.411 110.775,0 0,28.808 -110.775,0 0,-28.808 z"
     stroke-miterlimit="10" /><path
     inkscape:connector-curvature="0"
     id="path31"
     d="m 164.807,517.767 c 0,0.116 -0.007,0.216 -0.02,0.3 -0.013,0.078 -0.032,0.146 -0.058,0.204 -0.026,0.052 -0.058,0.09 -0.097,0.116 -0.039,0.025 -0.084,0.038 -0.136,0.038 l -5.019,0 c -0.136,0 -0.265,-0.045 -0.387,-0.136 -0.117,-0.09 -0.175,-0.248 -0.175,-0.475 l 0,-10.521 c 0,-0.046 0.01,-0.084 0.029,-0.116 0.026,-0.039 0.068,-0.068 0.126,-0.088 0.058,-0.025 0.136,-0.045 0.232,-0.058 0.104,-0.013 0.226,-0.02 0.368,-0.02 0.142,0 0.262,0.007 0.358,0.02 0.097,0.013 0.174,0.032 0.233,0.058 0.064,0.02 0.106,0.049 0.125,0.088 0.026,0.032 0.039,0.07 0.039,0.116 l 0,9.824 4.069,0 c 0.052,0 0.097,0.013 0.136,0.039 0.039,0.025 0.071,0.064 0.097,0.116 0.026,0.052 0.045,0.119 0.058,0.203 0.015,0.078 0.022,0.175 0.022,0.292 z m 3.033,0.435 c 0,0.052 -0.013,0.094 -0.039,0.126 -0.019,0.032 -0.055,0.062 -0.106,0.087 -0.052,0.02 -0.126,0.032 -0.223,0.039 -0.091,0.013 -0.21,0.02 -0.359,0.02 -0.142,0 -0.261,-0.007 -0.358,-0.02 -0.09,-0.007 -0.165,-0.02 -0.223,-0.039 -0.052,-0.025 -0.087,-0.055 -0.106,-0.087 -0.02,-0.032 -0.029,-0.074 -0.029,-0.126 l 0,-7.896 c 0,-0.045 0.01,-0.084 0.029,-0.116 0.019,-0.039 0.055,-0.067 0.106,-0.087 0.058,-0.026 0.132,-0.042 0.223,-0.049 0.097,-0.013 0.216,-0.02 0.358,-0.02 0.149,0 0.268,0.007 0.359,0.02 0.097,0.007 0.171,0.022 0.223,0.049 0.052,0.02 0.087,0.048 0.106,0.087 0.026,0.032 0.039,0.071 0.039,0.116 l 0,7.896 z m 0.165,-10.57 c 0,0.342 -0.064,0.575 -0.194,0.697 -0.123,0.123 -0.358,0.185 -0.707,0.185 -0.336,0 -0.569,-0.059 -0.698,-0.175 -0.123,-0.122 -0.184,-0.352 -0.184,-0.688 0,-0.343 0.062,-0.575 0.184,-0.698 0.129,-0.122 0.368,-0.184 0.717,-0.184 0.336,0 0.565,0.062 0.688,0.184 0.129,0.123 0.194,0.35 0.194,0.679 z m 7.526,8.42 c 0,0.406 -0.078,0.769 -0.232,1.085 -0.149,0.316 -0.362,0.584 -0.64,0.804 -0.271,0.214 -0.598,0.375 -0.979,0.484 -0.381,0.11 -0.798,0.165 -1.25,0.165 -0.284,0 -0.555,-0.022 -0.814,-0.067 -0.251,-0.039 -0.478,-0.091 -0.678,-0.155 -0.201,-0.071 -0.372,-0.143 -0.514,-0.213 -0.142,-0.078 -0.246,-0.146 -0.31,-0.204 -0.064,-0.058 -0.113,-0.139 -0.146,-0.242 -0.026,-0.109 -0.039,-0.255 -0.039,-0.436 0,-0.11 0.006,-0.204 0.02,-0.281 0.013,-0.077 0.025,-0.139 0.039,-0.185 0.02,-0.045 0.045,-0.077 0.078,-0.097 0.033,-0.02 0.071,-0.029 0.116,-0.029 0.064,0 0.158,0.039 0.281,0.117 0.129,0.077 0.284,0.164 0.465,0.261 0.187,0.091 0.407,0.178 0.659,0.262 0.252,0.078 0.542,0.116 0.872,0.116 0.245,0 0.465,-0.025 0.659,-0.077 0.2,-0.059 0.375,-0.136 0.523,-0.232 0.148,-0.104 0.261,-0.232 0.339,-0.388 0.078,-0.161 0.116,-0.352 0.116,-0.571 0,-0.219 -0.058,-0.404 -0.174,-0.553 -0.11,-0.155 -0.258,-0.291 -0.446,-0.407 -0.187,-0.122 -0.4,-0.229 -0.639,-0.319 -0.233,-0.091 -0.475,-0.184 -0.727,-0.281 -0.245,-0.104 -0.487,-0.216 -0.727,-0.339 -0.232,-0.129 -0.442,-0.284 -0.63,-0.465 -0.187,-0.181 -0.339,-0.397 -0.455,-0.649 -0.116,-0.252 -0.174,-0.552 -0.174,-0.901 0,-0.31 0.061,-0.606 0.184,-0.891 0.123,-0.284 0.303,-0.533 0.542,-0.746 0.239,-0.214 0.536,-0.385 0.891,-0.514 0.362,-0.129 0.785,-0.194 1.27,-0.194 0.207,0 0.413,0.02 0.62,0.059 0.213,0.032 0.404,0.074 0.571,0.126 0.175,0.052 0.32,0.109 0.436,0.175 0.123,0.058 0.213,0.112 0.271,0.164 0.064,0.045 0.106,0.087 0.126,0.126 0.026,0.032 0.042,0.071 0.048,0.116 0.006,0.039 0.013,0.091 0.02,0.155 0.013,0.064 0.02,0.146 0.02,0.242 0,0.096 -0.007,0.185 -0.02,0.262 -0.006,0.071 -0.02,0.129 -0.039,0.174 -0.019,0.046 -0.045,0.078 -0.077,0.098 -0.026,0.019 -0.058,0.028 -0.097,0.028 -0.052,0 -0.129,-0.028 -0.232,-0.087 -0.097,-0.064 -0.223,-0.132 -0.378,-0.203 -0.155,-0.078 -0.342,-0.148 -0.562,-0.213 -0.213,-0.065 -0.455,-0.098 -0.727,-0.098 -0.246,0 -0.462,0.029 -0.649,0.088 -0.188,0.052 -0.342,0.129 -0.465,0.232 -0.116,0.104 -0.207,0.226 -0.271,0.368 -0.058,0.136 -0.087,0.287 -0.087,0.455 0,0.227 0.058,0.417 0.174,0.571 0.116,0.155 0.268,0.291 0.456,0.407 0.187,0.116 0.4,0.223 0.639,0.319 0.239,0.091 0.481,0.188 0.727,0.291 0.252,0.097 0.497,0.207 0.736,0.329 0.245,0.123 0.462,0.275 0.649,0.456 0.188,0.174 0.339,0.384 0.456,0.63 0.117,0.245 0.175,0.536 0.175,0.872 z m 6.26,1.579 c 0,0.168 -0.013,0.304 -0.039,0.406 -0.019,0.098 -0.055,0.168 -0.106,0.214 -0.045,0.045 -0.116,0.09 -0.213,0.136 -0.091,0.038 -0.197,0.07 -0.32,0.097 -0.116,0.025 -0.242,0.045 -0.378,0.058 -0.136,0.02 -0.271,0.029 -0.407,0.029 -0.407,0 -0.759,-0.052 -1.056,-0.155 -0.291,-0.109 -0.53,-0.274 -0.717,-0.494 -0.187,-0.219 -0.323,-0.497 -0.407,-0.833 -0.084,-0.336 -0.126,-0.733 -0.126,-1.191 l 0,-4.622 -1.104,0 c -0.09,0 -0.162,-0.045 -0.213,-0.136 -0.052,-0.097 -0.077,-0.248 -0.077,-0.455 0,-0.116 0.006,-0.21 0.019,-0.281 0.013,-0.077 0.032,-0.142 0.058,-0.193 0.026,-0.051 0.055,-0.087 0.087,-0.106 0.039,-0.02 0.084,-0.029 0.136,-0.029 l 1.095,0 0,-1.88 c 0,-0.038 0.01,-0.074 0.029,-0.106 0.02,-0.038 0.058,-0.071 0.116,-0.097 0.059,-0.025 0.133,-0.045 0.223,-0.059 0.097,-0.013 0.213,-0.019 0.349,-0.019 0.149,0 0.268,0.006 0.358,0.019 0.097,0.014 0.171,0.033 0.223,0.059 0.052,0.026 0.09,0.059 0.116,0.097 0.026,0.032 0.039,0.068 0.039,0.106 l 0,1.88 2.025,0 c 0.045,0 0.084,0.01 0.116,0.029 0.039,0.02 0.071,0.055 0.097,0.106 0.026,0.051 0.045,0.116 0.058,0.193 0.013,0.071 0.02,0.165 0.02,0.281 0,0.207 -0.029,0.358 -0.087,0.455 -0.052,0.091 -0.12,0.136 -0.204,0.136 l -2.025,0 0,4.409 c 0,0.549 0.078,0.962 0.233,1.24 0.161,0.277 0.452,0.416 0.872,0.416 0.136,0 0.255,-0.013 0.359,-0.039 0.103,-0.032 0.197,-0.061 0.281,-0.087 0.084,-0.032 0.155,-0.062 0.213,-0.087 0.058,-0.026 0.109,-0.039 0.155,-0.039 0.026,0 0.052,0.01 0.078,0.029 0.032,0.013 0.055,0.039 0.068,0.077 0.013,0.039 0.026,0.094 0.039,0.165 0.013,0.071 0.017,0.161 0.017,0.271 z" /><path
     style="fill:none;stroke:#000000;stroke-width:1.91929996;stroke-miterlimit:10"
     inkscape:connector-curvature="0"
     id="path33"
     d="m 157.404,520.485 25.023,0"
     stroke-miterlimit="10" /><path
     style="fill:#ffffff"
     inkscape:connector-curvature="0"
     id="path35"
     d="m 231.993,425.304 110.774,0 0,27.186 -110.774,0 0,-27.186 z" /><g
     id="g3489"
     transform="translate(0,10)"><path
       stroke-miterlimit="10"
       d="m 231.993,415.304 110.774,0 0,27.186 -110.774,0 0,-27.186 z"
       id="path37"
       inkscape:connector-curvature="0"
       style="fill:none;stroke:#535353;stroke-width:2;stroke-linejoin:round;stroke-miterlimit:10" /><path
       d="m 275.109,433.898 c 0,0.098 -0.003,0.182 -0.01,0.252 -0.006,0.065 -0.016,0.126 -0.029,0.185 -0.013,0.052 -0.032,0.097 -0.058,0.136 -0.026,0.039 -0.068,0.09 -0.126,0.155 -0.058,0.058 -0.181,0.148 -0.368,0.271 -0.187,0.116 -0.42,0.232 -0.697,0.35 -0.278,0.109 -0.598,0.203 -0.959,0.28 -0.355,0.084 -0.749,0.126 -1.182,0.126 -0.736,0 -1.401,-0.122 -1.996,-0.368 -0.594,-0.252 -1.102,-0.616 -1.521,-1.095 -0.414,-0.478 -0.733,-1.069 -0.959,-1.773 -0.226,-0.71 -0.339,-1.523 -0.339,-2.441 0,-0.942 0.119,-1.782 0.358,-2.519 0.246,-0.736 0.588,-1.36 1.027,-1.87 0.439,-0.517 0.962,-0.907 1.57,-1.173 0.613,-0.271 1.295,-0.406 2.044,-0.406 0.323,0 0.64,0.032 0.95,0.097 0.31,0.059 0.598,0.136 0.862,0.232 0.265,0.091 0.498,0.197 0.698,0.32 0.207,0.122 0.349,0.223 0.426,0.3 0.084,0.077 0.136,0.139 0.155,0.185 0.026,0.038 0.045,0.087 0.058,0.145 0.02,0.052 0.032,0.116 0.039,0.194 0.006,0.077 0.01,0.168 0.01,0.271 0,0.116 -0.007,0.216 -0.02,0.3 -0.006,0.084 -0.022,0.155 -0.048,0.213 -0.026,0.052 -0.055,0.091 -0.087,0.117 -0.026,0.025 -0.064,0.038 -0.116,0.038 -0.078,0 -0.19,-0.055 -0.339,-0.165 -0.148,-0.116 -0.339,-0.242 -0.571,-0.377 -0.226,-0.143 -0.507,-0.269 -0.843,-0.378 -0.329,-0.116 -0.723,-0.175 -1.182,-0.175 -0.504,0 -0.962,0.101 -1.376,0.301 -0.414,0.2 -0.769,0.497 -1.066,0.891 -0.291,0.395 -0.517,0.876 -0.678,1.444 -0.161,0.562 -0.242,1.204 -0.242,1.928 0,0.717 0.078,1.354 0.232,1.909 0.162,0.555 0.385,1.021 0.669,1.395 0.291,0.368 0.646,0.649 1.065,0.843 0.426,0.188 0.904,0.281 1.434,0.281 0.452,0 0.846,-0.055 1.182,-0.165 0.336,-0.116 0.623,-0.242 0.862,-0.378 0.239,-0.135 0.433,-0.258 0.581,-0.368 0.155,-0.116 0.275,-0.174 0.358,-0.174 0.045,0 0.081,0.01 0.107,0.029 0.032,0.02 0.055,0.055 0.068,0.106 0.019,0.045 0.032,0.113 0.039,0.203 0.012,0.083 0.018,0.194 0.018,0.328 z m 3.389,1.386 c 0,0.052 -0.013,0.094 -0.039,0.126 -0.02,0.032 -0.055,0.062 -0.107,0.087 -0.051,0.02 -0.125,0.033 -0.223,0.039 -0.09,0.013 -0.21,0.02 -0.358,0.02 -0.142,0 -0.262,-0.007 -0.358,-0.02 -0.09,-0.006 -0.165,-0.02 -0.223,-0.039 -0.051,-0.025 -0.087,-0.055 -0.106,-0.087 -0.019,-0.032 -0.029,-0.074 -0.029,-0.126 l 0,-11.724 c 0,-0.051 0.01,-0.094 0.029,-0.126 0.02,-0.038 0.055,-0.067 0.106,-0.087 0.058,-0.025 0.133,-0.042 0.223,-0.049 0.097,-0.013 0.216,-0.019 0.358,-0.019 0.148,0 0.268,0.006 0.358,0.019 0.097,0.007 0.171,0.023 0.223,0.049 0.052,0.02 0.087,0.049 0.107,0.087 0.026,0.032 0.039,0.075 0.039,0.126 l 0,11.724 z m 4.174,0 c 0,0.052 -0.013,0.094 -0.039,0.126 -0.02,0.032 -0.055,0.062 -0.106,0.087 -0.052,0.02 -0.126,0.033 -0.223,0.039 -0.091,0.013 -0.21,0.02 -0.359,0.02 -0.142,0 -0.261,-0.007 -0.358,-0.02 -0.09,-0.006 -0.165,-0.02 -0.223,-0.039 -0.052,-0.025 -0.087,-0.055 -0.107,-0.087 -0.019,-0.032 -0.029,-0.074 -0.029,-0.126 l 0,-7.896 c 0,-0.045 0.01,-0.084 0.029,-0.116 0.02,-0.038 0.055,-0.067 0.107,-0.087 0.058,-0.026 0.132,-0.042 0.223,-0.049 0.097,-0.013 0.216,-0.019 0.358,-0.019 0.149,0 0.268,0.006 0.359,0.019 0.097,0.007 0.171,0.022 0.223,0.049 0.052,0.02 0.087,0.049 0.106,0.087 0.026,0.032 0.039,0.071 0.039,0.116 l 0,7.896 z m 0.164,-10.57 c 0,0.343 -0.064,0.575 -0.194,0.697 -0.123,0.123 -0.358,0.185 -0.708,0.185 -0.335,0 -0.568,-0.059 -0.697,-0.175 -0.123,-0.122 -0.184,-0.352 -0.184,-0.688 0,-0.343 0.061,-0.575 0.184,-0.697 0.129,-0.123 0.368,-0.185 0.717,-0.185 0.336,0 0.565,0.062 0.688,0.185 0.13,0.122 0.194,0.349 0.194,0.678 z m 9.309,6.278 c 0,0.232 -0.058,0.397 -0.174,0.494 -0.116,0.091 -0.246,0.136 -0.388,0.136 l -5.184,0 c 0,0.439 0.042,0.837 0.126,1.191 0.09,0.349 0.239,0.649 0.446,0.901 0.207,0.252 0.472,0.445 0.794,0.581 0.33,0.136 0.733,0.204 1.211,0.204 0.375,0 0.708,-0.029 0.998,-0.088 0.291,-0.064 0.542,-0.136 0.756,-0.213 0.213,-0.077 0.388,-0.146 0.523,-0.203 0.142,-0.064 0.249,-0.098 0.32,-0.098 0.039,0 0.074,0.01 0.106,0.029 0.033,0.02 0.058,0.052 0.078,0.097 0.02,0.039 0.032,0.098 0.039,0.175 0.007,0.071 0.01,0.158 0.01,0.262 0,0.077 -0.003,0.146 -0.01,0.203 -0.006,0.052 -0.013,0.101 -0.019,0.146 -0.006,0.045 -0.022,0.087 -0.048,0.126 -0.02,0.032 -0.045,0.064 -0.078,0.097 -0.033,0.033 -0.129,0.084 -0.291,0.155 -0.155,0.071 -0.359,0.143 -0.61,0.213 -0.246,0.071 -0.536,0.133 -0.872,0.185 -0.33,0.058 -0.682,0.087 -1.056,0.087 -0.646,0 -1.214,-0.091 -1.706,-0.271 -0.491,-0.181 -0.904,-0.448 -1.24,-0.804 -0.33,-0.362 -0.582,-0.811 -0.756,-1.347 -0.168,-0.536 -0.252,-1.163 -0.252,-1.88 0,-0.679 0.087,-1.289 0.262,-1.831 0.181,-0.543 0.436,-1.001 0.765,-1.376 0.33,-0.381 0.727,-0.672 1.192,-0.872 0.472,-0.2 0.998,-0.3 1.579,-0.3 0.62,0 1.146,0.1 1.58,0.3 0.439,0.2 0.797,0.469 1.075,0.805 0.284,0.336 0.491,0.729 0.62,1.182 0.136,0.452 0.204,0.937 0.204,1.453 l 0,0.261 z m -1.463,-0.426 c 0.019,-0.763 -0.149,-1.36 -0.504,-1.793 -0.355,-0.433 -0.882,-0.649 -1.58,-0.649 -0.355,0 -0.668,0.068 -0.939,0.204 -0.265,0.136 -0.488,0.313 -0.668,0.532 -0.181,0.22 -0.323,0.479 -0.427,0.775 -0.097,0.297 -0.151,0.607 -0.165,0.931 l 4.283,0 z m 10.569,4.718 c 0,0.052 -0.014,0.094 -0.039,0.126 -0.02,0.032 -0.059,0.062 -0.115,0.087 -0.053,0.02 -0.127,0.033 -0.223,0.039 -0.092,0.013 -0.205,0.02 -0.34,0.02 -0.148,0 -0.271,-0.007 -0.369,-0.02 -0.09,-0.006 -0.16,-0.02 -0.213,-0.039 -0.051,-0.025 -0.09,-0.055 -0.115,-0.087 -0.025,-0.032 -0.039,-0.074 -0.039,-0.126 l 0,-4.621 c 0,-0.452 -0.035,-0.814 -0.107,-1.085 -0.064,-0.278 -0.164,-0.518 -0.299,-0.718 -0.137,-0.2 -0.311,-0.352 -0.523,-0.455 -0.212,-0.103 -0.463,-0.155 -0.747,-0.155 -0.362,0 -0.723,0.13 -1.085,0.388 -0.362,0.252 -0.743,0.627 -1.144,1.124 l 0,5.522 c 0,0.052 -0.013,0.094 -0.039,0.126 -0.02,0.032 -0.055,0.062 -0.106,0.087 -0.052,0.02 -0.126,0.033 -0.223,0.039 -0.09,0.013 -0.21,0.02 -0.358,0.02 -0.142,0 -0.262,-0.007 -0.358,-0.02 -0.09,-0.006 -0.165,-0.02 -0.223,-0.039 -0.052,-0.025 -0.087,-0.055 -0.107,-0.087 -0.019,-0.032 -0.029,-0.074 -0.029,-0.126 l 0,-7.896 c 0,-0.052 0.006,-0.094 0.019,-0.126 0.02,-0.032 0.055,-0.061 0.107,-0.087 0.052,-0.025 0.119,-0.042 0.203,-0.049 0.084,-0.006 0.194,-0.009 0.33,-0.009 0.129,0 0.236,0.003 0.32,0.009 0.084,0.007 0.148,0.023 0.194,0.049 0.045,0.026 0.078,0.055 0.097,0.087 0.026,0.032 0.039,0.074 0.039,0.126 l 0,1.047 c 0.445,-0.497 0.888,-0.862 1.327,-1.095 0.439,-0.232 0.885,-0.349 1.338,-0.349 0.529,0 0.971,0.09 1.326,0.271 0.361,0.175 0.652,0.414 0.873,0.717 0.225,0.298 0.387,0.646 0.484,1.047 0.096,0.4 0.145,0.882 0.145,1.443 l 0,4.815 z m 6.862,-0.571 c 0,0.168 -0.014,0.304 -0.039,0.407 -0.02,0.097 -0.055,0.167 -0.105,0.213 -0.047,0.045 -0.117,0.09 -0.215,0.136 -0.09,0.038 -0.195,0.07 -0.318,0.097 -0.117,0.025 -0.242,0.045 -0.379,0.058 -0.135,0.02 -0.271,0.029 -0.406,0.029 -0.406,0 -0.76,-0.052 -1.057,-0.155 -0.291,-0.109 -0.529,-0.274 -0.717,-0.493 -0.188,-0.22 -0.322,-0.498 -0.406,-0.834 -0.084,-0.336 -0.127,-0.732 -0.127,-1.191 l 0,-4.622 -1.104,0 c -0.09,0 -0.162,-0.045 -0.213,-0.135 -0.053,-0.098 -0.078,-0.249 -0.078,-0.456 0,-0.116 0.006,-0.21 0.02,-0.281 0.014,-0.077 0.031,-0.142 0.059,-0.193 0.025,-0.052 0.055,-0.087 0.086,-0.106 0.039,-0.02 0.084,-0.029 0.137,-0.029 l 1.094,0 0,-1.88 c 0,-0.038 0.01,-0.074 0.029,-0.106 0.02,-0.038 0.059,-0.07 0.117,-0.097 0.059,-0.025 0.133,-0.045 0.223,-0.058 0.096,-0.014 0.213,-0.02 0.348,-0.02 0.148,0 0.27,0.006 0.359,0.02 0.098,0.013 0.172,0.032 0.223,0.058 0.053,0.026 0.09,0.059 0.117,0.097 0.025,0.032 0.037,0.068 0.037,0.106 l 0,1.88 2.025,0 c 0.045,0 0.084,0.01 0.117,0.029 0.039,0.02 0.07,0.055 0.096,0.106 0.027,0.052 0.045,0.116 0.059,0.193 0.014,0.071 0.02,0.165 0.02,0.281 0,0.207 -0.029,0.358 -0.088,0.456 -0.051,0.09 -0.119,0.135 -0.203,0.135 l -2.025,0 0,4.409 c 0,0.549 0.078,0.962 0.232,1.24 0.162,0.277 0.453,0.416 0.873,0.416 0.135,0 0.256,-0.013 0.357,-0.039 0.104,-0.032 0.197,-0.061 0.281,-0.087 0.084,-0.032 0.156,-0.062 0.213,-0.087 0.059,-0.025 0.111,-0.039 0.156,-0.039 0.025,0 0.051,0.01 0.078,0.029 0.031,0.013 0.055,0.039 0.066,0.077 0.014,0.039 0.025,0.094 0.039,0.165 0.014,0.071 0.019,0.161 0.019,0.271 z"
       id="path39"
       inkscape:connector-curvature="0" /><path
       stroke-miterlimit="10"
       d="m 266.011,437.567 42.739,0"
       id="path41"
       inkscape:connector-curvature="0"
       style="fill:none;stroke:#000000;stroke-width:1.91929996;stroke-miterlimit:10" /></g><path
     style="fill-opacity:0"
     inkscape:connector-curvature="0"
     id="path43"
     d="m 231.993,428.897 c -31.034,0 -62.067,34.256 -62.067,68.512" /><path
     style="fill:none;stroke:#535353;stroke-width:1.82458985;stroke-linejoin:round;stroke-miterlimit:10"
     inkscape:connector-curvature="0"
     id="path45"
     d="m 232.04016,439.19716 c -15.54039,0 -31.08077,7.11611 -42.73531,17.79152 -5.82777,5.33853 -10.68407,11.56544 -14.08319,18.23694 -1.69956,3.33659 -3.03557,6.7837 -3.94594,10.28649 -0.22834,0.8759 -0.42864,1.7543 -0.6029,2.63686 -0.0861,0.44044 -0.16726,0.88255 -0.23936,1.32466 -0.018,0.11052 -0.0361,0.22188 -0.0531,0.33158 l -0.024,0.15623"
     stroke-miterlimit="10" /><path
     style="fill:#535353;stroke:#535353;stroke-width:2;stroke-miterlimit:10"
     inkscape:connector-curvature="0"
     id="path47"
     d="m 168.358,489.853 1.684,5.747 2.404,-5.485 -4.088,-0.262 z"
     stroke-miterlimit="10" /><path
     style="fill-opacity:0"
     inkscape:connector-curvature="0"
     id="path49"
     d="m 342.767,428.897 c 29.326,0 58.65,34.256 58.65,68.512" /><path
     style="fill:none;stroke:#535353;stroke-width:1.83540809;stroke-linejoin:round;stroke-miterlimit:10"
     inkscape:connector-curvature="0"
     id="path51"
     d="m 342.72296,438.59116 c 14.68582,0 29.36964,7.20088 40.382,18.00346 5.50618,5.40213 10.095,11.70321 13.30677,18.45419 1.60639,3.37633 2.86726,6.86451 3.72854,10.40903 0.21532,0.88634 0.4046,1.7752 0.56885,2.66827 0.0821,0.44569 0.15823,0.89306 0.22733,1.34044 0.018,0.11184 0.0331,0.22453 0.0511,0.33553 l 0.021,0.15641"
     stroke-miterlimit="10" /><path
     style="fill:#535353;stroke:#535353;stroke-width:2;stroke-miterlimit:10"
     inkscape:connector-curvature="0"
     id="path53"
     d="m 398.921,490.105 2.387,5.494 1.703,-5.742 -4.09,0.248 z"
     stroke-miterlimit="10" /><g
     id="g3461"
     transform="matrix(1.0013517,0,0,0.7644089,-0.54490711,120.97861)"><path
       d="m 310.574,514.042 185.107,0 0,74.41 -185.107,0 0,-74.41 z"
       id="path55"
       inkscape:connector-curvature="0"
       style="fill:#d9d9d9" /><path
       stroke-miterlimit="10"
       d="m 310.574,514.042 185.107,0 0,74.41 -185.107,0 0,-74.41 z"
       id="path57"
       inkscape:connector-curvature="0"
       style="fill:none;stroke:#535353;stroke-width:2;stroke-linejoin:round;stroke-miterlimit:10;stroke-dasharray:8, 6" /></g><path
     style="fill:#ffffff"
     inkscape:connector-curvature="0"
     id="path59"
     d="m 346.021,497.411 110.775,0 0,28.808 -110.775,0 0,-28.808 z" /><path
     style="fill:none;stroke:#535353;stroke-width:2;stroke-linejoin:round;stroke-miterlimit:10"
     inkscape:connector-curvature="0"
     id="path61"
     d="m 346.021,497.411 110.775,0 0,28.808 -110.775,0 0,-28.808 z"
     stroke-miterlimit="10" /><path
     inkscape:connector-curvature="0"
     id="path63"
     d="m 396.3,517.767 c 0,0.116 -0.008,0.216 -0.02,0.3 -0.014,0.078 -0.033,0.146 -0.059,0.204 -0.025,0.052 -0.059,0.09 -0.098,0.116 -0.039,0.025 -0.084,0.038 -0.135,0.038 l -5.02,0 c -0.135,0 -0.264,-0.045 -0.387,-0.136 -0.117,-0.09 -0.174,-0.248 -0.174,-0.475 l 0,-10.521 c 0,-0.046 0.008,-0.084 0.027,-0.116 0.027,-0.039 0.068,-0.068 0.127,-0.088 0.059,-0.025 0.135,-0.045 0.232,-0.058 0.104,-0.013 0.227,-0.02 0.367,-0.02 0.143,0 0.262,0.007 0.359,0.02 0.097,0.013 0.174,0.032 0.232,0.058 0.064,0.02 0.107,0.049 0.127,0.088 0.025,0.032 0.037,0.07 0.037,0.116 l 0,9.824 4.07,0 c 0.051,0 0.096,0.013 0.135,0.039 0.039,0.025 0.072,0.064 0.098,0.116 0.026,0.052 0.045,0.119 0.059,0.203 0.015,0.078 0.023,0.175 0.023,0.292 z m 3.033,0.435 c 0,0.052 -0.014,0.094 -0.039,0.126 -0.02,0.032 -0.055,0.062 -0.107,0.087 -0.051,0.02 -0.125,0.032 -0.223,0.039 -0.09,0.013 -0.209,0.02 -0.357,0.02 -0.143,0 -0.262,-0.007 -0.359,-0.02 -0.09,-0.007 -0.164,-0.02 -0.223,-0.039 -0.051,-0.025 -0.086,-0.055 -0.105,-0.087 -0.019,-0.032 -0.029,-0.074 -0.029,-0.126 l 0,-7.896 c 0,-0.045 0.01,-0.084 0.029,-0.116 0.02,-0.039 0.055,-0.067 0.105,-0.087 0.059,-0.026 0.133,-0.042 0.223,-0.049 0.098,-0.013 0.217,-0.02 0.359,-0.02 0.148,0 0.268,0.007 0.357,0.02 0.098,0.007 0.172,0.022 0.223,0.049 0.053,0.02 0.088,0.048 0.107,0.087 0.025,0.032 0.039,0.071 0.039,0.116 l 0,7.896 z m 0.165,-10.57 c 0,0.342 -0.064,0.575 -0.193,0.697 -0.123,0.123 -0.359,0.185 -0.707,0.185 -0.336,0 -0.568,-0.059 -0.697,-0.175 -0.123,-0.122 -0.186,-0.352 -0.186,-0.688 0,-0.343 0.063,-0.575 0.186,-0.698 0.129,-0.122 0.367,-0.184 0.717,-0.184 0.336,0 0.564,0.062 0.688,0.184 0.127,0.123 0.192,0.35 0.192,0.679 z m 7.525,8.42 c 0,0.406 -0.076,0.769 -0.232,1.085 -0.148,0.316 -0.361,0.584 -0.639,0.804 -0.271,0.214 -0.598,0.375 -0.979,0.484 -0.381,0.11 -0.797,0.165 -1.25,0.165 -0.285,0 -0.555,-0.022 -0.814,-0.067 -0.252,-0.039 -0.477,-0.091 -0.678,-0.155 -0.199,-0.071 -0.371,-0.143 -0.514,-0.213 -0.143,-0.078 -0.246,-0.146 -0.311,-0.204 -0.064,-0.058 -0.111,-0.139 -0.145,-0.242 -0.025,-0.109 -0.039,-0.255 -0.039,-0.436 0,-0.11 0.006,-0.204 0.02,-0.281 0.014,-0.077 0.025,-0.139 0.039,-0.185 0.02,-0.045 0.045,-0.077 0.078,-0.097 0.031,-0.02 0.07,-0.029 0.115,-0.029 0.064,0 0.158,0.039 0.281,0.117 0.129,0.077 0.283,0.164 0.465,0.261 0.188,0.091 0.406,0.178 0.658,0.262 0.252,0.078 0.543,0.116 0.873,0.116 0.246,0 0.465,-0.025 0.658,-0.077 0.201,-0.059 0.375,-0.136 0.523,-0.232 0.148,-0.104 0.262,-0.232 0.34,-0.388 0.076,-0.161 0.115,-0.352 0.115,-0.571 0,-0.219 -0.059,-0.404 -0.174,-0.553 -0.109,-0.155 -0.258,-0.291 -0.445,-0.407 -0.188,-0.122 -0.4,-0.229 -0.641,-0.319 -0.232,-0.091 -0.475,-0.184 -0.727,-0.281 -0.244,-0.104 -0.486,-0.216 -0.727,-0.339 -0.232,-0.129 -0.441,-0.284 -0.629,-0.465 -0.188,-0.181 -0.34,-0.397 -0.455,-0.649 -0.117,-0.252 -0.176,-0.552 -0.176,-0.901 0,-0.31 0.063,-0.606 0.186,-0.891 0.121,-0.284 0.303,-0.533 0.541,-0.746 0.24,-0.214 0.537,-0.385 0.893,-0.514 0.361,-0.129 0.785,-0.194 1.27,-0.194 0.205,0 0.412,0.02 0.619,0.059 0.213,0.032 0.404,0.074 0.572,0.126 0.174,0.052 0.32,0.109 0.436,0.175 0.123,0.058 0.213,0.112 0.271,0.164 0.064,0.045 0.105,0.087 0.125,0.126 0.027,0.032 0.043,0.071 0.049,0.116 0.008,0.039 0.014,0.091 0.02,0.155 0.014,0.064 0.02,0.146 0.02,0.242 0,0.096 -0.006,0.185 -0.02,0.262 -0.006,0.071 -0.02,0.129 -0.039,0.174 -0.02,0.046 -0.045,0.078 -0.076,0.098 -0.027,0.019 -0.059,0.028 -0.098,0.028 -0.051,0 -0.129,-0.028 -0.232,-0.087 -0.098,-0.064 -0.223,-0.132 -0.379,-0.203 -0.154,-0.078 -0.342,-0.148 -0.561,-0.213 -0.213,-0.065 -0.455,-0.098 -0.727,-0.098 -0.246,0 -0.463,0.029 -0.65,0.088 -0.188,0.052 -0.342,0.129 -0.465,0.232 -0.115,0.104 -0.207,0.226 -0.271,0.368 -0.057,0.136 -0.086,0.287 -0.086,0.455 0,0.227 0.057,0.417 0.174,0.571 0.117,0.155 0.268,0.291 0.455,0.407 0.187,0.116 0.4,0.223 0.641,0.319 0.238,0.091 0.48,0.188 0.727,0.291 0.252,0.097 0.496,0.207 0.736,0.329 0.244,0.123 0.461,0.275 0.648,0.456 0.188,0.174 0.34,0.384 0.455,0.63 0.119,0.245 0.176,0.536 0.176,0.872 z m 6.262,1.579 c 0,0.168 -0.014,0.304 -0.039,0.406 -0.02,0.098 -0.055,0.168 -0.107,0.214 -0.045,0.045 -0.115,0.09 -0.213,0.136 -0.09,0.038 -0.197,0.07 -0.32,0.097 -0.115,0.025 -0.242,0.045 -0.377,0.058 -0.137,0.02 -0.271,0.029 -0.406,0.029 -0.408,0 -0.76,-0.052 -1.057,-0.155 -0.291,-0.109 -0.529,-0.274 -0.717,-0.494 -0.188,-0.219 -0.324,-0.497 -0.408,-0.833 -0.084,-0.336 -0.125,-0.733 -0.125,-1.191 l 0,-4.622 -1.105,0 c -0.09,0 -0.16,-0.045 -0.213,-0.136 -0.051,-0.097 -0.076,-0.248 -0.076,-0.455 0,-0.116 0.006,-0.21 0.018,-0.281 0.014,-0.077 0.033,-0.142 0.059,-0.193 0.026,-0.051 0.055,-0.087 0.088,-0.106 0.039,-0.02 0.084,-0.029 0.135,-0.029 l 1.096,0 0,-1.88 c 0,-0.038 0.01,-0.074 0.029,-0.106 0.02,-0.038 0.059,-0.071 0.115,-0.097 0.059,-0.025 0.133,-0.045 0.223,-0.059 0.098,-0.013 0.215,-0.019 0.35,-0.019 0.148,0 0.268,0.006 0.359,0.019 0.096,0.014 0.17,0.033 0.223,0.059 0.051,0.025 0.09,0.059 0.115,0.097 0.025,0.032 0.039,0.068 0.039,0.106 l 0,1.88 2.025,0 c 0.045,0 0.084,0.01 0.115,0.029 0.039,0.02 0.072,0.055 0.098,0.106 0.026,0.051 0.045,0.116 0.059,0.193 0.012,0.071 0.02,0.165 0.02,0.281 0,0.207 -0.029,0.358 -0.088,0.455 -0.053,0.091 -0.119,0.136 -0.203,0.136 l -2.025,0 0,4.409 c 0,0.549 0.078,0.962 0.232,1.24 0.162,0.277 0.453,0.416 0.873,0.416 0.135,0 0.254,-0.013 0.357,-0.039 0.104,-0.032 0.197,-0.061 0.281,-0.087 0.084,-0.032 0.154,-0.062 0.213,-0.087 0.059,-0.026 0.109,-0.039 0.154,-0.039 0.027,0 0.053,0.01 0.078,0.029 0.033,0.013 0.055,0.039 0.068,0.077 0.012,0.039 0.025,0.094 0.039,0.165 0.01,0.071 0.018,0.161 0.018,0.271 z" /><path
     style="fill:none;stroke:#000000;stroke-width:1.91929996;stroke-miterlimit:10"
     inkscape:connector-curvature="0"
     id="path65"
     d="m 388.898,520.485 25.023,0"
     stroke-miterlimit="10" /><path
     style="fill-opacity:0"
     inkscape:connector-curvature="0"
     id="path67"
     d="m 276.531,529.045 21.699,0 0,32.576 -21.699,0 0,-32.576 z" /><path
     style="fill-opacity:0"
     inkscape:connector-curvature="0"
     id="path71"
     d="m 238.5,539.63 c 26.664,0 39.995,5.332 53.327,10.664 13.331,5.331 26.663,10.663 53.327,10.663" /><g
     id="g3465"
     transform="translate(-2,-8)"><path
       d="m 295.49,542.45 c 0.129,0.064 0.193,0.193 0.193,0.388 0,0.193 -0.031,0.322 -0.096,0.388 -1.357,1.679 -2.939,3.746 -4.749,6.2 1.228,2.455 2.165,4.328 2.809,5.62 -0.064,0.129 -0.193,0.226 -0.387,0.29 l 0,0.194 c -0.064,0.129 -0.227,0.258 -0.484,0.388 0.193,0.322 0.193,0.517 0,0.581 -0.193,0.129 -0.322,0.226 -0.387,0.29 -0.259,0.13 -0.518,0.033 -0.776,-0.29 -0.969,-1.292 -1.906,-2.745 -2.81,-4.36 -1.679,2.52 -3.165,4.845 -4.457,6.977 -0.323,0.517 -0.549,0.807 -0.678,0.872 -0.194,0.129 -0.484,0.161 -0.872,0.097 -0.323,0.064 -0.517,0 -0.582,-0.194 -0.064,-0.129 -0.161,-0.322 -0.291,-0.581 -0.129,-0.129 -0.194,-0.291 -0.194,-0.484 0.064,-0.193 0.129,-0.42 0.194,-0.678 l -0.291,-0.485 c 0.775,-1.485 2.713,-4.23 5.813,-8.235 -0.904,-1.873 -1.679,-3.778 -2.325,-5.716 0,-0.194 0.162,-0.42 0.484,-0.679 0.194,-0.193 0.355,-0.226 0.484,-0.097 0.065,0.129 0.194,0.161 0.388,0.097 0.194,-0.064 0.323,-0.161 0.388,-0.29 0.064,-0.065 0.162,-0.098 0.291,-0.098 0.194,0.065 0.323,0.162 0.388,0.291 0.323,0.775 0.969,2.067 1.938,3.876 1.292,-1.486 2.584,-3.036 3.876,-4.651 0.064,-0.129 0.16,-0.193 0.289,-0.193 0.195,0 0.389,0.097 0.582,0.29 0.193,0.194 0.322,0.227 0.387,0.098 0.131,-0.064 0.227,-0.13 0.291,-0.194 0.129,-0.129 0.195,-0.161 0.195,-0.097 0.066,0.126 0.195,0.256 0.389,0.385 z"
       id="path69"
       inkscape:connector-curvature="0"
       style="fill:#980000" /><path
       stroke-miterlimit="10"
       d="m 238.5,539.63 c 26.664,0 39.995,5.332 53.327,10.664 6.665,2.665 13.331,5.331 21.665,7.331 4.166,0.999 8.748,1.832 13.955,2.416 2.605,0.291 5.365,0.521 8.307,0.677 0.369,0.02 0.738,0.038 1.113,0.055 l 0.848,0.036"
       id="path73"
       inkscape:connector-curvature="0"
       style="fill:none;stroke:#980000;stroke-width:2;stroke-linejoin:round;stroke-miterlimit:10" /><path
       stroke-miterlimit="10"
       d="m 337.673,562.856 5.668,-1.936 -5.586,-2.16 -0.082,4.096 z"
       id="path75"
       inkscape:connector-curvature="0"
       style="fill:#980000;stroke:#980000;stroke-width:2;stroke-miterlimit:10" /></g><path
     style="fill-opacity:0"
     inkscape:connector-curvature="0"
     id="path77"
     d="m 188.037,442.49 73.121,0 0,28.807 -73.121,0 0,-28.807 z" /><path
     inkscape:connector-curvature="0"
     id="path79"
     d="m 192.214,471.741 c 0,0.046 -0.009,0.084 -0.029,0.116 -0.02,0.026 -0.055,0.052 -0.106,0.078 -0.052,0.02 -0.123,0.032 -0.213,0.038 -0.084,0.014 -0.194,0.02 -0.33,0.02 -0.129,0 -0.239,-0.006 -0.329,-0.02 -0.084,-0.006 -0.152,-0.019 -0.204,-0.038 -0.052,-0.026 -0.087,-0.052 -0.106,-0.078 -0.02,-0.032 -0.029,-0.07 -0.029,-0.116 l 0,-10.919 c 0,-0.045 0.01,-0.084 0.029,-0.116 0.019,-0.032 0.055,-0.059 0.106,-0.077 0.052,-0.026 0.12,-0.042 0.204,-0.049 0.09,-0.013 0.2,-0.02 0.329,-0.02 0.136,0 0.246,0.007 0.33,0.02 0.09,0.007 0.162,0.022 0.213,0.049 0.051,0.019 0.087,0.045 0.106,0.077 0.019,0.032 0.029,0.071 0.029,0.116 l 0,10.919 z m 3.793,0 c 0,0.046 -0.01,0.084 -0.029,0.116 -0.02,0.026 -0.055,0.052 -0.107,0.078 -0.052,0.02 -0.123,0.032 -0.213,0.038 -0.084,0.014 -0.194,0.02 -0.33,0.02 -0.129,0 -0.239,-0.006 -0.33,-0.02 -0.084,-0.006 -0.151,-0.019 -0.203,-0.038 -0.052,-0.026 -0.087,-0.052 -0.107,-0.078 -0.019,-0.032 -0.029,-0.07 -0.029,-0.116 l 0,-7.354 c 0,-0.039 0.01,-0.074 0.029,-0.106 0.02,-0.039 0.055,-0.068 0.107,-0.087 0.052,-0.02 0.119,-0.036 0.203,-0.049 0.091,-0.013 0.201,-0.02 0.33,-0.02 0.136,0 0.246,0.007 0.33,0.02 0.09,0.013 0.161,0.029 0.213,0.049 0.052,0.019 0.087,0.048 0.107,0.087 0.019,0.032 0.029,0.067 0.029,0.106 l 0,7.354 z m 0.156,-9.844 c 0,0.316 -0.062,0.533 -0.184,0.649 -0.117,0.109 -0.336,0.165 -0.659,0.165 -0.31,0 -0.526,-0.056 -0.649,-0.165 -0.116,-0.109 -0.174,-0.319 -0.174,-0.63 0,-0.316 0.058,-0.533 0.174,-0.649 0.123,-0.116 0.345,-0.174 0.668,-0.174 0.316,0 0.533,0.058 0.649,0.174 0.116,0.111 0.175,0.321 0.175,0.63 z m 6.913,7.839 c 0,0.374 -0.071,0.71 -0.213,1.007 -0.136,0.298 -0.333,0.546 -0.591,0.746 -0.259,0.2 -0.565,0.353 -0.92,0.456 -0.349,0.104 -0.737,0.154 -1.163,0.154 -0.265,0 -0.517,-0.022 -0.755,-0.067 -0.233,-0.039 -0.442,-0.087 -0.63,-0.146 -0.188,-0.064 -0.349,-0.129 -0.484,-0.193 -0.129,-0.071 -0.223,-0.133 -0.281,-0.185 -0.058,-0.058 -0.103,-0.136 -0.135,-0.232 -0.026,-0.097 -0.039,-0.232 -0.039,-0.407 0,-0.103 0.006,-0.19 0.02,-0.261 0.013,-0.071 0.026,-0.126 0.039,-0.165 0.02,-0.045 0.042,-0.078 0.068,-0.097 0.032,-0.02 0.068,-0.029 0.106,-0.029 0.058,0 0.146,0.039 0.262,0.116 0.123,0.071 0.268,0.151 0.436,0.242 0.174,0.084 0.378,0.165 0.61,0.242 0.232,0.071 0.504,0.106 0.814,0.106 0.226,0 0.43,-0.025 0.61,-0.077 0.188,-0.052 0.349,-0.123 0.484,-0.213 0.142,-0.098 0.249,-0.22 0.32,-0.368 0.071,-0.149 0.106,-0.323 0.106,-0.523 0,-0.207 -0.055,-0.381 -0.165,-0.523 -0.104,-0.142 -0.242,-0.269 -0.417,-0.378 -0.175,-0.109 -0.372,-0.207 -0.591,-0.291 -0.213,-0.084 -0.436,-0.171 -0.668,-0.261 -0.232,-0.091 -0.458,-0.194 -0.678,-0.311 -0.22,-0.123 -0.417,-0.268 -0.591,-0.436 -0.174,-0.168 -0.316,-0.368 -0.426,-0.601 -0.104,-0.239 -0.155,-0.521 -0.155,-0.844 0,-0.29 0.055,-0.568 0.165,-0.833 0.116,-0.265 0.284,-0.494 0.503,-0.688 0.226,-0.2 0.504,-0.358 0.833,-0.475 0.336,-0.123 0.73,-0.185 1.182,-0.185 0.193,0 0.387,0.017 0.581,0.049 0.2,0.032 0.378,0.074 0.533,0.126 0.161,0.045 0.297,0.097 0.407,0.154 0.11,0.059 0.194,0.11 0.252,0.155 0.058,0.039 0.097,0.074 0.116,0.106 0.019,0.032 0.032,0.071 0.039,0.116 0.007,0.039 0.013,0.088 0.02,0.146 0.013,0.059 0.02,0.133 0.02,0.223 0,0.091 -0.007,0.172 -0.02,0.242 -0.006,0.064 -0.02,0.12 -0.039,0.165 -0.013,0.045 -0.036,0.077 -0.068,0.097 -0.026,0.02 -0.055,0.029 -0.087,0.029 -0.052,0 -0.123,-0.029 -0.213,-0.087 -0.091,-0.064 -0.21,-0.13 -0.359,-0.194 -0.148,-0.071 -0.323,-0.136 -0.523,-0.193 -0.194,-0.059 -0.42,-0.087 -0.678,-0.087 -0.226,0 -0.426,0.025 -0.601,0.077 -0.175,0.052 -0.32,0.126 -0.436,0.223 -0.11,0.091 -0.194,0.203 -0.252,0.339 -0.058,0.13 -0.087,0.269 -0.087,0.417 0,0.213 0.055,0.394 0.165,0.543 0.11,0.142 0.251,0.268 0.426,0.378 0.174,0.109 0.371,0.209 0.591,0.3 0.226,0.084 0.456,0.171 0.688,0.262 0.232,0.091 0.462,0.193 0.688,0.31 0.226,0.117 0.426,0.256 0.601,0.417 0.175,0.161 0.313,0.358 0.417,0.591 0.108,0.228 0.163,0.5 0.163,0.816 z m 5.67,1.463 c 0,0.161 -0.013,0.287 -0.039,0.378 -0.02,0.09 -0.052,0.158 -0.097,0.203 -0.039,0.045 -0.103,0.087 -0.193,0.126 -0.084,0.039 -0.184,0.067 -0.3,0.087 -0.11,0.026 -0.229,0.046 -0.359,0.059 -0.123,0.02 -0.245,0.029 -0.368,0.029 -0.381,0 -0.71,-0.049 -0.988,-0.146 -0.271,-0.104 -0.494,-0.256 -0.668,-0.456 -0.174,-0.206 -0.3,-0.465 -0.378,-0.774 -0.077,-0.316 -0.116,-0.688 -0.116,-1.114 l 0,-4.302 -1.027,0 c -0.084,0 -0.152,-0.042 -0.204,-0.126 -0.045,-0.091 -0.068,-0.232 -0.068,-0.427 0,-0.104 0.007,-0.19 0.02,-0.262 0.013,-0.07 0.029,-0.129 0.048,-0.174 0.026,-0.052 0.055,-0.084 0.087,-0.097 0.039,-0.02 0.081,-0.029 0.126,-0.029 l 1.017,0 0,-1.754 c 0,-0.039 0.01,-0.074 0.029,-0.106 0.019,-0.032 0.055,-0.062 0.106,-0.087 0.052,-0.026 0.12,-0.042 0.204,-0.049 0.09,-0.013 0.2,-0.02 0.329,-0.02 0.136,0 0.246,0.007 0.33,0.02 0.09,0.007 0.158,0.022 0.204,0.049 0.052,0.025 0.087,0.055 0.106,0.087 0.026,0.032 0.039,0.067 0.039,0.106 l 0,1.754 1.89,0 c 0.045,0 0.084,0.01 0.116,0.029 0.032,0.013 0.061,0.045 0.087,0.097 0.026,0.045 0.042,0.104 0.049,0.174 0.013,0.071 0.019,0.158 0.019,0.262 0,0.194 -0.026,0.336 -0.077,0.427 -0.045,0.084 -0.11,0.126 -0.194,0.126 l -1.89,0 0,4.107 c 0,0.504 0.074,0.886 0.223,1.144 0.155,0.259 0.426,0.388 0.814,0.388 0.123,0 0.232,-0.01 0.329,-0.029 0.097,-0.025 0.184,-0.052 0.262,-0.077 0.078,-0.032 0.142,-0.059 0.194,-0.078 0.058,-0.025 0.11,-0.038 0.155,-0.038 0.026,0 0.048,0.006 0.068,0.02 0.026,0.013 0.045,0.038 0.058,0.077 0.02,0.039 0.032,0.091 0.039,0.155 0.011,0.063 0.018,0.145 0.018,0.241 z m 8.036,0.194 c 0,0.104 -0.01,0.19 -0.029,0.262 -0.013,0.071 -0.032,0.129 -0.058,0.175 -0.026,0.038 -0.058,0.067 -0.097,0.087 -0.032,0.02 -0.068,0.029 -0.107,0.029 l -5.532,0 c -0.032,0 -0.068,-0.01 -0.106,-0.029 -0.032,-0.02 -0.064,-0.049 -0.097,-0.087 -0.026,-0.046 -0.049,-0.104 -0.068,-0.175 -0.013,-0.071 -0.02,-0.158 -0.02,-0.262 0,-0.104 0.006,-0.19 0.02,-0.262 0.019,-0.07 0.042,-0.129 0.068,-0.174 0.025,-0.046 0.055,-0.078 0.087,-0.098 0.039,-0.025 0.078,-0.038 0.116,-0.038 l 2.209,0 0,-8.052 -2.044,1.221 c -0.104,0.052 -0.188,0.084 -0.252,0.098 -0.058,0.013 -0.107,0.003 -0.146,-0.029 -0.039,-0.039 -0.064,-0.098 -0.078,-0.175 -0.013,-0.084 -0.019,-0.19 -0.019,-0.319 0,-0.091 0.003,-0.168 0.009,-0.232 0.007,-0.065 0.016,-0.12 0.029,-0.165 0.02,-0.045 0.045,-0.084 0.078,-0.116 0.033,-0.032 0.071,-0.064 0.116,-0.097 l 2.441,-1.561 c 0.02,-0.019 0.045,-0.032 0.078,-0.038 0.032,-0.014 0.071,-0.026 0.116,-0.039 0.052,-0.013 0.11,-0.02 0.174,-0.02 0.071,0 0.155,0 0.252,0 0.129,0 0.236,0.007 0.32,0.02 0.09,0.007 0.158,0.02 0.204,0.039 0.051,0.02 0.084,0.045 0.097,0.077 0.02,0.026 0.029,0.055 0.029,0.087 l 0,9.302 1.918,0 c 0.045,0 0.084,0.013 0.116,0.038 0.039,0.02 0.071,0.052 0.097,0.098 0.026,0.045 0.045,0.104 0.058,0.174 0.014,0.07 0.021,0.157 0.021,0.261 z" /><path
     style="fill-opacity:0"
     inkscape:connector-curvature="0"
     id="path81"
     d="m 345.658,442.49 73.121,0 0,28.807 -73.121,0 0,-28.807 z" /><path
     inkscape:connector-curvature="0"
     id="path83"
     d="m 357.835,471.741 c 0,0.046 -0.01,0.084 -0.029,0.116 -0.02,0.026 -0.055,0.052 -0.105,0.078 -0.053,0.02 -0.123,0.032 -0.213,0.038 -0.084,0.014 -0.195,0.02 -0.33,0.02 -0.129,0 -0.238,-0.006 -0.33,-0.02 -0.084,-0.006 -0.15,-0.019 -0.203,-0.038 -0.051,-0.026 -0.088,-0.052 -0.107,-0.078 -0.018,-0.032 -0.027,-0.07 -0.027,-0.116 l 0,-10.919 c 0,-0.045 0.01,-0.084 0.027,-0.116 0.02,-0.032 0.057,-0.059 0.107,-0.077 0.053,-0.026 0.119,-0.042 0.203,-0.049 0.092,-0.013 0.201,-0.02 0.33,-0.02 0.135,0 0.246,0.007 0.33,0.02 0.09,0.007 0.16,0.022 0.213,0.049 0.051,0.019 0.086,0.045 0.105,0.077 0.019,0.032 0.029,0.071 0.029,0.116 l 0,10.919 z m 3.793,0 c 0,0.046 -0.01,0.084 -0.029,0.116 -0.018,0.026 -0.055,0.052 -0.105,0.078 -0.053,0.02 -0.123,0.032 -0.213,0.038 -0.084,0.014 -0.193,0.02 -0.33,0.02 -0.129,0 -0.238,-0.006 -0.33,-0.02 -0.084,-0.006 -0.15,-0.019 -0.203,-0.038 -0.051,-0.026 -0.086,-0.052 -0.105,-0.078 -0.02,-0.032 -0.029,-0.07 -0.029,-0.116 l 0,-7.354 c 0,-0.039 0.01,-0.074 0.029,-0.106 0.02,-0.039 0.055,-0.068 0.105,-0.087 0.053,-0.02 0.119,-0.036 0.203,-0.049 0.092,-0.013 0.201,-0.02 0.33,-0.02 0.137,0 0.246,0.007 0.33,0.02 0.09,0.013 0.16,0.029 0.213,0.049 0.051,0.019 0.088,0.048 0.105,0.087 0.02,0.032 0.029,0.067 0.029,0.106 l 0,7.354 z m 0.157,-9.844 c 0,0.316 -0.063,0.533 -0.186,0.649 -0.115,0.109 -0.336,0.165 -0.658,0.165 -0.311,0 -0.525,-0.056 -0.648,-0.165 -0.117,-0.109 -0.176,-0.319 -0.176,-0.63 0,-0.316 0.059,-0.533 0.176,-0.649 0.123,-0.116 0.346,-0.174 0.668,-0.174 0.316,0 0.533,0.058 0.648,0.174 0.117,0.111 0.176,0.321 0.176,0.63 z m 6.912,7.839 c 0,0.374 -0.07,0.71 -0.213,1.007 -0.135,0.298 -0.332,0.546 -0.592,0.746 -0.258,0.2 -0.564,0.353 -0.92,0.456 -0.348,0.104 -0.736,0.154 -1.162,0.154 -0.266,0 -0.518,-0.022 -0.756,-0.067 -0.232,-0.039 -0.443,-0.087 -0.629,-0.146 -0.188,-0.064 -0.35,-0.129 -0.484,-0.193 -0.131,-0.071 -0.225,-0.133 -0.281,-0.185 -0.059,-0.058 -0.104,-0.136 -0.137,-0.232 -0.025,-0.097 -0.039,-0.232 -0.039,-0.407 0,-0.103 0.008,-0.19 0.02,-0.261 0.014,-0.071 0.027,-0.126 0.039,-0.165 0.02,-0.045 0.043,-0.078 0.068,-0.097 0.031,-0.02 0.068,-0.029 0.105,-0.029 0.059,0 0.146,0.039 0.262,0.116 0.123,0.071 0.27,0.151 0.438,0.242 0.174,0.084 0.377,0.165 0.609,0.242 0.232,0.071 0.504,0.106 0.814,0.106 0.227,0 0.43,-0.025 0.609,-0.077 0.188,-0.052 0.35,-0.123 0.484,-0.213 0.143,-0.098 0.25,-0.22 0.32,-0.368 0.07,-0.149 0.107,-0.323 0.107,-0.523 0,-0.207 -0.057,-0.381 -0.166,-0.523 -0.104,-0.142 -0.242,-0.269 -0.416,-0.378 -0.174,-0.109 -0.371,-0.207 -0.592,-0.291 -0.213,-0.084 -0.436,-0.171 -0.668,-0.261 -0.232,-0.091 -0.459,-0.194 -0.678,-0.311 -0.221,-0.123 -0.416,-0.268 -0.592,-0.436 -0.174,-0.168 -0.316,-0.368 -0.426,-0.601 -0.104,-0.239 -0.154,-0.521 -0.154,-0.844 0,-0.29 0.055,-0.568 0.164,-0.833 0.115,-0.265 0.283,-0.494 0.504,-0.688 0.227,-0.2 0.504,-0.358 0.834,-0.475 0.334,-0.123 0.729,-0.185 1.182,-0.185 0.193,0 0.387,0.017 0.58,0.049 0.201,0.032 0.379,0.074 0.533,0.126 0.162,0.045 0.297,0.097 0.408,0.154 0.109,0.059 0.193,0.11 0.252,0.155 0.057,0.039 0.096,0.074 0.115,0.106 0.019,0.032 0.033,0.071 0.039,0.116 0.006,0.039 0.012,0.088 0.02,0.146 0.012,0.059 0.02,0.133 0.02,0.223 0,0.091 -0.008,0.172 -0.02,0.242 -0.008,0.064 -0.02,0.12 -0.039,0.165 -0.014,0.045 -0.035,0.077 -0.068,0.097 -0.025,0.02 -0.055,0.029 -0.086,0.029 -0.053,0 -0.123,-0.029 -0.215,-0.087 -0.09,-0.064 -0.209,-0.13 -0.357,-0.194 -0.148,-0.071 -0.322,-0.136 -0.523,-0.193 -0.193,-0.059 -0.42,-0.087 -0.678,-0.087 -0.227,0 -0.426,0.025 -0.602,0.077 -0.174,0.052 -0.318,0.126 -0.436,0.223 -0.109,0.091 -0.193,0.203 -0.252,0.339 -0.059,0.13 -0.088,0.269 -0.088,0.417 0,0.213 0.055,0.394 0.166,0.543 0.109,0.142 0.252,0.268 0.426,0.378 0.174,0.109 0.371,0.209 0.592,0.3 0.225,0.084 0.455,0.171 0.688,0.262 0.233,0.091 0.461,0.193 0.688,0.31 0.227,0.117 0.426,0.256 0.602,0.417 0.174,0.161 0.313,0.358 0.416,0.591 0.11,0.228 0.165,0.5 0.165,0.816 z m 5.67,1.463 c 0,0.161 -0.012,0.287 -0.037,0.378 -0.02,0.09 -0.053,0.158 -0.098,0.203 -0.039,0.045 -0.104,0.087 -0.193,0.126 -0.084,0.039 -0.186,0.067 -0.301,0.087 -0.109,0.026 -0.229,0.046 -0.359,0.059 -0.121,0.02 -0.244,0.029 -0.367,0.029 -0.381,0 -0.711,-0.049 -0.988,-0.146 -0.271,-0.104 -0.494,-0.256 -0.668,-0.456 -0.176,-0.206 -0.301,-0.465 -0.379,-0.774 -0.078,-0.316 -0.115,-0.688 -0.115,-1.114 l 0,-4.302 -1.027,0 c -0.084,0 -0.152,-0.042 -0.203,-0.126 -0.047,-0.091 -0.068,-0.232 -0.068,-0.427 0,-0.104 0.006,-0.19 0.02,-0.262 0.012,-0.07 0.029,-0.129 0.049,-0.174 0.025,-0.052 0.055,-0.084 0.086,-0.097 0.039,-0.02 0.082,-0.029 0.127,-0.029 l 1.018,0 0,-1.754 c 0,-0.039 0.01,-0.074 0.029,-0.106 0.018,-0.032 0.055,-0.062 0.105,-0.087 0.053,-0.026 0.119,-0.042 0.203,-0.049 0.092,-0.013 0.201,-0.02 0.33,-0.02 0.135,0 0.246,0.007 0.33,0.02 0.09,0.007 0.158,0.022 0.203,0.049 0.051,0.025 0.086,0.055 0.105,0.087 0.027,0.032 0.039,0.067 0.039,0.106 l 0,1.754 1.889,0 c 0.047,0 0.084,0.01 0.117,0.029 0.033,0.013 0.061,0.045 0.088,0.097 0.025,0.045 0.041,0.104 0.047,0.174 0.014,0.071 0.02,0.158 0.02,0.262 0,0.194 -0.025,0.336 -0.076,0.427 -0.045,0.084 -0.111,0.126 -0.195,0.126 l -1.889,0 0,4.107 c 0,0.504 0.074,0.886 0.223,1.144 0.156,0.259 0.428,0.388 0.814,0.388 0.123,0 0.232,-0.01 0.33,-0.029 0.096,-0.025 0.184,-0.052 0.262,-0.077 0.076,-0.032 0.141,-0.059 0.193,-0.078 0.059,-0.025 0.109,-0.038 0.154,-0.038 0.025,0 0.049,0.006 0.068,0.02 0.025,0.013 0.045,0.038 0.059,0.077 0.02,0.039 0.031,0.091 0.037,0.155 0.012,0.063 0.018,0.145 0.018,0.241 z m 8.017,0.146 c 0,0.097 -0.01,0.184 -0.029,0.261 -0.012,0.071 -0.031,0.133 -0.059,0.185 -0.02,0.052 -0.051,0.091 -0.096,0.116 -0.039,0.025 -0.082,0.039 -0.127,0.039 l -5.852,0 c -0.078,0 -0.145,-0.01 -0.203,-0.029 -0.053,-0.02 -0.1,-0.049 -0.146,-0.087 -0.037,-0.046 -0.066,-0.11 -0.086,-0.194 -0.02,-0.084 -0.029,-0.184 -0.029,-0.3 0,-0.11 0.004,-0.204 0.01,-0.281 0.014,-0.084 0.031,-0.158 0.059,-0.223 0.025,-0.064 0.057,-0.126 0.096,-0.185 0.045,-0.064 0.102,-0.132 0.166,-0.203 l 2.053,-2.18 c 0.473,-0.498 0.85,-0.946 1.135,-1.347 0.289,-0.401 0.514,-0.763 0.668,-1.086 0.154,-0.329 0.256,-0.626 0.301,-0.891 0.051,-0.266 0.076,-0.518 0.076,-0.756 0,-0.232 -0.037,-0.452 -0.115,-0.659 -0.078,-0.213 -0.188,-0.397 -0.33,-0.552 -0.143,-0.162 -0.322,-0.288 -0.543,-0.378 -0.219,-0.098 -0.471,-0.146 -0.754,-0.146 -0.33,0 -0.627,0.048 -0.893,0.146 -0.264,0.09 -0.498,0.19 -0.697,0.3 -0.201,0.11 -0.369,0.213 -0.504,0.311 -0.129,0.09 -0.227,0.136 -0.291,0.136 -0.039,0 -0.074,-0.01 -0.105,-0.029 -0.027,-0.026 -0.049,-0.062 -0.068,-0.106 -0.02,-0.052 -0.035,-0.12 -0.049,-0.204 -0.014,-0.084 -0.02,-0.181 -0.02,-0.29 0,-0.084 0.004,-0.155 0.01,-0.214 0.006,-0.064 0.016,-0.116 0.029,-0.154 0.014,-0.046 0.029,-0.088 0.049,-0.126 0.025,-0.039 0.07,-0.088 0.135,-0.146 0.064,-0.059 0.178,-0.136 0.34,-0.232 0.162,-0.098 0.361,-0.194 0.6,-0.291 0.246,-0.097 0.514,-0.178 0.805,-0.242 0.297,-0.064 0.604,-0.097 0.92,-0.097 0.518,0 0.967,0.074 1.348,0.223 0.387,0.143 0.707,0.339 0.959,0.591 0.252,0.246 0.439,0.536 0.563,0.872 0.129,0.329 0.193,0.685 0.193,1.066 0,0.335 -0.033,0.671 -0.098,1.007 -0.057,0.336 -0.184,0.698 -0.377,1.086 -0.193,0.387 -0.475,0.82 -0.844,1.298 -0.361,0.478 -0.842,1.027 -1.443,1.647 l -1.676,1.753 4.602,0 c 0.039,0 0.078,0.014 0.117,0.039 0.045,0.02 0.08,0.055 0.105,0.106 0.033,0.052 0.057,0.113 0.068,0.185 0.018,0.069 0.027,0.157 0.027,0.261 z" /></svg>