<?xml version="1.0" encoding="UTF-8" standalone="no"?>
<svg
   xmlns:dc="http://purl.org/dc/elements/1.1/"
   xmlns:cc="http://creativecommons.org/ns#"
   xmlns:rdf="http://www.w3.org/1999/02/22-rdf-syntax-ns#"
   xmlns:svg="http://www.w3.org/2000/svg"
   xmlns="http://www.w3.org/2000/svg"
   xmlns:sodipodi="http://sodipodi.sourceforge.net/DTD/sodipodi-0.dtd"
   xmlns:inkscape="http://www.inkscape.org/namespaces/inkscape"
   version="1.1"
   viewBox="0.0 0.0 960.0 720.0"
   fill="none"
   stroke="none"
   stroke-linecap="square"
   stroke-miterlimit="10"
   id="svg2"
   inkscape:version="0.91 r13725"
   sodipodi:docname="iterator-fail-outside.svg">
  <metadata
     id="metadata177">
    <rdf:RDF>
      <cc:Work
         rdf:about="">
        <dc:format>image/svg+xml</dc:format>
        <dc:type
           rdf:resource="http://purl.org/dc/dcmitype/StillImage" />
      </cc:Work>
    </rdf:RDF>
  </metadata>
  <defs
     id="defs175" />
  <sodipodi:namedview
     pagecolor="#ffffff"
     bordercolor="#666666"
     borderopacity="1"
     objecttolerance="10"
     gridtolerance="10"
     guidetolerance="10"
     inkscape:pageopacity="0"
     inkscape:pageshadow="2"
     inkscape:window-width="640"
     inkscape:window-height="480"
     id="namedview173"
     showgrid="false"
     inkscape:zoom="0.32291667"
     inkscape:cx="480"
     inkscape:cy="360"
     inkscape:window-x="0"
     inkscape:window-y="0"
     inkscape:window-maximized="0"
     inkscape:current-layer="svg2" />
  <clipPath
     id="p.0">
    <path
       d="m0 0l960.0 0l0 720.0l-960.0 0l0 -720.0z"
       clip-rule="nonzero"
       id="path5" />
  </clipPath>
  <path
     style="fill:#000000;fill-opacity:0;fill-rule:nonzero"
     inkscape:connector-curvature="0"
     id="path9"
     d="m 0,0 960,0 0,720 -960,0 z" />
  <path
     style="fill:#000000;fill-opacity:0;fill-rule:nonzero"
     inkscape:connector-curvature="0"
     id="path11"
     d="m 48,355.84933 864,0 0,336.41953 -864,0 z" />
  <path
     style="fill-rule:nonzero;stroke:#535353;stroke-width:2;stroke-linecap:butt;stroke-linejoin:round;stroke-dasharray:8, 6"
     inkscape:connector-curvature="0"
     id="path13"
     d="m 48,355.84933 864,0 0,336.41953 -864,0 z" />
  <path
     style="fill:#ffffff;fill-rule:nonzero"
     inkscape:connector-curvature="0"
     id="path15"
     d="m 394.8399,336.59097 141.13385,0 0,46.44952 -141.13385,0 z" />
  <path
     style="fill-rule:nonzero;stroke:#535353;stroke-width:2;stroke-linecap:butt;stroke-linejoin:round"
     inkscape:connector-curvature="0"
     id="path17"
     d="m 394.8399,336.59097 141.13385,0 0,46.44952 -141.13385,0 z" />
  <path
     style="fill:#000000;fill-rule:nonzero"
     inkscape:connector-curvature="0"
     id="path19"
     d="m 449.52594,358.2101 q 0,0.3125 -0.0156,0.53125 0,0.20312 -0.0469,0.32812 -0.0469,0.125 -0.10938,0.1875 -0.0625,0.0625 -0.17187,0.0625 -0.125,0 -0.28125,-0.0625 -0.15625,-0.0625 -0.375,-0.125 -0.20313,-0.0625 -0.45313,-0.125 -0.25,-0.0625 -0.54687,-0.0625 -0.35938,0 -0.70313,0.14063 -0.32812,0.14062 -0.71875,0.46875 -0.375,0.32812 -0.78125,0.875 -0.40625,0.53125 -0.90625,1.3125 l 0,8.375 q 0,0.125 -0.0625,0.20312 -0.0469,0.0781 -0.17187,0.14063 -0.125,0.0469 -0.35938,0.0625 -0.21875,0.0312 -0.57812,0.0312 -0.34375,0 -0.57813,-0.0312 -0.21875,-0.0156 -0.35937,-0.0625 -0.125,-0.0625 -0.17188,-0.14063 -0.0469,-0.0781 -0.0469,-0.20312 l 0,-12.73438 q 0,-0.125 0.0312,-0.20312 0.0469,-0.0781 0.17187,-0.14063 0.125,-0.0625 0.32813,-0.0781 0.20312,-0.0156 0.53125,-0.0156 0.3125,0 0.51562,0.0156 0.20313,0.0156 0.3125,0.0781 0.10938,0.0625 0.15625,0.14063 0.0625,0.0781 0.0625,0.20312 l 0,1.84375 q 0.51563,-0.76562 0.96875,-1.23437 0.46875,-0.48438 0.875,-0.75 0.42188,-0.28125 0.8125,-0.39063 0.40625,-0.10937 0.82813,-0.10937 0.17187,0 0.40625,0.0312 0.23437,0.0156 0.48437,0.0781 0.26563,0.0469 0.46875,0.125 0.20313,0.0625 0.28125,0.14063 0.0937,0.0625 0.125,0.125 0.0312,0.0625 0.0469,0.17187 0.0156,0.0937 0.0156,0.28125 0.0156,0.1875 0.0156,0.51563 z m 14.63098,5.39062 q 0,1.5625 -0.40625,2.875 -0.40625,1.3125 -1.23437,2.26563 -0.8125,0.9375 -2.03125,1.46875 -1.21875,0.53125 -2.84375,0.53125 -1.5625,0 -2.73438,-0.46875 -1.17187,-0.46875 -1.95312,-1.35938 -0.76563,-0.89062 -1.15625,-2.15625 -0.375,-1.28125 -0.375,-2.89062 0,-1.5625 0.39062,-2.875 0.40625,-1.3125 1.21875,-2.25 0.8125,-0.95313 2.03125,-1.46875 1.21875,-0.53125 2.85938,-0.53125 1.5625,0 2.73437,0.46875 1.17188,0.46875 1.9375,1.35937 0.78125,0.89063 1.17188,2.17188 0.39062,1.26562 0.39062,2.85937 z m -2.45312,0.15625 q 0,-1.03125 -0.20313,-1.95312 -0.1875,-0.92188 -0.625,-1.60938 -0.4375,-0.6875 -1.1875,-1.09375 -0.75,-0.40625 -1.875,-0.40625 -1.03125,0 -1.78125,0.375 -0.73437,0.35938 -1.21875,1.03125 -0.48437,0.67188 -0.71875,1.59375 -0.23437,0.92188 -0.23437,2.01563 0,1.04687 0.1875,1.96875 0.20312,0.92187 0.64062,1.60937 0.45313,0.6875 1.20313,1.09375 0.75,0.39063 1.875,0.39063 1.01562,0 1.76562,-0.35938 0.75,-0.375 1.23438,-1.03125 0.48437,-0.67187 0.70312,-1.59375 0.23438,-0.92187 0.23438,-2.03125 z m 17.91912,-0.15625 q 0,1.5625 -0.40625,2.875 -0.40625,1.3125 -1.23437,2.26563 -0.8125,0.9375 -2.03125,1.46875 -1.21875,0.53125 -2.84375,0.53125 -1.5625,0 -2.73438,-0.46875 -1.17187,-0.46875 -1.95312,-1.35938 -0.76563,-0.89062 -1.15625,-2.15625 -0.375,-1.28125 -0.375,-2.89062 0,-1.5625 0.39062,-2.875 0.40625,-1.3125 1.21875,-2.25 0.8125,-0.95313 2.03125,-1.46875 1.21875,-0.53125 2.85938,-0.53125 1.5625,0 2.73437,0.46875 1.17188,0.46875 1.9375,1.35937 0.78125,0.89063 1.17188,2.17188 0.39062,1.26562 0.39062,2.85937 z m -2.45312,0.15625 q 0,-1.03125 -0.20313,-1.95312 -0.1875,-0.92188 -0.625,-1.60938 -0.4375,-0.6875 -1.1875,-1.09375 -0.75,-0.40625 -1.875,-0.40625 -1.03125,0 -1.78125,0.375 -0.73437,0.35938 -1.21875,1.03125 -0.48437,0.67188 -0.71875,1.59375 -0.23437,0.92188 -0.23437,2.01563 0,1.04687 0.1875,1.96875 0.20312,0.92187 0.64062,1.60937 0.45313,0.6875 1.20313,1.09375 0.75,0.39063 1.875,0.39063 1.01562,0 1.76562,-0.35938 0.75,-0.375 1.23438,-1.03125 0.48437,-0.67187 0.70312,-1.59375 0.23438,-0.92187 0.23438,-2.03125 z m 12.70038,5.4375 q 0,0.40625 -0.0625,0.65625 -0.0469,0.23438 -0.17188,0.34375 -0.10937,0.10938 -0.34375,0.21875 -0.21875,0.0937 -0.51562,0.15625 -0.28125,0.0625 -0.60938,0.0937 -0.32812,0.0469 -0.65625,0.0469 -0.98437,0 -1.70312,-0.25 -0.70313,-0.26563 -1.15625,-0.79688 -0.45313,-0.53125 -0.65625,-1.34375 -0.20313,-0.8125 -0.20313,-1.92187 l 0,-7.45313 -1.78125,0 q -0.21875,0 -0.34375,-0.21875 -0.125,-0.23437 -0.125,-0.73437 0,-0.28125 0.0312,-0.45313 0.0312,-0.1875 0.0937,-0.3125 0.0625,-0.125 0.14063,-0.17187 0.0937,-0.0469 0.21875,-0.0469 l 1.76562,0 0,-3.03125 q 0,-0.0937 0.0469,-0.17187 0.0469,-0.0937 0.1875,-0.15625 0.14062,-0.0625 0.35937,-0.0937 0.23438,-0.0312 0.5625,-0.0312 0.35938,0 0.57813,0.0312 0.23437,0.0312 0.35937,0.0937 0.125,0.0625 0.1875,0.15625 0.0625,0.0781 0.0625,0.17187 l 0,3.03125 3.26563,0 q 0.10937,0 0.1875,0.0469 0.0937,0.0469 0.15625,0.17187 0.0625,0.125 0.0937,0.3125 0.0312,0.17188 0.0312,0.45313 0,0.5 -0.14063,0.73437 -0.125,0.21875 -0.32812,0.21875 l -3.26563,0 0,7.10938 q 0,1.32812 0.375,2 0.39063,0.67187 1.40625,0.67187 0.32813,0 0.57813,-0.0625 0.25,-0.0781 0.45312,-0.14062 0.20313,-0.0781 0.34375,-0.14063 0.14063,-0.0625 0.25,-0.0625 0.0625,0 0.125,0.0469 0.0781,0.0312 0.10938,0.125 0.0312,0.0937 0.0625,0.26562 0.0312,0.17188 0.0312,0.4375 z" />
  <path
     style="fill:#ffffff;fill-rule:nonzero"
     inkscape:connector-curvature="0"
     id="path21"
     d="m 151.86351,551.105 178.64568,0 0,46.45673 -178.64568,0 z" />
  <path
     style="fill-rule:nonzero;stroke:#535353;stroke-width:2;stroke-linecap:butt;stroke-linejoin:round"
     inkscape:connector-curvature="0"
     id="path23"
     d="m 151.86351,551.105 178.64568,0 0,46.45673 -178.64568,0 z" />
  <path
     style="fill:#000000;fill-rule:nonzero"
     inkscape:connector-curvature="0"
     id="path25"
     d="m 213.6785,583.99335 q 0,0.25 -0.0312,0.4375 -0.0156,0.1875 -0.0937,0.32812 -0.0625,0.125 -0.15625,0.1875 -0.0937,0.0469 -0.20312,0.0469 l -8.79688,0 q -0.32812,0 -0.625,-0.21875 -0.28125,-0.21875 -0.28125,-0.76563 l 0,-16.34375 q 0,-0.5625 0.28125,-0.78125 0.29688,-0.21875 0.625,-0.21875 l 8.6875,0 q 0.125,0 0.20313,0.0625 0.0937,0.0625 0.15625,0.1875 0.0625,0.125 0.0937,0.3125 0.0312,0.1875 0.0312,0.46875 0,0.26563 -0.0312,0.45313 -0.0312,0.1875 -0.0937,0.3125 -0.0625,0.125 -0.15625,0.1875 -0.0781,0.0469 -0.20313,0.0469 l -7.15625,0 0,5.75 6.14063,0 q 0.10937,0 0.20312,0.0625 0.0937,0.0625 0.15625,0.17188 0.0625,0.10937 0.0937,0.3125 0.0312,0.20312 0.0312,0.46875 0,0.25 -0.0312,0.4375 -0.0312,0.1875 -0.0937,0.29687 -0.0625,0.10938 -0.15625,0.17188 -0.0937,0.0469 -0.20312,0.0469 l -6.14063,0 0,6.54688 7.26563,0 q 0.10937,0 0.20312,0.0625 0.0937,0.0625 0.15625,0.1875 0.0781,0.10937 0.0937,0.3125 0.0312,0.1875 0.0312,0.46875 z m 14.836,0.64062 q 0,0.125 -0.0625,0.20313 -0.0469,0.0781 -0.1875,0.14062 -0.125,0.0469 -0.35938,0.0625 -0.21875,0.0312 -0.54687,0.0312 -0.35938,0 -0.59375,-0.0312 -0.21875,-0.0156 -0.34375,-0.0625 -0.125,-0.0625 -0.1875,-0.14062 -0.0625,-0.0781 -0.0625,-0.20313 l 0,-7.45312 q 0,-1.09375 -0.17188,-1.75 -0.15625,-0.67188 -0.48437,-1.15625 -0.32813,-0.48438 -0.84375,-0.73438 -0.51563,-0.25 -1.20313,-0.25 -0.875,0 -1.75,0.625 -0.875,0.60938 -1.84375,1.8125 l 0,8.90625 q 0,0.125 -0.0625,0.20313 -0.0469,0.0781 -0.17187,0.14062 -0.125,0.0469 -0.35938,0.0625 -0.21875,0.0312 -0.57812,0.0312 -0.34375,0 -0.57813,-0.0312 -0.21875,-0.0156 -0.35937,-0.0625 -0.125,-0.0625 -0.17188,-0.14062 -0.0469,-0.0781 -0.0469,-0.20313 l 0,-12.73437 q 0,-0.125 0.0312,-0.20313 0.0469,-0.0781 0.17187,-0.14062 0.125,-0.0625 0.32813,-0.0781 0.20312,-0.0156 0.53125,-0.0156 0.3125,0 0.51562,0.0156 0.20313,0.0156 0.3125,0.0781 0.10938,0.0625 0.15625,0.14062 0.0625,0.0781 0.0625,0.20313 l 0,1.6875 q 1.07813,-1.20313 2.14063,-1.76563 1.0625,-0.5625 2.15625,-0.5625 1.28125,0 2.14062,0.4375 0.875,0.42188 1.40625,1.15625 0.54688,0.71875 0.78125,1.6875 0.23438,0.96875 0.23438,2.32813 l 0,7.76562 z m 15.0806,-12.15625 q 0,0.5 -0.14063,0.71875 -0.125,0.21875 -0.34375,0.21875 l -1.82812,0 q 0.5,0.5 0.70312,1.125 0.20313,0.60938 0.20313,1.28125 0,1.09375 -0.35938,1.95313 -0.35937,0.84375 -1.01562,1.4375 -0.65625,0.57812 -1.5625,0.89062 -0.90625,0.3125 -2.01563,0.3125 -0.78125,0 -1.48437,-0.20312 -0.6875,-0.20313 -1.07813,-0.51563 -0.25,0.25 -0.42187,0.57813 -0.15625,0.32812 -0.15625,0.75 0,0.5 0.45312,0.82812 0.46875,0.32813 1.23438,0.34375 l 3.32812,0.15625 q 0.95313,0.0156 1.73438,0.25 0.79687,0.23438 1.375,0.67188 0.57812,0.4375 0.90625,1.0625 0.32812,0.625 0.32812,1.46875 0,0.875 -0.375,1.65625 -0.35937,0.79687 -1.125,1.39062 -0.75,0.60938 -1.92187,0.95313 -1.17188,0.35937 -2.78125,0.35937 -1.54688,0 -2.625,-0.26562 -1.07813,-0.26563 -1.78125,-0.71875 -0.6875,-0.45313 -1,-1.07813 -0.3125,-0.625 -0.3125,-1.375 0,-0.45312 0.10937,-0.90625 0.125,-0.4375 0.34375,-0.82812 0.23438,-0.39063 0.57813,-0.75 0.35937,-0.375 0.8125,-0.71875 -0.70313,-0.35938 -1.03125,-0.89063 -0.32813,-0.54687 -0.32813,-1.17187 0,-0.85938 0.34375,-1.53125 0.35938,-0.6875 0.89063,-1.21875 -0.4375,-0.53125 -0.70313,-1.1875 -0.25,-0.65625 -0.25,-1.59375 0,-1.09375 0.35938,-1.95313 0.375,-0.85937 1.01562,-1.45312 0.65625,-0.59375 1.5625,-0.90625 0.92188,-0.32813 2,-0.32813 0.57813,0 1.07813,0.0625 0.51562,0.0625 0.95312,0.17188 l 3.84375,0 q 0.25,0 0.35938,0.23437 0.125,0.23438 0.125,0.71875 z m -3.65625,3.35938 q 0,-1.3125 -0.71875,-2.03125 -0.70313,-0.73438 -2.01563,-0.73438 -0.6875,0 -1.1875,0.23438 -0.5,0.21875 -0.84375,0.625 -0.32812,0.39062 -0.5,0.90625 -0.15625,0.51562 -0.15625,1.07812 0,1.26563 0.71875,1.98438 0.71875,0.71875 2,0.71875 0.70313,0 1.20313,-0.21875 0.51562,-0.21875 0.84375,-0.60938 0.34375,-0.39062 0.5,-0.89062 0.15625,-0.51563 0.15625,-1.0625 z m 1.1875,10.09375 q 0,-0.82813 -0.6875,-1.26563 -0.67188,-0.45312 -1.8125,-0.48437 l -3.29688,-0.10938 q -0.45312,0.35938 -0.75,0.6875 -0.28125,0.3125 -0.45312,0.59375 -0.17188,0.29688 -0.23438,0.57813 -0.0625,0.28125 -0.0625,0.57812 0,0.92188 0.92188,1.39063 0.9375,0.48437 2.60937,0.48437 1.0625,0 1.78125,-0.21875 0.71875,-0.20312 1.15625,-0.54687 0.4375,-0.32813 0.625,-0.76563 0.20313,-0.4375 0.20313,-0.92187 z m 7.96109,-1.29688 q 0,0.125 -0.0625,0.20313 -0.0469,0.0781 -0.17188,0.14062 -0.125,0.0469 -0.35937,0.0625 -0.21875,0.0312 -0.57813,0.0312 -0.34375,0 -0.57812,-0.0312 -0.21875,-0.0156 -0.35938,-0.0625 -0.125,-0.0625 -0.17187,-0.14062 -0.0469,-0.0781 -0.0469,-0.20313 l 0,-12.73437 q 0,-0.10938 0.0469,-0.1875 0.0469,-0.0937 0.17187,-0.14063 0.14063,-0.0625 0.35938,-0.0781 0.23437,-0.0312 0.57812,-0.0312 0.35938,0 0.57813,0.0312 0.23437,0.0156 0.35937,0.0781 0.125,0.0469 0.17188,0.14063 0.0625,0.0781 0.0625,0.1875 l 0,12.73437 z m 0.26562,-17.04687 q 0,0.82812 -0.3125,1.125 -0.29687,0.29687 -1.14062,0.29687 -0.8125,0 -1.125,-0.28125 -0.29688,-0.29687 -0.29688,-1.10937 0,-0.82813 0.29688,-1.125 0.3125,-0.29688 1.15625,-0.29688 0.8125,0 1.10937,0.29688 0.3125,0.29687 0.3125,1.09375 z m 15.10559,17.04687 q 0,0.125 -0.0625,0.20313 -0.0469,0.0781 -0.1875,0.14062 -0.125,0.0469 -0.35937,0.0625 -0.21875,0.0312 -0.54688,0.0312 -0.35937,0 -0.59375,-0.0312 -0.21875,-0.0156 -0.34375,-0.0625 -0.125,-0.0625 -0.1875,-0.14062 -0.0625,-0.0781 -0.0625,-0.20313 l 0,-7.45312 q 0,-1.09375 -0.17187,-1.75 -0.15625,-0.67188 -0.48438,-1.15625 -0.32812,-0.48438 -0.84375,-0.73438 -0.51562,-0.25 -1.20312,-0.25 -0.875,0 -1.75,0.625 -0.875,0.60938 -1.84377,1.8125 l 0,8.90625 q 0,0.125 -0.0625,0.20313 -0.0469,0.0781 -0.17187,0.14062 -0.125,0.0469 -0.35938,0.0625 -0.21875,0.0312 -0.57812,0.0312 -0.34375,0 -0.57813,-0.0312 -0.21875,-0.0156 -0.35937,-0.0625 -0.125,-0.0625 -0.17188,-0.14062 -0.0469,-0.0781 -0.0469,-0.20313 l 0,-12.73437 q 0,-0.125 0.0312,-0.20313 0.0469,-0.0781 0.17187,-0.14062 0.125,-0.0625 0.32813,-0.0781 0.20312,-0.0156 0.53125,-0.0156 0.3125,0 0.51562,0.0156 0.20313,0.0156 0.3125,0.0781 0.10938,0.0625 0.15625,0.14062 0.0625,0.0781 0.0625,0.20313 l 0,1.6875 q 1.07814,-1.20313 2.14064,-1.76563 1.0625,-0.5625 2.15625,-0.5625 1.28125,0 2.14063,0.4375 0.875,0.42188 1.40625,1.15625 0.54687,0.71875 0.78125,1.6875 0.23437,0.96875 0.23437,2.32813 l 0,7.76562 z m 15.31497,-6.92187 q 0,0.5625 -0.28125,0.79687 -0.28125,0.21875 -0.625,0.21875 l -8.35937,0 q 0,1.0625 0.20312,1.92188 0.21875,0.84375 0.71875,1.45312 0.5,0.60938 1.28125,0.9375 0.79688,0.32813 1.95313,0.32813 0.90625,0 1.60937,-0.14063 0.70313,-0.15625 1.21875,-0.34375 0.51563,-0.1875 0.84375,-0.32812 0.34375,-0.15625 0.51563,-0.15625 0.0937,0 0.17187,0.0469 0.0781,0.0469 0.125,0.15625 0.0469,0.0937 0.0625,0.28125 0.0156,0.17188 0.0156,0.42188 0,0.1875 -0.0156,0.32812 -0.0156,0.125 -0.0312,0.23438 -0.0156,0.10937 -0.0781,0.20312 -0.0469,0.0781 -0.125,0.15625 -0.0781,0.0781 -0.46875,0.25 -0.375,0.17188 -0.98438,0.34375 -0.59375,0.17188 -1.40625,0.29688 -0.79687,0.14062 -1.70312,0.14062 -1.5625,0 -2.75,-0.4375 -1.1875,-0.4375 -2,-1.29687 -0.79688,-0.875 -1.21875,-2.17188 -0.40625,-1.29687 -0.40625,-3.03125 0,-1.64062 0.42187,-2.95312 0.4375,-1.3125 1.23438,-2.21875 0.79687,-0.92188 1.92187,-1.40625 1.14063,-0.48438 2.54688,-0.48438 1.5,0 2.54687,0.48438 1.0625,0.48437 1.73438,1.29687 0.6875,0.8125 1,1.90625 0.32812,1.09375 0.32812,2.34375 l 0,0.42188 z m -2.35937,-0.6875 q 0.0469,-1.84375 -0.8125,-2.89063 -0.85938,-1.04687 -2.54688,-1.04687 -0.85937,0 -1.51562,0.32812 -0.64063,0.32813 -1.07813,0.85938 -0.4375,0.53125 -0.6875,1.25 -0.23437,0.71875 -0.26562,1.5 l 6.90625,0 z" />
  <path
     style="fill-rule:nonzero;stroke:#000000;stroke-width:1.91927087;stroke-linecap:butt"
     inkscape:connector-curvature="0"
     id="path27"
     d="m 201.0535,588.3162 80.26572,0" />
  <path
     style="fill:#d9d9d9;fill-rule:nonzero"
     inkscape:connector-curvature="0"
     id="path29"
     d="m 94.698166,456.49606 560.409404,0 0,214.29922 -560.409404,0 z" />
  <path
     style="fill-rule:nonzero;stroke:#535353;stroke-width:2;stroke-linecap:butt;stroke-linejoin:round;stroke-dasharray:8, 6"
     inkscape:connector-curvature="0"
     id="path31"
     d="m 94.698166,456.49606 560.409404,0 0,214.29922 -560.409404,0 z" />
  <path
     style="fill:#ffffff;fill-rule:nonzero"
     inkscape:connector-curvature="0"
     id="path33"
     d="m 151.86351,429.69815 178.64568,0 0,46.4567 -178.64568,0 z" />
  <path
     style="fill-rule:nonzero;stroke:#535353;stroke-width:2;stroke-linecap:butt;stroke-linejoin:round"
     inkscape:connector-curvature="0"
     id="path35"
     d="m 151.86351,429.69815 178.64568,0 0,46.4567 -178.64568,0 z" />
  <path
     style="fill:#000000;fill-rule:nonzero"
     inkscape:connector-curvature="0"
     id="path37"
     d="m 232.94644,462.52402 q 0,0.28125 -0.0312,0.48437 -0.0312,0.1875 -0.0937,0.32813 -0.0625,0.125 -0.15625,0.1875 -0.0937,0.0625 -0.21875,0.0625 l -8.09375,0 q -0.32813,0 -0.625,-0.21875 -0.28125,-0.21875 -0.28125,-0.76563 l 0,-16.96875 q 0,-0.10937 0.0469,-0.1875 0.0625,-0.0937 0.20313,-0.14062 0.14062,-0.0625 0.375,-0.0937 0.25,-0.0312 0.59375,-0.0312 0.34375,0 0.57812,0.0312 0.23438,0.0312 0.375,0.0937 0.15625,0.0469 0.20313,0.14062 0.0625,0.0781 0.0625,0.1875 l 0,15.84375 6.5625,0 q 0.125,0 0.21875,0.0625 0.0937,0.0625 0.15625,0.1875 0.0625,0.125 0.0937,0.32813 0.0312,0.1875 0.0312,0.46875 z m 4.89235,0.70312 q 0,0.125 -0.0625,0.20313 -0.0469,0.0781 -0.17188,0.14062 -0.125,0.0469 -0.35937,0.0625 -0.21875,0.0312 -0.57813,0.0312 -0.34375,0 -0.57812,-0.0312 -0.21875,-0.0156 -0.35938,-0.0625 -0.125,-0.0625 -0.17187,-0.14062 -0.0469,-0.0781 -0.0469,-0.20313 l 0,-12.73437 q 0,-0.10938 0.0469,-0.1875 0.0469,-0.0937 0.17187,-0.14063 0.14063,-0.0625 0.35938,-0.0781 0.23437,-0.0312 0.57812,-0.0312 0.35938,0 0.57813,0.0312 0.23437,0.0156 0.35937,0.0781 0.125,0.0469 0.17188,0.14063 0.0625,0.0781 0.0625,0.1875 l 0,12.73437 z m 0.26562,-17.04687 q 0,0.82812 -0.3125,1.125 -0.29687,0.29687 -1.14062,0.29687 -0.8125,0 -1.125,-0.28125 -0.29688,-0.29687 -0.29688,-1.10937 0,-0.82813 0.29688,-1.125 0.3125,-0.29688 1.15625,-0.29688 0.8125,0 1.10937,0.29688 0.3125,0.29687 0.3125,1.09375 z m 12.13683,13.57812 q 0,0.98438 -0.375,1.75 -0.35937,0.76563 -1.03125,1.29688 -0.65625,0.51562 -1.57812,0.78125 -0.92188,0.26562 -2.01563,0.26562 -0.6875,0 -1.3125,-0.10937 -0.60937,-0.0937 -1.09375,-0.25 -0.48437,-0.17188 -0.82812,-0.34375 -0.34375,-0.1875 -0.5,-0.32813 -0.15625,-0.14062 -0.23438,-0.39062 -0.0625,-0.26563 -0.0625,-0.70313 0,-0.26562 0.0312,-0.45312 0.0312,-0.1875 0.0625,-0.29688 0.0469,-0.10937 0.125,-0.15625 0.0781,-0.0469 0.1875,-0.0469 0.15625,0 0.45313,0.1875 0.3125,0.1875 0.75,0.42187 0.45312,0.21875 1.0625,0.42188 0.60937,0.1875 1.40625,0.1875 0.59375,0 1.0625,-0.125 0.48437,-0.14063 0.84375,-0.375 0.35937,-0.25 0.54687,-0.625 0.1875,-0.39063 0.1875,-0.92188 0,-0.53125 -0.28125,-0.89062 -0.26562,-0.375 -0.71875,-0.65625 -0.45312,-0.29688 -1.03125,-0.51563 -0.5625,-0.21875 -1.17187,-0.45312 -0.59375,-0.25 -1.17188,-0.54688 -0.5625,-0.3125 -1.01562,-0.75 -0.45313,-0.4375 -0.73438,-1.04687 -0.28125,-0.60938 -0.28125,-1.45313 0,-0.75 0.29688,-1.4375 0.29687,-0.6875 0.875,-1.20312 0.57812,-0.51563 1.4375,-0.82813 0.875,-0.3125 2.04687,-0.3125 0.5,0 1,0.0937 0.51563,0.0781 0.92188,0.20313 0.42187,0.125 0.70312,0.28125 0.29688,0.14062 0.4375,0.26562 0.15625,0.10938 0.20313,0.20313 0.0625,0.0781 0.0781,0.1875 0.0156,0.0937 0.0312,0.25 0.0312,0.15625 0.0312,0.39062 0,0.23438 -0.0312,0.42188 -0.0156,0.17187 -0.0625,0.28125 -0.0469,0.10937 -0.125,0.15625 -0.0625,0.0469 -0.15625,0.0469 -0.125,0 -0.375,-0.14062 -0.23437,-0.15625 -0.60937,-0.32813 -0.375,-0.1875 -0.90625,-0.34375 -0.51563,-0.15625 -1.17188,-0.15625 -0.59375,0 -1.04687,0.14063 -0.45313,0.125 -0.75,0.375 -0.28125,0.25 -0.4375,0.59375 -0.14063,0.32812 -0.14063,0.73437 0,0.54688 0.28125,0.92188 0.28125,0.375 0.73438,0.65625 0.45312,0.28125 1.03125,0.51562 0.57812,0.21875 1.17187,0.46875 0.60938,0.23438 1.1875,0.53125 0.59375,0.29688 1.04688,0.73438 0.45312,0.42187 0.73437,1.01562 0.28125,0.59375 0.28125,1.40625 z m 10.09561,2.54688 q 0,0.40625 -0.0625,0.65625 -0.0469,0.23437 -0.17187,0.34375 -0.10938,0.10937 -0.34375,0.21875 -0.21875,0.0937 -0.51563,0.15625 -0.28125,0.0625 -0.60937,0.0937 -0.32813,0.0469 -0.65625,0.0469 -0.98438,0 -1.70313,-0.25 -0.70311,-0.26562 -1.15623,-0.79687 -0.45313,-0.53125 -0.65625,-1.34375 -0.20313,-0.8125 -0.20313,-1.92188 l 0,-7.45312 -1.78125,0 q -0.21875,0 -0.34375,-0.21875 -0.125,-0.23438 -0.125,-0.73438 0,-0.28125 0.0312,-0.45312 0.0312,-0.1875 0.0937,-0.3125 0.0625,-0.125 0.14063,-0.17188 0.0937,-0.0469 0.21875,-0.0469 l 1.76562,0 0,-3.03125 q 0,-0.0937 0.0469,-0.17188 0.0469,-0.0937 0.1875,-0.15625 0.14062,-0.0625 0.35937,-0.0937 0.23438,-0.0312 0.5625,-0.0312 0.35938,0 0.57813,0.0312 0.23436,0.0312 0.35936,0.0937 0.125,0.0625 0.1875,0.15625 0.0625,0.0781 0.0625,0.17188 l 0,3.03125 3.26562,0 q 0.10938,0 0.1875,0.0469 0.0937,0.0469 0.15625,0.17188 0.0625,0.125 0.0937,0.3125 0.0312,0.17187 0.0312,0.45312 0,0.5 -0.14062,0.73438 -0.125,0.21875 -0.32813,0.21875 l -3.26562,0 0,7.10937 q 0,1.32813 0.375,2 0.39062,0.67188 1.40625,0.67188 0.32812,0 0.57812,-0.0625 0.25,-0.0781 0.45313,-0.14063 0.20312,-0.0781 0.34375,-0.14062 0.14062,-0.0625 0.25,-0.0625 0.0625,0 0.125,0.0469 0.0781,0.0312 0.10937,0.125 0.0312,0.0937 0.0625,0.26563 0.0312,0.17187 0.0312,0.4375 z" />
  <path
     style="fill-rule:nonzero;stroke:#000000;stroke-width:1.91927087;stroke-linecap:butt"
     inkscape:connector-curvature="0"
     id="path39"
     d="m 221.00894,466.90942 40.35483,0" />
  <path
     style="fill:#ffffff;fill-rule:nonzero"
     inkscape:connector-curvature="0"
     id="path41"
     d="m 146.66667,520 88.34645,0 0,46.45667 -88.34645,0 z" />
  <path
     style="fill-rule:nonzero;stroke:#535353;stroke-width:2;stroke-linecap:butt;stroke-linejoin:round"
     inkscape:connector-curvature="0"
     id="path43"
     d="m 146.66667,520 88.34645,0 0,46.45667 -88.34645,0 z" />
  <path
     style="fill:#000000;fill-rule:nonzero"
     inkscape:connector-curvature="0"
     id="path45"
     d="m 178.87668,552.82587 q 0,0.28125 -0.0312,0.48437 -0.0312,0.1875 -0.0937,0.32813 -0.0625,0.125 -0.15625,0.1875 -0.0937,0.0625 -0.21875,0.0625 l -8.09375,0 q -0.32813,0 -0.625,-0.21875 -0.28125,-0.21875 -0.28125,-0.76563 l 0,-16.96875 q 0,-0.10937 0.0469,-0.1875 0.0625,-0.0937 0.20313,-0.14062 0.14062,-0.0625 0.375,-0.0937 0.25,-0.0312 0.59375,-0.0312 0.34375,0 0.57812,0.0312 0.23438,0.0312 0.375,0.0937 0.15625,0.0469 0.20313,0.14062 0.0625,0.0781 0.0625,0.1875 l 0,15.84375 6.5625,0 q 0.125,0 0.21875,0.0625 0.0937,0.0625 0.15625,0.1875 0.0625,0.125 0.0937,0.32813 0.0312,0.1875 0.0312,0.46875 z m 4.89235,0.70312 q 0,0.125 -0.0625,0.20313 -0.0469,0.0781 -0.17188,0.14062 -0.125,0.0469 -0.35937,0.0625 -0.21875,0.0312 -0.57813,0.0312 -0.34375,0 -0.57812,-0.0312 -0.21875,-0.0156 -0.35938,-0.0625 -0.125,-0.0625 -0.17187,-0.14062 -0.0469,-0.0781 -0.0469,-0.20313 l 0,-12.73437 q 0,-0.10938 0.0469,-0.1875 0.0469,-0.0937 0.17187,-0.14063 0.14063,-0.0625 0.35938,-0.0781 0.23437,-0.0312 0.57812,-0.0312 0.35938,0 0.57813,0.0312 0.23437,0.0156 0.35937,0.0781 0.125,0.0469 0.17188,0.14063 0.0625,0.0781 0.0625,0.1875 l 0,12.73437 z m 0.26562,-17.04687 q 0,0.82812 -0.3125,1.125 -0.29687,0.29687 -1.14062,0.29687 -0.8125,0 -1.125,-0.28125 -0.29688,-0.29687 -0.29688,-1.10937 0,-0.82813 0.29688,-1.125 0.3125,-0.29688 1.15625,-0.29688 0.8125,0 1.10937,0.29688 0.3125,0.29687 0.3125,1.09375 z m 15.10558,17.04687 q 0,0.125 -0.0625,0.20313 -0.0469,0.0781 -0.1875,0.14062 -0.125,0.0469 -0.35937,0.0625 -0.21875,0.0312 -0.54688,0.0312 -0.35937,0 -0.59375,-0.0312 -0.21875,-0.0156 -0.34375,-0.0625 -0.125,-0.0625 -0.1875,-0.14062 -0.0625,-0.0781 -0.0625,-0.20313 l 0,-7.45312 q 0,-1.09375 -0.17187,-1.75 -0.15625,-0.67188 -0.48438,-1.15625 -0.32812,-0.48438 -0.84375,-0.73438 -0.51562,-0.25 -1.20312,-0.25 -0.875,0 -1.75,0.625 -0.875,0.60938 -1.84375,1.8125 l 0,8.90625 q 0,0.125 -0.0625,0.20313 -0.0469,0.0781 -0.17188,0.14062 -0.125,0.0469 -0.35937,0.0625 -0.21875,0.0312 -0.57813,0.0312 -0.34375,0 -0.57812,-0.0312 -0.21875,-0.0156 -0.35938,-0.0625 -0.125,-0.0625 -0.17187,-0.14062 -0.0469,-0.0781 -0.0469,-0.20313 l 0,-12.73437 q 0,-0.125 0.0312,-0.20313 0.0469,-0.0781 0.17188,-0.14062 0.125,-0.0625 0.32812,-0.0781 0.20313,-0.0156 0.53125,-0.0156 0.3125,0 0.51563,0.0156 0.20312,0.0156 0.3125,0.0781 0.10937,0.0625 0.15625,0.14062 0.0625,0.0781 0.0625,0.20313 l 0,1.6875 q 1.07812,-1.20313 2.14062,-1.76563 1.0625,-0.5625 2.15625,-0.5625 1.28125,0 2.14063,0.4375 0.875,0.42188 1.40625,1.15625 0.54687,0.71875 0.78125,1.6875 0.23437,0.96875 0.23437,2.32813 l 0,7.76562 z m 14.89311,-0.0156 q 0,0.125 -0.0625,0.21875 -0.0469,0.0781 -0.1875,0.14062 -0.125,0.0469 -0.375,0.0625 -0.23437,0.0312 -0.59375,0.0312 -0.39062,0 -0.64062,-0.0156 -0.25,-0.0156 -0.42188,-0.0625 -0.15625,-0.0625 -0.26562,-0.14063 -0.10938,-0.0937 -0.1875,-0.23437 l -5.39064,-7.04688 0,7.0625 q 0,0.125 -0.0625,0.20313 -0.0469,0.0781 -0.17188,0.14062 -0.125,0.0469 -0.35937,0.0625 -0.21875,0.0312 -0.57813,0.0312 -0.34375,0 -0.57812,-0.0312 -0.21875,-0.0156 -0.35938,-0.0625 -0.125,-0.0625 -0.17187,-0.14062 -0.0469,-0.0781 -0.0469,-0.20313 l 0,-18.90625 q 0,-0.125 0.0469,-0.20312 0.0469,-0.0937 0.17187,-0.14063 0.14063,-0.0625 0.35938,-0.0781 0.23437,-0.0312 0.57812,-0.0312 0.35938,0 0.57813,0.0312 0.23437,0.0156 0.35937,0.0781 0.125,0.0469 0.17188,0.14063 0.0625,0.0781 0.0625,0.20312 l 0,11.51563 4.81251,-5.29688 q 0.125,-0.14062 0.25,-0.23437 0.125,-0.0937 0.29688,-0.15625 0.1875,-0.0625 0.42187,-0.0781 0.23438,-0.0156 0.57813,-0.0156 0.35937,0 0.59375,0.0156 0.25,0.0156 0.39062,0.0781 0.15625,0.0469 0.21875,0.125 0.0625,0.0781 0.0625,0.20312 0,0.17188 -0.0937,0.34375 -0.0937,0.15625 -0.3125,0.39063 l -4.60939,4.60937 5.18752,6.73438 q 0.17187,0.23437 0.25,0.39062 0.0781,0.14063 0.0781,0.26563 z" />
  <path
     style="fill-rule:nonzero;stroke:#000000;stroke-width:1.91927087;stroke-linecap:butt"
     inkscape:connector-curvature="0"
     id="path47"
     d="m 166.93918,557.21124 47.80144,0" />
  <path
     style="fill:#ffffff;fill-rule:nonzero"
     inkscape:connector-curvature="0"
     id="path49"
     d="m 343.11108,520 88.34647,0 0,46.45667 -88.34647,0 z" />
  <path
     style="fill-rule:nonzero;stroke:#535353;stroke-width:2;stroke-linecap:butt;stroke-linejoin:round"
     inkscape:connector-curvature="0"
     id="path51"
     d="m 343.11108,520 88.34647,0 0,46.45667 -88.34647,0 z" />
  <path
     style="fill:#000000;fill-rule:nonzero"
     inkscape:connector-curvature="0"
     id="path53"
     d="m 375.3211,552.82587 q 0,0.28125 -0.0312,0.48437 -0.0312,0.1875 -0.0937,0.32813 -0.0625,0.125 -0.15625,0.1875 -0.0937,0.0625 -0.21875,0.0625 l -8.09375,0 q -0.32813,0 -0.625,-0.21875 -0.28125,-0.21875 -0.28125,-0.76563 l 0,-16.96875 q 0,-0.10937 0.0469,-0.1875 0.0625,-0.0937 0.20313,-0.14062 0.14062,-0.0625 0.375,-0.0937 0.25,-0.0312 0.59375,-0.0312 0.34375,0 0.57812,0.0312 0.23438,0.0312 0.375,0.0937 0.15625,0.0469 0.20313,0.14062 0.0625,0.0781 0.0625,0.1875 l 0,15.84375 6.5625,0 q 0.125,0 0.21875,0.0625 0.0937,0.0625 0.15625,0.1875 0.0625,0.125 0.0937,0.32813 0.0312,0.1875 0.0312,0.46875 z m 4.89236,0.70312 q 0,0.125 -0.0625,0.20313 -0.0469,0.0781 -0.17187,0.14062 -0.125,0.0469 -0.35938,0.0625 -0.21875,0.0312 -0.57812,0.0312 -0.34375,0 -0.57813,-0.0312 -0.21875,-0.0156 -0.35937,-0.0625 -0.125,-0.0625 -0.17188,-0.14062 -0.0469,-0.0781 -0.0469,-0.20313 l 0,-12.73437 q 0,-0.10938 0.0469,-0.1875 0.0469,-0.0937 0.17188,-0.14063 0.14062,-0.0625 0.35937,-0.0781 0.23438,-0.0312 0.57813,-0.0312 0.35937,0 0.57812,0.0312 0.23438,0.0156 0.35938,0.0781 0.125,0.0469 0.17187,0.14063 0.0625,0.0781 0.0625,0.1875 l 0,12.73437 z m 0.26563,-17.04687 q 0,0.82812 -0.3125,1.125 -0.29688,0.29687 -1.14063,0.29687 -0.8125,0 -1.125,-0.28125 -0.29687,-0.29687 -0.29687,-1.10937 0,-0.82813 0.29687,-1.125 0.3125,-0.29688 1.15625,-0.29688 0.8125,0 1.10938,0.29688 0.3125,0.29687 0.3125,1.09375 z m 15.10556,17.04687 q 0,0.125 -0.0625,0.20313 -0.0469,0.0781 -0.1875,0.14062 -0.125,0.0469 -0.35938,0.0625 -0.21875,0.0312 -0.54687,0.0312 -0.35938,0 -0.59375,-0.0312 -0.21875,-0.0156 -0.34375,-0.0625 -0.125,-0.0625 -0.1875,-0.14062 -0.0625,-0.0781 -0.0625,-0.20313 l 0,-7.45312 q 0,-1.09375 -0.17188,-1.75 -0.15625,-0.67188 -0.48437,-1.15625 -0.32813,-0.48438 -0.84375,-0.73438 -0.51563,-0.25 -1.20313,-0.25 -0.875,0 -1.75,0.625 -0.875,0.60938 -1.84375,1.8125 l 0,8.90625 q 0,0.125 -0.0625,0.20313 -0.0469,0.0781 -0.17187,0.14062 -0.125,0.0469 -0.35938,0.0625 -0.21875,0.0312 -0.57812,0.0312 -0.34375,0 -0.57813,-0.0312 -0.21875,-0.0156 -0.35937,-0.0625 -0.125,-0.0625 -0.17188,-0.14062 -0.0469,-0.0781 -0.0469,-0.20313 l 0,-12.73437 q 0,-0.125 0.0312,-0.20313 0.0469,-0.0781 0.17187,-0.14062 0.125,-0.0625 0.32813,-0.0781 0.20312,-0.0156 0.53125,-0.0156 0.3125,0 0.51562,0.0156 0.20313,0.0156 0.3125,0.0781 0.10938,0.0625 0.15625,0.14062 0.0625,0.0781 0.0625,0.20313 l 0,1.6875 q 1.07813,-1.20313 2.14063,-1.76563 1.0625,-0.5625 2.15625,-0.5625 1.28125,0 2.14062,0.4375 0.875,0.42188 1.40625,1.15625 0.54688,0.71875 0.78125,1.6875 0.23438,0.96875 0.23438,2.32813 l 0,7.76562 z m 14.8931,-0.0156 q 0,0.125 -0.0625,0.21875 -0.0469,0.0781 -0.1875,0.14062 -0.125,0.0469 -0.375,0.0625 -0.23438,0.0312 -0.59375,0.0312 -0.39063,0 -0.64063,-0.0156 -0.25,-0.0156 -0.42187,-0.0625 -0.15625,-0.0625 -0.26563,-0.14063 -0.10937,-0.0937 -0.1875,-0.23437 l -5.39062,-7.04688 0,7.0625 q 0,0.125 -0.0625,0.20313 -0.0469,0.0781 -0.17188,0.14062 -0.125,0.0469 -0.35937,0.0625 -0.21875,0.0312 -0.57813,0.0312 -0.34375,0 -0.57812,-0.0312 -0.21875,-0.0156 -0.35938,-0.0625 -0.125,-0.0625 -0.17187,-0.14062 -0.0469,-0.0781 -0.0469,-0.20313 l 0,-18.90625 q 0,-0.125 0.0469,-0.20312 0.0469,-0.0937 0.17187,-0.14063 0.14063,-0.0625 0.35938,-0.0781 0.23437,-0.0312 0.57812,-0.0312 0.35938,0 0.57813,0.0312 0.23437,0.0156 0.35937,0.0781 0.125,0.0469 0.17188,0.14063 0.0625,0.0781 0.0625,0.20312 l 0,11.51563 4.8125,-5.29688 q 0.125,-0.14062 0.25,-0.23437 0.125,-0.0937 0.29687,-0.15625 0.1875,-0.0625 0.42188,-0.0781 0.23437,-0.0156 0.57812,-0.0156 0.35938,0 0.59375,0.0156 0.25,0.0156 0.39063,0.0781 0.15625,0.0469 0.21875,0.125 0.0625,0.0781 0.0625,0.20312 0,0.17188 -0.0937,0.34375 -0.0937,0.15625 -0.3125,0.39063 l -4.60938,4.60937 5.1875,6.73438 q 0.17188,0.23437 0.25,0.39062 0.0781,0.14063 0.0781,0.26563 z" />
  <path
     style="fill-rule:nonzero;stroke:#000000;stroke-width:1.91927087;stroke-linecap:butt"
     inkscape:connector-curvature="0"
     id="path55"
     d="m 363.3836,557.21124 47.80142,0" />
  <path
     style="fill:#ffffff;fill-rule:nonzero"
     inkscape:connector-curvature="0"
     id="path57"
     d="m 541.3333,520 88.3465,0 0,46.45667 -88.3465,0 z" />
  <path
     style="fill-rule:nonzero;stroke:#535353;stroke-width:2;stroke-linecap:butt;stroke-linejoin:round"
     inkscape:connector-curvature="0"
     id="path59"
     d="m 541.3333,520 88.3465,0 0,46.45667 -88.3465,0 z" />
  <path
     style="fill:#000000;fill-rule:nonzero"
     inkscape:connector-curvature="0"
     id="path61"
     d="m 573.54333,552.82587 q 0,0.28125 -0.0312,0.48437 -0.0312,0.1875 -0.0937,0.32813 -0.0625,0.125 -0.15625,0.1875 -0.0937,0.0625 -0.21875,0.0625 l -8.09375,0 q -0.32813,0 -0.625,-0.21875 -0.28125,-0.21875 -0.28125,-0.76563 l 0,-16.96875 q 0,-0.10937 0.0469,-0.1875 0.0625,-0.0937 0.20313,-0.14062 0.14062,-0.0625 0.375,-0.0937 0.25,-0.0312 0.59375,-0.0312 0.34375,0 0.57812,0.0312 0.23438,0.0312 0.375,0.0937 0.15625,0.0469 0.20313,0.14062 0.0625,0.0781 0.0625,0.1875 l 0,15.84375 6.5625,0 q 0.125,0 0.21875,0.0625 0.0937,0.0625 0.15625,0.1875 0.0625,0.125 0.0937,0.32813 0.0312,0.1875 0.0312,0.46875 z m 4.89239,0.70312 q 0,0.125 -0.0625,0.20313 -0.0469,0.0781 -0.17187,0.14062 -0.125,0.0469 -0.35938,0.0625 -0.21875,0.0312 -0.57812,0.0312 -0.34375,0 -0.57813,-0.0312 -0.21875,-0.0156 -0.35937,-0.0625 -0.125,-0.0625 -0.17188,-0.14062 -0.0469,-0.0781 -0.0469,-0.20313 l 0,-12.73437 q 0,-0.10938 0.0469,-0.1875 0.0469,-0.0937 0.17188,-0.14063 0.14062,-0.0625 0.35937,-0.0781 0.23438,-0.0312 0.57813,-0.0312 0.35937,0 0.57812,0.0312 0.23438,0.0156 0.35938,0.0781 0.125,0.0469 0.17187,0.14063 0.0625,0.0781 0.0625,0.1875 l 0,12.73437 z m 0.26563,-17.04687 q 0,0.82812 -0.3125,1.125 -0.29688,0.29687 -1.14063,0.29687 -0.8125,0 -1.125,-0.28125 -0.29687,-0.29687 -0.29687,-1.10937 0,-0.82813 0.29687,-1.125 0.3125,-0.29688 1.15625,-0.29688 0.8125,0 1.10938,0.29688 0.3125,0.29687 0.3125,1.09375 z m 15.10553,17.04687 q 0,0.125 -0.0625,0.20313 -0.0469,0.0781 -0.1875,0.14062 -0.125,0.0469 -0.35938,0.0625 -0.21875,0.0312 -0.54687,0.0312 -0.35938,0 -0.59375,-0.0312 -0.21875,-0.0156 -0.34375,-0.0625 -0.125,-0.0625 -0.1875,-0.14062 -0.0625,-0.0781 -0.0625,-0.20313 l 0,-7.45312 q 0,-1.09375 -0.17188,-1.75 -0.15625,-0.67188 -0.48437,-1.15625 -0.32813,-0.48438 -0.84375,-0.73438 -0.51563,-0.25 -1.20313,-0.25 -0.875,0 -1.75,0.625 -0.875,0.60938 -1.84375,1.8125 l 0,8.90625 q 0,0.125 -0.0625,0.20313 -0.0469,0.0781 -0.17187,0.14062 -0.125,0.0469 -0.35938,0.0625 -0.21875,0.0312 -0.57812,0.0312 -0.34375,0 -0.57813,-0.0312 -0.21875,-0.0156 -0.35937,-0.0625 -0.125,-0.0625 -0.17188,-0.14062 -0.0469,-0.0781 -0.0469,-0.20313 l 0,-12.73437 q 0,-0.125 0.0312,-0.20313 0.0469,-0.0781 0.17187,-0.14062 0.125,-0.0625 0.32813,-0.0781 0.20312,-0.0156 0.53125,-0.0156 0.3125,0 0.51562,0.0156 0.20313,0.0156 0.3125,0.0781 0.10938,0.0625 0.15625,0.14062 0.0625,0.0781 0.0625,0.20313 l 0,1.6875 q 1.07813,-1.20313 2.14063,-1.76563 1.0625,-0.5625 2.15625,-0.5625 1.28125,0 2.14062,0.4375 0.875,0.42188 1.40625,1.15625 0.54688,0.71875 0.78125,1.6875 0.23438,0.96875 0.23438,2.32813 l 0,7.76562 z m 14.89313,-0.0156 q 0,0.125 -0.0625,0.21875 -0.0469,0.0781 -0.1875,0.14062 -0.125,0.0469 -0.375,0.0625 -0.23438,0.0312 -0.59375,0.0312 -0.39063,0 -0.64063,-0.0156 -0.25,-0.0156 -0.42187,-0.0625 -0.15625,-0.0625 -0.26563,-0.14063 -0.10937,-0.0937 -0.1875,-0.23437 l -5.39062,-7.04688 0,7.0625 q 0,0.125 -0.0625,0.20313 -0.0469,0.0781 -0.17188,0.14062 -0.125,0.0469 -0.35937,0.0625 -0.21875,0.0312 -0.57813,0.0312 -0.34375,0 -0.57812,-0.0312 -0.21875,-0.0156 -0.35938,-0.0625 -0.125,-0.0625 -0.17187,-0.14062 -0.0469,-0.0781 -0.0469,-0.20313 l 0,-18.90625 q 0,-0.125 0.0469,-0.20312 0.0469,-0.0937 0.17187,-0.14063 0.14063,-0.0625 0.35938,-0.0781 0.23437,-0.0312 0.57812,-0.0312 0.35938,0 0.57813,0.0312 0.23437,0.0156 0.35937,0.0781 0.125,0.0469 0.17188,0.14063 0.0625,0.0781 0.0625,0.20312 l 0,11.51563 4.8125,-5.29688 q 0.125,-0.14062 0.25,-0.23437 0.125,-0.0937 0.29687,-0.15625 0.1875,-0.0625 0.42188,-0.0781 0.23437,-0.0156 0.57812,-0.0156 0.35938,0 0.59375,0.0156 0.25,0.0156 0.39063,0.0781 0.15625,0.0469 0.21875,0.125 0.0625,0.0781 0.0625,0.20312 0,0.17188 -0.0937,0.34375 -0.0937,0.15625 -0.3125,0.39063 l -4.60938,4.60937 5.1875,6.73438 q 0.17188,0.23437 0.25,0.39062 0.0781,0.14063 0.0781,0.26563 z" />
  <path
     style="fill-rule:nonzero;stroke:#000000;stroke-width:1.91927087;stroke-linecap:butt"
     inkscape:connector-curvature="0"
     id="path63"
     d="m 561.60583,557.21124 47.80145,0" />
  <path
     style="fill:#000000;fill-opacity:0;fill-rule:nonzero"
     inkscape:connector-curvature="0"
     id="path65"
     d="m 241.18636,476.15485 c 0,10.9613 -12.59056,16.44226 -25.18111,21.92258 -12.59054,5.48031 -25.1811,10.95999 -25.1811,21.91995" />
  <path
     style="fill-rule:evenodd;stroke:#535353;stroke-width:2;stroke-linecap:butt;stroke-linejoin:round"
     inkscape:connector-curvature="0"
     id="path67"
     d="m 241.18636,476.15485 c 0,10.9613 -12.59056,16.44226 -25.18111,21.92258 -6.29527,2.74017 -12.59054,5.48016 -17.31201,8.90512 -0.59018,0.4281 -1.15578,0.86691 -1.69369,1.31778 -0.26897,0.22543 -0.53103,0.45389 -0.78576,0.68548 l -0.20425,0.18976" />
  <path
     style="fill:#535353;fill-rule:evenodd;stroke:#535353;stroke-width:2;stroke-linecap:butt"
     inkscape:connector-curvature="0"
     id="path69"
     d="m 193.03041,507.74808 -0.94284,9.61258 6.90109,-6.75763 z" />
  <path
     style="fill:#000000;fill-opacity:0;fill-rule:nonzero"
     inkscape:connector-curvature="0"
     id="path71"
     d="m 241.18636,476.15485 c 0,10.9613 86.07875,16.44226 172.15749,21.92258 86.07873,5.48031 172.1575,10.95999 172.1575,21.91995" />
  <path
     style="fill-rule:evenodd;stroke:#535353;stroke-width:2;stroke-linecap:butt;stroke-linejoin:round"
     inkscape:connector-curvature="0"
     id="path73"
     d="m 241.18636,476.15485 c 0,10.9613 86.07875,16.44226 172.15749,21.92258 43.03937,2.74017 86.07873,5.48016 118.35825,8.90512 16.13977,1.71246 29.5896,3.59619 39.00445,5.73675 1.17682,0.26758 2.29065,0.53919 3.33881,0.81494 0.26202,0.069 0.51996,0.13819 0.77374,0.20759 l 0.37793,0.10559" />
  <path
     style="fill:#535353;fill-rule:evenodd;stroke:#535353;stroke-width:2;stroke-linecap:butt"
     inkscape:connector-curvature="0"
     id="path75"
     d="m 573.504,516.6841 9.48663,1.81488 -6.10064,-7.48819 z" />
  <path
     style="fill:#000000;fill-opacity:0;fill-rule:nonzero"
     inkscape:connector-curvature="0"
     id="path77"
     d="m 235.01312,543.22833 c 27.02469,0 40.5376,0.0158 54.04941,0.0315 13.51181,0.0158 27.02255,0.0315 54.04507,0.0315" />
  <path
     style="fill-rule:evenodd;stroke:#535353;stroke-width:2;stroke-linecap:butt;stroke-linejoin:round"
     inkscape:connector-curvature="0"
     id="path79"
     d="m 247.01312,543.23016 5.94617,9.2e-4 c 5.27829,0.002 9.92324,0.004 14.14587,0.007 8.44528,0.006 15.20145,0.0138 21.95737,0.0217 6.75589,0.008 13.51153,0.0158 21.95599,0.0217 4.22226,0.003 8.8667,0.005 14.1445,0.007 l 5.94458,9.2e-4" />
  <path
     style="fill:#535353;fill-rule:evenodd;stroke:#535353;stroke-width:2;stroke-linecap:butt"
     inkscape:connector-curvature="0"
     id="path81"
     d="m 247.01363,539.9267 -9.07669,3.30206 9.07568,3.30487 z" />
  <path
     style="fill:#535353;fill-rule:evenodd;stroke:#535353;stroke-width:2;stroke-linecap:butt"
     inkscape:connector-curvature="0"
     id="path83"
     d="m 331.10712,546.593 9.07669,-3.30212 -9.07568,-3.30481 z" />
  <path
     style="fill:#000000;fill-opacity:0;fill-rule:nonzero"
     inkscape:connector-curvature="0"
     id="path85"
     d="m 431.45755,543.22833 c 27.46915,0 41.20206,0.0158 54.93829,0.0315 13.73621,0.0158 27.47574,0.0315 54.95145,0.0315" />
  <path
     style="fill-rule:evenodd;stroke:#535353;stroke-width:2;stroke-linecap:butt;stroke-linejoin:round"
     inkscape:connector-curvature="0"
     id="path87"
     d="m 443.45755,543.2301 6.24103,9.8e-4 c 5.3649,0.002 10.08603,0.004 14.37796,0.007 8.58389,0.006 15.45117,0.0138 22.3193,0.0217 6.86811,0.008 13.73703,0.0158 22.3234,0.0217 4.29321,0.003 9.01574,0.005 14.38226,0.007 l 6.24579,9.2e-4" />
  <path
     style="fill:#535353;fill-rule:evenodd;stroke:#535353;stroke-width:2;stroke-linecap:butt"
     inkscape:connector-curvature="0"
     id="path89"
     d="m 443.45804,539.92664 -9.07669,3.30212 9.07571,3.30481 z" />
  <path
     style="fill:#535353;fill-rule:evenodd;stroke:#535353;stroke-width:2;stroke-linecap:butt"
     inkscape:connector-curvature="0"
     id="path91"
     d="m 529.3468,546.593 9.07672,-3.30212 -9.07574,-3.30481 z" />
  <path
     style="fill:#ffffff;fill-rule:nonzero"
     inkscape:connector-curvature="0"
     id="path93"
     d="m 148.33333,603.3333 88.34647,0 0,46.45673 -88.34647,0 z" />
  <path
     style="fill-rule:nonzero;stroke:#535353;stroke-width:2;stroke-linecap:butt;stroke-linejoin:round"
     inkscape:connector-curvature="0"
     id="path95"
     d="m 148.33333,603.3333 88.34647,0 0,46.45673 -88.34647,0 z" />
  <path
     style="fill:#000000;fill-rule:nonzero"
     inkscape:connector-curvature="0"
     id="path97"
     d="m 181.0558,627.7842 q 0,2.39063 -0.60938,4.17188 -0.60937,1.76562 -1.78125,2.9375 -1.17187,1.17187 -2.875,1.75 -1.6875,0.57812 -4.04687,0.57812 l -3.875,0 q -0.32813,0 -0.625,-0.21875 -0.28125,-0.21875 -0.28125,-0.76562 l 0,-16.34375 q 0,-0.5625 0.28125,-0.78125 0.29687,-0.21875 0.625,-0.21875 l 4.14062,0 q 2.39063,0 4.03125,0.625 1.64063,0.60937 2.75,1.76562 1.10938,1.15625 1.6875,2.79688 0.57813,1.64062 0.57813,3.70312 z m -2.5625,0.10938 q 0,-1.48438 -0.375,-2.76563 -0.375,-1.28125 -1.15625,-2.21875 -0.78125,-0.9375 -1.98438,-1.45312 -1.20312,-0.53125 -3.10937,-0.53125 l -2.46875,0 0,14.25 2.5,0 q 1.76562,0 2.96875,-0.4375 1.20312,-0.4375 2,-1.34375 0.8125,-0.90625 1.21875,-2.26563 0.40625,-1.375 0.40625,-3.23437 z m 15.84055,8.98437 q 0,0.17188 -0.10938,0.26563 -0.10937,0.0781 -0.3125,0.10937 -0.20312,0.0469 -0.57812,0.0469 -0.375,0 -0.59375,-0.0469 -0.21875,-0.0312 -0.32813,-0.10937 -0.0937,-0.0937 -0.0937,-0.26563 l 0,-1.26562 q -0.82812,0.89062 -1.85937,1.39062 -1.01563,0.48438 -2.17188,0.48438 -1,0 -1.8125,-0.26563 -0.8125,-0.25 -1.39062,-0.75 -0.57813,-0.5 -0.90625,-1.21875 -0.3125,-0.71875 -0.3125,-1.64062 0,-1.07813 0.4375,-1.85938 0.45312,-0.79687 1.26562,-1.32812 0.82813,-0.53125 2.01563,-0.78125 1.1875,-0.26563 2.67187,-0.26563 l 1.75,0 0,-1 q 0,-0.73437 -0.15625,-1.29687 -0.14062,-0.5625 -0.5,-0.9375 -0.34375,-0.375 -0.90625,-0.5625 -0.54687,-0.20313 -1.34375,-0.20313 -0.85937,0 -1.54687,0.21875 -0.6875,0.20313 -1.21875,0.45313 -0.51563,0.23437 -0.85938,0.45312 -0.34375,0.20313 -0.51562,0.20313 -0.10938,0 -0.20313,-0.0625 -0.0781,-0.0625 -0.14062,-0.17188 -0.0625,-0.10937 -0.0937,-0.28125 -0.0312,-0.1875 -0.0312,-0.39062 0,-0.35938 0.0469,-0.5625 0.0625,-0.20313 0.25,-0.39063 0.1875,-0.1875 0.65625,-0.4375 0.46875,-0.25 1.07813,-0.45312 0.60937,-0.20313 1.32812,-0.32813 0.71875,-0.14062 1.45313,-0.14062 1.375,0 2.34375,0.3125 0.96875,0.3125 1.5625,0.92187 0.59375,0.59375 0.85937,1.48438 0.26563,0.89062 0.26563,2.07812 l 0,8.59375 z m -2.32813,-5.8125 -1.98437,0 q -0.96875,0 -1.6875,0.17188 -0.70313,0.15625 -1.17188,0.46875 -0.45312,0.3125 -0.67187,0.76562 -0.21875,0.4375 -0.21875,1.03125 0,0.98438 0.625,1.57813 0.625,0.57812 1.76562,0.57812 0.92188,0 1.70313,-0.46875 0.78125,-0.46875 1.64062,-1.42187 l 0,-2.70313 z m 13.40767,4.875 q 0,0.40625 -0.0625,0.65625 -0.0469,0.23438 -0.17188,0.34375 -0.10937,0.10938 -0.34375,0.21875 -0.21875,0.0937 -0.51562,0.15625 -0.28125,0.0625 -0.60938,0.0937 -0.32812,0.0469 -0.65625,0.0469 -0.98437,0 -1.70312,-0.25 -0.70313,-0.26563 -1.15625,-0.79688 -0.45313,-0.53125 -0.65625,-1.34375 -0.20313,-0.8125 -0.20313,-1.92187 l 0,-7.45313 -1.78125,0 q -0.21875,0 -0.34375,-0.21875 -0.125,-0.23437 -0.125,-0.73437 0,-0.28125 0.0312,-0.45313 0.0312,-0.1875 0.0937,-0.3125 0.0625,-0.125 0.14063,-0.17187 0.0937,-0.0469 0.21875,-0.0469 l 1.76562,0 0,-3.03125 q 0,-0.0937 0.0469,-0.17187 0.0469,-0.0937 0.1875,-0.15625 0.14062,-0.0625 0.35937,-0.0937 0.23438,-0.0312 0.5625,-0.0312 0.35938,0 0.57813,0.0312 0.23437,0.0312 0.35937,0.0937 0.125,0.0625 0.1875,0.15625 0.0625,0.0781 0.0625,0.17187 l 0,3.03125 3.26563,0 q 0.10937,0 0.1875,0.0469 0.0937,0.0469 0.15625,0.17187 0.0625,0.125 0.0937,0.3125 0.0312,0.17188 0.0312,0.45313 0,0.5 -0.14063,0.73437 -0.125,0.21875 -0.32812,0.21875 l -3.26563,0 0,7.10938 q 0,1.32812 0.375,2 0.39063,0.67187 1.40625,0.67187 0.32813,0 0.57813,-0.0625 0.25,-0.0781 0.45312,-0.14062 0.20313,-0.0781 0.34375,-0.14063 0.14063,-0.0625 0.25,-0.0625 0.0625,0 0.125,0.0469 0.0781,0.0312 0.10938,0.125 0.0312,0.0937 0.0625,0.26562 0.0312,0.17188 0.0312,0.4375 z m 12.79251,0.9375 q 0,0.17188 -0.10937,0.26563 -0.10938,0.0781 -0.3125,0.10937 -0.20313,0.0469 -0.57813,0.0469 -0.375,0 -0.59375,-0.0469 -0.21875,-0.0312 -0.32812,-0.10937 -0.0937,-0.0937 -0.0937,-0.26563 l 0,-1.26562 q -0.82813,0.89062 -1.85938,1.39062 -1.01562,0.48438 -2.17186,0.48438 -1,0 -1.8125,-0.26563 -0.8125,-0.25 -1.39062,-0.75 -0.57813,-0.5 -0.90625,-1.21875 -0.3125,-0.71875 -0.3125,-1.64062 0,-1.07813 0.4375,-1.85938 0.45312,-0.79687 1.26562,-1.32812 0.82813,-0.53125 2.01563,-0.78125 1.18748,-0.26563 2.67186,-0.26563 l 1.75,0 0,-1 q 0,-0.73437 -0.15625,-1.29687 -0.14063,-0.5625 -0.5,-0.9375 -0.34375,-0.375 -0.90625,-0.5625 -0.54688,-0.20313 -1.34375,-0.20313 -0.85936,0 -1.54686,0.21875 -0.6875,0.20313 -1.21875,0.45313 -0.51563,0.23437 -0.85938,0.45312 -0.34375,0.20313 -0.51562,0.20313 -0.10938,0 -0.20313,-0.0625 -0.0781,-0.0625 -0.14062,-0.17188 -0.0625,-0.10937 -0.0937,-0.28125 -0.0312,-0.1875 -0.0312,-0.39062 0,-0.35938 0.0469,-0.5625 0.0625,-0.20313 0.25,-0.39063 0.1875,-0.1875 0.65625,-0.4375 0.46875,-0.25 1.07813,-0.45312 0.60937,-0.20313 1.32812,-0.32813 0.71874,-0.14062 1.45311,-0.14062 1.375,0 2.34375,0.3125 0.96875,0.3125 1.5625,0.92187 0.59375,0.59375 0.85938,1.48438 0.26562,0.89062 0.26562,2.07812 l 0,8.59375 z m -2.32812,-5.8125 -1.98438,0 q -0.96875,0 -1.68748,0.17188 -0.70313,0.15625 -1.17188,0.46875 -0.45312,0.3125 -0.67187,0.76562 -0.21875,0.4375 -0.21875,1.03125 0,0.98438 0.625,1.57813 0.625,0.57812 1.76561,0.57812 0.92187,0 1.70312,-0.46875 0.78125,-0.46875 1.64063,-1.42187 l 0,-2.70313 z" />
  <path
     style="fill-rule:nonzero;stroke:#000000;stroke-width:1.91927087;stroke-linecap:butt"
     inkscape:connector-curvature="0"
     id="path99"
     d="m 164.52455,640.5446 55.96402,0" />
  <path
     style="fill:#ffffff;fill-rule:nonzero"
     inkscape:connector-curvature="0"
     id="path101"
     d="m 343.11023,601.25195 88.34647,0 0,46.45673 -88.34647,0 z" />
  <path
     style="fill-rule:nonzero;stroke:#535353;stroke-width:2;stroke-linecap:butt;stroke-linejoin:round"
     inkscape:connector-curvature="0"
     id="path103"
     d="m 343.11023,601.25195 88.34647,0 0,46.45673 -88.34647,0 z" />
  <path
     style="fill:#000000;fill-rule:nonzero"
     inkscape:connector-curvature="0"
     id="path105"
     d="m 375.8327,625.7028 q 0,2.39063 -0.60938,4.17188 -0.60937,1.76562 -1.78125,2.9375 -1.17187,1.17187 -2.875,1.75 -1.6875,0.57812 -4.04687,0.57812 l -3.875,0 q -0.32813,0 -0.625,-0.21875 -0.28125,-0.21875 -0.28125,-0.76562 l 0,-16.34375 q 0,-0.5625 0.28125,-0.78125 0.29687,-0.21875 0.625,-0.21875 l 4.14062,0 q 2.39063,0 4.03125,0.625 1.64063,0.60937 2.75,1.76562 1.10938,1.15625 1.6875,2.79688 0.57813,1.64062 0.57813,3.70312 z m -2.5625,0.10938 q 0,-1.48438 -0.375,-2.76563 -0.375,-1.28125 -1.15625,-2.21875 -0.78125,-0.9375 -1.98438,-1.45312 -1.20312,-0.53125 -3.10937,-0.53125 l -2.46875,0 0,14.25 2.5,0 q 1.76562,0 2.96875,-0.4375 1.20312,-0.4375 2,-1.34375 0.8125,-0.90625 1.21875,-2.26563 0.40625,-1.375 0.40625,-3.23437 z m 15.84055,8.98437 q 0,0.17188 -0.10938,0.26563 -0.10937,0.0781 -0.3125,0.10937 -0.20312,0.0469 -0.57812,0.0469 -0.375,0 -0.59375,-0.0469 -0.21875,-0.0312 -0.32813,-0.10937 -0.0937,-0.0937 -0.0937,-0.26563 l 0,-1.26562 q -0.82812,0.89062 -1.85937,1.39062 -1.01563,0.48438 -2.17188,0.48438 -1,0 -1.8125,-0.26563 -0.8125,-0.25 -1.39062,-0.75 -0.57813,-0.5 -0.90625,-1.21875 -0.3125,-0.71875 -0.3125,-1.64062 0,-1.07813 0.4375,-1.85938 0.45312,-0.79687 1.26562,-1.32812 0.82813,-0.53125 2.01563,-0.78125 1.1875,-0.26563 2.67187,-0.26563 l 1.75,0 0,-1 q 0,-0.73437 -0.15625,-1.29687 -0.14062,-0.5625 -0.5,-0.9375 -0.34375,-0.375 -0.90625,-0.5625 -0.54687,-0.20313 -1.34375,-0.20313 -0.85937,0 -1.54687,0.21875 -0.6875,0.20313 -1.21875,0.45313 -0.51563,0.23437 -0.85938,0.45312 -0.34375,0.20313 -0.51562,0.20313 -0.10938,0 -0.20313,-0.0625 -0.0781,-0.0625 -0.14062,-0.17188 -0.0625,-0.10937 -0.0937,-0.28125 -0.0312,-0.1875 -0.0312,-0.39062 0,-0.35938 0.0469,-0.5625 0.0625,-0.20313 0.25,-0.39063 0.1875,-0.1875 0.65625,-0.4375 0.46875,-0.25 1.07813,-0.45312 0.60937,-0.20313 1.32812,-0.32813 0.71875,-0.14062 1.45313,-0.14062 1.375,0 2.34375,0.3125 0.96875,0.3125 1.5625,0.92187 0.59375,0.59375 0.85937,1.48438 0.26563,0.89062 0.26563,2.07812 l 0,8.59375 z m -2.32813,-5.8125 -1.98437,0 q -0.96875,0 -1.6875,0.17188 -0.70313,0.15625 -1.17188,0.46875 -0.45312,0.3125 -0.67187,0.76562 -0.21875,0.4375 -0.21875,1.03125 0,0.98438 0.625,1.57813 0.625,0.57812 1.76562,0.57812 0.92188,0 1.70313,-0.46875 0.78125,-0.46875 1.64062,-1.42187 l 0,-2.70313 z m 13.40765,4.875 q 0,0.40625 -0.0625,0.65625 -0.0469,0.23438 -0.17187,0.34375 -0.10938,0.10938 -0.34375,0.21875 -0.21875,0.0937 -0.51563,0.15625 -0.28125,0.0625 -0.60937,0.0937 -0.32813,0.0469 -0.65625,0.0469 -0.98438,0 -1.70313,-0.25 -0.70312,-0.26563 -1.15625,-0.79688 -0.45312,-0.53125 -0.65625,-1.34375 -0.20312,-0.8125 -0.20312,-1.92187 l 0,-7.45313 -1.78125,0 q -0.21875,0 -0.34375,-0.21875 -0.125,-0.23437 -0.125,-0.73437 0,-0.28125 0.0312,-0.45313 0.0312,-0.1875 0.0937,-0.3125 0.0625,-0.125 0.14062,-0.17187 0.0937,-0.0469 0.21875,-0.0469 l 1.76563,0 0,-3.03125 q 0,-0.0937 0.0469,-0.17187 0.0469,-0.0937 0.1875,-0.15625 0.14063,-0.0625 0.35938,-0.0937 0.23437,-0.0312 0.5625,-0.0312 0.35937,0 0.57812,0.0312 0.23438,0.0312 0.35938,0.0937 0.125,0.0625 0.1875,0.15625 0.0625,0.0781 0.0625,0.17187 l 0,3.03125 3.26562,0 q 0.10938,0 0.1875,0.0469 0.0937,0.0469 0.15625,0.17187 0.0625,0.125 0.0937,0.3125 0.0312,0.17188 0.0312,0.45313 0,0.5 -0.14062,0.73437 -0.125,0.21875 -0.32813,0.21875 l -3.26562,0 0,7.10938 q 0,1.32812 0.375,2 0.39062,0.67187 1.40625,0.67187 0.32812,0 0.57812,-0.0625 0.25,-0.0781 0.45313,-0.14062 0.20312,-0.0781 0.34375,-0.14063 0.14062,-0.0625 0.25,-0.0625 0.0625,0 0.125,0.0469 0.0781,0.0312 0.10937,0.125 0.0312,0.0937 0.0625,0.26562 0.0312,0.17188 0.0312,0.4375 z m 12.79255,0.9375 q 0,0.17188 -0.10938,0.26563 -0.10937,0.0781 -0.3125,0.10937 -0.20312,0.0469 -0.57812,0.0469 -0.375,0 -0.59375,-0.0469 -0.21875,-0.0312 -0.32813,-0.10937 -0.0937,-0.0937 -0.0937,-0.26563 l 0,-1.26562 q -0.82812,0.89062 -1.85937,1.39062 -1.01563,0.48438 -2.17188,0.48438 -1,0 -1.8125,-0.26563 -0.8125,-0.25 -1.39062,-0.75 -0.57813,-0.5 -0.90625,-1.21875 -0.3125,-0.71875 -0.3125,-1.64062 0,-1.07813 0.4375,-1.85938 0.45312,-0.79687 1.26562,-1.32812 0.82813,-0.53125 2.01563,-0.78125 1.1875,-0.26563 2.67187,-0.26563 l 1.75,0 0,-1 q 0,-0.73437 -0.15625,-1.29687 -0.14062,-0.5625 -0.5,-0.9375 -0.34375,-0.375 -0.90625,-0.5625 -0.54687,-0.20313 -1.34375,-0.20313 -0.85937,0 -1.54687,0.21875 -0.6875,0.20313 -1.21875,0.45313 -0.51563,0.23437 -0.85938,0.45312 -0.34375,0.20313 -0.51562,0.20313 -0.10938,0 -0.20313,-0.0625 -0.0781,-0.0625 -0.14062,-0.17188 -0.0625,-0.10937 -0.0937,-0.28125 -0.0312,-0.1875 -0.0312,-0.39062 0,-0.35938 0.0469,-0.5625 0.0625,-0.20313 0.25,-0.39063 0.1875,-0.1875 0.65625,-0.4375 0.46875,-0.25 1.07813,-0.45312 0.60937,-0.20313 1.32812,-0.32813 0.71875,-0.14062 1.45313,-0.14062 1.375,0 2.34375,0.3125 0.96875,0.3125 1.5625,0.92187 0.59375,0.59375 0.85937,1.48438 0.26563,0.89062 0.26563,2.07812 l 0,8.59375 z m -2.32813,-5.8125 -1.98437,0 q -0.96875,0 -1.6875,0.17188 -0.70313,0.15625 -1.17188,0.46875 -0.45312,0.3125 -0.67187,0.76562 -0.21875,0.4375 -0.21875,1.03125 0,0.98438 0.625,1.57813 0.625,0.57812 1.76562,0.57812 0.92188,0 1.70313,-0.46875 0.78125,-0.46875 1.64062,-1.42187 l 0,-2.70313 z" />
  <path
     style="fill-rule:nonzero;stroke:#000000;stroke-width:1.91927087;stroke-linecap:butt"
     inkscape:connector-curvature="0"
     id="path107"
     d="m 359.30145,638.46326 55.96402,0" />
  <path
     style="fill:#ffffff;fill-rule:nonzero"
     inkscape:connector-curvature="0"
     id="path109"
     d="m 541.3333,601.25195 88.3465,0 0,46.45673 -88.3465,0 z" />
  <path
     style="fill-rule:nonzero;stroke:#535353;stroke-width:2;stroke-linecap:butt;stroke-linejoin:round"
     inkscape:connector-curvature="0"
     id="path111"
     d="m 541.3333,601.25195 88.3465,0 0,46.45673 -88.3465,0 z" />
  <path
     style="fill:#000000;fill-rule:nonzero"
     inkscape:connector-curvature="0"
     id="path113"
     d="m 574.0558,625.7028 q 0,2.39063 -0.60938,4.17188 -0.60937,1.76562 -1.78125,2.9375 -1.17187,1.17187 -2.875,1.75 -1.6875,0.57812 -4.04687,0.57812 l -3.875,0 q -0.32813,0 -0.625,-0.21875 -0.28125,-0.21875 -0.28125,-0.76562 l 0,-16.34375 q 0,-0.5625 0.28125,-0.78125 0.29687,-0.21875 0.625,-0.21875 l 4.14062,0 q 2.39063,0 4.03125,0.625 1.64063,0.60937 2.75,1.76562 1.10938,1.15625 1.6875,2.79688 0.57813,1.64062 0.57813,3.70312 z m -2.5625,0.10938 q 0,-1.48438 -0.375,-2.76563 -0.375,-1.28125 -1.15625,-2.21875 -0.78125,-0.9375 -1.98438,-1.45312 -1.20312,-0.53125 -3.10937,-0.53125 l -2.46875,0 0,14.25 2.5,0 q 1.76562,0 2.96875,-0.4375 1.20312,-0.4375 2,-1.34375 0.8125,-0.90625 1.21875,-2.26563 0.40625,-1.375 0.40625,-3.23437 z m 15.84058,8.98437 q 0,0.17188 -0.10938,0.26563 -0.10937,0.0781 -0.3125,0.10937 -0.20312,0.0469 -0.57812,0.0469 -0.375,0 -0.59375,-0.0469 -0.21875,-0.0312 -0.32813,-0.10937 -0.0937,-0.0937 -0.0937,-0.26563 l 0,-1.26562 q -0.82812,0.89062 -1.85937,1.39062 -1.01563,0.48438 -2.17188,0.48438 -1,0 -1.8125,-0.26563 -0.8125,-0.25 -1.39062,-0.75 -0.57813,-0.5 -0.90625,-1.21875 -0.3125,-0.71875 -0.3125,-1.64062 0,-1.07813 0.4375,-1.85938 0.45312,-0.79687 1.26562,-1.32812 0.82813,-0.53125 2.01563,-0.78125 1.1875,-0.26563 2.67187,-0.26563 l 1.75,0 0,-1 q 0,-0.73437 -0.15625,-1.29687 -0.14062,-0.5625 -0.5,-0.9375 -0.34375,-0.375 -0.90625,-0.5625 -0.54687,-0.20313 -1.34375,-0.20313 -0.85937,0 -1.54687,0.21875 -0.6875,0.20313 -1.21875,0.45313 -0.51563,0.23437 -0.85938,0.45312 -0.34375,0.20313 -0.51562,0.20313 -0.10938,0 -0.20313,-0.0625 -0.0781,-0.0625 -0.14062,-0.17188 -0.0625,-0.10937 -0.0937,-0.28125 -0.0312,-0.1875 -0.0312,-0.39062 0,-0.35938 0.0469,-0.5625 0.0625,-0.20313 0.25,-0.39063 0.1875,-0.1875 0.65625,-0.4375 0.46875,-0.25 1.07813,-0.45312 0.60937,-0.20313 1.32812,-0.32813 0.71875,-0.14062 1.45313,-0.14062 1.375,0 2.34375,0.3125 0.96875,0.3125 1.5625,0.92187 0.59375,0.59375 0.85937,1.48438 0.26563,0.89062 0.26563,2.07812 l 0,8.59375 z m -2.32813,-5.8125 -1.98437,0 q -0.96875,0 -1.6875,0.17188 -0.70313,0.15625 -1.17188,0.46875 -0.45312,0.3125 -0.67187,0.76562 -0.21875,0.4375 -0.21875,1.03125 0,0.98438 0.625,1.57813 0.625,0.57812 1.76562,0.57812 0.92188,0 1.70313,-0.46875 0.78125,-0.46875 1.64062,-1.42187 l 0,-2.70313 z m 13.40765,4.875 q 0,0.40625 -0.0625,0.65625 -0.0469,0.23438 -0.17187,0.34375 -0.10938,0.10938 -0.34375,0.21875 -0.21875,0.0937 -0.51563,0.15625 -0.28125,0.0625 -0.60937,0.0937 -0.32813,0.0469 -0.65625,0.0469 -0.98438,0 -1.70313,-0.25 -0.70312,-0.26563 -1.15625,-0.79688 -0.45312,-0.53125 -0.65625,-1.34375 -0.20312,-0.8125 -0.20312,-1.92187 l 0,-7.45313 -1.78125,0 q -0.21875,0 -0.34375,-0.21875 -0.125,-0.23437 -0.125,-0.73437 0,-0.28125 0.0312,-0.45313 0.0312,-0.1875 0.0937,-0.3125 0.0625,-0.125 0.14062,-0.17187 0.0937,-0.0469 0.21875,-0.0469 l 1.76563,0 0,-3.03125 q 0,-0.0937 0.0469,-0.17187 0.0469,-0.0937 0.1875,-0.15625 0.14063,-0.0625 0.35938,-0.0937 0.23437,-0.0312 0.5625,-0.0312 0.35937,0 0.57812,0.0312 0.23438,0.0312 0.35938,0.0937 0.125,0.0625 0.1875,0.15625 0.0625,0.0781 0.0625,0.17187 l 0,3.03125 3.26562,0 q 0.10938,0 0.1875,0.0469 0.0937,0.0469 0.15625,0.17187 0.0625,0.125 0.0937,0.3125 0.0312,0.17188 0.0312,0.45313 0,0.5 -0.14062,0.73437 -0.125,0.21875 -0.32813,0.21875 l -3.26562,0 0,7.10938 q 0,1.32812 0.375,2 0.39062,0.67187 1.40625,0.67187 0.32812,0 0.57812,-0.0625 0.25,-0.0781 0.45313,-0.14062 0.20312,-0.0781 0.34375,-0.14063 0.14062,-0.0625 0.25,-0.0625 0.0625,0 0.125,0.0469 0.0781,0.0312 0.10937,0.125 0.0312,0.0937 0.0625,0.26562 0.0312,0.17188 0.0312,0.4375 z m 12.79255,0.9375 q 0,0.17188 -0.10938,0.26563 -0.10937,0.0781 -0.3125,0.10937 -0.20312,0.0469 -0.57812,0.0469 -0.375,0 -0.59375,-0.0469 -0.21875,-0.0312 -0.32813,-0.10937 -0.0937,-0.0937 -0.0937,-0.26563 l 0,-1.26562 q -0.82812,0.89062 -1.85937,1.39062 -1.01563,0.48438 -2.17188,0.48438 -1,0 -1.8125,-0.26563 -0.8125,-0.25 -1.39062,-0.75 -0.57813,-0.5 -0.90625,-1.21875 -0.3125,-0.71875 -0.3125,-1.64062 0,-1.07813 0.4375,-1.85938 0.45312,-0.79687 1.26562,-1.32812 0.82813,-0.53125 2.01563,-0.78125 1.1875,-0.26563 2.67187,-0.26563 l 1.75,0 0,-1 q 0,-0.73437 -0.15625,-1.29687 -0.14062,-0.5625 -0.5,-0.9375 -0.34375,-0.375 -0.90625,-0.5625 -0.54687,-0.20313 -1.34375,-0.20313 -0.85937,0 -1.54687,0.21875 -0.6875,0.20313 -1.21875,0.45313 -0.51563,0.23437 -0.85938,0.45312 -0.34375,0.20313 -0.51562,0.20313 -0.10938,0 -0.20313,-0.0625 -0.0781,-0.0625 -0.14062,-0.17188 -0.0625,-0.10937 -0.0937,-0.28125 -0.0312,-0.1875 -0.0312,-0.39062 0,-0.35938 0.0469,-0.5625 0.0625,-0.20313 0.25,-0.39063 0.1875,-0.1875 0.65625,-0.4375 0.46875,-0.25 1.07813,-0.45312 0.60937,-0.20313 1.32812,-0.32813 0.71875,-0.14062 1.45313,-0.14062 1.375,0 2.34375,0.3125 0.96875,0.3125 1.5625,0.92187 0.59375,0.59375 0.85937,1.48438 0.26563,0.89062 0.26563,2.07812 l 0,8.59375 z m -2.32813,-5.8125 -1.98437,0 q -0.96875,0 -1.6875,0.17188 -0.70313,0.15625 -1.17188,0.46875 -0.45312,0.3125 -0.67187,0.76562 -0.21875,0.4375 -0.21875,1.03125 0,0.98438 0.625,1.57813 0.625,0.57812 1.76562,0.57812 0.92188,0 1.70313,-0.46875 0.78125,-0.46875 1.64062,-1.42187 l 0,-2.70313 z" />
  <path
     style="fill-rule:nonzero;stroke:#000000;stroke-width:1.91927087;stroke-linecap:butt"
     inkscape:connector-curvature="0"
     id="path115"
     d="m 557.52454,638.46326 55.96405,0" />
  <path
     style="fill:#000000;fill-opacity:0;fill-rule:nonzero"
     inkscape:connector-curvature="0"
     id="path117"
     d="m 190.83989,566.45667 c 0,9.21918 0.41733,13.82813 0.83466,18.43842 0.41731,4.61023 0.83464,9.22174 0.83464,18.44348" />
  <path
     style="fill-rule:evenodd;stroke:#535353;stroke-width:2;stroke-linecap:butt;stroke-linejoin:round"
     inkscape:connector-curvature="0"
     id="path119"
     d="m 190.83989,566.45667 c 0,9.21918 0.41733,13.82813 0.83466,18.43842 0.10432,1.15252 0.20866,2.30517 0.30647,3.5299 0.0489,0.61237 0.0962,1.24274 0.14101,1.90021 0.0224,0.32868 0.0442,0.66412 0.0653,1.00751 l 6e-4,0.0102" />
  <path
     style="fill:#535353;fill-rule:evenodd;stroke:#535353;stroke-width:2;stroke-linecap:butt"
     inkscape:connector-curvature="0"
     id="path121"
     d="m 188.88564,591.43134 3.54527,8.9845 3.0593,-9.16138 z" />
  <path
     style="fill:#000000;fill-opacity:0;fill-rule:nonzero"
     inkscape:connector-curvature="0"
     id="path123"
     d="m 387.28433,566.45667 c 0,8.69891 0.0157,13.04736 0.0315,17.39777 0.0158,4.3504 0.0315,8.70269 0.0315,17.40539" />
  <path
     style="fill-rule:evenodd;stroke:#535353;stroke-width:2;stroke-linecap:butt;stroke-linejoin:round"
     inkscape:connector-curvature="0"
     id="path125"
     d="m 387.28433,566.45667 c 0,8.69891 0.0157,13.04742 0.0315,17.39777 l 0.0166,5.40539" />
  <path
     style="fill:#535353;fill-rule:evenodd;stroke:#535353;stroke-width:2;stroke-linecap:butt"
     inkscape:connector-curvature="0"
     id="path127"
     d="m 384.0289,589.264 3.31479,9.07208 3.29214,-9.08032 z" />
  <path
     style="fill:#000000;fill-opacity:0;fill-rule:nonzero"
     inkscape:connector-curvature="0"
     id="path129"
     d="m 585.50653,566.45667 c 0,8.69891 0.0158,13.04736 0.0316,17.39777 0.0157,4.3504 0.0315,8.70269 0.0315,17.40539" />
  <path
     style="fill-rule:evenodd;stroke:#535353;stroke-width:2;stroke-linecap:butt;stroke-linejoin:round"
     inkscape:connector-curvature="0"
     id="path131"
     d="m 585.5066,566.45667 c 0,8.69891 0.0157,13.04742 0.0315,17.39777 l 0.0165,5.40539" />
  <path
     style="fill:#535353;fill-rule:evenodd;stroke:#535353;stroke-width:2;stroke-linecap:butt"
     inkscape:connector-curvature="0"
     id="path133"
     d="m 582.25116,589.264 3.31476,9.07208 3.29217,-9.08032 z" />
  <path
     style="fill:#ffffff;fill-rule:nonzero"
     inkscape:connector-curvature="0"
     id="path135"
     d="m 631.45667,374.8504 178.64569,0 0,43.8425 -178.64569,0 z" />
  <path
     style="fill-rule:nonzero;stroke:#535353;stroke-width:2;stroke-linecap:butt;stroke-linejoin:round"
     inkscape:connector-curvature="0"
     id="path137"
     d="m 631.45667,374.8504 178.64569,0 0,43.8425 -178.64569,0 z" />
  <path
     style="fill:#000000;fill-rule:nonzero"
     inkscape:connector-curvature="0"
     id="path139"
     d="m 700.98944,404.8379 q 0,0.23437 -0.0156,0.40625 -0.0156,0.15625 -0.0469,0.29687 -0.0312,0.125 -0.0937,0.21875 -0.0625,0.0937 -0.20313,0.25 -0.14062,0.14063 -0.59375,0.4375 -0.45312,0.28125 -1.125,0.5625 -0.67187,0.26563 -1.54687,0.45313 -0.85938,0.20312 -1.90625,0.20312 -1.78125,0 -3.21875,-0.59375 -1.4375,-0.60937 -2.45313,-1.76562 -1,-1.15625 -1.54687,-2.85938 -0.54688,-1.71875 -0.54688,-3.9375 0,-2.28125 0.57813,-4.0625 0.59375,-1.78125 1.65625,-3.01562 1.0625,-1.25 2.53125,-1.89063 1.48437,-0.65625 3.29687,-0.65625 0.78125,0 1.53125,0.15625 0.75,0.14063 1.39063,0.375 0.64062,0.21875 1.125,0.51563 0.5,0.29687 0.6875,0.48437 0.20312,0.1875 0.25,0.29688 0.0625,0.0937 0.0937,0.23437 0.0469,0.125 0.0625,0.3125 0.0156,0.1875 0.0156,0.4375 0,0.28125 -0.0312,0.48438 -0.0156,0.20312 -0.0781,0.34375 -0.0625,0.125 -0.14063,0.1875 -0.0625,0.0625 -0.1875,0.0625 -0.1875,0 -0.54687,-0.26563 -0.35938,-0.28125 -0.92188,-0.60937 -0.54687,-0.34375 -1.35937,-0.60938 -0.79688,-0.28125 -1.90625,-0.28125 -1.21875,0 -2.21875,0.48438 -1,0.48437 -1.71875,1.4375 -0.70313,0.95312 -1.09375,2.32812 -0.39063,1.35938 -0.39063,3.10938 0,1.73437 0.375,3.07812 0.39063,1.34375 1.07813,2.25 0.70312,0.89063 1.71875,1.35938 1.03125,0.45312 2.3125,0.45312 1.09375,0 1.90625,-0.26562 0.8125,-0.28125 1.39062,-0.60938 0.57813,-0.32812 0.9375,-0.59375 0.375,-0.28125 0.57813,-0.28125 0.10937,0 0.17187,0.0469 0.0781,0.0469 0.10938,0.17187 0.0469,0.10938 0.0625,0.32813 0.0312,0.20312 0.0312,0.53125 z m 5.46594,2.23437 q 0,0.125 -0.0625,0.20313 -0.0469,0.0781 -0.17187,0.14062 -0.125,0.0469 -0.35938,0.0625 -0.21875,0.0312 -0.57812,0.0312 -0.34375,0 -0.57813,-0.0312 -0.21875,-0.0156 -0.35937,-0.0625 -0.125,-0.0625 -0.17188,-0.14062 -0.0469,-0.0781 -0.0469,-0.20313 l 0,-18.90625 q 0,-0.125 0.0469,-0.20312 0.0469,-0.0937 0.17188,-0.14063 0.14062,-0.0625 0.35937,-0.0781 0.23438,-0.0312 0.57813,-0.0312 0.35937,0 0.57812,0.0312 0.23438,0.0156 0.35938,0.0781 0.125,0.0469 0.17187,0.14063 0.0625,0.0781 0.0625,0.20312 l 0,18.90625 z m 6.73059,0 q 0,0.125 -0.0625,0.20313 -0.0469,0.0781 -0.17187,0.14062 -0.125,0.0469 -0.35938,0.0625 -0.21875,0.0312 -0.57812,0.0312 -0.34375,0 -0.57813,-0.0312 -0.21875,-0.0156 -0.35937,-0.0625 -0.125,-0.0625 -0.17188,-0.14062 -0.0469,-0.0781 -0.0469,-0.20313 l 0,-12.73437 q 0,-0.10938 0.0469,-0.1875 0.0469,-0.0937 0.17188,-0.14063 0.14062,-0.0625 0.35937,-0.0781 0.23438,-0.0312 0.57813,-0.0312 0.35937,0 0.57812,0.0312 0.23438,0.0156 0.35938,0.0781 0.125,0.0469 0.17187,0.14063 0.0625,0.0781 0.0625,0.1875 l 0,12.73437 z m 0.26563,-17.04687 q 0,0.82812 -0.3125,1.125 -0.29688,0.29687 -1.14063,0.29687 -0.8125,0 -1.125,-0.28125 -0.29687,-0.29687 -0.29687,-1.10937 0,-0.82813 0.29687,-1.125 0.3125,-0.29688 1.15625,-0.29688 0.8125,0 1.10938,0.29688 0.3125,0.29687 0.3125,1.09375 z m 15.01184,10.125 q 0,0.5625 -0.28125,0.79687 -0.28125,0.21875 -0.625,0.21875 l -8.35938,0 q 0,1.0625 0.20313,1.92188 0.21875,0.84375 0.71875,1.45312 0.5,0.60938 1.28125,0.9375 0.79687,0.32813 1.95312,0.32813 0.90625,0 1.60938,-0.14063 0.70312,-0.15625 1.21875,-0.34375 0.51562,-0.1875 0.84375,-0.32812 0.34375,-0.15625 0.51562,-0.15625 0.0937,0 0.17188,0.0469 0.0781,0.0469 0.125,0.15625 0.0469,0.0937 0.0625,0.28125 0.0156,0.17188 0.0156,0.42188 0,0.1875 -0.0156,0.32812 -0.0156,0.125 -0.0312,0.23438 -0.0156,0.10937 -0.0781,0.20312 -0.0469,0.0781 -0.125,0.15625 -0.0781,0.0781 -0.46875,0.25 -0.375,0.17188 -0.98437,0.34375 -0.59375,0.17188 -1.40625,0.29688 -0.79688,0.14062 -1.70313,0.14062 -1.5625,0 -2.75,-0.4375 -1.1875,-0.4375 -2,-1.29687 -0.79687,-0.875 -1.21875,-2.17188 -0.40625,-1.29687 -0.40625,-3.03125 0,-1.64062 0.42188,-2.95312 0.4375,-1.3125 1.23437,-2.21875 0.79688,-0.92188 1.92188,-1.40625 1.14062,-0.48438 2.54687,-0.48438 1.5,0 2.54688,0.48438 1.0625,0.48437 1.73437,1.29687 0.6875,0.8125 1,1.90625 0.32813,1.09375 0.32813,2.34375 l 0,0.42188 z m -2.35938,-0.6875 q 0.0469,-1.84375 -0.8125,-2.89063 -0.85937,-1.04687 -2.54687,-1.04687 -0.85938,0 -1.51563,0.32812 -0.64062,0.32813 -1.07812,0.85938 -0.4375,0.53125 -0.6875,1.25 -0.23438,0.71875 -0.26563,1.5 l 6.90625,0 z m 17.0456,7.60937 q 0,0.125 -0.0625,0.20313 -0.0469,0.0781 -0.1875,0.14062 -0.125,0.0469 -0.35938,0.0625 -0.21875,0.0312 -0.54687,0.0312 -0.35938,0 -0.59375,-0.0312 -0.21875,-0.0156 -0.34375,-0.0625 -0.125,-0.0625 -0.1875,-0.14062 -0.0625,-0.0781 -0.0625,-0.20313 l 0,-7.45312 q 0,-1.09375 -0.17188,-1.75 -0.15625,-0.67188 -0.48437,-1.15625 -0.32813,-0.48438 -0.84375,-0.73438 -0.51563,-0.25 -1.20313,-0.25 -0.875,0 -1.75,0.625 -0.875,0.60938 -1.84375,1.8125 l 0,8.90625 q 0,0.125 -0.0625,0.20313 -0.0469,0.0781 -0.17187,0.14062 -0.125,0.0469 -0.35938,0.0625 -0.21875,0.0312 -0.57812,0.0312 -0.34375,0 -0.57813,-0.0312 -0.21875,-0.0156 -0.35937,-0.0625 -0.125,-0.0625 -0.17188,-0.14062 -0.0469,-0.0781 -0.0469,-0.20313 l 0,-12.73437 q 0,-0.125 0.0312,-0.20313 0.0469,-0.0781 0.17187,-0.14062 0.125,-0.0625 0.32813,-0.0781 0.20312,-0.0156 0.53125,-0.0156 0.3125,0 0.51562,0.0156 0.20313,0.0156 0.3125,0.0781 0.10938,0.0625 0.15625,0.14062 0.0625,0.0781 0.0625,0.20313 l 0,1.6875 q 1.07813,-1.20313 2.14063,-1.76563 1.0625,-0.5625 2.15625,-0.5625 1.28125,0 2.14062,0.4375 0.875,0.42188 1.40625,1.15625 0.54688,0.71875 0.78125,1.6875 0.23438,0.96875 0.23438,2.32813 l 0,7.76562 z m 11.06494,-0.92187 q 0,0.40625 -0.0625,0.65625 -0.0469,0.23437 -0.17188,0.34375 -0.10937,0.10937 -0.34375,0.21875 -0.21875,0.0937 -0.51562,0.15625 -0.28125,0.0625 -0.60938,0.0937 -0.32812,0.0469 -0.65625,0.0469 -0.98437,0 -1.70312,-0.25 -0.70313,-0.26562 -1.15625,-0.79687 -0.45313,-0.53125 -0.65625,-1.34375 -0.20313,-0.8125 -0.20313,-1.92188 l 0,-7.45312 -1.78125,0 q -0.21875,0 -0.34375,-0.21875 -0.125,-0.23438 -0.125,-0.73438 0,-0.28125 0.0312,-0.45312 0.0312,-0.1875 0.0937,-0.3125 0.0625,-0.125 0.14063,-0.17188 0.0937,-0.0469 0.21875,-0.0469 l 1.76562,0 0,-3.03125 q 0,-0.0937 0.0469,-0.17188 0.0469,-0.0937 0.1875,-0.15625 0.14062,-0.0625 0.35937,-0.0937 0.23438,-0.0312 0.5625,-0.0312 0.35938,0 0.57813,0.0312 0.23437,0.0312 0.35937,0.0937 0.125,0.0625 0.1875,0.15625 0.0625,0.0781 0.0625,0.17188 l 0,3.03125 3.26563,0 q 0.10937,0 0.1875,0.0469 0.0937,0.0469 0.15625,0.17188 0.0625,0.125 0.0937,0.3125 0.0312,0.17187 0.0312,0.45312 0,0.5 -0.14063,0.73438 -0.125,0.21875 -0.32812,0.21875 l -3.26563,0 0,7.10937 q 0,1.32813 0.375,2 0.39063,0.67188 1.40625,0.67188 0.32813,0 0.57813,-0.0625 0.25,-0.0781 0.45312,-0.14063 0.20313,-0.0781 0.34375,-0.14062 0.14063,-0.0625 0.25,-0.0625 0.0625,0 0.125,0.0469 0.0781,0.0312 0.10938,0.125 0.0312,0.0937 0.0625,0.26563 0.0312,0.17187 0.0312,0.4375 z" />
  <path
     style="fill-rule:nonzero;stroke:#000000;stroke-width:1.91927087;stroke-linecap:butt"
     inkscape:connector-curvature="0"
     id="path141"
     d="m 686.31757,410.75458 68.92395,0" />
  <path
     style="fill:#000000;fill-opacity:0;fill-rule:nonzero"
     inkscape:connector-curvature="0"
     id="path143"
     d="m 631.45667,396.77167 c -195.13382,0 -390.2677,16.45666 -390.2677,32.91336" />
  <path
     style="fill-rule:evenodd;stroke:#535353;stroke-width:2;stroke-linecap:butt;stroke-linejoin:round"
     inkscape:connector-curvature="0"
     id="path145"
     d="m 631.45667,396.77167 c -97.5669,0 -195.13382,4.11417 -268.30902,10.28543 -36.58762,3.08563 -67.07727,6.68552 -88.42004,10.54257 -5.3357,0.96424 -10.0997,1.94458 -14.24439,2.93695 -2.07236,0.49619 -3.98987,0.99543 -5.74658,1.49713 -0.87837,0.25086 -1.71654,0.50235 -2.51376,0.7544 -0.19931,0.063 -0.39606,0.12607 -0.59024,0.18915 l -0.40487,0.13336" />
  <path
     style="fill:#535353;fill-rule:evenodd;stroke:#535353;stroke-width:2;stroke-linecap:butt"
     inkscape:connector-curvature="0"
     id="path147"
     d="m 249.41791,420.34708 -5.78297,7.73611 9.40269,-2.20898 z" />
  <path
     style="fill:#ffffff;fill-rule:nonzero"
     inkscape:connector-curvature="0"
     id="path149"
     d="m 692.0171,456.49606 178.64563,0 0,46.4567 -178.64563,0 z" />
  <path
     style="fill-rule:nonzero;stroke:#535353;stroke-width:2;stroke-linecap:butt;stroke-linejoin:round"
     inkscape:connector-curvature="0"
     id="path151"
     d="m 692.0171,456.49606 178.64563,0 0,46.4567 -178.64563,0 z" />
  <path
     style="fill:#000000;fill-rule:nonzero"
     inkscape:connector-curvature="0"
     id="path153"
     d="m 727.3034,489.3219 q 0,0.28125 -0.0312,0.48438 -0.0312,0.1875 -0.0937,0.32812 -0.0625,0.125 -0.15625,0.1875 -0.0937,0.0625 -0.21875,0.0625 l -8.09375,0 q -0.32813,0 -0.625,-0.21875 -0.28125,-0.21875 -0.28125,-0.76562 l 0,-16.96875 q 0,-0.10938 0.0469,-0.1875 0.0625,-0.0937 0.20313,-0.14063 0.14062,-0.0625 0.375,-0.0937 0.25,-0.0312 0.59375,-0.0312 0.34375,0 0.57812,0.0312 0.23438,0.0312 0.375,0.0937 0.15625,0.0469 0.20313,0.14063 0.0625,0.0781 0.0625,0.1875 l 0,15.84375 6.5625,0 q 0.125,0 0.21875,0.0625 0.0937,0.0625 0.15625,0.1875 0.0625,0.125 0.0937,0.32812 0.0312,0.1875 0.0312,0.46875 z m 4.89239,0.70313 q 0,0.125 -0.0625,0.20312 -0.0469,0.0781 -0.17187,0.14063 -0.125,0.0469 -0.35938,0.0625 -0.21875,0.0312 -0.57812,0.0312 -0.34375,0 -0.57813,-0.0312 -0.21875,-0.0156 -0.35937,-0.0625 -0.125,-0.0625 -0.17188,-0.14063 -0.0469,-0.0781 -0.0469,-0.20312 l 0,-12.73438 q 0,-0.10937 0.0469,-0.1875 0.0469,-0.0937 0.17188,-0.14062 0.14062,-0.0625 0.35937,-0.0781 0.23438,-0.0312 0.57813,-0.0312 0.35937,0 0.57812,0.0312 0.23438,0.0156 0.35938,0.0781 0.125,0.0469 0.17187,0.14062 0.0625,0.0781 0.0625,0.1875 l 0,12.73438 z m 0.26563,-17.04688 q 0,0.82813 -0.3125,1.125 -0.29688,0.29688 -1.14063,0.29688 -0.8125,0 -1.125,-0.28125 -0.29687,-0.29688 -0.29687,-1.10938 0,-0.82812 0.29687,-1.125 0.3125,-0.29687 1.15625,-0.29687 0.8125,0 1.10938,0.29687 0.3125,0.29688 0.3125,1.09375 z m 12.13678,13.57813 q 0,0.98437 -0.375,1.75 -0.35937,0.76562 -1.03125,1.29687 -0.65625,0.51563 -1.57812,0.78125 -0.92188,0.26563 -2.01563,0.26563 -0.6875,0 -1.3125,-0.10938 -0.60937,-0.0937 -1.09375,-0.25 -0.48437,-0.17187 -0.82812,-0.34375 -0.34375,-0.1875 -0.5,-0.32812 -0.15625,-0.14063 -0.23438,-0.39063 -0.0625,-0.26562 -0.0625,-0.70312 0,-0.26563 0.0312,-0.45313 0.0312,-0.1875 0.0625,-0.29687 0.0469,-0.10938 0.125,-0.15625 0.0781,-0.0469 0.1875,-0.0469 0.15625,0 0.45313,0.1875 0.3125,0.1875 0.75,0.42188 0.45312,0.21875 1.0625,0.42187 0.60937,0.1875 1.40625,0.1875 0.59375,0 1.0625,-0.125 0.48437,-0.14062 0.84375,-0.375 0.35937,-0.25 0.54687,-0.625 0.1875,-0.39062 0.1875,-0.92187 0,-0.53125 -0.28125,-0.89063 -0.26562,-0.375 -0.71875,-0.65625 -0.45312,-0.29687 -1.03125,-0.51562 -0.5625,-0.21875 -1.17187,-0.45313 -0.59375,-0.25 -1.17188,-0.54687 -0.5625,-0.3125 -1.01562,-0.75 -0.45313,-0.4375 -0.73438,-1.04688 -0.28125,-0.60937 -0.28125,-1.45312 0,-0.75 0.29688,-1.4375 0.29687,-0.6875 0.875,-1.20313 0.57812,-0.51562 1.4375,-0.82812 0.875,-0.3125 2.04687,-0.3125 0.5,0 1,0.0937 0.51563,0.0781 0.92188,0.20312 0.42187,0.125 0.70312,0.28125 0.29688,0.14063 0.4375,0.26563 0.15625,0.10937 0.20313,0.20312 0.0625,0.0781 0.0781,0.1875 0.0156,0.0937 0.0312,0.25 0.0312,0.15625 0.0312,0.39063 0,0.23437 -0.0312,0.42187 -0.0156,0.17188 -0.0625,0.28125 -0.0469,0.10938 -0.125,0.15625 -0.0625,0.0469 -0.15625,0.0469 -0.125,0 -0.375,-0.14063 -0.23437,-0.15625 -0.60937,-0.32812 -0.375,-0.1875 -0.90625,-0.34375 -0.51563,-0.15625 -1.17188,-0.15625 -0.59375,0 -1.04687,0.14062 -0.45313,0.125 -0.75,0.375 -0.28125,0.25 -0.4375,0.59375 -0.14063,0.32813 -0.14063,0.73438 0,0.54687 0.28125,0.92187 0.28125,0.375 0.73438,0.65625 0.45312,0.28125 1.03125,0.51563 0.57812,0.21875 1.17187,0.46875 0.60938,0.23437 1.1875,0.53125 0.59375,0.29687 1.04688,0.73437 0.45312,0.42188 0.73437,1.01563 0.28125,0.59375 0.28125,1.40625 z m 10.09564,2.54687 q 0,0.40625 -0.0625,0.65625 -0.0469,0.23438 -0.17187,0.34375 -0.10938,0.10938 -0.34375,0.21875 -0.21875,0.0937 -0.51563,0.15625 -0.28125,0.0625 -0.60937,0.0937 -0.32813,0.0469 -0.65625,0.0469 -0.98438,0 -1.70313,-0.25 -0.70312,-0.26563 -1.15625,-0.79688 -0.45312,-0.53125 -0.65625,-1.34375 -0.20312,-0.8125 -0.20312,-1.92187 l 0,-7.45313 -1.78125,0 q -0.21875,0 -0.34375,-0.21875 -0.125,-0.23437 -0.125,-0.73437 0,-0.28125 0.0312,-0.45313 0.0312,-0.1875 0.0937,-0.3125 0.0625,-0.125 0.14062,-0.17187 0.0937,-0.0469 0.21875,-0.0469 l 1.76563,0 0,-3.03125 q 0,-0.0937 0.0469,-0.17187 0.0469,-0.0937 0.1875,-0.15625 0.14063,-0.0625 0.35938,-0.0937 0.23437,-0.0312 0.5625,-0.0312 0.35937,0 0.57812,0.0312 0.23438,0.0312 0.35938,0.0937 0.125,0.0625 0.1875,0.15625 0.0625,0.0781 0.0625,0.17187 l 0,3.03125 3.26562,0 q 0.10938,0 0.1875,0.0469 0.0937,0.0469 0.15625,0.17187 0.0625,0.125 0.0937,0.3125 0.0312,0.17188 0.0312,0.45313 0,0.5 -0.14062,0.73437 -0.125,0.21875 -0.32813,0.21875 l -3.26562,0 0,7.10938 q 0,1.32812 0.375,2 0.39062,0.67187 1.40625,0.67187 0.32812,0 0.57812,-0.0625 0.25,-0.0781 0.45313,-0.14062 0.20312,-0.0781 0.34375,-0.14063 0.14062,-0.0625 0.25,-0.0625 0.0625,0 0.125,0.0469 0.0781,0.0312 0.10937,0.125 0.0312,0.0937 0.0625,0.26562 0.0312,0.17188 0.0312,0.4375 z m 5.90192,0.90625 q 0,0.125 -0.0625,0.21875 -0.0469,0.0781 -0.20313,0.125 -0.14062,0.0469 -0.375,0.0781 -0.23437,0.0312 -0.57812,0.0312 -0.34375,0 -0.59375,-0.0312 -0.23438,-0.0312 -0.375,-0.0781 -0.14063,-0.0469 -0.20313,-0.125 -0.0469,-0.0937 -0.0469,-0.21875 l 0,-17.57812 q 0,-0.10938 0.0625,-0.1875 0.0625,-0.0937 0.20312,-0.14063 0.15625,-0.0625 0.39063,-0.0937 0.23437,-0.0312 0.5625,-0.0312 0.34375,0 0.57812,0.0312 0.23438,0.0312 0.375,0.0937 0.15625,0.0469 0.20313,0.14063 0.0625,0.0781 0.0625,0.1875 l 0,17.57812 z m 11.31116,-0.90625 q 0,0.40625 -0.0625,0.65625 -0.0469,0.23438 -0.17188,0.34375 -0.10937,0.10938 -0.34375,0.21875 -0.21875,0.0937 -0.51562,0.15625 -0.28125,0.0625 -0.60938,0.0937 -0.32812,0.0469 -0.65625,0.0469 -0.98437,0 -1.70312,-0.25 -0.70313,-0.26563 -1.15625,-0.79688 -0.45313,-0.53125 -0.65625,-1.34375 -0.20313,-0.8125 -0.20313,-1.92187 l 0,-7.45313 -1.78125,0 q -0.21875,0 -0.34375,-0.21875 -0.125,-0.23437 -0.125,-0.73437 0,-0.28125 0.0312,-0.45313 0.0312,-0.1875 0.0937,-0.3125 0.0625,-0.125 0.14063,-0.17187 0.0937,-0.0469 0.21875,-0.0469 l 1.76562,0 0,-3.03125 q 0,-0.0937 0.0469,-0.17187 0.0469,-0.0937 0.1875,-0.15625 0.14062,-0.0625 0.35937,-0.0937 0.23438,-0.0312 0.5625,-0.0312 0.35938,0 0.57813,0.0312 0.23437,0.0312 0.35937,0.0937 0.125,0.0625 0.1875,0.15625 0.0625,0.0781 0.0625,0.17187 l 0,3.03125 3.26563,0 q 0.10937,0 0.1875,0.0469 0.0937,0.0469 0.15625,0.17187 0.0625,0.125 0.0937,0.3125 0.0312,0.17188 0.0312,0.45313 0,0.5 -0.14063,0.73437 -0.125,0.21875 -0.32812,0.21875 l -3.26563,0 0,7.10938 q 0,1.32812 0.375,2 0.39063,0.67187 1.40625,0.67187 0.32813,0 0.57813,-0.0625 0.25,-0.0781 0.45312,-0.14062 0.20313,-0.0781 0.34375,-0.14063 0.14063,-0.0625 0.25,-0.0625 0.0625,0 0.125,0.0469 0.0781,0.0312 0.10938,0.125 0.0312,0.0937 0.0625,0.26562 0.0312,0.17188 0.0312,0.4375 z m 14.07379,-6 q 0,0.5625 -0.28125,0.79688 -0.28125,0.21875 -0.625,0.21875 l -8.35938,0 q 0,1.0625 0.20313,1.92187 0.21875,0.84375 0.71875,1.45313 0.5,0.60937 1.28125,0.9375 0.79687,0.32812 1.95312,0.32812 0.90625,0 1.60938,-0.14062 0.70312,-0.15625 1.21875,-0.34375 0.51562,-0.1875 0.84375,-0.32813 0.34375,-0.15625 0.51562,-0.15625 0.0937,0 0.17188,0.0469 0.0781,0.0469 0.125,0.15625 0.0469,0.0937 0.0625,0.28125 0.0156,0.17187 0.0156,0.42187 0,0.1875 -0.0156,0.32813 -0.0156,0.125 -0.0312,0.23437 -0.0156,0.10938 -0.0781,0.20313 -0.0469,0.0781 -0.125,0.15625 -0.0781,0.0781 -0.46875,0.25 -0.375,0.17187 -0.98437,0.34375 -0.59375,0.17187 -1.40625,0.29687 -0.79688,0.14063 -1.70313,0.14063 -1.5625,0 -2.75,-0.4375 -1.1875,-0.4375 -2,-1.29688 -0.79687,-0.875 -1.21875,-2.17187 -0.40625,-1.29688 -0.40625,-3.03125 0,-1.64063 0.42188,-2.95313 0.4375,-1.3125 1.23437,-2.21875 0.79688,-0.92187 1.92188,-1.40625 1.14062,-0.48437 2.54687,-0.48437 1.5,0 2.54688,0.48437 1.0625,0.48438 1.73437,1.29688 0.6875,0.8125 1,1.90625 0.32813,1.09375 0.32813,2.34375 l 0,0.42187 z m -2.35938,-0.6875 q 0.0469,-1.84375 -0.8125,-2.89062 -0.85937,-1.04688 -2.54687,-1.04688 -0.85938,0 -1.51563,0.32813 -0.64062,0.32812 -1.07812,0.85937 -0.4375,0.53125 -0.6875,1.25 -0.23438,0.71875 -0.26563,1.5 l 6.90625,0 z m 13.51434,-4.29687 q 0,0.3125 -0.0156,0.53125 0,0.20312 -0.0469,0.32812 -0.0469,0.125 -0.10937,0.1875 -0.0625,0.0625 -0.17188,0.0625 -0.125,0 -0.28125,-0.0625 -0.15625,-0.0625 -0.375,-0.125 -0.20312,-0.0625 -0.45312,-0.125 -0.25,-0.0625 -0.54688,-0.0625 -0.35937,0 -0.70312,0.14063 -0.32813,0.14062 -0.71875,0.46875 -0.375,0.32812 -0.78125,0.875 -0.40625,0.53125 -0.90625,1.3125 l 0,8.375 q 0,0.125 -0.0625,0.20312 -0.0469,0.0781 -0.17188,0.14063 -0.125,0.0469 -0.35937,0.0625 -0.21875,0.0312 -0.57813,0.0312 -0.34375,0 -0.57812,-0.0312 -0.21875,-0.0156 -0.35938,-0.0625 -0.125,-0.0625 -0.17187,-0.14063 -0.0469,-0.0781 -0.0469,-0.20312 l 0,-12.73438 q 0,-0.125 0.0312,-0.20312 0.0469,-0.0781 0.17188,-0.14063 0.125,-0.0625 0.32812,-0.0781 0.20313,-0.0156 0.53125,-0.0156 0.3125,0 0.51563,0.0156 0.20312,0.0156 0.3125,0.0781 0.10937,0.0625 0.15625,0.14063 0.0625,0.0781 0.0625,0.20312 l 0,1.84375 q 0.51562,-0.76562 0.96875,-1.23437 0.46875,-0.48438 0.875,-0.75 0.42187,-0.28125 0.8125,-0.39063 0.40625,-0.10937 0.82812,-0.10937 0.17188,0 0.40625,0.0312 0.23438,0.0156 0.48438,0.0781 0.26562,0.0469 0.46875,0.125 0.20312,0.0625 0.28125,0.14063 0.0937,0.0625 0.125,0.125 0.0312,0.0625 0.0469,0.17187 0.0156,0.0937 0.0156,0.28125 0.0156,0.1875 0.0156,0.51563 z m 12.38099,11.92187 q 0,0.17188 -0.10938,0.26563 -0.10937,0.0781 -0.3125,0.10937 -0.20312,0.0469 -0.57812,0.0469 -0.375,0 -0.59375,-0.0469 -0.21875,-0.0312 -0.32813,-0.10937 -0.0937,-0.0937 -0.0937,-0.26563 l 0,-1.26562 q -0.82812,0.89062 -1.85937,1.39062 -1.01563,0.48438 -2.17188,0.48438 -1,0 -1.8125,-0.26563 -0.8125,-0.25 -1.39062,-0.75 -0.57813,-0.5 -0.90625,-1.21875 -0.3125,-0.71875 -0.3125,-1.64062 0,-1.07813 0.4375,-1.85938 0.45312,-0.79687 1.26562,-1.32812 0.82813,-0.53125 2.01563,-0.78125 1.1875,-0.26563 2.67187,-0.26563 l 1.75,0 0,-1 q 0,-0.73437 -0.15625,-1.29687 -0.14062,-0.5625 -0.5,-0.9375 -0.34375,-0.375 -0.90625,-0.5625 -0.54687,-0.20313 -1.34375,-0.20313 -0.85937,0 -1.54687,0.21875 -0.6875,0.20313 -1.21875,0.45313 -0.51563,0.23437 -0.85938,0.45312 -0.34375,0.20313 -0.51562,0.20313 -0.10938,0 -0.20313,-0.0625 -0.0781,-0.0625 -0.14062,-0.17188 -0.0625,-0.10937 -0.0937,-0.28125 -0.0312,-0.1875 -0.0312,-0.39062 0,-0.35938 0.0469,-0.5625 0.0625,-0.20313 0.25,-0.39063 0.1875,-0.1875 0.65625,-0.4375 0.46875,-0.25 1.07813,-0.45312 0.60937,-0.20313 1.32812,-0.32813 0.71875,-0.14062 1.45313,-0.14062 1.375,0 2.34375,0.3125 0.96875,0.3125 1.5625,0.92187 0.59375,0.59375 0.85937,1.48438 0.26563,0.89062 0.26563,2.07812 l 0,8.59375 z m -2.32813,-5.8125 -1.98437,0 q -0.96875,0 -1.6875,0.17188 -0.70313,0.15625 -1.17188,0.46875 -0.45312,0.3125 -0.67187,0.76562 -0.21875,0.4375 -0.21875,1.03125 0,0.98438 0.625,1.57813 0.625,0.57812 1.76562,0.57812 0.92188,0 1.70313,-0.46875 0.78125,-0.46875 1.64062,-1.42187 l 0,-2.70313 z m 13.40772,4.875 q 0,0.40625 -0.0625,0.65625 -0.0469,0.23438 -0.17188,0.34375 -0.10937,0.10938 -0.34375,0.21875 -0.21875,0.0937 -0.51562,0.15625 -0.28125,0.0625 -0.60938,0.0937 -0.32812,0.0469 -0.65625,0.0469 -0.98437,0 -1.70312,-0.25 -0.70313,-0.26563 -1.15625,-0.79688 -0.45313,-0.53125 -0.65625,-1.34375 -0.20313,-0.8125 -0.20313,-1.92187 l 0,-7.45313 -1.78125,0 q -0.21875,0 -0.34375,-0.21875 -0.125,-0.23437 -0.125,-0.73437 0,-0.28125 0.0312,-0.45313 0.0312,-0.1875 0.0937,-0.3125 0.0625,-0.125 0.14063,-0.17187 0.0937,-0.0469 0.21875,-0.0469 l 1.76562,0 0,-3.03125 q 0,-0.0937 0.0469,-0.17187 0.0469,-0.0937 0.1875,-0.15625 0.14062,-0.0625 0.35937,-0.0937 0.23438,-0.0312 0.5625,-0.0312 0.35938,0 0.57813,0.0312 0.23437,0.0312 0.35937,0.0937 0.125,0.0625 0.1875,0.15625 0.0625,0.0781 0.0625,0.17187 l 0,3.03125 3.26563,0 q 0.10937,0 0.1875,0.0469 0.0937,0.0469 0.15625,0.17187 0.0625,0.125 0.0937,0.3125 0.0312,0.17188 0.0312,0.45313 0,0.5 -0.14063,0.73437 -0.125,0.21875 -0.32812,0.21875 l -3.26563,0 0,7.10938 q 0,1.32812 0.375,2 0.39063,0.67187 1.40625,0.67187 0.32813,0 0.57813,-0.0625 0.25,-0.0781 0.45312,-0.14062 0.20313,-0.0781 0.34375,-0.14063 0.14063,-0.0625 0.25,-0.0625 0.0625,0 0.125,0.0469 0.0781,0.0312 0.10938,0.125 0.0312,0.0937 0.0625,0.26562 0.0312,0.17188 0.0312,0.4375 z m 15.04248,-5.59375 q 0,1.5625 -0.40625,2.875 -0.40625,1.3125 -1.23438,2.26563 -0.8125,0.9375 -2.03125,1.46875 -1.21875,0.53125 -2.84375,0.53125 -1.5625,0 -2.73437,-0.46875 -1.17188,-0.46875 -1.95313,-1.35938 -0.76562,-0.89062 -1.15625,-2.15625 -0.375,-1.28125 -0.375,-2.89062 0,-1.5625 0.39063,-2.875 0.40625,-1.3125 1.21875,-2.25 0.8125,-0.95313 2.03125,-1.46875 1.21875,-0.53125 2.85937,-0.53125 1.5625,0 2.73438,0.46875 1.17187,0.46875 1.9375,1.35937 0.78125,0.89063 1.17187,2.17188 0.39063,1.26562 0.39063,2.85937 z m -2.45313,0.15625 q 0,-1.03125 -0.20312,-1.95312 -0.1875,-0.92188 -0.625,-1.60938 -0.4375,-0.6875 -1.1875,-1.09375 -0.75,-0.40625 -1.875,-0.40625 -1.03125,0 -1.78125,0.375 -0.73438,0.35938 -1.21875,1.03125 -0.48438,0.67188 -0.71875,1.59375 -0.23438,0.92188 -0.23438,2.01563 0,1.04687 0.1875,1.96875 0.20313,0.92187 0.64063,1.60937 0.45312,0.6875 1.20312,1.09375 0.75,0.39063 1.875,0.39063 1.01563,0 1.76563,-0.35938 0.75,-0.375 1.23437,-1.03125 0.48438,-0.67187 0.70313,-1.59375 0.23437,-0.92187 0.23437,-2.03125 z m 13.51288,-5.54687 q 0,0.3125 -0.0156,0.53125 0,0.20312 -0.0469,0.32812 -0.0469,0.125 -0.10938,0.1875 -0.0625,0.0625 -0.17187,0.0625 -0.125,0 -0.28125,-0.0625 -0.15625,-0.0625 -0.375,-0.125 -0.20313,-0.0625 -0.45313,-0.125 -0.25,-0.0625 -0.54687,-0.0625 -0.35938,0 -0.70313,0.14063 -0.32812,0.14062 -0.71875,0.46875 -0.375,0.32812 -0.78125,0.875 -0.40625,0.53125 -0.90625,1.3125 l 0,8.375 q 0,0.125 -0.0625,0.20312 -0.0469,0.0781 -0.17187,0.14063 -0.125,0.0469 -0.35938,0.0625 -0.21875,0.0312 -0.57812,0.0312 -0.34375,0 -0.57813,-0.0312 -0.21875,-0.0156 -0.35937,-0.0625 -0.125,-0.0625 -0.17188,-0.14063 -0.0469,-0.0781 -0.0469,-0.20312 l 0,-12.73438 q 0,-0.125 0.0312,-0.20312 0.0469,-0.0781 0.17187,-0.14063 0.125,-0.0625 0.32813,-0.0781 0.20312,-0.0156 0.53125,-0.0156 0.3125,0 0.51562,0.0156 0.20313,0.0156 0.3125,0.0781 0.10938,0.0625 0.15625,0.14063 0.0625,0.0781 0.0625,0.20312 l 0,1.84375 q 0.51563,-0.76562 0.96875,-1.23437 0.46875,-0.48438 0.875,-0.75 0.42188,-0.28125 0.8125,-0.39063 0.40625,-0.10937 0.82813,-0.10937 0.17187,0 0.40625,0.0312 0.23437,0.0156 0.48437,0.0781 0.26563,0.0469 0.46875,0.125 0.20313,0.0625 0.28125,0.14063 0.0937,0.0625 0.125,0.125 0.0312,0.0625 0.0469,0.17187 0.0156,0.0937 0.0156,0.28125 0.0156,0.1875 0.0156,0.51563 z" />
  <path
     style="fill-rule:nonzero;stroke:#000000;stroke-width:1.91927087;stroke-linecap:butt"
     inkscape:connector-curvature="0"
     id="path155"
     d="m 715.3659,493.70734 131.948,0" />
  <path
     style="fill:#000000;fill-opacity:0;fill-rule:nonzero"
     inkscape:connector-curvature="0"
     id="path157"
     d="m 720.77954,418.6929 c 0,9.45071 15.14172,14.17703 30.28345,18.90143 15.14172,4.72439 30.28344,9.44693 30.28344,18.89386" />
  <path
     style="fill-rule:evenodd;stroke:#535353;stroke-width:2;stroke-linecap:butt;stroke-linejoin:round"
     inkscape:connector-curvature="0"
     id="path159"
     d="m 720.77954,418.6929 c 0,9.45071 15.14172,14.177 30.28345,18.90143 7.57086,2.36221 15.14172,4.72391 20.81988,7.67596 0.70984,0.36902 1.38996,0.74726 2.03693,1.13587 0.16174,0.0972 0.32135,0.19494 0.47882,0.29339 l 0.003,0.002" />
  <path
     style="fill:#535353;fill-rule:evenodd;stroke:#535353;stroke-width:2;stroke-linecap:butt"
     inkscape:connector-curvature="0"
     id="path161"
     d="m 771.70795,448.61343 7.94647,5.49027 -2.55829,-9.3137 z" />
  <path
     style="fill:#000000;fill-opacity:0;fill-rule:nonzero"
     inkscape:connector-curvature="0"
     id="path163"
     d="m 692.0171,479.7244 c -152.36224,0 -304.72443,20.14175 -304.72443,40.28348" />
  <path
     style="fill-rule:evenodd;stroke:#980000;stroke-width:2;stroke-linecap:butt;stroke-linejoin:round"
     inkscape:connector-curvature="0"
     id="path165"
     d="m 692.0171,479.7244 c -76.18115,0 -152.36224,5.03546 -209.49805,12.58859 -28.56793,3.77658 -52.37451,8.18259 -69.03912,12.90329 -4.1662,1.18021 -7.88596,2.38007 -11.12213,3.59464 -1.61813,0.6073 -3.11533,1.21829 -4.487,1.83236 -0.68582,0.30701 -1.34027,0.61484 -1.96277,0.92331 l -0.0577,0.029" />
  <path
     style="fill:#980000;fill-rule:evenodd;stroke:#980000;stroke-width:2;stroke-linecap:butt"
     inkscape:connector-curvature="0"
     id="path167"
     d="m 393.5345,509.23975 -4.15677,8.71845 8.78839,-4.00678 z" />
  <path
     style="fill:#000000;fill-opacity:0;fill-rule:nonzero"
     inkscape:connector-curvature="0"
     id="path169"
     d="m 597.8373,447.24146 34.99213,0 0,52.53546 -34.99213,0 z" />
  <path
     style="fill:#980000;fill-rule:nonzero"
     inkscape:connector-curvature="0"
     id="path171"
     d="m 638.0873,468.86023 q 0.3125,0.15625 0.3125,0.625 0,0.46875 -0.15625,0.625 -3.28125,4.0625 -7.65625,10 2.96875,5.9375 4.53125,9.0625 -0.15625,0.3125 -0.625,0.46875 l 0,0.3125 q -0.15625,0.3125 -0.78125,0.625 0.46875,0.78125 0,0.9375 -0.46875,0.3125 -0.625,0.46875 -0.625,0.3125 -1.25,-0.46875 -2.34375,-3.125 -4.53125,-7.03125 -4.0625,6.09375 -7.1875,11.25 -0.78125,1.25 -1.09375,1.40625 -0.46875,0.3125 -1.40625,0.15625 -0.78125,0.15625 -0.9375,-0.3125 -0.15625,-0.3125 -0.46875,-0.9375 -0.3125,-0.3125 -0.3125,-0.78125 0.15625,-0.46875 0.3125,-1.09375 l -0.46875,-0.78125 q 1.875,-3.59375 9.375,-13.28125 -2.1875,-4.53125 -3.75,-9.21875 0,-0.46875 0.78125,-1.09375 0.46875,-0.46875 0.78125,-0.15625 0.15625,0.3125 0.625,0.15625 0.46875,-0.15625 0.625,-0.46875 0.15625,-0.15625 0.46875,-0.15625 0.46875,0.15625 0.625,0.46875 0.78125,1.875 3.125,6.25 3.125,-3.59375 6.25,-7.5 0.15625,-0.3125 0.46875,-0.3125 0.46875,0 0.9375,0.46875 0.46875,0.46875 0.625,0.15625 0.3125,-0.15625 0.46875,-0.3125 0.3125,-0.3125 0.3125,-0.15625 0.15625,0.3125 0.625,0.625 z" />
</svg>
