<?xml version="1.0" standalone="yes"?>

<svg version="1.1" viewBox="0.0 0.0 960.0 720.0" fill="none" stroke="none" stroke-linecap="square" stroke-miterlimit="10" xmlns="http://www.w3.org/2000/svg" xmlns:xlink="http://www.w3.org/1999/xlink"><clipPath id="p.0"><path d="m0 0l960.0 0l0 720.0l-960.0 0l0 -720.0z" clip-rule="nonzero"></path></clipPath><g clip-path="url(#p.0)"><path fill="#000000" fill-opacity="0.0" d="m0 0l960.0 0l0 720.0l-960.0 0z" fill-rule="nonzero"></path><path fill="#000000" fill-opacity="0.0" d="m48.0 355.84933l864.0 0l0 336.40945l-864.0 0z" fill-rule="nonzero"></path><path stroke="#535353" stroke-width="2.0" stroke-linejoin="round" stroke-linecap="butt" stroke-dasharray="8.0,6.0" d="m48.0 355.84933l864.0 0l0 336.40945l-864.0 0z" fill-rule="nonzero"></path><path fill="#ffffff" d="m394.8399 336.59097l141.13385 0l0 46.456696l-141.13385 0z" fill-rule="nonzero"></path><path stroke="#535353" stroke-width="2.0" stroke-linejoin="round" stroke-linecap="butt" d="m394.8399 336.59097l141.13385 0l0 46.456696l-141.13385 0z" fill-rule="nonzero"></path><path fill="#000000" d="m449.52594 358.2137q0 0.3125 -0.015625 0.53125q0 0.203125 -0.046875 0.328125q-0.046875 0.125 -0.109375 0.1875q-0.0625 0.0625 -0.171875 0.0625q-0.125 0 -0.28125 -0.0625q-0.15625 -0.0625 -0.375 -0.125q-0.203125 -0.0625 -0.453125 -0.125q-0.25 -0.0625 -0.546875 -0.0625q-0.359375 0 -0.703125 0.140625q-0.328125 0.140625 -0.71875 0.46875q-0.375 0.328125 -0.78125 0.875q-0.40625 0.53125 -0.90625 1.3125l0 8.375q0 0.125 -0.0625 0.203125q-0.046875 0.078125 -0.171875 0.140625q-0.125 0.046875 -0.359375 0.0625q-0.21875 0.03125 -0.578125 0.03125q-0.34375 0 -0.578125 -0.03125q-0.21875 -0.015625 -0.359375 -0.0625q-0.125 -0.0625 -0.171875 -0.140625q-0.046875 -0.078125 -0.046875 -0.203125l0 -12.734375q0 -0.125 0.03125 -0.203125q0.046875 -0.078125 0.171875 -0.140625q0.125 -0.0625 0.328125 -0.078125q0.203125 -0.015625 0.53125 -0.015625q0.3125 0 0.515625 0.015625q0.203125 0.015625 0.3125 0.078125q0.109375 0.0625 0.15625 0.140625q0.0625 0.078125 0.0625 0.203125l0 1.84375q0.515625 -0.765625 0.96875 -1.234375q0.46875 -0.484375 0.875 -0.75q0.421875 -0.28125 0.8125 -0.390625q0.40625 -0.109375 0.828125 -0.109375q0.171875 0 0.40625 0.03125q0.234375 0.015625 0.484375 0.078125q0.265625 0.046875 0.46875 0.125q0.203125 0.0625 0.28125 0.140625q0.09375 0.0625 0.125 0.125q0.03125 0.0625 0.046875 0.171875q0.015625 0.09375 0.015625 0.28125q0.015625 0.1875 0.015625 0.515625zm14.630981 5.390625q0 1.5625 -0.40625 2.875q-0.40625 1.3125 -1.234375 2.265625q-0.8125 0.9375 -2.03125 1.46875q-1.21875 0.53125 -2.84375 0.53125q-1.5625 0 -2.734375 -0.46875q-1.171875 -0.46875 -1.953125 -1.359375q-0.765625 -0.890625 -1.15625 -2.15625q-0.375 -1.28125 -0.375 -2.890625q0 -1.5625 0.390625 -2.875q0.40625 -1.3125 1.21875 -2.25q0.8125 -0.953125 2.03125 -1.46875q1.21875 -0.53125 2.859375 -0.53125q1.5625 0 2.734375 0.46875q1.171875 0.46875 1.9375 1.359375q0.78125 0.890625 1.171875 2.171875q0.390625 1.265625 0.390625 2.859375zm-2.453125 0.15625q0 -1.03125 -0.203125 -1.953125q-0.1875 -0.921875 -0.625 -1.609375q-0.4375 -0.6875 -1.1875 -1.09375q-0.75 -0.40625 -1.875 -0.40625q-1.03125 0 -1.78125 0.375q-0.734375 0.359375 -1.21875 1.03125q-0.484375 0.671875 -0.71875 1.59375q-0.234375 0.921875 -0.234375 2.015625q0 1.046875 0.1875 1.96875q0.203125 0.921875 0.640625 1.609375q0.453125 0.6875 1.203125 1.09375q0.75 0.390625 1.875 0.390625q1.015625 0 1.765625 -0.359375q0.75 -0.375 1.234375 -1.03125q0.484375 -0.671875 0.703125 -1.59375q0.234375 -0.921875 0.234375 -2.03125zm17.919128 -0.15625q0 1.5625 -0.40625 2.875q-0.40625 1.3125 -1.234375 2.265625q-0.8125 0.9375 -2.03125 1.46875q-1.21875 0.53125 -2.84375 0.53125q-1.5625 0 -2.734375 -0.46875q-1.171875 -0.46875 -1.953125 -1.359375q-0.765625 -0.890625 -1.15625 -2.15625q-0.375 -1.28125 -0.375 -2.890625q0 -1.5625 0.390625 -2.875q0.40625 -1.3125 1.21875 -2.25q0.8125 -0.953125 2.03125 -1.46875q1.21875 -0.53125 2.859375 -0.53125q1.5625 0 2.734375 0.46875q1.171875 0.46875 1.9375 1.359375q0.78125 0.890625 1.171875 2.171875q0.390625 1.265625 0.390625 2.859375zm-2.453125 0.15625q0 -1.03125 -0.203125 -1.953125q-0.1875 -0.921875 -0.625 -1.609375q-0.4375 -0.6875 -1.1875 -1.09375q-0.75 -0.40625 -1.875 -0.40625q-1.03125 0 -1.78125 0.375q-0.734375 0.359375 -1.21875 1.03125q-0.484375 0.671875 -0.71875 1.59375q-0.234375 0.921875 -0.234375 2.015625q0 1.046875 0.1875 1.96875q0.203125 0.921875 0.640625 1.609375q0.453125 0.6875 1.203125 1.09375q0.75 0.390625 1.875 0.390625q1.015625 0 1.765625 -0.359375q0.75 -0.375 1.234375 -1.03125q0.484375 -0.671875 0.703125 -1.59375q0.234375 -0.921875 0.234375 -2.03125zm12.700378 5.4375q0 0.40625 -0.0625 0.65625q-0.046875 0.234375 -0.171875 0.34375q-0.109375 0.109375 -0.34375 0.21875q-0.21875 0.09375 -0.515625 0.15625q-0.28125 0.0625 -0.609375 0.09375q-0.328125 0.046875 -0.65625 0.046875q-0.984375 0 -1.703125 -0.25q-0.703125 -0.265625 -1.15625 -0.796875q-0.453125 -0.53125 -0.65625 -1.34375q-0.203125 -0.8125 -0.203125 -1.921875l0 -7.453125l-1.78125 0q-0.21875 0 -0.34375 -0.21875q-0.125 -0.234375 -0.125 -0.734375q0 -0.28125 0.03125 -0.453125q0.03125 -0.1875 0.09375 -0.3125q0.0625 -0.125 0.140625 -0.171875q0.09375 -0.046875 0.21875 -0.046875l1.765625 0l0 -3.03125q0 -0.09375 0.046875 -0.171875q0.046875 -0.09375 0.1875 -0.15625q0.140625 -0.0625 0.359375 -0.09375q0.234375 -0.03125 0.5625 -0.03125q0.359375 0 0.578125 0.03125q0.234375 0.03125 0.359375 0.09375q0.125 0.0625 0.1875 0.15625q0.0625 0.078125 0.0625 0.171875l0 3.03125l3.265625 0q0.109375 0 0.1875 0.046875q0.09375 0.046875 0.15625 0.171875q0.0625 0.125 0.09375 0.3125q0.03125 0.171875 0.03125 0.453125q0 0.5 -0.140625 0.734375q-0.125 0.21875 -0.328125 0.21875l-3.265625 0l0 7.109375q0 1.328125 0.375 2.0q0.390625 0.671875 1.40625 0.671875q0.328125 0 0.578125 -0.0625q0.25 -0.078125 0.453125 -0.140625q0.203125 -0.078125 0.34375 -0.140625q0.140625 -0.0625 0.25 -0.0625q0.0625 0 0.125 0.046875q0.078125 0.03125 0.109375 0.125q0.03125 0.09375 0.0625 0.265625q0.03125 0.171875 0.03125 0.4375z" fill-rule="nonzero"></path><path fill="#ffffff" d="m151.86351 551.105l178.64568 0l0 46.456726l-178.64568 0z" fill-rule="nonzero"></path><path stroke="#535353" stroke-width="2.0" stroke-linejoin="round" stroke-linecap="butt" d="m151.86351 551.105l178.64568 0l0 46.456726l-178.64568 0z" fill-rule="nonzero"></path><path fill="#000000" d="m213.6785 583.99335q0 0.25 -0.03125 0.4375q-0.015625 0.1875 -0.09375 0.328125q-0.0625 0.125 -0.15625 0.1875q-0.09375 0.046875 -0.203125 0.046875l-8.796875 0q-0.328125 0 -0.625 -0.21875q-0.28125 -0.21875 -0.28125 -0.765625l0 -16.34375q0 -0.5625 0.28125 -0.78125q0.296875 -0.21875 0.625 -0.21875l8.6875 0q0.125 0 0.203125 0.0625q0.09375 0.0625 0.15625 0.1875q0.0625 0.125 0.09375 0.3125q0.03125 0.1875 0.03125 0.46875q0 0.265625 -0.03125 0.453125q-0.03125 0.1875 -0.09375 0.3125q-0.0625 0.125 -0.15625 0.1875q-0.078125 0.046875 -0.203125 0.046875l-7.15625 0l0 5.75l6.140625 0q0.109375 0 0.203125 0.0625q0.09375 0.0625 0.15625 0.171875q0.0625 0.109375 0.09375 0.3125q0.03125 0.203125 0.03125 0.46875q0 0.25 -0.03125 0.4375q-0.03125 0.1875 -0.09375 0.296875q-0.0625 0.109375 -0.15625 0.171875q-0.09375 0.046875 -0.203125 0.046875l-6.140625 0l0 6.546875l7.265625 0q0.109375 0 0.203125 0.0625q0.09375 0.0625 0.15625 0.1875q0.078125 0.109375 0.09375 0.3125q0.03125 0.1875 0.03125 0.46875zm14.835999 0.640625q0 0.125 -0.0625 0.203125q-0.046875 0.078125 -0.1875 0.140625q-0.125 0.046875 -0.359375 0.0625q-0.21875 0.03125 -0.546875 0.03125q-0.359375 0 -0.59375 -0.03125q-0.21875 -0.015625 -0.34375 -0.0625q-0.125 -0.0625 -0.1875 -0.140625q-0.0625 -0.078125 -0.0625 -0.203125l0 -7.453125q0 -1.09375 -0.171875 -1.75q-0.15625 -0.671875 -0.484375 -1.15625q-0.328125 -0.484375 -0.84375 -0.734375q-0.515625 -0.25 -1.203125 -0.25q-0.875 0 -1.75 0.625q-0.875 0.609375 -1.84375 1.8125l0 8.90625q0 0.125 -0.0625 0.203125q-0.046875 0.078125 -0.171875 0.140625q-0.125 0.046875 -0.359375 0.0625q-0.21875 0.03125 -0.578125 0.03125q-0.34375 0 -0.578125 -0.03125q-0.21875 -0.015625 -0.359375 -0.0625q-0.125 -0.0625 -0.171875 -0.140625q-0.046875 -0.078125 -0.046875 -0.203125l0 -12.734375q0 -0.125 0.03125 -0.203125q0.046875 -0.078125 0.171875 -0.140625q0.125 -0.0625 0.328125 -0.078125q0.203125 -0.015625 0.53125 -0.015625q0.3125 0 0.515625 0.015625q0.203125 0.015625 0.3125 0.078125q0.109375 0.0625 0.15625 0.140625q0.0625 0.078125 0.0625 0.203125l0 1.6875q1.078125 -1.203125 2.140625 -1.765625q1.0625 -0.5625 2.15625 -0.5625q1.28125 0 2.140625 0.4375q0.875 0.421875 1.40625 1.15625q0.546875 0.71875 0.78125 1.6875q0.234375 0.96875 0.234375 2.328125l0 7.765625zm15.080597 -12.15625q0 0.5 -0.140625 0.71875q-0.125 0.21875 -0.34375 0.21875l-1.828125 0q0.5 0.5 0.703125 1.125q0.203125 0.609375 0.203125 1.28125q0 1.09375 -0.359375 1.953125q-0.359375 0.84375 -1.015625 1.4375q-0.65625 0.578125 -1.5625 0.890625q-0.90625 0.3125 -2.015625 0.3125q-0.78125 0 -1.484375 -0.203125q-0.6875 -0.203125 -1.078125 -0.515625q-0.25 0.25 -0.421875 0.578125q-0.15625 0.328125 -0.15625 0.75q0 0.5 0.453125 0.828125q0.46875 0.328125 1.234375 0.34375l3.328125 0.15625q0.953125 0.015625 1.734375 0.25q0.796875 0.234375 1.375 0.671875q0.578125 0.4375 0.90625 1.0625q0.328125 0.625 0.328125 1.46875q0 0.875 -0.375 1.65625q-0.359375 0.796875 -1.125 1.390625q-0.75 0.609375 -1.921875 0.953125q-1.171875 0.359375 -2.78125 0.359375q-1.546875 0 -2.625 -0.265625q-1.078125 -0.265625 -1.78125 -0.71875q-0.6875 -0.453125 -1.0 -1.078125q-0.3125 -0.625 -0.3125 -1.375q0 -0.453125 0.109375 -0.90625q0.125 -0.4375 0.34375 -0.828125q0.234375 -0.390625 0.578125 -0.75q0.359375 -0.375 0.8125 -0.71875q-0.703125 -0.359375 -1.03125 -0.890625q-0.328125 -0.546875 -0.328125 -1.171875q0 -0.859375 0.34375 -1.53125q0.359375 -0.6875 0.890625 -1.21875q-0.4375 -0.53125 -0.703125 -1.1875q-0.25 -0.65625 -0.25 -1.59375q0 -1.09375 0.359375 -1.953125q0.375 -0.859375 1.015625 -1.453125q0.65625 -0.59375 1.5625 -0.90625q0.921875 -0.328125 2.0 -0.328125q0.578125 0 1.078125 0.0625q0.515625 0.0625 0.953125 0.171875l3.84375 0q0.25 0 0.359375 0.234375q0.125 0.234375 0.125 0.71875zm-3.65625 3.359375q0 -1.3125 -0.71875 -2.03125q-0.703125 -0.734375 -2.015625 -0.734375q-0.6875 0 -1.1875 0.234375q-0.5 0.21875 -0.84375 0.625q-0.328125 0.390625 -0.5 0.90625q-0.15625 0.515625 -0.15625 1.078125q0 1.265625 0.71875 1.984375q0.71875 0.71875 2.0 0.71875q0.703125 0 1.203125 -0.21875q0.515625 -0.21875 0.84375 -0.609375q0.34375 -0.390625 0.5 -0.890625q0.15625 -0.515625 0.15625 -1.0625zm1.1875 10.09375q0 -0.828125 -0.6875 -1.265625q-0.671875 -0.453125 -1.8125 -0.484375l-3.296875 -0.109375q-0.453125 0.359375 -0.75 0.6875q-0.28125 0.3125 -0.453125 0.59375q-0.171875 0.296875 -0.234375 0.578125q-0.0625 0.28125 -0.0625 0.578125q0 0.921875 0.921875 1.390625q0.9375 0.484375 2.609375 0.484375q1.0625 0 1.78125 -0.21875q0.71875 -0.203125 1.15625 -0.546875q0.4375 -0.328125 0.625 -0.765625q0.203125 -0.4375 0.203125 -0.921875zm7.96109 -1.296875q0 0.125 -0.0625 0.203125q-0.046875 0.078125 -0.171875 0.140625q-0.125 0.046875 -0.359375 0.0625q-0.21875 0.03125 -0.578125 0.03125q-0.34375 0 -0.578125 -0.03125q-0.21875 -0.015625 -0.359375 -0.0625q-0.125 -0.0625 -0.171875 -0.140625q-0.046875 -0.078125 -0.046875 -0.203125l0 -12.734375q0 -0.109375 0.046875 -0.1875q0.046875 -0.09375 0.171875 -0.140625q0.140625 -0.0625 0.359375 -0.078125q0.234375 -0.03125 0.578125 -0.03125q0.359375 0 0.578125 0.03125q0.234375 0.015625 0.359375 0.078125q0.125 0.046875 0.171875 0.140625q0.0625 0.078125 0.0625 0.1875l0 12.734375zm0.265625 -17.046875q0 0.828125 -0.3125 1.125q-0.296875 0.296875 -1.140625 0.296875q-0.8125 0 -1.125 -0.28125q-0.296875 -0.296875 -0.296875 -1.109375q0 -0.828125 0.296875 -1.125q0.3125 -0.296875 1.15625 -0.296875q0.8125 0 1.109375 0.296875q0.3125 0.296875 0.3125 1.09375zm15.105591 17.046875q0 0.125 -0.0625 0.203125q-0.046875 0.078125 -0.1875 0.140625q-0.125 0.046875 -0.359375 0.0625q-0.21875 0.03125 -0.546875 0.03125q-0.359375 0 -0.59375 -0.03125q-0.21875 -0.015625 -0.34375 -0.0625q-0.125 -0.0625 -0.1875 -0.140625q-0.0625 -0.078125 -0.0625 -0.203125l0 -7.453125q0 -1.09375 -0.171875 -1.75q-0.15625 -0.671875 -0.484375 -1.15625q-0.328125 -0.484375 -0.84375 -0.734375q-0.515625 -0.25 -1.203125 -0.25q-0.875 0 -1.75 0.625q-0.875 0.609375 -1.8437653 1.8125l0 8.90625q0 0.125 -0.0625 0.203125q-0.046875 0.078125 -0.171875 0.140625q-0.125 0.046875 -0.359375 0.0625q-0.21875 0.03125 -0.578125 0.03125q-0.34375 0 -0.578125 -0.03125q-0.21875 -0.015625 -0.359375 -0.0625q-0.125 -0.0625 -0.171875 -0.140625q-0.046875 -0.078125 -0.046875 -0.203125l0 -12.734375q0 -0.125 0.03125 -0.203125q0.046875 -0.078125 0.171875 -0.140625q0.125 -0.0625 0.328125 -0.078125q0.203125 -0.015625 0.53125 -0.015625q0.3125 0 0.515625 0.015625q0.203125 0.015625 0.3125 0.078125q0.109375 0.0625 0.15625 0.140625q0.0625 0.078125 0.0625 0.203125l0 1.6875q1.0781403 -1.203125 2.1406403 -1.765625q1.0625 -0.5625 2.15625 -0.5625q1.28125 0 2.140625 0.4375q0.875 0.421875 1.40625 1.15625q0.546875 0.71875 0.78125 1.6875q0.234375 0.96875 0.234375 2.328125l0 7.765625zm15.314972 -6.921875q0 0.5625 -0.28125 0.796875q-0.28125 0.21875 -0.625 0.21875l-8.359375 0q0 1.0625 0.203125 1.921875q0.21875 0.84375 0.71875 1.453125q0.5 0.609375 1.28125 0.9375q0.796875 0.328125 1.953125 0.328125q0.90625 0 1.609375 -0.140625q0.703125 -0.15625 1.21875 -0.34375q0.515625 -0.1875 0.84375 -0.328125q0.34375 -0.15625 0.515625 -0.15625q0.09375 0 0.171875 0.046875q0.078125 0.046875 0.125 0.15625q0.046875 0.09375 0.0625 0.28125q0.015625 0.171875 0.015625 0.421875q0 0.1875 -0.015625 0.328125q-0.015625 0.125 -0.03125 0.234375q-0.015625 0.109375 -0.078125 0.203125q-0.046875 0.078125 -0.125 0.15625q-0.078125 0.078125 -0.46875 0.25q-0.375 0.171875 -0.984375 0.34375q-0.59375 0.171875 -1.40625 0.296875q-0.796875 0.140625 -1.703125 0.140625q-1.5625 0 -2.75 -0.4375q-1.1875 -0.4375 -2.0 -1.296875q-0.796875 -0.875 -1.21875 -2.171875q-0.40625 -1.296875 -0.40625 -3.03125q0 -1.640625 0.421875 -2.953125q0.4375 -1.3125 1.234375 -2.21875q0.796875 -0.921875 1.921875 -1.40625q1.140625 -0.484375 2.546875 -0.484375q1.5 0 2.546875 0.484375q1.0625 0.484375 1.734375 1.296875q0.6875 0.8125 1.0 1.90625q0.328125 1.09375 0.328125 2.34375l0 0.421875zm-2.359375 -0.6875q0.046875 -1.84375 -0.8125 -2.890625q-0.859375 -1.046875 -2.546875 -1.046875q-0.859375 0 -1.515625 0.328125q-0.640625 0.328125 -1.078125 0.859375q-0.4375 0.53125 -0.6875 1.25q-0.234375 0.71875 -0.265625 1.5l6.90625 0z" fill-rule="nonzero"></path><path stroke="#000000" stroke-width="1.9192708730697632" stroke-linecap="butt" d="m201.0535 588.3162l80.26572 0" fill-rule="nonzero"></path><path fill="#d9d9d9" d="m94.698166 456.49606l775.9685 0l0 214.29922l-775.9685 0z" fill-rule="nonzero"></path><path stroke="#535353" stroke-width="2.0" stroke-linejoin="round" stroke-linecap="butt" stroke-dasharray="8.0,6.0" d="m94.698166 456.49606l775.9685 0l0 214.29922l-775.9685 0z" fill-rule="nonzero"></path><path fill="#ffffff" d="m151.86351 429.69815l178.64568 0l0 46.456696l-178.64568 0z" fill-rule="nonzero"></path><path stroke="#535353" stroke-width="2.0" stroke-linejoin="round" stroke-linecap="butt" d="m151.86351 429.69815l178.64568 0l0 46.456696l-178.64568 0z" fill-rule="nonzero"></path><path fill="#000000" d="m232.94644 462.52402q0 0.28125 -0.03125 0.484375q-0.03125 0.1875 -0.09375 0.328125q-0.0625 0.125 -0.15625 0.1875q-0.09375 0.0625 -0.21875 0.0625l-8.09375 0q-0.328125 0 -0.625 -0.21875q-0.28125 -0.21875 -0.28125 -0.765625l0 -16.96875q0 -0.109375 0.046875 -0.1875q0.0625 -0.09375 0.203125 -0.140625q0.140625 -0.0625 0.375 -0.09375q0.25 -0.03125 0.59375 -0.03125q0.34375 0 0.578125 0.03125q0.234375 0.03125 0.375 0.09375q0.15625 0.046875 0.203125 0.140625q0.0625 0.078125 0.0625 0.1875l0 15.84375l6.5625 0q0.125 0 0.21875 0.0625q0.09375 0.0625 0.15625 0.1875q0.0625 0.125 0.09375 0.328125q0.03125 0.1875 0.03125 0.46875zm4.8923492 0.703125q0 0.125 -0.0625 0.203125q-0.046875 0.078125 -0.171875 0.140625q-0.125 0.046875 -0.359375 0.0625q-0.21875 0.03125 -0.578125 0.03125q-0.34375 0 -0.578125 -0.03125q-0.21875 -0.015625 -0.359375 -0.0625q-0.125 -0.0625 -0.171875 -0.140625q-0.046875 -0.078125 -0.046875 -0.203125l0 -12.734375q0 -0.109375 0.046875 -0.1875q0.046875 -0.09375 0.171875 -0.140625q0.140625 -0.0625 0.359375 -0.078125q0.234375 -0.03125 0.578125 -0.03125q0.359375 0 0.578125 0.03125q0.234375 0.015625 0.359375 0.078125q0.125 0.046875 0.171875 0.140625q0.0625 0.078125 0.0625 0.1875l0 12.734375zm0.265625 -17.046875q0 0.828125 -0.3125 1.125q-0.296875 0.296875 -1.140625 0.296875q-0.8125 0 -1.125 -0.28125q-0.296875 -0.296875 -0.296875 -1.109375q0 -0.828125 0.296875 -1.125q0.3125 -0.296875 1.15625 -0.296875q0.8125 0 1.109375 0.296875q0.3125 0.296875 0.3125 1.09375zm12.136826 13.578125q0 0.984375 -0.375 1.75q-0.359375 0.765625 -1.03125 1.296875q-0.65625 0.515625 -1.578125 0.78125q-0.921875 0.265625 -2.015625 0.265625q-0.6875 0 -1.3125 -0.109375q-0.609375 -0.09375 -1.09375 -0.25q-0.484375 -0.171875 -0.828125 -0.34375q-0.34375 -0.1875 -0.5 -0.328125q-0.15625 -0.140625 -0.234375 -0.390625q-0.0625 -0.265625 -0.0625 -0.703125q0 -0.265625 0.03125 -0.453125q0.03125 -0.1875 0.0625 -0.296875q0.046875 -0.109375 0.125 -0.15625q0.078125 -0.046875 0.1875 -0.046875q0.15625 0 0.453125 0.1875q0.3125 0.1875 0.75 0.421875q0.453125 0.21875 1.0625 0.421875q0.609375 0.1875 1.40625 0.1875q0.59375 0 1.0625 -0.125q0.484375 -0.140625 0.84375 -0.375q0.359375 -0.25 0.546875 -0.625q0.1875 -0.390625 0.1875 -0.921875q0 -0.53125 -0.28125 -0.890625q-0.265625 -0.375 -0.71875 -0.65625q-0.453125 -0.296875 -1.03125 -0.515625q-0.5625 -0.21875 -1.171875 -0.453125q-0.59375 -0.25 -1.171875 -0.546875q-0.5625 -0.3125 -1.015625 -0.75q-0.453125 -0.4375 -0.734375 -1.046875q-0.28125 -0.609375 -0.28125 -1.453125q0 -0.75 0.296875 -1.4375q0.296875 -0.6875 0.875 -1.203125q0.578125 -0.515625 1.4375 -0.828125q0.875 -0.3125 2.046875 -0.3125q0.5 0 1.0 0.09375q0.515625 0.078125 0.921875 0.203125q0.421875 0.125 0.703125 0.28125q0.296875 0.140625 0.4375 0.265625q0.15625 0.109375 0.203125 0.203125q0.0625 0.078125 0.078125 0.1875q0.015625 0.09375 0.03125 0.25q0.03125 0.15625 0.03125 0.390625q0 0.234375 -0.03125 0.421875q-0.015625 0.171875 -0.0625 0.28125q-0.046875 0.109375 -0.125 0.15625q-0.0625 0.046875 -0.15625 0.046875q-0.125 0 -0.375 -0.140625q-0.234375 -0.15625 -0.609375 -0.328125q-0.375 -0.1875 -0.90625 -0.34375q-0.515625 -0.15625 -1.171875 -0.15625q-0.59375 0 -1.046875 0.140625q-0.453125 0.125 -0.75 0.375q-0.28125 0.25 -0.4375 0.59375q-0.140625 0.328125 -0.140625 0.734375q0 0.546875 0.28125 0.921875q0.28125 0.375 0.734375 0.65625q0.453125 0.28125 1.03125 0.515625q0.578125 0.21875 1.171875 0.46875q0.609375 0.234375 1.1875 0.53125q0.59375 0.296875 1.046875 0.734375q0.453125 0.421875 0.734375 1.015625q0.28125 0.59375 0.28125 1.40625zm10.095612 2.546875q0 0.40625 -0.0625 0.65625q-0.046875 0.234375 -0.171875 0.34375q-0.109375 0.109375 -0.34375 0.21875q-0.21875 0.09375 -0.515625 0.15625q-0.28125 0.0625 -0.609375 0.09375q-0.328125 0.046875 -0.65625 0.046875q-0.984375 0 -1.703125 -0.25q-0.70310974 -0.265625 -1.1562347 -0.796875q-0.453125 -0.53125 -0.65625 -1.34375q-0.203125 -0.8125 -0.203125 -1.921875l0 -7.453125l-1.78125 0q-0.21875 0 -0.34375 -0.21875q-0.125 -0.234375 -0.125 -0.734375q0 -0.28125 0.03125 -0.453125q0.03125 -0.1875 0.09375 -0.3125q0.0625 -0.125 0.140625 -0.171875q0.09375 -0.046875 0.21875 -0.046875l1.765625 0l0 -3.03125q0 -0.09375 0.046875 -0.171875q0.046875 -0.09375 0.1875 -0.15625q0.140625 -0.0625 0.359375 -0.09375q0.234375 -0.03125 0.5625 -0.03125q0.359375 0 0.578125 0.03125q0.23435974 0.03125 0.35935974 0.09375q0.125 0.0625 0.1875 0.15625q0.0625 0.078125 0.0625 0.171875l0 3.03125l3.265625 0q0.109375 0 0.1875 0.046875q0.09375 0.046875 0.15625 0.171875q0.0625 0.125 0.09375 0.3125q0.03125 0.171875 0.03125 0.453125q0 0.5 -0.140625 0.734375q-0.125 0.21875 -0.328125 0.21875l-3.265625 0l0 7.109375q0 1.328125 0.375 2.0q0.390625 0.671875 1.40625 0.671875q0.328125 0 0.578125 -0.0625q0.25 -0.078125 0.453125 -0.140625q0.203125 -0.078125 0.34375 -0.140625q0.140625 -0.0625 0.25 -0.0625q0.0625 0 0.125 0.046875q0.078125 0.03125 0.109375 0.125q0.03125 0.09375 0.0625 0.265625q0.03125 0.171875 0.03125 0.4375z" fill-rule="nonzero"></path><path stroke="#000000" stroke-width="1.9192708730697632" stroke-linecap="butt" d="m221.00894 466.90942l40.354828 0" fill-rule="nonzero"></path><path fill="#ffffff" d="m146.66667 520.0l88.34645 0l0 46.456665l-88.34645 0z" fill-rule="nonzero"></path><path stroke="#535353" stroke-width="2.0" stroke-linejoin="round" stroke-linecap="butt" d="m146.66667 520.0l88.34645 0l0 46.456665l-88.34645 0z" fill-rule="nonzero"></path><path fill="#000000" d="m178.87668 552.82587q0 0.28125 -0.03125 0.484375q-0.03125 0.1875 -0.09375 0.328125q-0.0625 0.125 -0.15625 0.1875q-0.09375 0.0625 -0.21875 0.0625l-8.09375 0q-0.328125 0 -0.625 -0.21875q-0.28125 -0.21875 -0.28125 -0.765625l0 -16.96875q0 -0.109375 0.046875 -0.1875q0.0625 -0.09375 0.203125 -0.140625q0.140625 -0.0625 0.375 -0.09375q0.25 -0.03125 0.59375 -0.03125q0.34375 0 0.578125 0.03125q0.234375 0.03125 0.375 0.09375q0.15625 0.046875 0.203125 0.140625q0.0625 0.078125 0.0625 0.1875l0 15.84375l6.5625 0q0.125 0 0.21875 0.0625q0.09375 0.0625 0.15625 0.1875q0.0625 0.125 0.09375 0.328125q0.03125 0.1875 0.03125 0.46875zm4.8923492 0.703125q0 0.125 -0.0625 0.203125q-0.046875 0.078125 -0.171875 0.140625q-0.125 0.046875 -0.359375 0.0625q-0.21875 0.03125 -0.578125 0.03125q-0.34375 0 -0.578125 -0.03125q-0.21875 -0.015625 -0.359375 -0.0625q-0.125 -0.0625 -0.171875 -0.140625q-0.046875 -0.078125 -0.046875 -0.203125l0 -12.734375q0 -0.109375 0.046875 -0.1875q0.046875 -0.09375 0.171875 -0.140625q0.140625 -0.0625 0.359375 -0.078125q0.234375 -0.03125 0.578125 -0.03125q0.359375 0 0.578125 0.03125q0.234375 0.015625 0.359375 0.078125q0.125 0.046875 0.171875 0.140625q0.0625 0.078125 0.0625 0.1875l0 12.734375zm0.265625 -17.046875q0 0.828125 -0.3125 1.125q-0.296875 0.296875 -1.140625 0.296875q-0.8125 0 -1.125 -0.28125q-0.296875 -0.296875 -0.296875 -1.109375q0 -0.828125 0.296875 -1.125q0.3125 -0.296875 1.15625 -0.296875q0.8125 0 1.109375 0.296875q0.3125 0.296875 0.3125 1.09375zm15.105576 17.046875q0 0.125 -0.0625 0.203125q-0.046875 0.078125 -0.1875 0.140625q-0.125 0.046875 -0.359375 0.0625q-0.21875 0.03125 -0.546875 0.03125q-0.359375 0 -0.59375 -0.03125q-0.21875 -0.015625 -0.34375 -0.0625q-0.125 -0.0625 -0.1875 -0.140625q-0.0625 -0.078125 -0.0625 -0.203125l0 -7.453125q0 -1.09375 -0.171875 -1.75q-0.15625 -0.671875 -0.484375 -1.15625q-0.328125 -0.484375 -0.84375 -0.734375q-0.515625 -0.25 -1.203125 -0.25q-0.875 0 -1.75 0.625q-0.875 0.609375 -1.84375 1.8125l0 8.90625q0 0.125 -0.0625 0.203125q-0.046875 0.078125 -0.171875 0.140625q-0.125 0.046875 -0.359375 0.0625q-0.21875 0.03125 -0.578125 0.03125q-0.34375 0 -0.578125 -0.03125q-0.21875 -0.015625 -0.359375 -0.0625q-0.125 -0.0625 -0.171875 -0.140625q-0.046875 -0.078125 -0.046875 -0.203125l0 -12.734375q0 -0.125 0.03125 -0.203125q0.046875 -0.078125 0.171875 -0.140625q0.125 -0.0625 0.328125 -0.078125q0.203125 -0.015625 0.53125 -0.015625q0.3125 0 0.515625 0.015625q0.203125 0.015625 0.3125 0.078125q0.109375 0.0625 0.15625 0.140625q0.0625 0.078125 0.0625 0.203125l0 1.6875q1.078125 -1.203125 2.140625 -1.765625q1.0625 -0.5625 2.15625 -0.5625q1.28125 0 2.140625 0.4375q0.875 0.421875 1.40625 1.15625q0.546875 0.71875 0.78125 1.6875q0.234375 0.96875 0.234375 2.328125l0 7.765625zm14.893112 -0.015625q0 0.125 -0.0625 0.21875q-0.046875 0.078125 -0.1875 0.140625q-0.125 0.046875 -0.375 0.0625q-0.234375 0.03125 -0.59375 0.03125q-0.390625 0 -0.640625 -0.015625q-0.25 -0.015625 -0.421875 -0.0625q-0.15625 -0.0625 -0.265625 -0.140625q-0.109375 -0.09375 -0.1875 -0.234375l-5.3906403 -7.046875l0 7.0625q0 0.125 -0.0625 0.203125q-0.046875 0.078125 -0.171875 0.140625q-0.125 0.046875 -0.359375 0.0625q-0.21875 0.03125 -0.578125 0.03125q-0.34375 0 -0.578125 -0.03125q-0.21875 -0.015625 -0.359375 -0.0625q-0.125 -0.0625 -0.171875 -0.140625q-0.046875 -0.078125 -0.046875 -0.203125l0 -18.90625q0 -0.125 0.046875 -0.203125q0.046875 -0.09375 0.171875 -0.140625q0.140625 -0.0625 0.359375 -0.078125q0.234375 -0.03125 0.578125 -0.03125q0.359375 0 0.578125 0.03125q0.234375 0.015625 0.359375 0.078125q0.125 0.046875 0.171875 0.140625q0.0625 0.078125 0.0625 0.203125l0 11.515625l4.8125153 -5.296875q0.125 -0.140625 0.25 -0.234375q0.125 -0.09375 0.296875 -0.15625q0.1875 -0.0625 0.421875 -0.078125q0.234375 -0.015625 0.578125 -0.015625q0.359375 0 0.59375 0.015625q0.25 0.015625 0.390625 0.078125q0.15625 0.046875 0.21875 0.125q0.0625 0.078125 0.0625 0.203125q0 0.171875 -0.09375 0.34375q-0.09375 0.15625 -0.3125 0.390625l-4.6093903 4.609375l5.1875153 6.734375q0.171875 0.234375 0.25 0.390625q0.078125 0.140625 0.078125 0.265625z" fill-rule="nonzero"></path><path stroke="#000000" stroke-width="1.9192708730697632" stroke-linecap="butt" d="m166.93918 557.21124l47.801437 0" fill-rule="nonzero"></path><path fill="#ffffff" d="m343.11108 520.0l88.346466 0l0 46.456665l-88.346466 0z" fill-rule="nonzero"></path><path stroke="#535353" stroke-width="2.0" stroke-linejoin="round" stroke-linecap="butt" d="m343.11108 520.0l88.346466 0l0 46.456665l-88.346466 0z" fill-rule="nonzero"></path><path fill="#000000" d="m375.3211 552.82587q0 0.28125 -0.03125 0.484375q-0.03125 0.1875 -0.09375 0.328125q-0.0625 0.125 -0.15625 0.1875q-0.09375 0.0625 -0.21875 0.0625l-8.09375 0q-0.328125 0 -0.625 -0.21875q-0.28125 -0.21875 -0.28125 -0.765625l0 -16.96875q0 -0.109375 0.046875 -0.1875q0.0625 -0.09375 0.203125 -0.140625q0.140625 -0.0625 0.375 -0.09375q0.25 -0.03125 0.59375 -0.03125q0.34375 0 0.578125 0.03125q0.234375 0.03125 0.375 0.09375q0.15625 0.046875 0.203125 0.140625q0.0625 0.078125 0.0625 0.1875l0 15.84375l6.5625 0q0.125 0 0.21875 0.0625q0.09375 0.0625 0.15625 0.1875q0.0625 0.125 0.09375 0.328125q0.03125 0.1875 0.03125 0.46875zm4.8923645 0.703125q0 0.125 -0.0625 0.203125q-0.046875 0.078125 -0.171875 0.140625q-0.125 0.046875 -0.359375 0.0625q-0.21875 0.03125 -0.578125 0.03125q-0.34375 0 -0.578125 -0.03125q-0.21875 -0.015625 -0.359375 -0.0625q-0.125 -0.0625 -0.171875 -0.140625q-0.046875 -0.078125 -0.046875 -0.203125l0 -12.734375q0 -0.109375 0.046875 -0.1875q0.046875 -0.09375 0.171875 -0.140625q0.140625 -0.0625 0.359375 -0.078125q0.234375 -0.03125 0.578125 -0.03125q0.359375 0 0.578125 0.03125q0.234375 0.015625 0.359375 0.078125q0.125 0.046875 0.171875 0.140625q0.0625 0.078125 0.0625 0.1875l0 12.734375zm0.265625 -17.046875q0 0.828125 -0.3125 1.125q-0.296875 0.296875 -1.140625 0.296875q-0.8125 0 -1.125 -0.28125q-0.296875 -0.296875 -0.296875 -1.109375q0 -0.828125 0.296875 -1.125q0.3125 -0.296875 1.15625 -0.296875q0.8125 0 1.109375 0.296875q0.3125 0.296875 0.3125 1.09375zm15.10556 17.046875q0 0.125 -0.0625 0.203125q-0.046875 0.078125 -0.1875 0.140625q-0.125 0.046875 -0.359375 0.0625q-0.21875 0.03125 -0.546875 0.03125q-0.359375 0 -0.59375 -0.03125q-0.21875 -0.015625 -0.34375 -0.0625q-0.125 -0.0625 -0.1875 -0.140625q-0.0625 -0.078125 -0.0625 -0.203125l0 -7.453125q0 -1.09375 -0.171875 -1.75q-0.15625 -0.671875 -0.484375 -1.15625q-0.328125 -0.484375 -0.84375 -0.734375q-0.515625 -0.25 -1.203125 -0.25q-0.875 0 -1.75 0.625q-0.875 0.609375 -1.84375 1.8125l0 8.90625q0 0.125 -0.0625 0.203125q-0.046875 0.078125 -0.171875 0.140625q-0.125 0.046875 -0.359375 0.0625q-0.21875 0.03125 -0.578125 0.03125q-0.34375 0 -0.578125 -0.03125q-0.21875 -0.015625 -0.359375 -0.0625q-0.125 -0.0625 -0.171875 -0.140625q-0.046875 -0.078125 -0.046875 -0.203125l0 -12.734375q0 -0.125 0.03125 -0.203125q0.046875 -0.078125 0.171875 -0.140625q0.125 -0.0625 0.328125 -0.078125q0.203125 -0.015625 0.53125 -0.015625q0.3125 0 0.515625 0.015625q0.203125 0.015625 0.3125 0.078125q0.109375 0.0625 0.15625 0.140625q0.0625 0.078125 0.0625 0.203125l0 1.6875q1.078125 -1.203125 2.140625 -1.765625q1.0625 -0.5625 2.15625 -0.5625q1.28125 0 2.140625 0.4375q0.875 0.421875 1.40625 1.15625q0.546875 0.71875 0.78125 1.6875q0.234375 0.96875 0.234375 2.328125l0 7.765625zm14.893097 -0.015625q0 0.125 -0.0625 0.21875q-0.046875 0.078125 -0.1875 0.140625q-0.125 0.046875 -0.375 0.0625q-0.234375 0.03125 -0.59375 0.03125q-0.390625 0 -0.640625 -0.015625q-0.25 -0.015625 -0.421875 -0.0625q-0.15625 -0.0625 -0.265625 -0.140625q-0.109375 -0.09375 -0.1875 -0.234375l-5.390625 -7.046875l0 7.0625q0 0.125 -0.0625 0.203125q-0.046875 0.078125 -0.171875 0.140625q-0.125 0.046875 -0.359375 0.0625q-0.21875 0.03125 -0.578125 0.03125q-0.34375 0 -0.578125 -0.03125q-0.21875 -0.015625 -0.359375 -0.0625q-0.125 -0.0625 -0.171875 -0.140625q-0.046875 -0.078125 -0.046875 -0.203125l0 -18.90625q0 -0.125 0.046875 -0.203125q0.046875 -0.09375 0.171875 -0.140625q0.140625 -0.0625 0.359375 -0.078125q0.234375 -0.03125 0.578125 -0.03125q0.359375 0 0.578125 0.03125q0.234375 0.015625 0.359375 0.078125q0.125 0.046875 0.171875 0.140625q0.0625 0.078125 0.0625 0.203125l0 11.515625l4.8125 -5.296875q0.125 -0.140625 0.25 -0.234375q0.125 -0.09375 0.296875 -0.15625q0.1875 -0.0625 0.421875 -0.078125q0.234375 -0.015625 0.578125 -0.015625q0.359375 0 0.59375 0.015625q0.25 0.015625 0.390625 0.078125q0.15625 0.046875 0.21875 0.125q0.0625 0.078125 0.0625 0.203125q0 0.171875 -0.09375 0.34375q-0.09375 0.15625 -0.3125 0.390625l-4.609375 4.609375l5.1875 6.734375q0.171875 0.234375 0.25 0.390625q0.078125 0.140625 0.078125 0.265625z" fill-rule="nonzero"></path><path stroke="#000000" stroke-width="1.9192708730697632" stroke-linecap="butt" d="m363.3836 557.21124l47.801422 0" fill-rule="nonzero"></path><path fill="#ffffff" d="m541.3333 520.0l88.3465 0l0 46.456665l-88.3465 0z" fill-rule="nonzero"></path><path stroke="#535353" stroke-width="2.0" stroke-linejoin="round" stroke-linecap="butt" d="m541.3333 520.0l88.3465 0l0 46.456665l-88.3465 0z" fill-rule="nonzero"></path><path fill="#000000" d="m573.54333 552.82587q0 0.28125 -0.03125 0.484375q-0.03125 0.1875 -0.09375 0.328125q-0.0625 0.125 -0.15625 0.1875q-0.09375 0.0625 -0.21875 0.0625l-8.09375 0q-0.328125 0 -0.625 -0.21875q-0.28125 -0.21875 -0.28125 -0.765625l0 -16.96875q0 -0.109375 0.046875 -0.1875q0.0625 -0.09375 0.203125 -0.140625q0.140625 -0.0625 0.375 -0.09375q0.25 -0.03125 0.59375 -0.03125q0.34375 0 0.578125 0.03125q0.234375 0.03125 0.375 0.09375q0.15625 0.046875 0.203125 0.140625q0.0625 0.078125 0.0625 0.1875l0 15.84375l6.5625 0q0.125 0 0.21875 0.0625q0.09375 0.0625 0.15625 0.1875q0.0625 0.125 0.09375 0.328125q0.03125 0.1875 0.03125 0.46875zm4.892395 0.703125q0 0.125 -0.0625 0.203125q-0.046875 0.078125 -0.171875 0.140625q-0.125 0.046875 -0.359375 0.0625q-0.21875 0.03125 -0.578125 0.03125q-0.34375 0 -0.578125 -0.03125q-0.21875 -0.015625 -0.359375 -0.0625q-0.125 -0.0625 -0.171875 -0.140625q-0.046875 -0.078125 -0.046875 -0.203125l0 -12.734375q0 -0.109375 0.046875 -0.1875q0.046875 -0.09375 0.171875 -0.140625q0.140625 -0.0625 0.359375 -0.078125q0.234375 -0.03125 0.578125 -0.03125q0.359375 0 0.578125 0.03125q0.234375 0.015625 0.359375 0.078125q0.125 0.046875 0.171875 0.140625q0.0625 0.078125 0.0625 0.1875l0 12.734375zm0.265625 -17.046875q0 0.828125 -0.3125 1.125q-0.296875 0.296875 -1.140625 0.296875q-0.8125 0 -1.125 -0.28125q-0.296875 -0.296875 -0.296875 -1.109375q0 -0.828125 0.296875 -1.125q0.3125 -0.296875 1.15625 -0.296875q0.8125 0 1.109375 0.296875q0.3125 0.296875 0.3125 1.09375zm15.10553 17.046875q0 0.125 -0.0625 0.203125q-0.046875 0.078125 -0.1875 0.140625q-0.125 0.046875 -0.359375 0.0625q-0.21875 0.03125 -0.546875 0.03125q-0.359375 0 -0.59375 -0.03125q-0.21875 -0.015625 -0.34375 -0.0625q-0.125 -0.0625 -0.1875 -0.140625q-0.0625 -0.078125 -0.0625 -0.203125l0 -7.453125q0 -1.09375 -0.171875 -1.75q-0.15625 -0.671875 -0.484375 -1.15625q-0.328125 -0.484375 -0.84375 -0.734375q-0.515625 -0.25 -1.203125 -0.25q-0.875 0 -1.75 0.625q-0.875 0.609375 -1.84375 1.8125l0 8.90625q0 0.125 -0.0625 0.203125q-0.046875 0.078125 -0.171875 0.140625q-0.125 0.046875 -0.359375 0.0625q-0.21875 0.03125 -0.578125 0.03125q-0.34375 0 -0.578125 -0.03125q-0.21875 -0.015625 -0.359375 -0.0625q-0.125 -0.0625 -0.171875 -0.140625q-0.046875 -0.078125 -0.046875 -0.203125l0 -12.734375q0 -0.125 0.03125 -0.203125q0.046875 -0.078125 0.171875 -0.140625q0.125 -0.0625 0.328125 -0.078125q0.203125 -0.015625 0.53125 -0.015625q0.3125 0 0.515625 0.015625q0.203125 0.015625 0.3125 0.078125q0.109375 0.0625 0.15625 0.140625q0.0625 0.078125 0.0625 0.203125l0 1.6875q1.078125 -1.203125 2.140625 -1.765625q1.0625 -0.5625 2.15625 -0.5625q1.28125 0 2.140625 0.4375q0.875 0.421875 1.40625 1.15625q0.546875 0.71875 0.78125 1.6875q0.234375 0.96875 0.234375 2.328125l0 7.765625zm14.893127 -0.015625q0 0.125 -0.0625 0.21875q-0.046875 0.078125 -0.1875 0.140625q-0.125 0.046875 -0.375 0.0625q-0.234375 0.03125 -0.59375 0.03125q-0.390625 0 -0.640625 -0.015625q-0.25 -0.015625 -0.421875 -0.0625q-0.15625 -0.0625 -0.265625 -0.140625q-0.109375 -0.09375 -0.1875 -0.234375l-5.390625 -7.046875l0 7.0625q0 0.125 -0.0625 0.203125q-0.046875 0.078125 -0.171875 0.140625q-0.125 0.046875 -0.359375 0.0625q-0.21875 0.03125 -0.578125 0.03125q-0.34375 0 -0.578125 -0.03125q-0.21875 -0.015625 -0.359375 -0.0625q-0.125 -0.0625 -0.171875 -0.140625q-0.046875 -0.078125 -0.046875 -0.203125l0 -18.90625q0 -0.125 0.046875 -0.203125q0.046875 -0.09375 0.171875 -0.140625q0.140625 -0.0625 0.359375 -0.078125q0.234375 -0.03125 0.578125 -0.03125q0.359375 0 0.578125 0.03125q0.234375 0.015625 0.359375 0.078125q0.125 0.046875 0.171875 0.140625q0.0625 0.078125 0.0625 0.203125l0 11.515625l4.8125 -5.296875q0.125 -0.140625 0.25 -0.234375q0.125 -0.09375 0.296875 -0.15625q0.1875 -0.0625 0.421875 -0.078125q0.234375 -0.015625 0.578125 -0.015625q0.359375 0 0.59375 0.015625q0.25 0.015625 0.390625 0.078125q0.15625 0.046875 0.21875 0.125q0.0625 0.078125 0.0625 0.203125q0 0.171875 -0.09375 0.34375q-0.09375 0.15625 -0.3125 0.390625l-4.609375 4.609375l5.1875 6.734375q0.171875 0.234375 0.25 0.390625q0.078125 0.140625 0.078125 0.265625z" fill-rule="nonzero"></path><path stroke="#000000" stroke-width="1.9192708730697632" stroke-linecap="butt" d="m561.60583 557.21124l47.801453 0" fill-rule="nonzero"></path><path fill="#000000" fill-opacity="0.0" d="m241.18636 476.15485c0 10.961304 -12.590561 16.44226 -25.181107 21.922577c-12.590546 5.480316 -25.181107 10.959991 -25.181107 21.919952" fill-rule="nonzero"></path><path stroke="#535353" stroke-width="2.0" stroke-linejoin="round" stroke-linecap="butt" d="m241.18636 476.15485c0 10.961304 -12.590561 16.44226 -25.181107 21.922577c-6.295273 2.7401733 -12.590546 5.4801636 -17.312012 8.905121c-0.59017944 0.4281006 -1.155777 0.86691284 -1.6936951 1.3177795c-0.26896667 0.22543335 -0.5310211 0.45388794 -0.78575134 0.68548584l-0.20425415 0.1897583" fill-rule="evenodd"></path><path fill="#535353" stroke="#535353" stroke-width="2.0" stroke-linecap="butt" d="m193.03041 507.74808l-0.9428406 9.612579l6.9010925 -6.7576294z" fill-rule="evenodd"></path><path fill="#000000" fill-opacity="0.0" d="m241.18636 476.15485c0 10.961304 86.07875 16.44226 172.15749 21.922577c86.078735 5.480316 172.1575 10.959991 172.1575 21.919952" fill-rule="nonzero"></path><path stroke="#535353" stroke-width="2.0" stroke-linejoin="round" stroke-linecap="butt" d="m241.18636 476.15485c0 10.961304 86.07875 16.44226 172.15749 21.922577c43.039368 2.7401733 86.078735 5.4801636 118.358246 8.905121c16.13977 1.7124634 29.5896 3.5961914 39.004456 5.7367554c1.1768188 0.26757812 2.2906494 0.5391846 3.3388062 0.8149414c0.26202393 0.06896973 0.5199585 0.1381836 0.7737427 0.20758057l0.3779297 0.10559082" fill-rule="evenodd"></path><path fill="#535353" stroke="#535353" stroke-width="2.0" stroke-linecap="butt" d="m573.504 516.6841l9.486633 1.8148804l-6.100647 -7.4881897z" fill-rule="evenodd"></path><path fill="#000000" fill-opacity="0.0" d="m235.01312 543.22833c27.024689 0 40.537598 0.01574707 54.049408 0.03149414c13.51181 0.01574707 27.022552 0.03149414 54.045074 0.03149414" fill-rule="nonzero"></path><path stroke="#535353" stroke-width="2.0" stroke-linejoin="round" stroke-linecap="butt" d="m247.01312 543.23016l5.946167 9.1552734E-4c5.27829 0.0017089844 9.923248 0.0041503906 14.145874 0.007080078c8.445282 0.00592041 15.201447 0.013793945 21.957367 0.02166748c6.75589 0.007873535 13.511536 0.01574707 21.955994 0.02166748c4.2222595 0.0029296875 8.866699 0.005432129 14.144501 0.0071411133l5.94458 9.1552734E-4" fill-rule="evenodd"></path><path fill="#535353" stroke="#535353" stroke-width="2.0" stroke-linecap="butt" d="m247.01363 539.9267l-9.076691 3.302063l9.075684 3.3048706z" fill-rule="evenodd"></path><path fill="#535353" stroke="#535353" stroke-width="2.0" stroke-linecap="butt" d="m331.10712 546.593l9.076691 -3.302124l-9.075684 -3.3048096z" fill-rule="evenodd"></path><path fill="#000000" fill-opacity="0.0" d="m431.45755 543.22833c27.469147 0 41.202057 0.01574707 54.938293 0.03149414c13.736206 0.01574707 27.475739 0.03149414 54.951447 0.03149414" fill-rule="nonzero"></path><path stroke="#535353" stroke-width="2.0" stroke-linejoin="round" stroke-linecap="butt" d="m443.45755 543.2301l6.241028 9.765625E-4c5.3648987 0.0017089844 10.086029 0.0041503906 14.37796 0.007080078c8.583893 0.00592041 15.451172 0.013793945 22.319305 0.02166748c6.868103 0.007873535 13.73703 0.01574707 22.323395 0.02166748c4.293213 0.0029296875 9.015747 0.005432129 14.382263 0.0071411133l6.2457886 9.1552734E-4" fill-rule="evenodd"></path><path fill="#535353" stroke="#535353" stroke-width="2.0" stroke-linecap="butt" d="m443.45804 539.92664l-9.076691 3.302124l9.075714 3.3048096z" fill-rule="evenodd"></path><path fill="#535353" stroke="#535353" stroke-width="2.0" stroke-linecap="butt" d="m529.3468 546.593l9.076721 -3.302124l-9.075745 -3.3048096z" fill-rule="evenodd"></path><path fill="#ffffff" d="m148.33333 603.3333l88.346466 0l0 46.456726l-88.346466 0z" fill-rule="nonzero"></path><path stroke="#535353" stroke-width="2.0" stroke-linejoin="round" stroke-linecap="butt" d="m148.33333 603.3333l88.346466 0l0 46.456726l-88.346466 0z" fill-rule="nonzero"></path><path fill="#000000" d="m181.0558 627.7842q0 2.390625 -0.609375 4.171875q-0.609375 1.765625 -1.78125 2.9375q-1.171875 1.171875 -2.875 1.75q-1.6875 0.578125 -4.046875 0.578125l-3.875 0q-0.328125 0 -0.625 -0.21875q-0.28125 -0.21875 -0.28125 -0.765625l0 -16.34375q0 -0.5625 0.28125 -0.78125q0.296875 -0.21875 0.625 -0.21875l4.140625 0q2.390625 0 4.03125 0.625q1.640625 0.609375 2.75 1.765625q1.109375 1.15625 1.6875 2.796875q0.578125 1.640625 0.578125 3.703125zm-2.5625 0.109375q0 -1.484375 -0.375 -2.765625q-0.375 -1.28125 -1.15625 -2.21875q-0.78125 -0.9375 -1.984375 -1.453125q-1.203125 -0.53125 -3.109375 -0.53125l-2.46875 0l0 14.25l2.5 0q1.765625 0 2.96875 -0.4375q1.203125 -0.4375 2.0 -1.34375q0.8125 -0.90625 1.21875 -2.265625q0.40625 -1.375 0.40625 -3.234375zm15.840546 8.984375q0 0.171875 -0.109375 0.265625q-0.109375 0.078125 -0.3125 0.109375q-0.203125 0.046875 -0.578125 0.046875q-0.375 0 -0.59375 -0.046875q-0.21875 -0.03125 -0.328125 -0.109375q-0.09375 -0.09375 -0.09375 -0.265625l0 -1.265625q-0.828125 0.890625 -1.859375 1.390625q-1.015625 0.484375 -2.171875 0.484375q-1.0 0 -1.8125 -0.265625q-0.8125 -0.25 -1.390625 -0.75q-0.578125 -0.5 -0.90625 -1.21875q-0.3125 -0.71875 -0.3125 -1.640625q0 -1.078125 0.4375 -1.859375q0.453125 -0.796875 1.265625 -1.328125q0.828125 -0.53125 2.015625 -0.78125q1.1875 -0.265625 2.671875 -0.265625l1.75 0l0 -1.0q0 -0.734375 -0.15625 -1.296875q-0.140625 -0.5625 -0.5 -0.9375q-0.34375 -0.375 -0.90625 -0.5625q-0.546875 -0.203125 -1.34375 -0.203125q-0.859375 0 -1.546875 0.21875q-0.6875 0.203125 -1.21875 0.453125q-0.515625 0.234375 -0.859375 0.453125q-0.34375 0.203125 -0.515625 0.203125q-0.109375 0 -0.203125 -0.0625q-0.078125 -0.0625 -0.140625 -0.171875q-0.0625 -0.109375 -0.09375 -0.28125q-0.03125 -0.1875 -0.03125 -0.390625q0 -0.359375 0.046875 -0.5625q0.0625 -0.203125 0.25 -0.390625q0.1875 -0.1875 0.65625 -0.4375q0.46875 -0.25 1.078125 -0.453125q0.609375 -0.203125 1.328125 -0.328125q0.71875 -0.140625 1.453125 -0.140625q1.375 0 2.34375 0.3125q0.96875 0.3125 1.5625 0.921875q0.59375 0.59375 0.859375 1.484375q0.265625 0.890625 0.265625 2.078125l0 8.59375zm-2.328125 -5.8125l-1.984375 0q-0.96875 0 -1.6875 0.171875q-0.703125 0.15625 -1.171875 0.46875q-0.453125 0.3125 -0.671875 0.765625q-0.21875 0.4375 -0.21875 1.03125q0 0.984375 0.625 1.578125q0.625 0.578125 1.765625 0.578125q0.921875 0 1.703125 -0.46875q0.78125 -0.46875 1.640625 -1.421875l0 -2.703125zm13.407669 4.875q0 0.40625 -0.0625 0.65625q-0.046875 0.234375 -0.171875 0.34375q-0.109375 0.109375 -0.34375 0.21875q-0.21875 0.09375 -0.515625 0.15625q-0.28125 0.0625 -0.609375 0.09375q-0.328125 0.046875 -0.65625 0.046875q-0.984375 0 -1.703125 -0.25q-0.703125 -0.265625 -1.15625 -0.796875q-0.453125 -0.53125 -0.65625 -1.34375q-0.203125 -0.8125 -0.203125 -1.921875l0 -7.453125l-1.78125 0q-0.21875 0 -0.34375 -0.21875q-0.125 -0.234375 -0.125 -0.734375q0 -0.28125 0.03125 -0.453125q0.03125 -0.1875 0.09375 -0.3125q0.0625 -0.125 0.140625 -0.171875q0.09375 -0.046875 0.21875 -0.046875l1.765625 0l0 -3.03125q0 -0.09375 0.046875 -0.171875q0.046875 -0.09375 0.1875 -0.15625q0.140625 -0.0625 0.359375 -0.09375q0.234375 -0.03125 0.5625 -0.03125q0.359375 0 0.578125 0.03125q0.234375 0.03125 0.359375 0.09375q0.125 0.0625 0.1875 0.15625q0.0625 0.078125 0.0625 0.171875l0 3.03125l3.265625 0q0.109375 0 0.1875 0.046875q0.09375 0.046875 0.15625 0.171875q0.0625 0.125 0.09375 0.3125q0.03125 0.171875 0.03125 0.453125q0 0.5 -0.140625 0.734375q-0.125 0.21875 -0.328125 0.21875l-3.265625 0l0 7.109375q0 1.328125 0.375 2.0q0.390625 0.671875 1.40625 0.671875q0.328125 0 0.578125 -0.0625q0.25 -0.078125 0.453125 -0.140625q0.203125 -0.078125 0.34375 -0.140625q0.140625 -0.0625 0.25 -0.0625q0.0625 0 0.125 0.046875q0.078125 0.03125 0.109375 0.125q0.03125 0.09375 0.0625 0.265625q0.03125 0.171875 0.03125 0.4375zm12.792511 0.9375q0 0.171875 -0.109375 0.265625q-0.109375 0.078125 -0.3125 0.109375q-0.203125 0.046875 -0.578125 0.046875q-0.375 0 -0.59375 -0.046875q-0.21875 -0.03125 -0.328125 -0.109375q-0.09375 -0.09375 -0.09375 -0.265625l0 -1.265625q-0.828125 0.890625 -1.859375 1.390625q-1.015625 0.484375 -2.1718597 0.484375q-1.0 0 -1.8125 -0.265625q-0.8125 -0.25 -1.390625 -0.75q-0.578125 -0.5 -0.90625 -1.21875q-0.3125 -0.71875 -0.3125 -1.640625q0 -1.078125 0.4375 -1.859375q0.453125 -0.796875 1.265625 -1.328125q0.828125 -0.53125 2.015625 -0.78125q1.1874847 -0.265625 2.6718597 -0.265625l1.75 0l0 -1.0q0 -0.734375 -0.15625 -1.296875q-0.140625 -0.5625 -0.5 -0.9375q-0.34375 -0.375 -0.90625 -0.5625q-0.546875 -0.203125 -1.34375 -0.203125q-0.85935974 0 -1.5468597 0.21875q-0.6875 0.203125 -1.21875 0.453125q-0.515625 0.234375 -0.859375 0.453125q-0.34375 0.203125 -0.515625 0.203125q-0.109375 0 -0.203125 -0.0625q-0.078125 -0.0625 -0.140625 -0.171875q-0.0625 -0.109375 -0.09375 -0.28125q-0.03125 -0.1875 -0.03125 -0.390625q0 -0.359375 0.046875 -0.5625q0.0625 -0.203125 0.25 -0.390625q0.1875 -0.1875 0.65625 -0.4375q0.46875 -0.25 1.078125 -0.453125q0.609375 -0.203125 1.328125 -0.328125q0.71873474 -0.140625 1.4531097 -0.140625q1.375 0 2.34375 0.3125q0.96875 0.3125 1.5625 0.921875q0.59375 0.59375 0.859375 1.484375q0.265625 0.890625 0.265625 2.078125l0 8.59375zm-2.328125 -5.8125l-1.984375 0q-0.96875 0 -1.6874847 0.171875q-0.703125 0.15625 -1.171875 0.46875q-0.453125 0.3125 -0.671875 0.765625q-0.21875 0.4375 -0.21875 1.03125q0 0.984375 0.625 1.578125q0.625 0.578125 1.7656097 0.578125q0.921875 0 1.703125 -0.46875q0.78125 -0.46875 1.640625 -1.421875l0 -2.703125z" fill-rule="nonzero"></path><path stroke="#000000" stroke-width="1.9192708730697632" stroke-linecap="butt" d="m164.52455 640.5446l55.96402 0" fill-rule="nonzero"></path><path fill="#ffffff" d="m343.11023 601.25195l88.346466 0l0 46.456726l-88.346466 0z" fill-rule="nonzero"></path><path stroke="#535353" stroke-width="2.0" stroke-linejoin="round" stroke-linecap="butt" d="m343.11023 601.25195l88.346466 0l0 46.456726l-88.346466 0z" fill-rule="nonzero"></path><path fill="#000000" d="m375.8327 625.7028q0 2.390625 -0.609375 4.171875q-0.609375 1.765625 -1.78125 2.9375q-1.171875 1.171875 -2.875 1.75q-1.6875 0.578125 -4.046875 0.578125l-3.875 0q-0.328125 0 -0.625 -0.21875q-0.28125 -0.21875 -0.28125 -0.765625l0 -16.34375q0 -0.5625 0.28125 -0.78125q0.296875 -0.21875 0.625 -0.21875l4.140625 0q2.390625 0 4.03125 0.625q1.640625 0.609375 2.75 1.765625q1.109375 1.15625 1.6875 2.796875q0.578125 1.640625 0.578125 3.703125zm-2.5625 0.109375q0 -1.484375 -0.375 -2.765625q-0.375 -1.28125 -1.15625 -2.21875q-0.78125 -0.9375 -1.984375 -1.453125q-1.203125 -0.53125 -3.109375 -0.53125l-2.46875 0l0 14.25l2.5 0q1.765625 0 2.96875 -0.4375q1.203125 -0.4375 2.0 -1.34375q0.8125 -0.90625 1.21875 -2.265625q0.40625 -1.375 0.40625 -3.234375zm15.840546 8.984375q0 0.171875 -0.109375 0.265625q-0.109375 0.078125 -0.3125 0.109375q-0.203125 0.046875 -0.578125 0.046875q-0.375 0 -0.59375 -0.046875q-0.21875 -0.03125 -0.328125 -0.109375q-0.09375 -0.09375 -0.09375 -0.265625l0 -1.265625q-0.828125 0.890625 -1.859375 1.390625q-1.015625 0.484375 -2.171875 0.484375q-1.0 0 -1.8125 -0.265625q-0.8125 -0.25 -1.390625 -0.75q-0.578125 -0.5 -0.90625 -1.21875q-0.3125 -0.71875 -0.3125 -1.640625q0 -1.078125 0.4375 -1.859375q0.453125 -0.796875 1.265625 -1.328125q0.828125 -0.53125 2.015625 -0.78125q1.1875 -0.265625 2.671875 -0.265625l1.75 0l0 -1.0q0 -0.734375 -0.15625 -1.296875q-0.140625 -0.5625 -0.5 -0.9375q-0.34375 -0.375 -0.90625 -0.5625q-0.546875 -0.203125 -1.34375 -0.203125q-0.859375 0 -1.546875 0.21875q-0.6875 0.203125 -1.21875 0.453125q-0.515625 0.234375 -0.859375 0.453125q-0.34375 0.203125 -0.515625 0.203125q-0.109375 0 -0.203125 -0.0625q-0.078125 -0.0625 -0.140625 -0.171875q-0.0625 -0.109375 -0.09375 -0.28125q-0.03125 -0.1875 -0.03125 -0.390625q0 -0.359375 0.046875 -0.5625q0.0625 -0.203125 0.25 -0.390625q0.1875 -0.1875 0.65625 -0.4375q0.46875 -0.25 1.078125 -0.453125q0.609375 -0.203125 1.328125 -0.328125q0.71875 -0.140625 1.453125 -0.140625q1.375 0 2.34375 0.3125q0.96875 0.3125 1.5625 0.921875q0.59375 0.59375 0.859375 1.484375q0.265625 0.890625 0.265625 2.078125l0 8.59375zm-2.328125 -5.8125l-1.984375 0q-0.96875 0 -1.6875 0.171875q-0.703125 0.15625 -1.171875 0.46875q-0.453125 0.3125 -0.671875 0.765625q-0.21875 0.4375 -0.21875 1.03125q0 0.984375 0.625 1.578125q0.625 0.578125 1.765625 0.578125q0.921875 0 1.703125 -0.46875q0.78125 -0.46875 1.640625 -1.421875l0 -2.703125zm13.407654 4.875q0 0.40625 -0.0625 0.65625q-0.046875 0.234375 -0.171875 0.34375q-0.109375 0.109375 -0.34375 0.21875q-0.21875 0.09375 -0.515625 0.15625q-0.28125 0.0625 -0.609375 0.09375q-0.328125 0.046875 -0.65625 0.046875q-0.984375 0 -1.703125 -0.25q-0.703125 -0.265625 -1.15625 -0.796875q-0.453125 -0.53125 -0.65625 -1.34375q-0.203125 -0.8125 -0.203125 -1.921875l0 -7.453125l-1.78125 0q-0.21875 0 -0.34375 -0.21875q-0.125 -0.234375 -0.125 -0.734375q0 -0.28125 0.03125 -0.453125q0.03125 -0.1875 0.09375 -0.3125q0.0625 -0.125 0.140625 -0.171875q0.09375 -0.046875 0.21875 -0.046875l1.765625 0l0 -3.03125q0 -0.09375 0.046875 -0.171875q0.046875 -0.09375 0.1875 -0.15625q0.140625 -0.0625 0.359375 -0.09375q0.234375 -0.03125 0.5625 -0.03125q0.359375 0 0.578125 0.03125q0.234375 0.03125 0.359375 0.09375q0.125 0.0625 0.1875 0.15625q0.0625 0.078125 0.0625 0.171875l0 3.03125l3.265625 0q0.109375 0 0.1875 0.046875q0.09375 0.046875 0.15625 0.171875q0.0625 0.125 0.09375 0.3125q0.03125 0.171875 0.03125 0.453125q0 0.5 -0.140625 0.734375q-0.125 0.21875 -0.328125 0.21875l-3.265625 0l0 7.109375q0 1.328125 0.375 2.0q0.390625 0.671875 1.40625 0.671875q0.328125 0 0.578125 -0.0625q0.25 -0.078125 0.453125 -0.140625q0.203125 -0.078125 0.34375 -0.140625q0.140625 -0.0625 0.25 -0.0625q0.0625 0 0.125 0.046875q0.078125 0.03125 0.109375 0.125q0.03125 0.09375 0.0625 0.265625q0.03125 0.171875 0.03125 0.4375zm12.7925415 0.9375q0 0.171875 -0.109375 0.265625q-0.109375 0.078125 -0.3125 0.109375q-0.203125 0.046875 -0.578125 0.046875q-0.375 0 -0.59375 -0.046875q-0.21875 -0.03125 -0.328125 -0.109375q-0.09375 -0.09375 -0.09375 -0.265625l0 -1.265625q-0.828125 0.890625 -1.859375 1.390625q-1.015625 0.484375 -2.171875 0.484375q-1.0 0 -1.8125 -0.265625q-0.8125 -0.25 -1.390625 -0.75q-0.578125 -0.5 -0.90625 -1.21875q-0.3125 -0.71875 -0.3125 -1.640625q0 -1.078125 0.4375 -1.859375q0.453125 -0.796875 1.265625 -1.328125q0.828125 -0.53125 2.015625 -0.78125q1.1875 -0.265625 2.671875 -0.265625l1.75 0l0 -1.0q0 -0.734375 -0.15625 -1.296875q-0.140625 -0.5625 -0.5 -0.9375q-0.34375 -0.375 -0.90625 -0.5625q-0.546875 -0.203125 -1.34375 -0.203125q-0.859375 0 -1.546875 0.21875q-0.6875 0.203125 -1.21875 0.453125q-0.515625 0.234375 -0.859375 0.453125q-0.34375 0.203125 -0.515625 0.203125q-0.109375 0 -0.203125 -0.0625q-0.078125 -0.0625 -0.140625 -0.171875q-0.0625 -0.109375 -0.09375 -0.28125q-0.03125 -0.1875 -0.03125 -0.390625q0 -0.359375 0.046875 -0.5625q0.0625 -0.203125 0.25 -0.390625q0.1875 -0.1875 0.65625 -0.4375q0.46875 -0.25 1.078125 -0.453125q0.609375 -0.203125 1.328125 -0.328125q0.71875 -0.140625 1.453125 -0.140625q1.375 0 2.34375 0.3125q0.96875 0.3125 1.5625 0.921875q0.59375 0.59375 0.859375 1.484375q0.265625 0.890625 0.265625 2.078125l0 8.59375zm-2.328125 -5.8125l-1.984375 0q-0.96875 0 -1.6875 0.171875q-0.703125 0.15625 -1.171875 0.46875q-0.453125 0.3125 -0.671875 0.765625q-0.21875 0.4375 -0.21875 1.03125q0 0.984375 0.625 1.578125q0.625 0.578125 1.765625 0.578125q0.921875 0 1.703125 -0.46875q0.78125 -0.46875 1.640625 -1.421875l0 -2.703125z" fill-rule="nonzero"></path><path stroke="#000000" stroke-width="1.9192708730697632" stroke-linecap="butt" d="m359.30145 638.46326l55.96402 0" fill-rule="nonzero"></path><path fill="#ffffff" d="m541.3333 601.25195l88.3465 0l0 46.456726l-88.3465 0z" fill-rule="nonzero"></path><path stroke="#535353" stroke-width="2.0" stroke-linejoin="round" stroke-linecap="butt" d="m541.3333 601.25195l88.3465 0l0 46.456726l-88.3465 0z" fill-rule="nonzero"></path><path fill="#000000" d="m574.0558 625.7028q0 2.390625 -0.609375 4.171875q-0.609375 1.765625 -1.78125 2.9375q-1.171875 1.171875 -2.875 1.75q-1.6875 0.578125 -4.046875 0.578125l-3.875 0q-0.328125 0 -0.625 -0.21875q-0.28125 -0.21875 -0.28125 -0.765625l0 -16.34375q0 -0.5625 0.28125 -0.78125q0.296875 -0.21875 0.625 -0.21875l4.140625 0q2.390625 0 4.03125 0.625q1.640625 0.609375 2.75 1.765625q1.109375 1.15625 1.6875 2.796875q0.578125 1.640625 0.578125 3.703125zm-2.5625 0.109375q0 -1.484375 -0.375 -2.765625q-0.375 -1.28125 -1.15625 -2.21875q-0.78125 -0.9375 -1.984375 -1.453125q-1.203125 -0.53125 -3.109375 -0.53125l-2.46875 0l0 14.25l2.5 0q1.765625 0 2.96875 -0.4375q1.203125 -0.4375 2.0 -1.34375q0.8125 -0.90625 1.21875 -2.265625q0.40625 -1.375 0.40625 -3.234375zm15.840576 8.984375q0 0.171875 -0.109375 0.265625q-0.109375 0.078125 -0.3125 0.109375q-0.203125 0.046875 -0.578125 0.046875q-0.375 0 -0.59375 -0.046875q-0.21875 -0.03125 -0.328125 -0.109375q-0.09375 -0.09375 -0.09375 -0.265625l0 -1.265625q-0.828125 0.890625 -1.859375 1.390625q-1.015625 0.484375 -2.171875 0.484375q-1.0 0 -1.8125 -0.265625q-0.8125 -0.25 -1.390625 -0.75q-0.578125 -0.5 -0.90625 -1.21875q-0.3125 -0.71875 -0.3125 -1.640625q0 -1.078125 0.4375 -1.859375q0.453125 -0.796875 1.265625 -1.328125q0.828125 -0.53125 2.015625 -0.78125q1.1875 -0.265625 2.671875 -0.265625l1.75 0l0 -1.0q0 -0.734375 -0.15625 -1.296875q-0.140625 -0.5625 -0.5 -0.9375q-0.34375 -0.375 -0.90625 -0.5625q-0.546875 -0.203125 -1.34375 -0.203125q-0.859375 0 -1.546875 0.21875q-0.6875 0.203125 -1.21875 0.453125q-0.515625 0.234375 -0.859375 0.453125q-0.34375 0.203125 -0.515625 0.203125q-0.109375 0 -0.203125 -0.0625q-0.078125 -0.0625 -0.140625 -0.171875q-0.0625 -0.109375 -0.09375 -0.28125q-0.03125 -0.1875 -0.03125 -0.390625q0 -0.359375 0.046875 -0.5625q0.0625 -0.203125 0.25 -0.390625q0.1875 -0.1875 0.65625 -0.4375q0.46875 -0.25 1.078125 -0.453125q0.609375 -0.203125 1.328125 -0.328125q0.71875 -0.140625 1.453125 -0.140625q1.375 0 2.34375 0.3125q0.96875 0.3125 1.5625 0.921875q0.59375 0.59375 0.859375 1.484375q0.265625 0.890625 0.265625 2.078125l0 8.59375zm-2.328125 -5.8125l-1.984375 0q-0.96875 0 -1.6875 0.171875q-0.703125 0.15625 -1.171875 0.46875q-0.453125 0.3125 -0.671875 0.765625q-0.21875 0.4375 -0.21875 1.03125q0 0.984375 0.625 1.578125q0.625 0.578125 1.765625 0.578125q0.921875 0 1.703125 -0.46875q0.78125 -0.46875 1.640625 -1.421875l0 -2.703125zm13.407654 4.875q0 0.40625 -0.0625 0.65625q-0.046875 0.234375 -0.171875 0.34375q-0.109375 0.109375 -0.34375 0.21875q-0.21875 0.09375 -0.515625 0.15625q-0.28125 0.0625 -0.609375 0.09375q-0.328125 0.046875 -0.65625 0.046875q-0.984375 0 -1.703125 -0.25q-0.703125 -0.265625 -1.15625 -0.796875q-0.453125 -0.53125 -0.65625 -1.34375q-0.203125 -0.8125 -0.203125 -1.921875l0 -7.453125l-1.78125 0q-0.21875 0 -0.34375 -0.21875q-0.125 -0.234375 -0.125 -0.734375q0 -0.28125 0.03125 -0.453125q0.03125 -0.1875 0.09375 -0.3125q0.0625 -0.125 0.140625 -0.171875q0.09375 -0.046875 0.21875 -0.046875l1.765625 0l0 -3.03125q0 -0.09375 0.046875 -0.171875q0.046875 -0.09375 0.1875 -0.15625q0.140625 -0.0625 0.359375 -0.09375q0.234375 -0.03125 0.5625 -0.03125q0.359375 0 0.578125 0.03125q0.234375 0.03125 0.359375 0.09375q0.125 0.0625 0.1875 0.15625q0.0625 0.078125 0.0625 0.171875l0 3.03125l3.265625 0q0.109375 0 0.1875 0.046875q0.09375 0.046875 0.15625 0.171875q0.0625 0.125 0.09375 0.3125q0.03125 0.171875 0.03125 0.453125q0 0.5 -0.140625 0.734375q-0.125 0.21875 -0.328125 0.21875l-3.265625 0l0 7.109375q0 1.328125 0.375 2.0q0.390625 0.671875 1.40625 0.671875q0.328125 0 0.578125 -0.0625q0.25 -0.078125 0.453125 -0.140625q0.203125 -0.078125 0.34375 -0.140625q0.140625 -0.0625 0.25 -0.0625q0.0625 0 0.125 0.046875q0.078125 0.03125 0.109375 0.125q0.03125 0.09375 0.0625 0.265625q0.03125 0.171875 0.03125 0.4375zm12.7925415 0.9375q0 0.171875 -0.109375 0.265625q-0.109375 0.078125 -0.3125 0.109375q-0.203125 0.046875 -0.578125 0.046875q-0.375 0 -0.59375 -0.046875q-0.21875 -0.03125 -0.328125 -0.109375q-0.09375 -0.09375 -0.09375 -0.265625l0 -1.265625q-0.828125 0.890625 -1.859375 1.390625q-1.015625 0.484375 -2.171875 0.484375q-1.0 0 -1.8125 -0.265625q-0.8125 -0.25 -1.390625 -0.75q-0.578125 -0.5 -0.90625 -1.21875q-0.3125 -0.71875 -0.3125 -1.640625q0 -1.078125 0.4375 -1.859375q0.453125 -0.796875 1.265625 -1.328125q0.828125 -0.53125 2.015625 -0.78125q1.1875 -0.265625 2.671875 -0.265625l1.75 0l0 -1.0q0 -0.734375 -0.15625 -1.296875q-0.140625 -0.5625 -0.5 -0.9375q-0.34375 -0.375 -0.90625 -0.5625q-0.546875 -0.203125 -1.34375 -0.203125q-0.859375 0 -1.546875 0.21875q-0.6875 0.203125 -1.21875 0.453125q-0.515625 0.234375 -0.859375 0.453125q-0.34375 0.203125 -0.515625 0.203125q-0.109375 0 -0.203125 -0.0625q-0.078125 -0.0625 -0.140625 -0.171875q-0.0625 -0.109375 -0.09375 -0.28125q-0.03125 -0.1875 -0.03125 -0.390625q0 -0.359375 0.046875 -0.5625q0.0625 -0.203125 0.25 -0.390625q0.1875 -0.1875 0.65625 -0.4375q0.46875 -0.25 1.078125 -0.453125q0.609375 -0.203125 1.328125 -0.328125q0.71875 -0.140625 1.453125 -0.140625q1.375 0 2.34375 0.3125q0.96875 0.3125 1.5625 0.921875q0.59375 0.59375 0.859375 1.484375q0.265625 0.890625 0.265625 2.078125l0 8.59375zm-2.328125 -5.8125l-1.984375 0q-0.96875 0 -1.6875 0.171875q-0.703125 0.15625 -1.171875 0.46875q-0.453125 0.3125 -0.671875 0.765625q-0.21875 0.4375 -0.21875 1.03125q0 0.984375 0.625 1.578125q0.625 0.578125 1.765625 0.578125q0.921875 0 1.703125 -0.46875q0.78125 -0.46875 1.640625 -1.421875l0 -2.703125z" fill-rule="nonzero"></path><path stroke="#000000" stroke-width="1.9192708730697632" stroke-linecap="butt" d="m557.52454 638.46326l55.96405 0" fill-rule="nonzero"></path><path fill="#000000" fill-opacity="0.0" d="m190.83989 566.45667c0 9.219177 0.41732788 13.828125 0.83465576 18.438416c0.41731262 4.6102295 0.8346405 9.221741 0.8346405 18.443481" fill-rule="nonzero"></path><path stroke="#535353" stroke-width="2.0" stroke-linejoin="round" stroke-linecap="butt" d="m190.83989 566.45667c0 9.219177 0.41732788 13.828125 0.83465576 18.438416c0.10432434 1.1525269 0.20866394 2.3051758 0.30647278 3.5299072c0.04890442 0.6123657 0.09616089 1.2427368 0.14100647 1.9002075c0.022415161 0.32867432 0.044204712 0.66412354 0.06530762 1.0075073l5.950928E-4 0.010192871" fill-rule="evenodd"></path><path fill="#535353" stroke="#535353" stroke-width="2.0" stroke-linecap="butt" d="m188.88564 591.43134l3.5452728 8.984497l3.0592957 -9.161377z" fill-rule="evenodd"></path><path fill="#000000" fill-opacity="0.0" d="m387.28433 566.45667c0 8.698914 0.01574707 13.047363 0.03149414 17.397766c0.01574707 4.350403 0.03149414 8.702698 0.03149414 17.405396" fill-rule="nonzero"></path><path stroke="#535353" stroke-width="2.0" stroke-linejoin="round" stroke-linecap="butt" d="m387.28433 566.45667c0 8.698914 0.01574707 13.047424 0.03149414 17.397766l0.016571045 5.4053955" fill-rule="evenodd"></path><path fill="#535353" stroke="#535353" stroke-width="2.0" stroke-linecap="butt" d="m384.0289 589.264l3.3147888 9.0720825l3.2921448 -9.080322z" fill-rule="evenodd"></path><path fill="#000000" fill-opacity="0.0" d="m585.50653 566.45667c0 8.698914 0.015808105 13.047363 0.031555176 17.397766c0.01574707 4.350403 0.03149414 8.702698 0.03149414 17.405396" fill-rule="nonzero"></path><path stroke="#535353" stroke-width="2.0" stroke-linejoin="round" stroke-linecap="butt" d="m585.5066 566.45667c0 8.698914 0.01574707 13.047424 0.03149414 17.397766l0.016540527 5.4053955" fill-rule="evenodd"></path><path fill="#535353" stroke="#535353" stroke-width="2.0" stroke-linecap="butt" d="m582.25116 589.264l3.3147583 9.0720825l3.2921753 -9.080322z" fill-rule="evenodd"></path><path fill="#ffffff" d="m631.45667 374.8504l178.64569 0l0 43.8425l-178.64569 0z" fill-rule="nonzero"></path><path stroke="#535353" stroke-width="2.0" stroke-linejoin="round" stroke-linecap="butt" d="m631.45667 374.8504l178.64569 0l0 43.8425l-178.64569 0z" fill-rule="nonzero"></path><path fill="#000000" d="m700.98944 404.8379q0 0.234375 -0.015625 0.40625q-0.015625 0.15625 -0.046875 0.296875q-0.03125 0.125 -0.09375 0.21875q-0.0625 0.09375 -0.203125 0.25q-0.140625 0.140625 -0.59375 0.4375q-0.453125 0.28125 -1.125 0.5625q-0.671875 0.265625 -1.546875 0.453125q-0.859375 0.203125 -1.90625 0.203125q-1.78125 0 -3.21875 -0.59375q-1.4375 -0.609375 -2.453125 -1.765625q-1.0 -1.15625 -1.546875 -2.859375q-0.546875 -1.71875 -0.546875 -3.9375q0 -2.28125 0.578125 -4.0625q0.59375 -1.78125 1.65625 -3.015625q1.0625 -1.25 2.53125 -1.890625q1.484375 -0.65625 3.296875 -0.65625q0.78125 0 1.53125 0.15625q0.75 0.140625 1.390625 0.375q0.640625 0.21875 1.125 0.515625q0.5 0.296875 0.6875 0.484375q0.203125 0.1875 0.25 0.296875q0.0625 0.09375 0.09375 0.234375q0.046875 0.125 0.0625 0.3125q0.015625 0.1875 0.015625 0.4375q0 0.28125 -0.03125 0.484375q-0.015625 0.203125 -0.078125 0.34375q-0.0625 0.125 -0.140625 0.1875q-0.0625 0.0625 -0.1875 0.0625q-0.1875 0 -0.546875 -0.265625q-0.359375 -0.28125 -0.921875 -0.609375q-0.546875 -0.34375 -1.359375 -0.609375q-0.796875 -0.28125 -1.90625 -0.28125q-1.21875 0 -2.21875 0.484375q-1.0 0.484375 -1.71875 1.4375q-0.703125 0.953125 -1.09375 2.328125q-0.390625 1.359375 -0.390625 3.109375q0 1.734375 0.375 3.078125q0.390625 1.34375 1.078125 2.25q0.703125 0.890625 1.71875 1.359375q1.03125 0.453125 2.3125 0.453125q1.09375 0 1.90625 -0.265625q0.8125 -0.28125 1.390625 -0.609375q0.578125 -0.328125 0.9375 -0.59375q0.375 -0.28125 0.578125 -0.28125q0.109375 0 0.171875 0.046875q0.078125 0.046875 0.109375 0.171875q0.046875 0.109375 0.0625 0.328125q0.03125 0.203125 0.03125 0.53125zm5.4659424 2.234375q0 0.125 -0.0625 0.203125q-0.046875 0.078125 -0.171875 0.140625q-0.125 0.046875 -0.359375 0.0625q-0.21875 0.03125 -0.578125 0.03125q-0.34375 0 -0.578125 -0.03125q-0.21875 -0.015625 -0.359375 -0.0625q-0.125 -0.0625 -0.171875 -0.140625q-0.046875 -0.078125 -0.046875 -0.203125l0 -18.90625q0 -0.125 0.046875 -0.203125q0.046875 -0.09375 0.171875 -0.140625q0.140625 -0.0625 0.359375 -0.078125q0.234375 -0.03125 0.578125 -0.03125q0.359375 0 0.578125 0.03125q0.234375 0.015625 0.359375 0.078125q0.125 0.046875 0.171875 0.140625q0.0625 0.078125 0.0625 0.203125l0 18.90625zm6.730591 0q0 0.125 -0.0625 0.203125q-0.046875 0.078125 -0.171875 0.140625q-0.125 0.046875 -0.359375 0.0625q-0.21875 0.03125 -0.578125 0.03125q-0.34375 0 -0.578125 -0.03125q-0.21875 -0.015625 -0.359375 -0.0625q-0.125 -0.0625 -0.171875 -0.140625q-0.046875 -0.078125 -0.046875 -0.203125l0 -12.734375q0 -0.109375 0.046875 -0.1875q0.046875 -0.09375 0.171875 -0.140625q0.140625 -0.0625 0.359375 -0.078125q0.234375 -0.03125 0.578125 -0.03125q0.359375 0 0.578125 0.03125q0.234375 0.015625 0.359375 0.078125q0.125 0.046875 0.171875 0.140625q0.0625 0.078125 0.0625 0.1875l0 12.734375zm0.265625 -17.046875q0 0.828125 -0.3125 1.125q-0.296875 0.296875 -1.140625 0.296875q-0.8125 0 -1.125 -0.28125q-0.296875 -0.296875 -0.296875 -1.109375q0 -0.828125 0.296875 -1.125q0.3125 -0.296875 1.15625 -0.296875q0.8125 0 1.109375 0.296875q0.3125 0.296875 0.3125 1.09375zm15.011841 10.125q0 0.5625 -0.28125 0.796875q-0.28125 0.21875 -0.625 0.21875l-8.359375 0q0 1.0625 0.203125 1.921875q0.21875 0.84375 0.71875 1.453125q0.5 0.609375 1.28125 0.9375q0.796875 0.328125 1.953125 0.328125q0.90625 0 1.609375 -0.140625q0.703125 -0.15625 1.21875 -0.34375q0.515625 -0.1875 0.84375 -0.328125q0.34375 -0.15625 0.515625 -0.15625q0.09375 0 0.171875 0.046875q0.078125 0.046875 0.125 0.15625q0.046875 0.09375 0.0625 0.28125q0.015625 0.171875 0.015625 0.421875q0 0.1875 -0.015625 0.328125q-0.015625 0.125 -0.03125 0.234375q-0.015625 0.109375 -0.078125 0.203125q-0.046875 0.078125 -0.125 0.15625q-0.078125 0.078125 -0.46875 0.25q-0.375 0.171875 -0.984375 0.34375q-0.59375 0.171875 -1.40625 0.296875q-0.796875 0.140625 -1.703125 0.140625q-1.5625 0 -2.75 -0.4375q-1.1875 -0.4375 -2.0 -1.296875q-0.796875 -0.875 -1.21875 -2.171875q-0.40625 -1.296875 -0.40625 -3.03125q0 -1.640625 0.421875 -2.953125q0.4375 -1.3125 1.234375 -2.21875q0.796875 -0.921875 1.921875 -1.40625q1.140625 -0.484375 2.546875 -0.484375q1.5 0 2.546875 0.484375q1.0625 0.484375 1.734375 1.296875q0.6875 0.8125 1.0 1.90625q0.328125 1.09375 0.328125 2.34375l0 0.421875zm-2.359375 -0.6875q0.046875 -1.84375 -0.8125 -2.890625q-0.859375 -1.046875 -2.546875 -1.046875q-0.859375 0 -1.515625 0.328125q-0.640625 0.328125 -1.078125 0.859375q-0.4375 0.53125 -0.6875 1.25q-0.234375 0.71875 -0.265625 1.5l6.90625 0zm17.045593 7.609375q0 0.125 -0.0625 0.203125q-0.046875 0.078125 -0.1875 0.140625q-0.125 0.046875 -0.359375 0.0625q-0.21875 0.03125 -0.546875 0.03125q-0.359375 0 -0.59375 -0.03125q-0.21875 -0.015625 -0.34375 -0.0625q-0.125 -0.0625 -0.1875 -0.140625q-0.0625 -0.078125 -0.0625 -0.203125l0 -7.453125q0 -1.09375 -0.171875 -1.75q-0.15625 -0.671875 -0.484375 -1.15625q-0.328125 -0.484375 -0.84375 -0.734375q-0.515625 -0.25 -1.203125 -0.25q-0.875 0 -1.75 0.625q-0.875 0.609375 -1.84375 1.8125l0 8.90625q0 0.125 -0.0625 0.203125q-0.046875 0.078125 -0.171875 0.140625q-0.125 0.046875 -0.359375 0.0625q-0.21875 0.03125 -0.578125 0.03125q-0.34375 0 -0.578125 -0.03125q-0.21875 -0.015625 -0.359375 -0.0625q-0.125 -0.0625 -0.171875 -0.140625q-0.046875 -0.078125 -0.046875 -0.203125l0 -12.734375q0 -0.125 0.03125 -0.203125q0.046875 -0.078125 0.171875 -0.140625q0.125 -0.0625 0.328125 -0.078125q0.203125 -0.015625 0.53125 -0.015625q0.3125 0 0.515625 0.015625q0.203125 0.015625 0.3125 0.078125q0.109375 0.0625 0.15625 0.140625q0.0625 0.078125 0.0625 0.203125l0 1.6875q1.078125 -1.203125 2.140625 -1.765625q1.0625 -0.5625 2.15625 -0.5625q1.28125 0 2.140625 0.4375q0.875 0.421875 1.40625 1.15625q0.546875 0.71875 0.78125 1.6875q0.234375 0.96875 0.234375 2.328125l0 7.765625zm11.064941 -0.921875q0 0.40625 -0.0625 0.65625q-0.046875 0.234375 -0.171875 0.34375q-0.109375 0.109375 -0.34375 0.21875q-0.21875 0.09375 -0.515625 0.15625q-0.28125 0.0625 -0.609375 0.09375q-0.328125 0.046875 -0.65625 0.046875q-0.984375 0 -1.703125 -0.25q-0.703125 -0.265625 -1.15625 -0.796875q-0.453125 -0.53125 -0.65625 -1.34375q-0.203125 -0.8125 -0.203125 -1.921875l0 -7.453125l-1.78125 0q-0.21875 0 -0.34375 -0.21875q-0.125 -0.234375 -0.125 -0.734375q0 -0.28125 0.03125 -0.453125q0.03125 -0.1875 0.09375 -0.3125q0.0625 -0.125 0.140625 -0.171875q0.09375 -0.046875 0.21875 -0.046875l1.765625 0l0 -3.03125q0 -0.09375 0.046875 -0.171875q0.046875 -0.09375 0.1875 -0.15625q0.140625 -0.0625 0.359375 -0.09375q0.234375 -0.03125 0.5625 -0.03125q0.359375 0 0.578125 0.03125q0.234375 0.03125 0.359375 0.09375q0.125 0.0625 0.1875 0.15625q0.0625 0.078125 0.0625 0.171875l0 3.03125l3.265625 0q0.109375 0 0.1875 0.046875q0.09375 0.046875 0.15625 0.171875q0.0625 0.125 0.09375 0.3125q0.03125 0.171875 0.03125 0.453125q0 0.5 -0.140625 0.734375q-0.125 0.21875 -0.328125 0.21875l-3.265625 0l0 7.109375q0 1.328125 0.375 2.0q0.390625 0.671875 1.40625 0.671875q0.328125 0 0.578125 -0.0625q0.25 -0.078125 0.453125 -0.140625q0.203125 -0.078125 0.34375 -0.140625q0.140625 -0.0625 0.25 -0.0625q0.0625 0 0.125 0.046875q0.078125 0.03125 0.109375 0.125q0.03125 0.09375 0.0625 0.265625q0.03125 0.171875 0.03125 0.4375z" fill-rule="nonzero"></path><path stroke="#000000" stroke-width="1.9192708730697632" stroke-linecap="butt" d="m686.31757 410.75458l68.92395 0" fill-rule="nonzero"></path><path fill="#000000" fill-opacity="0.0" d="m631.45667 396.77167c-195.13382 0 -390.2677 16.456665 -390.2677 32.91336" fill-rule="nonzero"></path><path stroke="#535353" stroke-width="2.0" stroke-linejoin="round" stroke-linecap="butt" d="m631.45667 396.77167c-97.566895 0 -195.13382 4.1141663 -268.30902 10.285431c-36.587616 3.0856323 -67.07727 6.6855164 -88.420044 10.542572c-5.3356934 0.9642334 -10.099701 1.9445801 -14.244385 2.9369507c-2.0723572 0.4961853 -3.9898682 0.99542236 -5.746582 1.4971313c-0.8783722 0.2508545 -1.7165375 0.50234985 -2.5137634 0.75439453c-0.1993103 0.06298828 -0.39605713 0.12606812 -0.5902405 0.18914795l-0.40486145 0.13336182" fill-rule="evenodd"></path><path fill="#535353" stroke="#535353" stroke-width="2.0" stroke-linecap="butt" d="m249.41791 420.34708l-5.7829742 7.7361145l9.402695 -2.2089844z" fill-rule="evenodd"></path><path fill="#ffffff" d="m656.05383 469.63516l178.64563 0l0 46.456696l-178.64563 0z" fill-rule="nonzero"></path><path stroke="#535353" stroke-width="2.0" stroke-linejoin="round" stroke-linecap="butt" d="m656.05383 469.63516l178.64563 0l0 46.456696l-178.64563 0z" fill-rule="nonzero"></path><path fill="#000000" d="m691.34015 502.46103q0 0.28125 -0.03125 0.484375q-0.03125 0.1875 -0.09375 0.328125q-0.0625 0.125 -0.15625 0.1875q-0.09375 0.0625 -0.21875 0.0625l-8.09375 0q-0.328125 0 -0.625 -0.21875q-0.28125 -0.21875 -0.28125 -0.765625l0 -16.96875q0 -0.109375 0.046875 -0.1875q0.0625 -0.09375 0.203125 -0.140625q0.140625 -0.0625 0.375 -0.09375q0.25 -0.03125 0.59375 -0.03125q0.34375 0 0.578125 0.03125q0.234375 0.03125 0.375 0.09375q0.15625 0.046875 0.203125 0.140625q0.0625 0.078125 0.0625 0.1875l0 15.84375l6.5625 0q0.125 0 0.21875 0.0625q0.09375 0.0625 0.15625 0.1875q0.0625 0.125 0.09375 0.328125q0.03125 0.1875 0.03125 0.46875zm4.892395 0.703125q0 0.125 -0.0625 0.203125q-0.046875 0.078125 -0.171875 0.140625q-0.125 0.046875 -0.359375 0.0625q-0.21875 0.03125 -0.578125 0.03125q-0.34375 0 -0.578125 -0.03125q-0.21875 -0.015625 -0.359375 -0.0625q-0.125 -0.0625 -0.171875 -0.140625q-0.046875 -0.078125 -0.046875 -0.203125l0 -12.734375q0 -0.109375 0.046875 -0.1875q0.046875 -0.09375 0.171875 -0.140625q0.140625 -0.0625 0.359375 -0.078125q0.234375 -0.03125 0.578125 -0.03125q0.359375 0 0.578125 0.03125q0.234375 0.015625 0.359375 0.078125q0.125 0.046875 0.171875 0.140625q0.0625 0.078125 0.0625 0.1875l0 12.734375zm0.265625 -17.046875q0 0.828125 -0.3125 1.125q-0.296875 0.296875 -1.140625 0.296875q-0.8125 0 -1.125 -0.28125q-0.296875 -0.296875 -0.296875 -1.109375q0 -0.828125 0.296875 -1.125q0.3125 -0.296875 1.15625 -0.296875q0.8125 0 1.109375 0.296875q0.3125 0.296875 0.3125 1.09375zm12.13678 13.578125q0 0.984375 -0.375 1.75q-0.359375 0.765625 -1.03125 1.296875q-0.65625 0.515625 -1.578125 0.78125q-0.921875 0.265625 -2.015625 0.265625q-0.6875 0 -1.3125 -0.109375q-0.609375 -0.09375 -1.09375 -0.25q-0.484375 -0.171875 -0.828125 -0.34375q-0.34375 -0.1875 -0.5 -0.328125q-0.15625 -0.140625 -0.234375 -0.390625q-0.0625 -0.265625 -0.0625 -0.703125q0 -0.265625 0.03125 -0.453125q0.03125 -0.1875 0.0625 -0.296875q0.046875 -0.109375 0.125 -0.15625q0.078125 -0.046875 0.1875 -0.046875q0.15625 0 0.453125 0.1875q0.3125 0.1875 0.75 0.421875q0.453125 0.21875 1.0625 0.421875q0.609375 0.1875 1.40625 0.1875q0.59375 0 1.0625 -0.125q0.484375 -0.140625 0.84375 -0.375q0.359375 -0.25 0.546875 -0.625q0.1875 -0.390625 0.1875 -0.921875q0 -0.53125 -0.28125 -0.890625q-0.265625 -0.375 -0.71875 -0.65625q-0.453125 -0.296875 -1.03125 -0.515625q-0.5625 -0.21875 -1.171875 -0.453125q-0.59375 -0.25 -1.171875 -0.546875q-0.5625 -0.3125 -1.015625 -0.75q-0.453125 -0.4375 -0.734375 -1.046875q-0.28125 -0.609375 -0.28125 -1.453125q0 -0.75 0.296875 -1.4375q0.296875 -0.6875 0.875 -1.203125q0.578125 -0.515625 1.4375 -0.828125q0.875 -0.3125 2.046875 -0.3125q0.5 0 1.0 0.09375q0.515625 0.078125 0.921875 0.203125q0.421875 0.125 0.703125 0.28125q0.296875 0.140625 0.4375 0.265625q0.15625 0.109375 0.203125 0.203125q0.0625 0.078125 0.078125 0.1875q0.015625 0.09375 0.03125 0.25q0.03125 0.15625 0.03125 0.390625q0 0.234375 -0.03125 0.421875q-0.015625 0.171875 -0.0625 0.28125q-0.046875 0.109375 -0.125 0.15625q-0.0625 0.046875 -0.15625 0.046875q-0.125 0 -0.375 -0.140625q-0.234375 -0.15625 -0.609375 -0.328125q-0.375 -0.1875 -0.90625 -0.34375q-0.515625 -0.15625 -1.171875 -0.15625q-0.59375 0 -1.046875 0.140625q-0.453125 0.125 -0.75 0.375q-0.28125 0.25 -0.4375 0.59375q-0.140625 0.328125 -0.140625 0.734375q0 0.546875 0.28125 0.921875q0.28125 0.375 0.734375 0.65625q0.453125 0.28125 1.03125 0.515625q0.578125 0.21875 1.171875 0.46875q0.609375 0.234375 1.1875 0.53125q0.59375 0.296875 1.046875 0.734375q0.453125 0.421875 0.734375 1.015625q0.28125 0.59375 0.28125 1.40625zm10.095642 2.546875q0 0.40625 -0.0625 0.65625q-0.046875 0.234375 -0.171875 0.34375q-0.109375 0.109375 -0.34375 0.21875q-0.21875 0.09375 -0.515625 0.15625q-0.28125 0.0625 -0.609375 0.09375q-0.328125 0.046875 -0.65625 0.046875q-0.984375 0 -1.703125 -0.25q-0.703125 -0.265625 -1.15625 -0.796875q-0.453125 -0.53125 -0.65625 -1.34375q-0.203125 -0.8125 -0.203125 -1.921875l0 -7.453125l-1.78125 0q-0.21875 0 -0.34375 -0.21875q-0.125 -0.234375 -0.125 -0.734375q0 -0.28125 0.03125 -0.453125q0.03125 -0.1875 0.09375 -0.3125q0.0625 -0.125 0.140625 -0.171875q0.09375 -0.046875 0.21875 -0.046875l1.765625 0l0 -3.03125q0 -0.09375 0.046875 -0.171875q0.046875 -0.09375 0.1875 -0.15625q0.140625 -0.0625 0.359375 -0.09375q0.234375 -0.03125 0.5625 -0.03125q0.359375 0 0.578125 0.03125q0.234375 0.03125 0.359375 0.09375q0.125 0.0625 0.1875 0.15625q0.0625 0.078125 0.0625 0.171875l0 3.03125l3.265625 0q0.109375 0 0.1875 0.046875q0.09375 0.046875 0.15625 0.171875q0.0625 0.125 0.09375 0.3125q0.03125 0.171875 0.03125 0.453125q0 0.5 -0.140625 0.734375q-0.125 0.21875 -0.328125 0.21875l-3.265625 0l0 7.109375q0 1.328125 0.375 2.0q0.390625 0.671875 1.40625 0.671875q0.328125 0 0.578125 -0.0625q0.25 -0.078125 0.453125 -0.140625q0.203125 -0.078125 0.34375 -0.140625q0.140625 -0.0625 0.25 -0.0625q0.0625 0 0.125 0.046875q0.078125 0.03125 0.109375 0.125q0.03125 0.09375 0.0625 0.265625q0.03125 0.171875 0.03125 0.4375zm5.9019165 0.90625q0 0.125 -0.0625 0.21875q-0.046875 0.078125 -0.203125 0.125q-0.140625 0.046875 -0.375 0.078125q-0.234375 0.03125 -0.578125 0.03125q-0.34375 0 -0.59375 -0.03125q-0.234375 -0.03125 -0.375 -0.078125q-0.140625 -0.046875 -0.203125 -0.125q-0.046875 -0.09375 -0.046875 -0.21875l0 -17.578125q0 -0.109375 0.0625 -0.1875q0.0625 -0.09375 0.203125 -0.140625q0.15625 -0.0625 0.390625 -0.09375q0.234375 -0.03125 0.5625 -0.03125q0.34375 0 0.578125 0.03125q0.234375 0.03125 0.375 0.09375q0.15625 0.046875 0.203125 0.140625q0.0625 0.078125 0.0625 0.1875l0 17.578125zm11.311157 -0.90625q0 0.40625 -0.0625 0.65625q-0.046875 0.234375 -0.171875 0.34375q-0.109375 0.109375 -0.34375 0.21875q-0.21875 0.09375 -0.515625 0.15625q-0.28125 0.0625 -0.609375 0.09375q-0.328125 0.046875 -0.65625 0.046875q-0.984375 0 -1.703125 -0.25q-0.703125 -0.265625 -1.15625 -0.796875q-0.453125 -0.53125 -0.65625 -1.34375q-0.203125 -0.8125 -0.203125 -1.921875l0 -7.453125l-1.78125 0q-0.21875 0 -0.34375 -0.21875q-0.125 -0.234375 -0.125 -0.734375q0 -0.28125 0.03125 -0.453125q0.03125 -0.1875 0.09375 -0.3125q0.0625 -0.125 0.140625 -0.171875q0.09375 -0.046875 0.21875 -0.046875l1.765625 0l0 -3.03125q0 -0.09375 0.046875 -0.171875q0.046875 -0.09375 0.1875 -0.15625q0.140625 -0.0625 0.359375 -0.09375q0.234375 -0.03125 0.5625 -0.03125q0.359375 0 0.578125 0.03125q0.234375 0.03125 0.359375 0.09375q0.125 0.0625 0.1875 0.15625q0.0625 0.078125 0.0625 0.171875l0 3.03125l3.265625 0q0.109375 0 0.1875 0.046875q0.09375 0.046875 0.15625 0.171875q0.0625 0.125 0.09375 0.3125q0.03125 0.171875 0.03125 0.453125q0 0.5 -0.140625 0.734375q-0.125 0.21875 -0.328125 0.21875l-3.265625 0l0 7.109375q0 1.328125 0.375 2.0q0.390625 0.671875 1.40625 0.671875q0.328125 0 0.578125 -0.0625q0.25 -0.078125 0.453125 -0.140625q0.203125 -0.078125 0.34375 -0.140625q0.140625 -0.0625 0.25 -0.0625q0.0625 0 0.125 0.046875q0.078125 0.03125 0.109375 0.125q0.03125 0.09375 0.0625 0.265625q0.03125 0.171875 0.03125 0.4375zm14.0737915 -6.0q0 0.5625 -0.28125 0.796875q-0.28125 0.21875 -0.625 0.21875l-8.359375 0q0 1.0625 0.203125 1.921875q0.21875 0.84375 0.71875 1.453125q0.5 0.609375 1.28125 0.9375q0.796875 0.328125 1.953125 0.328125q0.90625 0 1.609375 -0.140625q0.703125 -0.15625 1.21875 -0.34375q0.515625 -0.1875 0.84375 -0.328125q0.34375 -0.15625 0.515625 -0.15625q0.09375 0 0.171875 0.046875q0.078125 0.046875 0.125 0.15625q0.046875 0.09375 0.0625 0.28125q0.015625 0.171875 0.015625 0.421875q0 0.1875 -0.015625 0.328125q-0.015625 0.125 -0.03125 0.234375q-0.015625 0.109375 -0.078125 0.203125q-0.046875 0.078125 -0.125 0.15625q-0.078125 0.078125 -0.46875 0.25q-0.375 0.171875 -0.984375 0.34375q-0.59375 0.171875 -1.40625 0.296875q-0.796875 0.140625 -1.703125 0.140625q-1.5625 0 -2.75 -0.4375q-1.1875 -0.4375 -2.0 -1.296875q-0.796875 -0.875 -1.21875 -2.171875q-0.40625 -1.296875 -0.40625 -3.03125q0 -1.640625 0.421875 -2.953125q0.4375 -1.3125 1.234375 -2.21875q0.796875 -0.921875 1.921875 -1.40625q1.140625 -0.484375 2.546875 -0.484375q1.5 0 2.546875 0.484375q1.0625 0.484375 1.734375 1.296875q0.6875 0.8125 1.0 1.90625q0.328125 1.09375 0.328125 2.34375l0 0.421875zm-2.359375 -0.6875q0.046875 -1.84375 -0.8125 -2.890625q-0.859375 -1.046875 -2.546875 -1.046875q-0.859375 0 -1.515625 0.328125q-0.640625 0.328125 -1.078125 0.859375q-0.4375 0.53125 -0.6875 1.25q-0.234375 0.71875 -0.265625 1.5l6.90625 0zm13.514343 -4.296875q0 0.3125 -0.015625 0.53125q0 0.203125 -0.046875 0.328125q-0.046875 0.125 -0.109375 0.1875q-0.0625 0.0625 -0.171875 0.0625q-0.125 0 -0.28125 -0.0625q-0.15625 -0.0625 -0.375 -0.125q-0.203125 -0.0625 -0.453125 -0.125q-0.25 -0.0625 -0.546875 -0.0625q-0.359375 0 -0.703125 0.140625q-0.328125 0.140625 -0.71875 0.46875q-0.375 0.328125 -0.78125 0.875q-0.40625 0.53125 -0.90625 1.3125l0 8.375q0 0.125 -0.0625 0.203125q-0.046875 0.078125 -0.171875 0.140625q-0.125 0.046875 -0.359375 0.0625q-0.21875 0.03125 -0.578125 0.03125q-0.34375 0 -0.578125 -0.03125q-0.21875 -0.015625 -0.359375 -0.0625q-0.125 -0.0625 -0.171875 -0.140625q-0.046875 -0.078125 -0.046875 -0.203125l0 -12.734375q0 -0.125 0.03125 -0.203125q0.046875 -0.078125 0.171875 -0.140625q0.125 -0.0625 0.328125 -0.078125q0.203125 -0.015625 0.53125 -0.015625q0.3125 0 0.515625 0.015625q0.203125 0.015625 0.3125 0.078125q0.109375 0.0625 0.15625 0.140625q0.0625 0.078125 0.0625 0.203125l0 1.84375q0.515625 -0.765625 0.96875 -1.234375q0.46875 -0.484375 0.875 -0.75q0.421875 -0.28125 0.8125 -0.390625q0.40625 -0.109375 0.828125 -0.109375q0.171875 0 0.40625 0.03125q0.234375 0.015625 0.484375 0.078125q0.265625 0.046875 0.46875 0.125q0.203125 0.0625 0.28125 0.140625q0.09375 0.0625 0.125 0.125q0.03125 0.0625 0.046875 0.171875q0.015625 0.09375 0.015625 0.28125q0.015625 0.1875 0.015625 0.515625zm12.380981 11.921875q0 0.171875 -0.109375 0.265625q-0.109375 0.078125 -0.3125 0.109375q-0.203125 0.046875 -0.578125 0.046875q-0.375 0 -0.59375 -0.046875q-0.21875 -0.03125 -0.328125 -0.109375q-0.09375 -0.09375 -0.09375 -0.265625l0 -1.265625q-0.828125 0.890625 -1.859375 1.390625q-1.015625 0.484375 -2.171875 0.484375q-1.0 0 -1.8125 -0.265625q-0.8125 -0.25 -1.390625 -0.75q-0.578125 -0.5 -0.90625 -1.21875q-0.3125 -0.71875 -0.3125 -1.640625q0 -1.078125 0.4375 -1.859375q0.453125 -0.796875 1.265625 -1.328125q0.828125 -0.53125 2.015625 -0.78125q1.1875 -0.265625 2.671875 -0.265625l1.75 0l0 -1.0q0 -0.734375 -0.15625 -1.296875q-0.140625 -0.5625 -0.5 -0.9375q-0.34375 -0.375 -0.90625 -0.5625q-0.546875 -0.203125 -1.34375 -0.203125q-0.859375 0 -1.546875 0.21875q-0.6875 0.203125 -1.21875 0.453125q-0.515625 0.234375 -0.859375 0.453125q-0.34375 0.203125 -0.515625 0.203125q-0.109375 0 -0.203125 -0.0625q-0.078125 -0.0625 -0.140625 -0.171875q-0.0625 -0.109375 -0.09375 -0.28125q-0.03125 -0.1875 -0.03125 -0.390625q0 -0.359375 0.046875 -0.5625q0.0625 -0.203125 0.25 -0.390625q0.1875 -0.1875 0.65625 -0.4375q0.46875 -0.25 1.078125 -0.453125q0.609375 -0.203125 1.328125 -0.328125q0.71875 -0.140625 1.453125 -0.140625q1.375 0 2.34375 0.3125q0.96875 0.3125 1.5625 0.921875q0.59375 0.59375 0.859375 1.484375q0.265625 0.890625 0.265625 2.078125l0 8.59375zm-2.328125 -5.8125l-1.984375 0q-0.96875 0 -1.6875 0.171875q-0.703125 0.15625 -1.171875 0.46875q-0.453125 0.3125 -0.671875 0.765625q-0.21875 0.4375 -0.21875 1.03125q0 0.984375 0.625 1.578125q0.625 0.578125 1.765625 0.578125q0.921875 0 1.703125 -0.46875q0.78125 -0.46875 1.640625 -1.421875l0 -2.703125zm13.407715 4.875q0 0.40625 -0.0625 0.65625q-0.046875 0.234375 -0.171875 0.34375q-0.109375 0.109375 -0.34375 0.21875q-0.21875 0.09375 -0.515625 0.15625q-0.28125 0.0625 -0.609375 0.09375q-0.328125 0.046875 -0.65625 0.046875q-0.984375 0 -1.703125 -0.25q-0.703125 -0.265625 -1.15625 -0.796875q-0.453125 -0.53125 -0.65625 -1.34375q-0.203125 -0.8125 -0.203125 -1.921875l0 -7.453125l-1.78125 0q-0.21875 0 -0.34375 -0.21875q-0.125 -0.234375 -0.125 -0.734375q0 -0.28125 0.03125 -0.453125q0.03125 -0.1875 0.09375 -0.3125q0.0625 -0.125 0.140625 -0.171875q0.09375 -0.046875 0.21875 -0.046875l1.765625 0l0 -3.03125q0 -0.09375 0.046875 -0.171875q0.046875 -0.09375 0.1875 -0.15625q0.140625 -0.0625 0.359375 -0.09375q0.234375 -0.03125 0.5625 -0.03125q0.359375 0 0.578125 0.03125q0.234375 0.03125 0.359375 0.09375q0.125 0.0625 0.1875 0.15625q0.0625 0.078125 0.0625 0.171875l0 3.03125l3.265625 0q0.109375 0 0.1875 0.046875q0.09375 0.046875 0.15625 0.171875q0.0625 0.125 0.09375 0.3125q0.03125 0.171875 0.03125 0.453125q0 0.5 -0.140625 0.734375q-0.125 0.21875 -0.328125 0.21875l-3.265625 0l0 7.109375q0 1.328125 0.375 2.0q0.390625 0.671875 1.40625 0.671875q0.328125 0 0.578125 -0.0625q0.25 -0.078125 0.453125 -0.140625q0.203125 -0.078125 0.34375 -0.140625q0.140625 -0.0625 0.25 -0.0625q0.0625 0 0.125 0.046875q0.078125 0.03125 0.109375 0.125q0.03125 0.09375 0.0625 0.265625q0.03125 0.171875 0.03125 0.4375zm15.04248 -5.59375q0 1.5625 -0.40625 2.875q-0.40625 1.3125 -1.234375 2.265625q-0.8125 0.9375 -2.03125 1.46875q-1.21875 0.53125 -2.84375 0.53125q-1.5625 0 -2.734375 -0.46875q-1.171875 -0.46875 -1.953125 -1.359375q-0.765625 -0.890625 -1.15625 -2.15625q-0.375 -1.28125 -0.375 -2.890625q0 -1.5625 0.390625 -2.875q0.40625 -1.3125 1.21875 -2.25q0.8125 -0.953125 2.03125 -1.46875q1.21875 -0.53125 2.859375 -0.53125q1.5625 0 2.734375 0.46875q1.171875 0.46875 1.9375 1.359375q0.78125 0.890625 1.171875 2.171875q0.390625 1.265625 0.390625 2.859375zm-2.453125 0.15625q0 -1.03125 -0.203125 -1.953125q-0.1875 -0.921875 -0.625 -1.609375q-0.4375 -0.6875 -1.1875 -1.09375q-0.75 -0.40625 -1.875 -0.40625q-1.03125 0 -1.78125 0.375q-0.734375 0.359375 -1.21875 1.03125q-0.484375 0.671875 -0.71875 1.59375q-0.234375 0.921875 -0.234375 2.015625q0 1.046875 0.1875 1.96875q0.203125 0.921875 0.640625 1.609375q0.453125 0.6875 1.203125 1.09375q0.75 0.390625 1.875 0.390625q1.015625 0 1.765625 -0.359375q0.75 -0.375 1.234375 -1.03125q0.484375 -0.671875 0.703125 -1.59375q0.234375 -0.921875 0.234375 -2.03125zm13.512878 -5.546875q0 0.3125 -0.015625 0.53125q0 0.203125 -0.046875 0.328125q-0.046875 0.125 -0.109375 0.1875q-0.0625 0.0625 -0.171875 0.0625q-0.125 0 -0.28125 -0.0625q-0.15625 -0.0625 -0.375 -0.125q-0.203125 -0.0625 -0.453125 -0.125q-0.25 -0.0625 -0.546875 -0.0625q-0.359375 0 -0.703125 0.140625q-0.328125 0.140625 -0.71875 0.46875q-0.375 0.328125 -0.78125 0.875q-0.40625 0.53125 -0.90625 1.3125l0 8.375q0 0.125 -0.0625 0.203125q-0.046875 0.078125 -0.171875 0.140625q-0.125 0.046875 -0.359375 0.0625q-0.21875 0.03125 -0.578125 0.03125q-0.34375 0 -0.578125 -0.03125q-0.21875 -0.015625 -0.359375 -0.0625q-0.125 -0.0625 -0.171875 -0.140625q-0.046875 -0.078125 -0.046875 -0.203125l0 -12.734375q0 -0.125 0.03125 -0.203125q0.046875 -0.078125 0.171875 -0.140625q0.125 -0.0625 0.328125 -0.078125q0.203125 -0.015625 0.53125 -0.015625q0.3125 0 0.515625 0.015625q0.203125 0.015625 0.3125 0.078125q0.109375 0.0625 0.15625 0.140625q0.0625 0.078125 0.0625 0.203125l0 1.84375q0.515625 -0.765625 0.96875 -1.234375q0.46875 -0.484375 0.875 -0.75q0.421875 -0.28125 0.8125 -0.390625q0.40625 -0.109375 0.828125 -0.109375q0.171875 0 0.40625 0.03125q0.234375 0.015625 0.484375 0.078125q0.265625 0.046875 0.46875 0.125q0.203125 0.0625 0.28125 0.140625q0.09375 0.0625 0.125 0.125q0.03125 0.0625 0.046875 0.171875q0.015625 0.09375 0.015625 0.28125q0.015625 0.1875 0.015625 0.515625z" fill-rule="nonzero"></path><path stroke="#000000" stroke-width="1.9192708730697632" stroke-linecap="butt" d="m679.40265 506.84644l131.948 0" fill-rule="nonzero"></path><path fill="#000000" fill-opacity="0.0" d="m720.77954 418.6929c0 12.735596 6.149597 19.105072 12.299194 25.471191c6.149597 6.36615 12.299194 12.728973 12.299194 25.457947" fill-rule="nonzero"></path><path stroke="#980000" stroke-width="2.0" stroke-linejoin="round" stroke-linecap="butt" d="m720.77954 418.6929c0 12.735626 6.149597 19.105042 12.299194 25.471191c3.074829 3.183075 6.149597 6.365326 8.455688 10.342926c0.5765381 0.99438477 1.1050415 2.0385132 1.5734253 3.1447754l0.071777344 0.17333984" fill-rule="evenodd"></path><path fill="#980000" stroke="#980000" stroke-width="2.0" stroke-linecap="butt" d="m739.932 458.43033l4.9103394 8.317383l1.5847778 -9.527771z" fill-rule="evenodd"></path><path fill="#000000" fill-opacity="0.0" d="m656.05383 492.86353c-134.37799 0 -268.75592 13.574799 -268.75592 27.149597" fill-rule="nonzero"></path><path stroke="#535353" stroke-width="2.0" stroke-linejoin="round" stroke-linecap="butt" d="m656.05383 492.86353c-67.189026 0 -134.37799 3.3937073 -184.76971 8.484253c-25.195862 2.5452576 -46.192413 5.51474 -60.890015 8.69635c-3.6743774 0.79541016 -6.955078 1.6040344 -9.809326 2.4226685c-0.713562 0.20465088 -1.4004211 0.4099121 -2.0601807 0.6157837c-0.3298645 0.10284424 -0.6529236 0.20593262 -0.9691467 0.30914307l-0.20477295 0.06842041" fill-rule="evenodd"></path><path fill="#535353" stroke="#535353" stroke-width="2.0" stroke-linecap="butt" d="m395.5467 510.69272l-5.7994385 7.7237854l9.407379 -2.1889648z" fill-rule="evenodd"></path><path fill="#000000" fill-opacity="0.0" d="m743.5704 398.38718l21.039368 28.0l-41.984253 31.559052l-21.039368 -28.0z" fill-rule="nonzero"></path><path fill="#980000" d="m750.4683 443.55536q0.06286621 0.34371948 -0.31188965 0.6253662q-0.37469482 0.28164673 -0.5934448 0.25064087q-5.218445 -0.18222046 -12.592773 -0.11224365q-2.9627686 5.9410095 -4.5220947 9.067871q-0.34368896 0.06286621 -0.7501831 -0.21801758l-0.24975586 0.18777466q-0.34368896 0.06286621 -0.9689331 -0.24902344q-0.3428955 0.8441467 -0.74938965 0.56329346q-0.5313721 -0.1869812 -0.7501221 -0.21798706q-0.62524414 -0.31192017 -0.3762207 -1.2810059q1.0900269 -3.7514343 2.8984375 -7.847351q-7.3114624 0.4136963 -13.310364 1.0135803q-1.4685059 0.12649536 -1.7811279 -0.029449463q-0.5313721 -0.1869812 -0.9696655 -1.030365q-0.5942383 -0.53067017 -0.3133545 -0.93725586q0.15588379 -0.3126831 0.46777344 -0.9380493q0.062072754 -0.43759155 0.43676758 -0.7192688q0.4685669 -0.15673828 1.0620117 -0.40734863l0.3428955 -0.84417725q3.9990234 -0.6603699 16.248169 -0.48526q2.3079834 -4.4714966 5.116333 -8.537201q0.37469482 -0.28164673 1.3435669 -0.03262329q0.65631104 0.09310913 0.5942383 0.5307007q-0.15594482 0.3126831 0.25054932 0.5935669q0.40649414 0.28085327 0.7501221 0.21798706q0.21875 0.031036377 0.40649414 0.2808838q0.15667725 0.46862793 7.324219E-4 0.78131104q-1.029419 1.7511902 -3.1186523 6.2536926q4.749878 0.33895874 9.749634 0.49017334q0.34362793 -0.06286621 0.5313721 0.18695068q0.28155518 0.37475586 0.18847656 1.0311584q-0.09313965 0.6564026 0.25054932 0.5935364q0.31262207 0.15597534 0.5313721 0.1869812q0.43756104 0.062072754 0.31262207 0.15594482q-0.15594482 0.3126831 -0.12414551 0.8752136z" fill-rule="nonzero"></path></g></svg>

