<?xml version="1.0" encoding="UTF-8" standalone="no"?>
<svg
   xmlns:dc="http://purl.org/dc/elements/1.1/"
   xmlns:cc="http://creativecommons.org/ns#"
   xmlns:rdf="http://www.w3.org/1999/02/22-rdf-syntax-ns#"
   xmlns:svg="http://www.w3.org/2000/svg"
   xmlns="http://www.w3.org/2000/svg"
   xmlns:sodipodi="http://sodipodi.sourceforge.net/DTD/sodipodi-0.dtd"
   xmlns:inkscape="http://www.inkscape.org/namespaces/inkscape"
   version="1.1"
   viewBox="0.0 0.0 960.0 720.0"
   fill="none"
   stroke="none"
   stroke-linecap="square"
   stroke-miterlimit="10"
   id="svg2"
   inkscape:version="0.91 r13725"
   sodipodi:docname="ut-modifiers.svg">
  <metadata
     id="metadata61">
    <rdf:RDF>
      <cc:Work
         rdf:about="">
        <dc:format>image/svg+xml</dc:format>
        <dc:type
           rdf:resource="http://purl.org/dc/dcmitype/StillImage" />
      </cc:Work>
    </rdf:RDF>
  </metadata>
  <defs
     id="defs59" />
  <sodipodi:namedview
     pagecolor="#ffffff"
     bordercolor="#666666"
     borderopacity="1"
     objecttolerance="10"
     gridtolerance="10"
     guidetolerance="10"
     inkscape:pageopacity="0"
     inkscape:pageshadow="2"
     inkscape:window-width="640"
     inkscape:window-height="480"
     id="namedview57"
     showgrid="false"
     inkscape:zoom="0.32291667"
     inkscape:cx="480"
     inkscape:cy="360"
     inkscape:window-x="0"
     inkscape:window-y="0"
     inkscape:window-maximized="0"
     inkscape:current-layer="svg2" />
  <clipPath
     id="p.0">
    <path
       d="m0 0l960.0 0l0 720.0l-960.0 0l0 -720.0z"
       clip-rule="nonzero"
       id="path5" />
  </clipPath>
  <path
     style="fill:#000000;fill-opacity:0;fill-rule:nonzero"
     inkscape:connector-curvature="0"
     id="path9"
     d="m 0,0 960,0 0,720 -960,0 z" />
  <path
     style="fill:#f3f3f3;fill-rule:nonzero"
     inkscape:connector-curvature="0"
     id="path11"
     d="m 412.063,217.95932 0,0 c 0,-13.36791 30.41644,-24.20473 67.93701,-24.20473 l 0,0 c 37.52057,0 67.93701,10.83683 67.93701,24.20473 l 0,0 c 0,13.3679 -30.41644,24.20473 -67.93701,24.20473 l 0,0 c -37.52057,0 -67.93701,-10.83683 -67.93701,-24.20473 z" />
  <path
     style="fill-rule:nonzero;stroke:#535353;stroke-width:2;stroke-linecap:butt;stroke-linejoin:round"
     inkscape:connector-curvature="0"
     id="path13"
     d="m 412.063,217.95932 0,0 c 0,-13.36791 30.41644,-24.20473 67.93701,-24.20473 l 0,0 c 37.52057,0 67.93701,10.83683 67.93701,24.20473 l 0,0 c 0,13.3679 -30.41644,24.20473 -67.93701,24.20473 l 0,0 c -37.52057,0 -67.93701,-10.83683 -67.93701,-24.20473 z" />
  <path
     style="fill:#000000;fill-rule:nonzero"
     inkscape:connector-curvature="0"
     id="path15"
     d="m 469.67188,229.30432 q 0,0.1875 -0.125,0.28125 -0.125,0.0937 -0.34375,0.14062 -0.21875,0.0469 -0.64063,0.0469 -0.40625,0 -0.65625,-0.0469 -0.23437,-0.0469 -0.34375,-0.14062 -0.10937,-0.0937 -0.10937,-0.28125 l 0,-1.40625 q -0.92188,0.98437 -2.0625,1.53125 -1.125,0.54687 -2.39063,0.54687 -1.10937,0 -2.01562,-0.29687 -0.89063,-0.28125 -1.53125,-0.82813 -0.625,-0.54687 -0.98438,-1.34375 -0.34375,-0.79687 -0.34375,-1.8125 0,-1.1875 0.48438,-2.0625 0.48437,-0.875 1.39062,-1.45312 0.90625,-0.57813 2.21875,-0.85938 1.3125,-0.29687 2.95313,-0.29687 l 1.9375,0 0,-1.09375 q 0,-0.8125 -0.17188,-1.4375 -0.17187,-0.625 -0.5625,-1.03125 -0.375,-0.42188 -0.98437,-0.625 -0.60938,-0.21875 -1.5,-0.21875 -0.95313,0 -1.71875,0.23437 -0.75,0.21875 -1.32813,0.5 -0.5625,0.26563 -0.95312,0.5 -0.375,0.21875 -0.5625,0.21875 -0.125,0 -0.21875,-0.0625 -0.0937,-0.0625 -0.17188,-0.1875 -0.0625,-0.125 -0.0937,-0.3125 -0.0312,-0.20312 -0.0312,-0.4375 0,-0.39062 0.0469,-0.60937 0.0625,-0.23438 0.26562,-0.4375 0.21875,-0.20313 0.73438,-0.46875 0.51562,-0.28125 1.1875,-0.5 0.67187,-0.23438 1.46875,-0.375 0.79687,-0.15625 1.60937,-0.15625 1.51563,0 2.57813,0.34375 1.0625,0.34375 1.71875,1.01562 0.65625,0.65625 0.95312,1.64063 0.29688,0.98437 0.29688,2.29687 l 0,9.48438 z m -2.5625,-6.42188 -2.20313,0 q -1.0625,0 -1.84375,0.1875 -0.78125,0.17188 -1.29687,0.53125 -0.51563,0.34375 -0.76563,0.84375 -0.23437,0.48438 -0.23437,1.125 0,1.09375 0.6875,1.75 0.70312,0.64063 1.95312,0.64063 1.01563,0 1.875,-0.51563 0.875,-0.51562 1.82813,-1.57812 l 0,-2.98438 z m 19.40625,6.40625 q 0,0.125 -0.0625,0.21875 -0.0625,0.0781 -0.20313,0.14063 -0.14062,0.0625 -0.39062,0.0937 -0.25,0.0312 -0.625,0.0312 -0.39063,0 -0.64063,-0.0312 -0.25,-0.0312 -0.39062,-0.0937 -0.14063,-0.0625 -0.20313,-0.14063 -0.0625,-0.0937 -0.0625,-0.21875 l 0,-8.23437 q 0,-1.20313 -0.1875,-1.9375 -0.1875,-0.73438 -0.54687,-1.26563 -0.35938,-0.53125 -0.9375,-0.8125 -0.5625,-0.28125 -1.3125,-0.28125 -0.96875,0 -1.9375,0.6875 -0.96875,0.6875 -2.03125,2.01563 l 0,9.82812 q 0,0.125 -0.0625,0.21875 -0.0625,0.0781 -0.20313,0.14063 -0.14062,0.0625 -0.39062,0.0937 -0.25,0.0312 -0.64063,0.0312 -0.375,0 -0.625,-0.0312 -0.25,-0.0312 -0.40625,-0.0937 -0.14062,-0.0625 -0.20312,-0.14063 -0.0469,-0.0937 -0.0469,-0.21875 l 0,-14.0625 q 0,-0.125 0.0469,-0.20312 0.0469,-0.0937 0.1875,-0.15625 0.14062,-0.0781 0.35937,-0.0937 0.21875,-0.0312 0.57813,-0.0312 0.34375,0 0.5625,0.0312 0.23437,0.0156 0.35937,0.0937 0.125,0.0625 0.17188,0.15625 0.0625,0.0781 0.0625,0.20312 l 0,1.85938 q 1.1875,-1.32813 2.35937,-1.9375 1.1875,-0.625 2.39063,-0.625 1.40625,0 2.35937,0.48437 0.96875,0.46875 1.5625,1.26563 0.59375,0.79687 0.84375,1.875 0.26563,1.0625 0.26563,2.5625 l 0,8.57812 z m 11.10937,0.39063 -1.875,5.17187 q -0.0937,0.25 -0.48437,0.375 -0.375,0.14063 -1.15625,0.14063 -0.40625,0 -0.65625,-0.0469 -0.25,-0.0312 -0.39063,-0.125 -0.125,-0.0937 -0.14062,-0.25 -0.0156,-0.15625 0.0781,-0.375 l 1.9375,-4.89062 q -0.14062,-0.0625 -0.26562,-0.20313 -0.125,-0.14062 -0.17188,-0.29687 l -5.01562,-13.4375 q -0.125,-0.32813 -0.125,-0.51563 0,-0.1875 0.125,-0.29687 0.125,-0.10938 0.40625,-0.14063 0.28125,-0.0469 0.75,-0.0469 0.46875,0 0.73437,0.0312 0.26563,0.0156 0.42188,0.0781 0.15625,0.0625 0.21875,0.1875 0.0781,0.10938 0.15625,0.3125 l 4.01562,11.28125 0.0469,0 3.875,-11.34375 q 0.0937,-0.29687 0.21875,-0.375 0.14062,-0.0937 0.40625,-0.125 0.26562,-0.0469 0.76562,-0.0469 0.4375,0 0.71875,0.0469 0.28125,0.0312 0.40625,0.14063 0.14063,0.10937 0.14063,0.29687 0,0.1875 -0.0937,0.46875 l -5.04688,13.98438 z" />
  <path
     style="fill:#d9d9d9;fill-rule:nonzero"
     inkscape:connector-curvature="0"
     id="path17"
     d="m 412.063,295.2834 0,0 c 0,-13.36789 30.41644,-24.20474 67.93701,-24.20474 l 0,0 c 37.52057,0 67.93701,10.83685 67.93701,24.20474 l 0,0 c 0,13.36789 -30.41644,24.20471 -67.93701,24.20471 l 0,0 c -37.52057,0 -67.93701,-10.83682 -67.93701,-24.20471 z" />
  <path
     style="fill-rule:nonzero;stroke:#535353;stroke-width:2;stroke-linecap:butt;stroke-linejoin:round"
     inkscape:connector-curvature="0"
     id="path19"
     d="m 412.063,295.2834 0,0 c 0,-13.36789 30.41644,-24.20474 67.93701,-24.20474 l 0,0 c 37.52057,0 67.93701,10.83685 67.93701,24.20474 l 0,0 c 0,13.36789 -30.41644,24.20471 -67.93701,24.20471 l 0,0 c -37.52057,0 -67.93701,-10.83682 -67.93701,-24.20471 z" />
  <path
     style="fill:#000000;fill-rule:nonzero"
     inkscape:connector-curvature="0"
     id="path21"
     d="m 460.125,306.61276 q -0.0312,0.125 -0.10938,0.21875 -0.0781,0.0781 -0.23437,0.14062 -0.15625,0.0625 -0.42188,0.0937 -0.25,0.0312 -0.625,0.0312 -0.39062,0 -0.64062,-0.0312 -0.23438,-0.0312 -0.375,-0.0937 -0.125,-0.0625 -0.17188,-0.14062 -0.0312,-0.0937 0,-0.21875 l 4.15625,-20.875 q 0.0312,-0.125 0.0937,-0.21875 0.0781,-0.0937 0.23438,-0.15625 0.17187,-0.0625 0.42187,-0.0937 0.26563,-0.0312 0.65625,-0.0312 0.375,0 0.60938,0.0312 0.25,0.0312 0.375,0.0937 0.14062,0.0625 0.17187,0.15625 0.0312,0.0937 0.0156,0.21875 l -4.15625,20.875 z m 19.01562,-9.40625 q 0,1.15625 -0.21875,2.35937 -0.21875,1.20313 -0.67187,2.32813 -0.4375,1.10937 -1.125,2.09375 -0.6875,0.98437 -1.625,1.71875 -0.92188,0.73437 -2.10938,1.17187 -1.17187,0.42188 -2.625,0.42188 -1.5,0 -2.57812,-0.35938 -1.0625,-0.35937 -1.75,-1.04687 -0.6875,-0.6875 -1.01563,-1.6875 -0.32812,-1 -0.32812,-2.26563 0,-1.15625 0.20312,-2.35937 0.21875,-1.20313 0.67188,-2.3125 0.45312,-1.10938 1.125,-2.09375 0.6875,-1 1.60937,-1.73438 0.9375,-0.73437 2.10938,-1.15625 1.1875,-0.4375 2.64062,-0.4375 1.5,0 2.5625,0.375 1.07813,0.35938 1.76563,1.04688 0.70312,0.6875 1.03125,1.6875 0.32812,1 0.32812,2.25 z m -2.71875,0.15625 q 0,-0.78125 -0.17187,-1.40625 -0.15625,-0.625 -0.54688,-1.04688 -0.375,-0.4375 -1,-0.67187 -0.60937,-0.23438 -1.48437,-0.23438 -0.9375,0 -1.70313,0.34375 -0.76562,0.32813 -1.375,0.90625 -0.59375,0.5625 -1.04687,1.32813 -0.4375,0.76562 -0.73438,1.64062 -0.28125,0.85938 -0.42187,1.78125 -0.14063,0.90625 -0.14063,1.78125 0,0.78125 0.17188,1.40625 0.17187,0.625 0.54687,1.0625 0.39063,0.4375 1,0.67188 0.60938,0.23437 1.48438,0.23437 0.95312,0 1.70312,-0.32812 0.76563,-0.34375 1.35938,-0.92188 0.60937,-0.57812 1.04687,-1.34375 0.45313,-0.76562 0.73438,-1.64062 0.29687,-0.875 0.4375,-1.78125 0.14062,-0.90625 0.14062,-1.78125 z m 15.54688,-4.04688 q 0,0.15625 -0.0469,0.42188 -0.0469,0.25 -0.14062,0.5 -0.0781,0.25 -0.20313,0.42187 -0.10937,0.17188 -0.25,0.17188 -0.1875,0 -0.45312,-0.14063 -0.25,-0.15625 -0.625,-0.34375 -0.375,-0.1875 -0.90625,-0.34375 -0.51563,-0.15625 -1.23438,-0.15625 -0.6875,0 -1.21875,0.20313 -0.53125,0.1875 -0.89062,0.53125 -0.35938,0.32812 -0.54688,0.76562 -0.1875,0.42188 -0.1875,0.89063 0,0.625 0.40625,1.04687 0.42188,0.40625 1.04688,0.73438 0.625,0.32812 1.34375,0.65625 0.73437,0.3125 1.34375,0.78125 0.625,0.45312 1.03125,1.10937 0.42187,0.64063 0.42187,1.625 0,1.09375 -0.4375,2.04688 -0.42187,0.9375 -1.23437,1.625 -0.79688,0.67187 -1.9375,1.0625 -1.14063,0.375 -2.54688,0.375 -0.73437,0 -1.39062,-0.10938 -0.64063,-0.10937 -1.17188,-0.28125 -0.51562,-0.17187 -0.89062,-0.375 -0.375,-0.21875 -0.57813,-0.40625 -0.125,-0.125 -0.1875,-0.25 -0.0469,-0.14062 -0.0469,-0.32812 0,-0.125 0.0156,-0.29688 0.0156,-0.17187 0.0625,-0.35937 0.0469,-0.1875 0.0937,-0.35938 0.0625,-0.17187 0.14063,-0.3125 0.0781,-0.14062 0.15625,-0.21875 0.0781,-0.0937 0.1875,-0.0937 0.1875,0 0.45312,0.21875 0.26563,0.20313 0.6875,0.45313 0.4375,0.23437 1.07813,0.45312 0.64062,0.20313 1.59375,0.20313 0.85937,0 1.46875,-0.20313 0.625,-0.21875 1.03125,-0.5625 0.40625,-0.35937 0.59375,-0.82812 0.20312,-0.46875 0.20312,-0.98438 0,-0.65625 -0.40625,-1.0625 -0.40625,-0.42187 -1.03125,-0.75 -0.60937,-0.34375 -1.32812,-0.67187 -0.71875,-0.32813 -1.34375,-0.76563 -0.60938,-0.45312 -1.03125,-1.09375 -0.40625,-0.65625 -0.40625,-1.65625 0,-1.03125 0.40625,-1.90625 0.40625,-0.89062 1.14062,-1.53125 0.75,-0.65625 1.78125,-1.01562 1.04688,-0.35938 2.3125,-0.35938 0.59375,0 1.14063,0.0937 0.5625,0.0937 1.03125,0.23438 0.46875,0.14062 0.8125,0.3125 0.34375,0.17187 0.51562,0.34375 0.17188,0.15625 0.17188,0.48437 z m 11.85937,-0.60937 q 0,0.14062 -0.0156,0.3125 -0.0156,0.15625 -0.0625,0.32812 -0.0469,0.17188 -0.125,0.34375 -0.0781,0.17188 -0.17188,0.3125 -0.0781,0.125 -0.1875,0.20313 -0.10937,0.0781 -0.25,0.0781 l -3.59375,0 -1.57812,7.84375 q -0.0625,0.32813 -0.10938,0.73438 -0.0469,0.40625 -0.0469,0.67187 0,0.79688 0.32812,1.17188 0.34375,0.35937 1.09375,0.35937 0.42188,0 0.73438,-0.0625 0.3125,-0.0781 0.53125,-0.15625 0.23437,-0.0781 0.40625,-0.14062 0.17187,-0.0781 0.29687,-0.0781 0.125,0 0.1875,0.0937 0.0781,0.0781 0.0781,0.3125 0,0.20313 -0.0469,0.45313 -0.0312,0.23437 -0.0937,0.46875 -0.0625,0.23437 -0.15625,0.42187 -0.0937,0.1875 -0.20312,0.29688 -0.125,0.10937 -0.375,0.21875 -0.25,0.10937 -0.57813,0.1875 -0.32812,0.0937 -0.70312,0.14062 -0.35938,0.0469 -0.71875,0.0469 -0.875,0 -1.51563,-0.1875 -0.64062,-0.1875 -1.07812,-0.57813 -0.4375,-0.40625 -0.65625,-1 -0.20313,-0.60937 -0.20313,-1.45312 0,-0.1875 0.0156,-0.40625 0.0156,-0.23438 0.0469,-0.48438 0.0469,-0.25 0.0781,-0.5 0.0469,-0.25 0.0937,-0.46875 l 1.57812,-7.90625 -1.95312,0 q -0.17188,0 -0.26563,-0.0937 -0.0937,-0.10937 -0.0937,-0.40625 0,-0.21875 0.0469,-0.5 0.0469,-0.29687 0.14062,-0.54687 0.0937,-0.25 0.23438,-0.42188 0.15625,-0.17187 0.35937,-0.17187 l 1.96875,0 0.67188,-3.34375 q 0.0156,-0.10938 0.0937,-0.20313 0.0937,-0.0937 0.25,-0.15625 0.15625,-0.0781 0.40625,-0.10937 0.26562,-0.0312 0.64062,-0.0312 0.375,0 0.60938,0.0312 0.25,0.0312 0.375,0.10937 0.14062,0.0625 0.17187,0.15625 0.0469,0.0937 0.0312,0.20313 l -0.67187,3.34375 3.59375,0 q 0.23437,0 0.3125,0.17187 0.0781,0.17188 0.0781,0.39063 z" />
  <path
     style="fill:#f3f3f3;fill-rule:nonzero"
     inkscape:connector-curvature="0"
     id="path23"
     d="m 282.75854,365.3596 0,0 c 0,-13.36792 30.41641,-24.20474 67.93698,-24.20474 l 0,0 c 37.5206,0 67.93701,10.83682 67.93701,24.20474 l 0,0 c 0,13.36789 -30.41641,24.20471 -67.93701,24.20471 l 0,0 c -37.52057,0 -67.93698,-10.83682 -67.93698,-24.20471 z" />
  <path
     style="fill-rule:nonzero;stroke:#535353;stroke-width:2;stroke-linecap:butt;stroke-linejoin:round"
     inkscape:connector-curvature="0"
     id="path25"
     d="m 282.75854,365.3596 0,0 c 0,-13.36792 30.41641,-24.20474 67.93698,-24.20474 l 0,0 c 37.5206,0 67.93701,10.83682 67.93701,24.20474 l 0,0 c 0,13.36789 -30.41641,24.20471 -67.93701,24.20471 l 0,0 c -37.52057,0 -67.93698,-10.83682 -67.93698,-24.20471 z" />
  <path
     style="fill:#000000;fill-rule:nonzero"
     inkscape:connector-curvature="0"
     id="path27"
     d="m 336.1174,369.43896 q 0,1.84375 -0.40625,3.3125 -0.39063,1.46875 -1.17188,2.5 -0.76562,1.01562 -1.90625,1.57812 -1.14062,0.54688 -2.60937,0.54688 -0.625,0 -1.15625,-0.125 -0.53125,-0.125 -1.04688,-0.39063 -0.5,-0.26562 -1,-0.67187 -0.5,-0.40625 -1.0625,-0.95313 l 0,7.03125 q 0,0.125 -0.0625,0.21875 -0.0625,0.0937 -0.20312,0.15625 -0.14063,0.0625 -0.39063,0.0937 -0.25,0.0312 -0.64062,0.0312 -0.375,0 -0.625,-0.0312 -0.25,-0.0312 -0.40625,-0.0937 -0.14063,-0.0625 -0.20313,-0.15625 -0.0469,-0.0937 -0.0469,-0.21875 l 0,-19.64062 q 0,-0.14063 0.0469,-0.21875 0.0469,-0.0937 0.1875,-0.15625 0.14063,-0.0625 0.35938,-0.0781 0.21875,-0.0312 0.53125,-0.0312 0.32812,0 0.53125,0.0312 0.21875,0.0156 0.35937,0.0781 0.14063,0.0625 0.1875,0.15625 0.0625,0.0781 0.0625,0.21875 l 0,1.89062 q 0.64063,-0.65625 1.23438,-1.14062 0.59375,-0.48438 1.1875,-0.79688 0.60937,-0.32812 1.23437,-0.48437 0.64063,-0.17188 1.34375,-0.17188 1.53125,0 2.60938,0.59375 1.07812,0.59375 1.75,1.625 0.6875,1.03125 1,2.40625 0.3125,1.35938 0.3125,2.89063 z m -2.71875,0.29687 q 0,-1.07812 -0.17188,-2.07812 -0.15625,-1.01563 -0.5625,-1.79688 -0.39062,-0.78125 -1.0625,-1.25 -0.67187,-0.46875 -1.67187,-0.46875 -0.5,0 -0.98438,0.15625 -0.48437,0.14063 -0.98437,0.46875 -0.5,0.3125 -1.04688,0.84375 -0.54687,0.51563 -1.15625,1.28125 l 0,5.59375 q 1.0625,1.29688 2.01563,1.98438 0.95312,0.6875 2,0.6875 0.96875,0 1.65625,-0.46875 0.70312,-0.46875 1.125,-1.25 0.4375,-0.78125 0.64062,-1.75 0.20313,-0.96875 0.20313,-1.95313 z m 18.59375,-0.6875 q 0,0.60938 -0.3125,0.875 -0.29688,0.25 -0.6875,0.25 l -9.21875,0 q 0,1.17188 0.23437,2.10938 0.23438,0.9375 0.78125,1.60937 0.54688,0.67188 1.42188,1.03125 0.875,0.35938 2.14062,0.35938 1,0 1.78125,-0.15625 0.78125,-0.17188 1.34375,-0.375 0.57813,-0.20313 0.9375,-0.35938 0.375,-0.17187 0.5625,-0.17187 0.10938,0 0.1875,0.0625 0.0937,0.0469 0.14063,0.15625 0.0469,0.10937 0.0625,0.3125 0.0312,0.1875 0.0312,0.46875 0,0.20312 -0.0156,0.35937 -0.0156,0.14063 -0.0469,0.26563 -0.0156,0.10937 -0.0781,0.20312 -0.0469,0.0937 -0.14062,0.1875 -0.0781,0.0781 -0.5,0.28125 -0.42188,0.1875 -1.09375,0.375 -0.67188,0.1875 -1.5625,0.32813 -0.875,0.15625 -1.875,0.15625 -1.73438,0 -3.04688,-0.48438 -1.29687,-0.48437 -2.1875,-1.4375 -0.89062,-0.95312 -1.34375,-2.39062 -0.45312,-1.4375 -0.45312,-3.34375 0,-1.8125 0.46875,-3.25 0.46875,-1.45313 1.34375,-2.45313 0.89062,-1.01562 2.14062,-1.54687 1.25,-0.54688 2.79688,-0.54688 1.65625,0 2.8125,0.53125 1.17187,0.53125 1.92187,1.4375 0.75,0.89063 1.09375,2.10938 0.35938,1.20312 0.35938,2.57812 l 0,0.46875 z m -2.59375,-0.76562 q 0.0469,-2.03125 -0.90625,-3.1875 -0.9375,-1.15625 -2.79688,-1.15625 -0.95312,0 -1.67187,0.35937 -0.71875,0.35938 -1.20313,0.95313 -0.48437,0.59375 -0.75,1.39062 -0.26562,0.78125 -0.29687,1.64063 l 7.625,0 z m 18.51562,0.76562 q 0,0.60938 -0.3125,0.875 -0.29687,0.25 -0.6875,0.25 l -9.21875,0 q 0,1.17188 0.23438,2.10938 0.23437,0.9375 0.78125,1.60937 0.54687,0.67188 1.42187,1.03125 0.875,0.35938 2.14063,0.35938 1,0 1.78125,-0.15625 0.78125,-0.17188 1.34375,-0.375 0.57812,-0.20313 0.9375,-0.35938 0.375,-0.17187 0.5625,-0.17187 0.10937,0 0.1875,0.0625 0.0937,0.0469 0.14062,0.15625 0.0469,0.10937 0.0625,0.3125 0.0312,0.1875 0.0312,0.46875 0,0.20312 -0.0156,0.35937 -0.0156,0.14063 -0.0469,0.26563 -0.0156,0.10937 -0.0781,0.20312 -0.0469,0.0937 -0.14063,0.1875 -0.0781,0.0781 -0.5,0.28125 -0.42187,0.1875 -1.09375,0.375 -0.67187,0.1875 -1.5625,0.32813 -0.875,0.15625 -1.875,0.15625 -1.73437,0 -3.04687,-0.48438 -1.29688,-0.48437 -2.1875,-1.4375 -0.89063,-0.95312 -1.34375,-2.39062 -0.45313,-1.4375 -0.45313,-3.34375 0,-1.8125 0.46875,-3.25 0.46875,-1.45313 1.34375,-2.45313 0.89063,-1.01562 2.14063,-1.54687 1.25,-0.54688 2.79687,-0.54688 1.65625,0 2.8125,0.53125 1.17188,0.53125 1.92188,1.4375 0.75,0.89063 1.09375,2.10938 0.35937,1.20312 0.35937,2.57812 l 0,0.46875 z m -2.59375,-0.76562 q 0.0469,-2.03125 -0.90625,-3.1875 -0.9375,-1.15625 -2.79687,-1.15625 -0.95313,0 -1.67188,0.35937 -0.71875,0.35938 -1.20312,0.95313 -0.48438,0.59375 -0.75,1.39062 -0.26563,0.78125 -0.29688,1.64063 l 7.625,0 z m 14.73438,-4.73438 q 0,0.34375 -0.0156,0.57813 -0.0156,0.23437 -0.0625,0.375 -0.0469,0.125 -0.125,0.20312 -0.0625,0.0625 -0.1875,0.0625 -0.125,0 -0.3125,-0.0625 -0.17187,-0.0781 -0.40625,-0.14062 -0.21875,-0.0781 -0.5,-0.14063 -0.28125,-0.0625 -0.60937,-0.0625 -0.39063,0 -0.76563,0.15625 -0.375,0.15625 -0.79687,0.51563 -0.40625,0.35937 -0.85938,0.95312 -0.45312,0.59375 -1,1.45313 l 0,9.25 q 0,0.125 -0.0625,0.21875 -0.0625,0.0781 -0.20312,0.14062 -0.14063,0.0625 -0.39063,0.0937 -0.25,0.0312 -0.64062,0.0312 -0.375,0 -0.625,-0.0312 -0.25,-0.0312 -0.40625,-0.0937 -0.14063,-0.0625 -0.20313,-0.14062 -0.0469,-0.0937 -0.0469,-0.21875 l 0,-14.0625 q 0,-0.125 0.0469,-0.20313 0.0469,-0.0937 0.1875,-0.15625 0.14063,-0.0781 0.35938,-0.0937 0.21875,-0.0312 0.57812,-0.0312 0.34375,0 0.5625,0.0312 0.23438,0.0156 0.35938,0.0937 0.125,0.0625 0.17187,0.15625 0.0625,0.0781 0.0625,0.20313 l 0,2.04687 q 0.57813,-0.84375 1.07813,-1.375 0.51562,-0.53125 0.96875,-0.82812 0.45312,-0.3125 0.89062,-0.42188 0.45313,-0.125 0.90625,-0.125 0.20313,0 0.45313,0.0312 0.26562,0.0156 0.54687,0.0781 0.28125,0.0625 0.5,0.14062 0.23438,0.0781 0.32813,0.15625 0.0937,0.0781 0.125,0.15625 0.0312,0.0625 0.0469,0.17188 0.0312,0.10937 0.0312,0.32812 0.0156,0.20313 0.0156,0.5625 z" />
  <path
     style="fill:#d9d9d9;fill-rule:nonzero"
     inkscape:connector-curvature="0"
     id="path29"
     d="m 282.7589,438.80847 0,0 c 0,-13.36789 30.41644,-24.20471 67.93701,-24.20471 l 0,0 c 37.52057,0 67.93701,10.83682 67.93701,24.20471 l 0,0 c 0,13.36792 -30.41644,24.20474 -67.93701,24.20474 l 0,0 c -37.52057,0 -67.93701,-10.83682 -67.93701,-24.20474 z" />
  <path
     style="fill-rule:nonzero;stroke:#535353;stroke-width:2;stroke-linecap:butt;stroke-linejoin:round"
     inkscape:connector-curvature="0"
     id="path31"
     d="m 282.7589,438.80847 0,0 c 0,-13.36789 30.41644,-24.20471 67.93701,-24.20471 l 0,0 c 37.52057,0 67.93701,10.83682 67.93701,24.20471 l 0,0 c 0,13.36792 -30.41644,24.20474 -67.93701,24.20474 l 0,0 c -37.52057,0 -67.93701,-10.83682 -67.93701,-24.20474 z" />
  <path
     style="fill:#000000;fill-rule:nonzero"
     inkscape:connector-curvature="0"
     id="path33"
     d="m 339.94592,436.84097 q 0,0.15625 -0.0469,0.42188 -0.0469,0.25 -0.14062,0.5 -0.0781,0.25 -0.20313,0.42187 -0.10937,0.17188 -0.25,0.17188 -0.1875,0 -0.45312,-0.14063 -0.25,-0.15625 -0.625,-0.34375 -0.375,-0.1875 -0.90625,-0.34375 -0.51563,-0.15625 -1.23438,-0.15625 -0.6875,0 -1.21875,0.20313 -0.53125,0.1875 -0.89062,0.53125 -0.35938,0.32812 -0.54688,0.76562 -0.1875,0.42188 -0.1875,0.89063 0,0.625 0.40625,1.04687 0.42188,0.40625 1.04688,0.73438 0.625,0.32812 1.34375,0.65625 0.73437,0.3125 1.34375,0.78125 0.625,0.45312 1.03125,1.10937 0.42187,0.64063 0.42187,1.625 0,1.09375 -0.4375,2.04688 -0.42187,0.9375 -1.23437,1.625 -0.79688,0.67187 -1.9375,1.0625 -1.14063,0.375 -2.54688,0.375 -0.73437,0 -1.39062,-0.10938 -0.64063,-0.10937 -1.17188,-0.28125 -0.51562,-0.17187 -0.89062,-0.375 -0.375,-0.21875 -0.57813,-0.40625 -0.125,-0.125 -0.1875,-0.25 -0.0469,-0.14062 -0.0469,-0.32812 0,-0.125 0.0156,-0.29688 0.0156,-0.17187 0.0625,-0.35937 0.0469,-0.1875 0.0937,-0.35938 0.0625,-0.17187 0.14063,-0.3125 0.0781,-0.14062 0.15625,-0.21875 0.0781,-0.0937 0.1875,-0.0937 0.1875,0 0.45312,0.21875 0.26563,0.20313 0.6875,0.45313 0.4375,0.23437 1.07813,0.45312 0.64062,0.20313 1.59375,0.20313 0.85937,0 1.46875,-0.20313 0.625,-0.21875 1.03125,-0.5625 0.40625,-0.35937 0.59375,-0.82812 0.20312,-0.46875 0.20312,-0.98438 0,-0.65625 -0.40625,-1.0625 -0.40625,-0.42187 -1.03125,-0.75 -0.60937,-0.34375 -1.32812,-0.67187 -0.71875,-0.32813 -1.34375,-0.76563 -0.60938,-0.45312 -1.03125,-1.09375 -0.40625,-0.65625 -0.40625,-1.65625 0,-1.03125 0.40625,-1.90625 0.40625,-0.89062 1.14062,-1.53125 0.75,-0.65625 1.78125,-1.01562 1.04688,-0.35938 2.3125,-0.35938 0.59375,0 1.14063,0.0937 0.5625,0.0937 1.03125,0.23438 0.46875,0.14062 0.8125,0.3125 0.34375,0.17187 0.51562,0.34375 0.17188,0.15625 0.17188,0.48437 z m 15.23437,2.10938 q 0,1.07812 -0.5,1.9375 -0.5,0.85937 -1.5625,1.46875 -1.0625,0.60937 -2.71875,0.9375 -1.65625,0.32812 -3.96875,0.32812 l -1.65625,0 q -0.10937,0.51563 -0.15625,1 -0.0312,0.48438 -0.0312,0.90625 0,1.5625 0.76563,2.39063 0.78125,0.82812 2.51562,0.82812 1,0 1.79688,-0.14062 0.79687,-0.15625 1.375,-0.32813 0.59375,-0.17187 0.96875,-0.3125 0.375,-0.15625 0.51562,-0.15625 0.14063,0 0.20313,0.10938 0.0781,0.0937 0.0781,0.28125 0,0.15625 -0.0312,0.375 -0.0312,0.21875 -0.0937,0.45312 -0.0625,0.21875 -0.17187,0.42188 -0.0937,0.20312 -0.21875,0.34375 -0.1875,0.1875 -0.67188,0.375 -0.46875,0.17187 -1.125,0.32812 -0.65625,0.14063 -1.4375,0.23438 -0.78125,0.0937 -1.5625,0.0937 -1.39062,0 -2.4375,-0.3125 -1.04687,-0.3125 -1.75,-0.95313 -0.6875,-0.65625 -1.03125,-1.625 -0.34375,-0.96875 -0.34375,-2.28125 0,-1.01562 0.1875,-2.17187 0.20313,-1.17188 0.625,-2.3125 0.42188,-1.14063 1.09375,-2.1875 0.67188,-1.04688 1.59375,-1.84375 0.9375,-0.79688 2.15625,-1.28125 1.21875,-0.48438 2.75,-0.48438 1.3125,0 2.21875,0.32813 0.92188,0.32812 1.5,0.84375 0.59375,0.51562 0.85938,1.15625 0.26562,0.625 0.26562,1.25 z m -2.64062,0.23437 q 0,-0.79687 -0.625,-1.28125 -0.625,-0.5 -1.78125,-0.5 -1.01563,0 -1.79688,0.35938 -0.78125,0.34375 -1.39062,0.9375 -0.59375,0.59375 -1.03125,1.39062 -0.42188,0.78125 -0.6875,1.65625 l 1.59375,0 q 1.64062,0 2.73437,-0.20312 1.10938,-0.20313 1.76563,-0.54688 0.67187,-0.35937 0.9375,-0.82812 0.28125,-0.46875 0.28125,-0.98438 z m 7.0625,10.95313 q -0.0312,0.125 -0.10938,0.21875 -0.0781,0.0781 -0.23437,0.14062 -0.15625,0.0625 -0.42188,0.0937 -0.25,0.0312 -0.625,0.0312 -0.39062,0 -0.64062,-0.0312 -0.23438,-0.0312 -0.375,-0.0937 -0.125,-0.0625 -0.17188,-0.14062 -0.0312,-0.0937 0,-0.21875 l 4.15625,-20.875 q 0.0312,-0.125 0.0937,-0.21875 0.0781,-0.0937 0.23438,-0.15625 0.17187,-0.0625 0.42187,-0.0937 0.26563,-0.0312 0.65625,-0.0312 0.375,0 0.60938,0.0312 0.25,0.0312 0.375,0.0937 0.14062,0.0625 0.17187,0.15625 0.0312,0.0937 0.0156,0.21875 l -4.15625,20.875 z m 16.51562,-20.46875 q 0,0.0625 -0.0156,0.20312 -0.0156,0.125 -0.0469,0.29688 -0.0156,0.15625 -0.0625,0.34375 -0.0469,0.17187 -0.10937,0.32812 -0.0625,0.15625 -0.14063,0.25 -0.0781,0.0937 -0.17187,0.0937 -0.10938,0 -0.28125,-0.0625 -0.15625,-0.0625 -0.375,-0.125 -0.21875,-0.0781 -0.51563,-0.14062 -0.29687,-0.0625 -0.65625,-0.0625 -0.67187,0 -1.15625,0.20312 -0.46875,0.20313 -0.8125,0.64063 -0.34375,0.42187 -0.57812,1.07812 -0.23438,0.65625 -0.40625,1.54688 l -0.26563,1.40625 3.14063,0 q 0.17187,0 0.26562,0.125 0.10938,0.10937 0.10938,0.375 0,0.17187 -0.0312,0.35937 -0.0312,0.1875 -0.0781,0.375 -0.0469,0.17188 -0.125,0.34375 -0.0625,0.15625 -0.15625,0.28125 -0.0781,0.125 -0.1875,0.20313 -0.10937,0.0781 -0.21875,0.0781 l -3.15625,0 -2.67187,13.3125 q -0.26563,1.3125 -0.71875,2.26563 -0.45313,0.96875 -1.10938,1.59375 -0.65625,0.64062 -1.51562,0.9375 -0.85938,0.3125 -1.9375,0.3125 -0.70313,0 -1.14063,-0.10938 -0.45312,-0.10937 -0.5625,-0.20312 -0.0625,-0.0781 -0.0937,-0.17188 -0.0312,-0.0937 -0.0312,-0.25 0,-0.0625 0.0312,-0.21875 0.0156,-0.14062 0.0469,-0.3125 0.0312,-0.15625 0.0781,-0.34375 0.0469,-0.17187 0.10938,-0.32812 0.0625,-0.15625 0.14062,-0.25 0.0781,-0.0937 0.1875,-0.0937 0.10938,0 0.21875,0.0156 0.0937,0.0312 0.21875,0.0469 0.10938,0.0312 0.28125,0.0469 0.15625,0.0312 0.40625,0.0312 0.65625,0 1.14063,-0.20312 0.46875,-0.20313 0.79687,-0.64063 0.34375,-0.42187 0.5625,-1.07812 0.23438,-0.65625 0.42188,-1.57813 l 2.5625,-12.78125 -2,0 q -0.15625,0 -0.25,-0.0937 -0.0781,-0.10937 -0.0781,-0.39062 0,-0.125 0.0156,-0.29688 0.0156,-0.1875 0.0469,-0.375 0.0469,-0.1875 0.10938,-0.35937 0.0625,-0.17188 0.15625,-0.3125 0.0937,-0.14063 0.1875,-0.21875 0.10937,-0.0937 0.26562,-0.0937 l 1.96875,0 0.39063,-1.95313 q 0.25,-1.28125 0.71875,-2.23437 0.46875,-0.96875 1.125,-1.59375 0.67187,-0.625 1.53125,-0.92188 0.875,-0.3125 1.92187,-0.3125 0.34375,0 0.71875,0.0469 0.375,0.0312 0.6875,0.10937 0.32813,0.0625 0.5625,0.15625 0.25,0.0937 0.34375,0.1875 0.0937,0.0781 0.14063,0.21875 0.0469,0.14063 0.0469,0.29688 z" />
  <path
     style="fill:#000000;fill-opacity:0;fill-rule:nonzero"
     inkscape:connector-curvature="0"
     id="path35"
     d="m 480,242.16405 c 0,7.22864 0.0158,10.84309 0.0315,14.45726 0.0157,3.61417 0.0315,7.22806 0.0315,14.45612" />
  <path
     style="fill-rule:nonzero;stroke:#535353;stroke-width:2;stroke-linecap:butt;stroke-linejoin:round"
     inkscape:connector-curvature="0"
     id="path37"
     d="m 480,242.16405 c 0,7.22864 0.0158,10.84309 0.0315,14.45726 0.0157,3.61417 0.0315,7.22806 0.0315,14.45612" />
  <path
     style="fill:#000000;fill-opacity:0;fill-rule:nonzero"
     inkscape:connector-curvature="0"
     id="path39"
     d="m 431.96127,312.3987 c 0,8.96133 -20.31494,14.32819 -40.62991,17.9227 -20.31497,3.59448 -40.62992,5.41659 -40.62992,10.83319" />
  <path
     style="fill-rule:nonzero;stroke:#535353;stroke-width:2;stroke-linecap:butt;stroke-linejoin:round"
     inkscape:connector-curvature="0"
     id="path41"
     d="m 431.96127,312.3987 c 0,8.96133 -20.31494,14.32819 -40.62991,17.9227 -20.31497,3.59448 -40.62992,5.41659 -40.62992,10.83319" />
  <path
     style="fill:#000000;fill-opacity:0;fill-rule:nonzero"
     inkscape:connector-curvature="0"
     id="path43"
     d="m 528.0387,312.3987 c 0,8.96133 17.96063,14.32819 35.92126,17.9227 17.96064,3.59448 35.92127,5.41659 35.92127,10.83319" />
  <path
     style="fill-rule:nonzero;stroke:#535353;stroke-width:2;stroke-linecap:butt;stroke-linejoin:round"
     inkscape:connector-curvature="0"
     id="path45"
     d="m 528.0387,312.3987 c 0,8.96133 17.96063,14.32819 35.92126,17.9227 17.96064,3.59448 35.92127,5.41659 35.92127,10.83319" />
  <path
     style="fill:#000000;fill-opacity:0;fill-rule:nonzero"
     inkscape:connector-curvature="0"
     id="path47"
     d="m 350.69553,389.5643 c 0,6.25986 0.0157,9.38977 0.0315,12.51968 0.0158,3.12992 0.0315,6.25986 0.0315,12.51969" />
  <path
     style="fill-rule:nonzero;stroke:#535353;stroke-width:2;stroke-linecap:butt;stroke-linejoin:round"
     inkscape:connector-curvature="0"
     id="path49"
     d="m 350.69553,389.5643 c 0,6.25986 0.0157,9.38977 0.0315,12.51968 0.0158,3.12992 0.0315,6.25986 0.0315,12.51969" />
  <path
     style="fill:#f3f3f3;fill-rule:nonzero"
     inkscape:connector-curvature="0"
     id="path51"
     d="m 531.937,365.3596 0,0 c 0,-13.36792 30.41644,-24.20474 67.93701,-24.20474 l 0,0 c 37.52057,0 67.93701,10.83682 67.93701,24.20474 l 0,0 c 0,13.36789 -30.41644,24.20471 -67.93701,24.20471 l 0,0 c -37.52057,0 -67.93701,-10.83682 -67.93701,-24.20471 z" />
  <path
     style="fill-rule:nonzero;stroke:#535353;stroke-width:2;stroke-linecap:butt;stroke-linejoin:round"
     inkscape:connector-curvature="0"
     id="path53"
     d="m 531.937,365.3596 0,0 c 0,-13.36792 30.41644,-24.20474 67.93701,-24.20474 l 0,0 c 37.52057,0 67.93701,10.83682 67.93701,24.20474 l 0,0 c 0,13.36789 -30.41644,24.20471 -67.93701,24.20471 l 0,0 c -37.52057,0 -67.93701,-10.83682 -67.93701,-24.20471 z" />
  <path
     style="fill:#000000;fill-rule:nonzero"
     inkscape:connector-curvature="0"
     id="path55"
     d="m 588.5381,363.54834 q 0,0.34375 -0.0156,0.57812 -0.0156,0.23438 -0.0625,0.375 -0.0469,0.125 -0.125,0.20313 -0.0625,0.0625 -0.1875,0.0625 -0.125,0 -0.3125,-0.0625 -0.17187,-0.0781 -0.40625,-0.14063 -0.21875,-0.0781 -0.5,-0.14062 -0.28125,-0.0625 -0.60937,-0.0625 -0.39063,0 -0.76563,0.15625 -0.375,0.15625 -0.79687,0.51562 -0.40625,0.35938 -0.85938,0.95313 -0.45312,0.59375 -1,1.45312 l 0,9.25 q 0,0.125 -0.0625,0.21875 -0.0625,0.0781 -0.20312,0.14063 -0.14063,0.0625 -0.39063,0.0937 -0.25,0.0312 -0.64062,0.0312 -0.375,0 -0.625,-0.0312 -0.25,-0.0312 -0.40625,-0.0937 -0.14063,-0.0625 -0.20313,-0.14063 -0.0469,-0.0937 -0.0469,-0.21875 l 0,-14.0625 q 0,-0.125 0.0469,-0.20312 0.0469,-0.0937 0.1875,-0.15625 0.14063,-0.0781 0.35938,-0.0937 0.21875,-0.0312 0.57812,-0.0312 0.34375,0 0.5625,0.0312 0.23438,0.0156 0.35938,0.0937 0.125,0.0625 0.17187,0.15625 0.0625,0.0781 0.0625,0.20312 l 0,2.04688 q 0.57813,-0.84375 1.07813,-1.375 0.51562,-0.53125 0.96875,-0.82813 0.45312,-0.3125 0.89062,-0.42187 0.45313,-0.125 0.90625,-0.125 0.20313,0 0.45313,0.0312 0.26562,0.0156 0.54687,0.0781 0.28125,0.0625 0.5,0.14063 0.23438,0.0781 0.32813,0.15625 0.0937,0.0781 0.125,0.15625 0.0312,0.0625 0.0469,0.17187 0.0312,0.10938 0.0312,0.32813 0.0156,0.20312 0.0156,0.5625 z m 14.9375,5.5 q 0,0.60937 -0.3125,0.875 -0.29688,0.25 -0.6875,0.25 l -9.21875,0 q 0,1.17187 0.23437,2.10937 0.23438,0.9375 0.78125,1.60938 0.54688,0.67187 1.42188,1.03125 0.875,0.35937 2.14062,0.35937 1,0 1.78125,-0.15625 0.78125,-0.17187 1.34375,-0.375 0.57813,-0.20312 0.9375,-0.35937 0.375,-0.17188 0.5625,-0.17188 0.10938,0 0.1875,0.0625 0.0937,0.0469 0.14063,0.15625 0.0469,0.10938 0.0625,0.3125 0.0312,0.1875 0.0312,0.46875 0,0.20313 -0.0156,0.35938 -0.0156,0.14062 -0.0469,0.26562 -0.0156,0.10938 -0.0781,0.20313 -0.0469,0.0937 -0.14062,0.1875 -0.0781,0.0781 -0.5,0.28125 -0.42188,0.1875 -1.09375,0.375 -0.67188,0.1875 -1.5625,0.32812 -0.875,0.15625 -1.875,0.15625 -1.73438,0 -3.04688,-0.48437 -1.29687,-0.48438 -2.1875,-1.4375 -0.89062,-0.95313 -1.34375,-2.39063 -0.45312,-1.4375 -0.45312,-3.34375 0,-1.8125 0.46875,-3.25 0.46875,-1.45312 1.34375,-2.45312 0.89062,-1.01563 2.14062,-1.54688 1.25,-0.54687 2.79688,-0.54687 1.65625,0 2.8125,0.53125 1.17187,0.53125 1.92187,1.4375 0.75,0.89062 1.09375,2.10937 0.35938,1.20313 0.35938,2.57813 l 0,0.46875 z m -2.59375,-0.76563 q 0.0469,-2.03125 -0.90625,-3.1875 -0.9375,-1.15625 -2.79688,-1.15625 -0.95312,0 -1.67187,0.35938 -0.71875,0.35937 -1.20313,0.95312 -0.48437,0.59375 -0.75,1.39063 -0.26562,0.78125 -0.29687,1.64062 l 7.625,0 z m 19.45312,1.15625 q 0,1.84375 -0.40625,3.3125 -0.39062,1.46875 -1.17187,2.5 -0.76563,1.01563 -1.90625,1.57813 -1.14063,0.54687 -2.60938,0.54687 -0.625,0 -1.15625,-0.125 -0.53125,-0.125 -1.04687,-0.39062 -0.5,-0.26563 -1,-0.67188 -0.5,-0.40625 -1.0625,-0.95312 l 0,7.03125 q 0,0.125 -0.0625,0.21875 -0.0625,0.0937 -0.20313,0.15625 -0.14062,0.0625 -0.39062,0.0937 -0.25,0.0312 -0.64063,0.0312 -0.375,0 -0.625,-0.0312 -0.25,-0.0312 -0.40625,-0.0937 -0.14062,-0.0625 -0.20312,-0.15625 -0.0469,-0.0937 -0.0469,-0.21875 l 0,-19.64063 q 0,-0.14062 0.0469,-0.21875 0.0469,-0.0937 0.1875,-0.15625 0.14062,-0.0625 0.35937,-0.0781 0.21875,-0.0312 0.53125,-0.0312 0.32813,0 0.53125,0.0312 0.21875,0.0156 0.35938,0.0781 0.14062,0.0625 0.1875,0.15625 0.0625,0.0781 0.0625,0.21875 l 0,1.89063 q 0.64062,-0.65625 1.23437,-1.14063 0.59375,-0.48437 1.1875,-0.79687 0.60938,-0.32813 1.23438,-0.48438 0.64062,-0.17187 1.34375,-0.17187 1.53125,0 2.60937,0.59375 1.07813,0.59375 1.75,1.625 0.6875,1.03125 1,2.40625 0.3125,1.35937 0.3125,2.89062 z m -2.71875,0.29688 q 0,-1.07813 -0.17187,-2.07813 -0.15625,-1.01562 -0.5625,-1.79687 -0.39063,-0.78125 -1.0625,-1.25 -0.67188,-0.46875 -1.67188,-0.46875 -0.5,0 -0.98437,0.15625 -0.48438,0.14062 -0.98438,0.46875 -0.5,0.3125 -1.04687,0.84375 -0.54688,0.51562 -1.15625,1.28125 l 0,5.59375 q 1.0625,1.29687 2.01562,1.98437 0.95313,0.6875 2,0.6875 0.96875,0 1.65625,-0.46875 0.70313,-0.46875 1.125,-1.25 0.4375,-0.78125 0.64063,-1.75 0.20312,-0.96875 0.20312,-1.95312 z" />
</svg>
